<svg enable-background="new 0 0 33.167 19.542" height="19.542" viewBox="0 0 33.167 19.542" width="33.167" xmlns="http://www.w3.org/2000/svg"><g fill="#8fc3dd"><path d="m5.615.794c-.894 0-.894 1.339 0 1.339s.894-1.339 0-1.339z"/><path d="m23.633 5.113c-.893 0-.893 1.339 0 1.339.893.001.893-1.339 0-1.339z"/><path d="m13.701 7.718c-.894 0-.894 1.34 0 1.34s.894-1.34 0-1.34z"/><path d="m8.776 12.721c-.894 0-.894 1.34 0 1.34.893 0 .893-1.34 0-1.34z"/><path d="m21.583 9.886c-.446 0-.446.671 0 .671s.446-.671 0-.671z"/><path d="m1.953.304c-.446 0-.446.67 0 .67s.446-.67 0-.67z"/><path d="m5.115 6.769c-.446 0-.446.669 0 .669s.447-.669 0-.669z"/><path d="m15.87 1.798c-.446 0-.446.669 0 .669.446.001.446-.669 0-.669z"/><path d="m19.345 2.855c-.446 0-.446.669 0 .669s.446-.669 0-.669z"/><path d="m16.893 4.333c-.446 0-.446.669 0 .669.446.001.446-.669 0-.669z"/><path d="m28.002 6.434c-.445 0-.445.67 0 .67.447 0 .447-.67 0-.67z"/><path d="m27.334 12.051c-.446 0-.446.67 0 .67.445 0 .445-.67 0-.67z"/><path d="m7.587 7.93c-.446 0-.446.67 0 .67s.446-.67 0-.67z"/><path d="m12.821 13.056c-.446 0-.446.671 0 .671s.446-.671 0-.671z"/><path d="m15.2 17.463c-.446 0-.446.669 0 .669s.446-.669 0-.669z"/><path d="m3.083 13.391c-.446 0-.446.67 0 .67.445 0 .445-.67 0-.67z"/><path d="m9.111.794c-.446 0-.446.669 0 .669s.447-.669 0-.669z"/><path d="m10.784 3.19c-.446 0-.446.669 0 .669s.446-.669 0-.669z"/><path d="m25.266 2.468c-.446 0-.446.669 0 .669s.446-.669 0-.669z"/><path d="m6.12 18.408c-.446 0-.446.67 0 .67s.446-.67 0-.67z"/><path d="m2.287 9.058c-.446 0-.446.669 0 .669.445 0 .445-.669 0-.669z"/><path d="m32.689 4.727c-.445 0-.445.669 0 .669.447 0 .447-.669 0-.669z"/><path d="m32.629 13.128c-.445 0-.445.669 0 .669.446 0 .446-.669 0-.669z"/><path d="m24.958 16.454c-.893 0-.893 1.34 0 1.34s.893-1.34 0-1.34z"/><path d="m19.679 14.924c-.446 0-.446.669 0 .669s.446-.669 0-.669z"/><path d="m22.671 13.463c-.446 0-.446.669 0 .669s.446-.669 0-.669z"/><path d="m20.703 17.459c-.446 0-.446.668 0 .668s.446-.668 0-.668z"/><path d="m30.03 15.998c-.445 0-.445.669 0 .669.448 0 .448-.669 0-.669z"/></g><path d="m13.771 4.333c-.615.728-1.729-2.103-4.659-.958-2.069.809-5.748.15-6.635.15" fill="none" stroke="#8fc3dd" stroke-linecap="round"/><path d="m15.87 17.87c-.681-.9-3.896-.663-7.51-1.58-2.745-.697-4.36 2.118-7.347.834" fill="none" stroke="#8fc3dd" stroke-linecap="round" stroke-width=".75"/><path d="m12.143 16.414c.335.334 1.313-.101 2.185-.973.604-.604.999-1.258 1.071-1.715" fill="none" stroke="#8fc3dd" stroke-linecap="round" stroke-width=".5"/><path d="m31.061 10.459c-.68-.9-3.781-1.58-7.51-1.58-3.483 0-6.428.594-7.347 1.408" fill="none" stroke="#8fc3dd" stroke-linecap="round" stroke-width=".75"/><path d="m27.334 9.003c.336.334 1.313-.101 2.186-.973.604-.604.998-1.258 1.07-1.715" fill="none" stroke="#8fc3dd" stroke-linecap="round" stroke-width=".5"/><path d="m23.792 9.771c.604-.605 1.067-1.597 1.139-2.055" fill="none" stroke="#8fc3dd" stroke-linecap="round" stroke-width=".5"/></svg>