<?xml version="1.0" encoding="utf-8"?>
<!-- Generator: Adobe Illustrator 14.0.0, SVG Export Plug-In . SVG Version: 6.00 Build 43363)  -->
<!DOCTYPE svg PUBLIC "-//W3C//DTD SVG 1.1 Tiny//EN" "http://www.w3.org/Graphics/SVG/1.1/DTD/svg11-tiny.dtd">
<svg version="1.1" baseProfile="tiny" id="Vrstva_2"
	 xmlns="http://www.w3.org/2000/svg" xmlns:xlink="http://www.w3.org/1999/xlink" x="0px" y="0px" width="25.229px"
	 height="27.213px" viewBox="0 0 25.229 27.213" xml:space="preserve">
<path fill="#636363" stroke="#636363" stroke-width="0.25" d="M16.893,21.8c0-0.577-0.468-1.045-1.045-1.045
	s-1.045,0.468-1.045,1.045c0,0.01,0.005,0.019,0.006,0.028h-0.006v2.268h2.09v-2.268h-0.006C16.887,21.818,16.893,21.81,16.893,21.8
	z"/>
<path fill="#636363" stroke="#636363" stroke-width="0.25" d="M22.32,15.565c0-0.577-0.468-1.045-1.045-1.045
	s-1.045,0.468-1.045,1.045c0,0.01,0.005,0.019,0.006,0.028H20.23v2.268h2.09v-2.268h-0.006C22.315,15.584,22.32,15.575,22.32,15.565
	z"/>
<path fill="#636363" stroke="#636363" stroke-width="0.25" d="M22.32,3.092c0-0.577-0.468-1.045-1.045-1.045
	S20.23,2.515,20.23,3.092c0,0.01,0.005,0.019,0.006,0.028H20.23v2.268h2.09V3.12h-0.006C22.315,3.11,22.32,3.102,22.32,3.092z"/>
<path fill="#636363" stroke="#636363" stroke-width="0.25" d="M11.185,3.092c0-0.577-0.468-1.045-1.045-1.045
	S9.095,2.515,9.095,3.092c0,0.01,0.005,0.019,0.006,0.028H9.095v2.268h2.09V3.12h-0.006C11.179,3.11,11.185,3.102,11.185,3.092z"/>
<path fill="#636363" stroke="#636363" stroke-width="0.25" d="M16.893,9.329c0-0.577-0.468-1.045-1.045-1.045
	s-1.045,0.468-1.045,1.045c0,0.01,0.005,0.019,0.006,0.028h-0.006v2.268h2.09V9.357h-0.006C16.887,9.348,16.893,9.339,16.893,9.329z
	"/>
<path fill="#636363" stroke="#636363" stroke-width="0.25" d="M4.934,9.329c0-0.577-0.468-1.045-1.045-1.045
	S2.844,8.752,2.844,9.329c0,0.01,0.005,0.019,0.006,0.028H2.844v2.268h2.09V9.357H4.928C4.929,9.348,4.934,9.339,4.934,9.329z"/>
<path fill="#636363" stroke="#636363" stroke-width="0.25" d="M11.185,15.565c0-0.577-0.468-1.045-1.045-1.045
	s-1.045,0.468-1.045,1.045c0,0.01,0.005,0.019,0.006,0.028H9.095v2.268h2.09v-2.268h-0.006
	C11.179,15.584,11.185,15.575,11.185,15.565z"/>
<path fill="#636363" stroke="#636363" stroke-width="0.25" d="M4.934,21.8c0-0.577-0.468-1.045-1.045-1.045S2.844,21.223,2.844,21.8
	c0,0.01,0.005,0.019,0.006,0.028H2.844v2.268h2.09v-2.268H4.928C4.929,21.818,4.934,21.81,4.934,21.8z"/>
</svg>
