<svg enable-background="new 0 0 16 16" height="16" viewBox="0 0 16 16" width="16" xmlns="http://www.w3.org/2000/svg"><g fill="none" stroke="#a5b576" stroke-width=".6"><g transform="translate(-.092524 -1036.1624)"><path d="m8 1040.362v7.5"/><path d="m7.093 1047.662c1.5 0 2-2 2-2.5s-.146-1.146-.5-1.5c-.75-.75-2-.25-2.408-1.2-.315-.736-.028-.951.408-1.3.804-.645 2.908-.05 2.908-.05"/></g><g transform="translate(-8.092524 -1028.1622)"><path d="m8 1040.362v7.5"/><path d="m7.093 1047.662c1.5 0 2-2 2-2.5s-.146-1.146-.5-1.5c-.75-.75-2-.25-2.408-1.199-.315-.736-.028-.951.408-1.301.804-.645 2.908-.05 2.908-.05"/></g><g transform="translate(-8.092524 -1044.1622)"><path d="m8 1040.362v7.5"/><path d="m7.093 1047.662c1.5 0 2-2 2-2.5s-.146-1.146-.5-1.5c-.75-.75-2-.25-2.408-1.2-.315-.735-.028-.951.408-1.3.804-.645 2.908-.05 2.908-.05"/></g><g transform="translate(7.907476 -1044.1622)"><path d="m8.001 1040.362v7.5"/><path d="m7.093 1047.662c1.5 0 2-2 2-2.5s-.146-1.146-.5-1.5c-.75-.75-2-.25-2.408-1.2-.314-.735-.027-.951.408-1.3.805-.645 2.908-.05 2.908-.05"/></g><g transform="translate(7.907476 -1028.1622)"><path d="m8.001 1040.362v7.5"/><path d="m7.093 1047.662c1.5 0 2-2 2-2.5s-.146-1.146-.5-1.5c-.75-.75-2-.25-2.408-1.199-.314-.736-.027-.951.408-1.301.805-.645 2.908-.05 2.908-.05"/></g></g></svg>