<svg enable-background="new 0 0 16 16" height="16" viewBox="0 0 16 16" width="16" xmlns="http://www.w3.org/2000/svg"><g fill="none" stroke="#a5b576" stroke-width=".6944" transform="translate(0 -1036.3622)"><path d="m9.439 1044.362c0 .795-.645 1.439-1.439 1.439-.795 0-1.44-.645-1.44-1.439 0-.795.645-1.44 1.44-1.44s1.439.645 1.439 1.44z"/><path d="m1.44 1036.362c0 .795-.645 1.44-1.44 1.44s-1.44-.645-1.44-1.44.645-1.44 1.44-1.44 1.44.645 1.44 1.44z"/><path d="m17.439 1036.362c0 .795-.645 1.44-1.439 1.44s-1.439-.645-1.439-1.44.645-1.44 1.439-1.44 1.439.645 1.439 1.44z"/><path d="m1.44 1052.362c0 .795-.645 1.439-1.44 1.439s-1.44-.645-1.44-1.439.645-1.439 1.44-1.439 1.44.644 1.44 1.439z"/><path d="m17.439 1052.362c0 .795-.645 1.439-1.439 1.439s-1.439-.645-1.439-1.439.645-1.439 1.439-1.439 1.439.644 1.439 1.439z"/></g></svg>