<?xml version="1.0" encoding="utf-8"?>
<!-- Generator: Adobe Illustrator 14.0.0, SVG Export Plug-In . SVG Version: 6.00 Build 43363)  -->
<!DOCTYPE svg PUBLIC "-//W3C//DTD SVG 1.1//EN" "http://www.w3.org/Graphics/SVG/1.1/DTD/svg11.dtd">
<svg version="1.1"
	 id="svg2" inkscape:export-filename="F:\GIS\render\symbols\garden.png" inkscape:version="0.48.0 r9654" sodipodi:docname="garden.svg" inkscape:export-ydpi="90" inkscape:export-xdpi="90" xmlns:cc="http://creativecommons.org/ns#" xmlns:rdf="http://www.w3.org/1999/02/22-rdf-syntax-ns#" xmlns:svg="http://www.w3.org/2000/svg" xmlns:sodipodi="http://sodipodi.sourceforge.net/DTD/sodipodi-0.dtd" xmlns:inkscape="http://www.inkscape.org/namespaces/inkscape" inkscape:label="PozadĂ­" xmlns:dc="http://purl.org/dc/elements/1.1/"
	 xmlns="http://www.w3.org/2000/svg" xmlns:xlink="http://www.w3.org/1999/xlink" x="0px" y="0px" width="16px" height="16px"
	 viewBox="0 0 16 16" enable-background="new 0 0 16 16" xml:space="preserve">
<sodipodi:namedview  id="base" inkscape:window-maximized="0" inkscape:window-y="8" inkscape:window-x="-3" inkscape:window-height="737" inkscape:window-width="1256" inkscape:current-layer="layer1" inkscape:document-units="px" inkscape:pageshadow="2" inkscape:pageopacity="0.0" showgrid="true" inkscape:cy="8" inkscape:cx="8" inkscape:zoom="26.27551" borderopacity="1.0" bordercolor="#666666" pagecolor="#ffffff">
	
		<inkscape:grid  type="xygrid" enabled="true" visible="true" dotted="false" id="grid3768" snapvisiblegridlinesonly="true" empspacing="4">
		</inkscape:grid>
</sodipodi:namedview>
<g id="layer1" transform="translate(0,-1036.3622)" inkscape:groupmode="layer" inkscape:label="Vrstva 1">
	
		<path id="path2987-1-7" inkscape:export-ydpi="90" inkscape:export-xdpi="90" sodipodi:type="arc" sodipodi:cx="7" sodipodi:cy="7" sodipodi:rx="2" sodipodi:ry="2" fill="none" stroke="#A5B576" stroke-width="0.6944" d="
		M9.439,1044.362c0,0.795-0.645,1.439-1.439,1.439c-0.795,0-1.44-0.645-1.44-1.439c0-0.795,0.645-1.44,1.44-1.44
		C8.795,1042.922,9.439,1043.567,9.439,1044.362z"/>
	
		<path id="path2987-1-7-4" inkscape:export-ydpi="90" inkscape:export-xdpi="90" sodipodi:type="arc" sodipodi:cx="7" sodipodi:cy="7" sodipodi:rx="2" sodipodi:ry="2" fill="none" stroke="#A5B576" stroke-width="0.6944" d="
		M1.44,1036.362c0,0.795-0.645,1.44-1.44,1.44s-1.44-0.645-1.44-1.44s0.645-1.44,1.44-1.44S1.44,1035.567,1.44,1036.362z"/>
	
		<path id="path2987-1-7-4-0" inkscape:export-ydpi="90" inkscape:export-xdpi="90" sodipodi:type="arc" sodipodi:cx="7" sodipodi:cy="7" sodipodi:rx="2" sodipodi:ry="2" fill="none" stroke="#A5B576" stroke-width="0.6944" d="
		M17.439,1036.362c0,0.795-0.645,1.44-1.439,1.44s-1.439-0.645-1.439-1.44s0.645-1.44,1.439-1.44S17.439,1035.567,17.439,1036.362z"
		/>
	
		<path id="path2987-1-7-4-9" inkscape:export-filename="F:\GIS\render\symbols\path2987-1-7-4-0-4.png" inkscape:export-ydpi="90" inkscape:export-xdpi="90" sodipodi:type="arc" sodipodi:cx="7" sodipodi:cy="7" sodipodi:rx="2" sodipodi:ry="2" fill="none" stroke="#A5B576" stroke-width="0.6944" d="
		M1.44,1052.362c0,0.795-0.645,1.439-1.44,1.439s-1.44-0.645-1.44-1.439s0.645-1.439,1.44-1.439S1.44,1051.567,1.44,1052.362z"/>
	
		<path id="path2987-1-7-4-0-4" inkscape:export-ydpi="90" inkscape:export-xdpi="90" sodipodi:type="arc" sodipodi:cx="7" sodipodi:cy="7" sodipodi:rx="2" sodipodi:ry="2" fill="none" stroke="#A5B576" stroke-width="0.6944" d="
		M17.439,1052.362c0,0.795-0.645,1.439-1.439,1.439s-1.439-0.645-1.439-1.439s0.645-1.439,1.439-1.439
		S17.439,1051.567,17.439,1052.362z"/>
</g>
</svg>
