<?xml version="1.0" encoding="UTF-8" standalone="no"?>
<svg
   xmlns:dc="http://purl.org/dc/elements/1.1/"
   xmlns:cc="http://creativecommons.org/ns#"
   xmlns:rdf="http://www.w3.org/1999/02/22-rdf-syntax-ns#"
   xmlns:svg="http://www.w3.org/2000/svg"
   xmlns="http://www.w3.org/2000/svg"
   xmlns:xlink="http://www.w3.org/1999/xlink"
   xmlns:sodipodi="http://sodipodi.sourceforge.net/DTD/sodipodi-0.dtd"
   xmlns:inkscape="http://www.inkscape.org/namespaces/inkscape"
   inkscape:version="1.0 (4035a4fb49, 2020-05-01)"
   sodipodi:docname="tidalflat_64.svg"
   id="svg242"
   version="1.1"
   width="64.347931"
   height="64.173965">
  <metadata
     id="metadata246">
    <rdf:RDF>
      <cc:Work
         rdf:about="">
        <dc:format>image/svg+xml</dc:format>
        <dc:type
           rdf:resource="http://purl.org/dc/dcmitype/StillImage" />
        <dc:title></dc:title>
      </cc:Work>
    </rdf:RDF>
  </metadata>
  <sodipodi:namedview
     inkscape:current-layer="svg242"
     inkscape:window-maximized="1"
     inkscape:window-y="-8"
     inkscape:window-x="-8"
     inkscape:cy="31.617447"
     inkscape:cx="15.610699"
     inkscape:zoom="6.6226233"
     showgrid="false"
     id="namedview244"
     inkscape:window-height="705"
     inkscape:window-width="1366"
     inkscape:pageshadow="2"
     inkscape:pageopacity="0"
     guidetolerance="10"
     gridtolerance="10"
     objecttolerance="10"
     borderopacity="1"
     bordercolor="#666666"
     pagecolor="#ffffff" />
  <defs
     id="defs4">
    <g
       stroke-linecap="round"
       stroke-width="1"
       stroke="#ffffff"
       transform="translate(-8,-8)"
       id="b">
      m
    </g>
    <g
       stroke-linecap="round"
       stroke-width="1"
       stroke="#ffffff"
       transform="translate(-8,-8)"
       id="a">
      &quot;
    </g>
  </defs>
  <use
     style="opacity:0.5"
     id="use6"
     height="100%"
     width="100%"
     y="84.112823"
     x="13.598887"
     xlink:href="#a"
     transform="translate(0.34793299)" />
  <use
     style="opacity:0.5"
     id="use8"
     height="100%"
     width="100%"
     y="84.112823"
     x="141.59889"
     xlink:href="#a"
     transform="translate(0.34793299)" />
  <use
     style="opacity:0.5"
     id="use10"
     height="100%"
     width="100%"
     y="119.44654"
     x="15.261092"
     xlink:href="#a"
     transform="translate(0.34793299)" />
  <use
     style="opacity:0.5"
     id="use12"
     height="100%"
     width="100%"
     y="119.44654"
     x="143.26109"
     xlink:href="#a"
     transform="translate(0.34793299)" />
  <use
     style="opacity:0.5"
     id="use14"
     height="100%"
     width="100%"
     y="-8.5534573"
     x="143.26109"
     xlink:href="#a"
     transform="translate(0.34793299)" />
  <use
     style="opacity:0.5"
     id="use16"
     height="100%"
     width="100%"
     y="-8.5534573"
     x="15.261092"
     xlink:href="#a"
     transform="translate(0.34793299)" />
  <use
     style="opacity:0.5"
     id="use18"
     height="100%"
     width="100%"
     y="-8.5534573"
     x="143.26109"
     xlink:href="#a"
     transform="translate(0.34793299)" />
  <use
     style="opacity:0.5"
     id="use20"
     height="100%"
     width="100%"
     y="44.467518"
     x="73.394989"
     xlink:href="#b"
     transform="translate(0.34793299)" />
  <use
     style="opacity:0.5"
     id="use22"
     height="100%"
     width="100%"
     y="29.532278"
     x="111.1076"
     xlink:href="#b"
     transform="translate(0.34793299)" />
  <use
     style="opacity:0.5"
     id="use24"
     height="100%"
     width="100%"
     y="18.187288"
     x="71.768379"
     xlink:href="#b"
     transform="translate(0.34793299)" />
  <use
     style="opacity:0.5"
     id="use26"
     height="100%"
     width="100%"
     y="118.29041"
     x="49.778236"
     xlink:href="#b"
     transform="translate(0.34793299)" />
  <use
     style="opacity:0.5"
     id="use28"
     height="100%"
     width="100%"
     y="-9.7095976"
     x="49.778236"
     xlink:href="#b"
     transform="translate(0.34793299)" />
  <use
     style="opacity:0.5"
     id="use30"
     height="100%"
     width="100%"
     y="36.877392"
     x="28.523737"
     xlink:href="#b"
     transform="translate(0.34793299)" />
  <use
     style="opacity:0.5"
     id="use32"
     height="100%"
     width="100%"
     y="27.477026"
     x="2.4171624"
     xlink:href="#b"
     transform="translate(0.34793299)" />
  <use
     style="opacity:0.5"
     id="use34"
     height="100%"
     width="100%"
     y="27.477026"
     x="130.41716"
     xlink:href="#b"
     transform="translate(0.34793299)" />
  <use
     style="opacity:0.5"
     id="use36"
     height="100%"
     width="100%"
     y="3.1297643"
     x="51.513222"
     xlink:href="#a"
     transform="translate(0.34793299)" />
  <use
     style="opacity:0.5"
     id="use38"
     height="100%"
     width="100%"
     y="131.12976"
     x="51.513222"
     xlink:href="#a"
     transform="translate(0.34793299)" />
  <use
     style="opacity:0.5"
     id="use40"
     height="100%"
     width="100%"
     y="61.080349"
     x="111.6925"
     xlink:href="#a"
     transform="translate(0.34793299)" />
  <use
     style="opacity:0.5"
     id="use42"
     height="100%"
     width="100%"
     y="80.645561"
     x="23.854912"
     xlink:href="#a"
     transform="translate(0.34793299)" />
  <use
     style="opacity:0.5"
     id="use44"
     height="100%"
     width="100%"
     y="46.457382"
     x="27.773499"
     xlink:href="#a"
     transform="translate(0.34793299)" />
  <use
     style="opacity:0.5"
     id="use46"
     height="100%"
     width="100%"
     y="53.765625"
     x="52.86359"
     xlink:href="#b"
     transform="translate(0.34793299)" />
  <use
     style="opacity:0.5"
     id="use48"
     height="100%"
     width="100%"
     y="116.3761"
     x="121.82526"
     xlink:href="#a"
     transform="translate(0.34793299)" />
  <use
     style="opacity:0.5"
     id="use50"
     height="100%"
     width="100%"
     y="116.3761"
     x="-6.1747389"
     xlink:href="#a"
     transform="translate(0.34793299)" />
  <use
     style="opacity:0.5"
     id="use52"
     height="100%"
     width="100%"
     y="-11.623898"
     x="-6.1747389"
     xlink:href="#a"
     transform="translate(0.34793299)" />
  <use
     style="opacity:0.5"
     id="use54"
     height="100%"
     width="100%"
     y="-11.623898"
     x="121.82526"
     xlink:href="#a"
     transform="translate(0.34793299)" />
  <use
     style="opacity:0.5"
     id="use56"
     height="100%"
     width="100%"
     y="-11.623898"
     x="-6.1747389"
     xlink:href="#a"
     transform="translate(0.34793299)" />
  <use
     style="opacity:0.5"
     id="use58"
     height="100%"
     width="100%"
     y="88.241783"
     x="92.198952"
     xlink:href="#b"
     transform="translate(0.34793299)" />
  <use
     style="opacity:0.5"
     id="use60"
     height="100%"
     width="100%"
     y="98.92141"
     x="116.22429"
     xlink:href="#a"
     transform="translate(0.34793299)" />
  <use
     style="opacity:0.5"
     id="use62"
     height="100%"
     width="100%"
     y="98.92141"
     x="-11.77571"
     xlink:href="#a"
     transform="translate(0.34793299)" />
  <use
     style="opacity:0.5"
     id="use64"
     height="100%"
     width="100%"
     y="104.61449"
     x="52.075001"
     xlink:href="#b"
     transform="translate(0.34793299)" />
  <use
     style="opacity:0.5"
     id="use66"
     height="100%"
     width="100%"
     y="2.8701439"
     x="121.15759"
     xlink:href="#b"
     transform="translate(0.34793299)" />
  <use
     style="opacity:0.5"
     id="use68"
     height="100%"
     width="100%"
     y="2.8701439"
     x="-6.8424053"
     xlink:href="#b"
     transform="translate(0.34793299)" />
  <use
     style="opacity:0.5"
     id="use70"
     height="100%"
     width="100%"
     y="130.87015"
     x="-6.8424053"
     xlink:href="#b"
     transform="translate(0.34793299)" />
  <use
     style="opacity:0.5"
     id="use72"
     height="100%"
     width="100%"
     y="130.87015"
     x="121.15759"
     xlink:href="#b"
     transform="translate(0.34793299)" />
  <use
     style="opacity:0.5"
     id="use74"
     height="100%"
     width="100%"
     y="130.87015"
     x="-6.8424053"
     xlink:href="#b"
     transform="translate(0.34793299)" />
  <use
     style="opacity:0.5"
     id="use76"
     height="100%"
     width="100%"
     y="119.16305"
     x="90.955818"
     xlink:href="#b"
     transform="translate(0.34793299)" />
  <use
     style="opacity:0.5"
     id="use78"
     height="100%"
     width="100%"
     y="-8.8369513"
     x="90.955818"
     xlink:href="#b"
     transform="translate(0.34793299)" />
  <use
     style="opacity:0.5"
     id="use80"
     height="100%"
     width="100%"
     y="94.446419"
     x="75.904312"
     xlink:href="#a"
     transform="translate(0.34793299)" />
  <use
     style="opacity:0.5"
     id="use82"
     height="100%"
     width="100%"
     y="89.418068"
     x="13.380896"
     xlink:href="#a"
     transform="translate(0.34793299)" />
  <use
     style="opacity:0.5"
     id="use84"
     height="100%"
     width="100%"
     y="89.418068"
     x="141.38089"
     xlink:href="#a"
     transform="translate(0.34793299)" />
  <use
     style="opacity:0.5"
     id="use86"
     height="100%"
     width="100%"
     y="11.872775"
     x="102.89436"
     xlink:href="#a"
     transform="translate(0.34793299)" />
  <use
     style="opacity:0.5"
     id="use88"
     height="100%"
     width="100%"
     y="139.87277"
     x="102.89436"
     xlink:href="#a"
     transform="translate(0.34793299)" />
  <use
     style="opacity:0.5"
     id="use90"
     height="100%"
     width="100%"
     y="74.223427"
     x="75.608482"
     xlink:href="#a"
     transform="translate(0.34793299)" />
  <use
     style="opacity:0.5"
     id="use92"
     height="100%"
     width="100%"
     y="10.981879"
     x="32.237972"
     xlink:href="#a"
     transform="translate(0.34793299)" />
  <use
     style="opacity:0.5"
     id="use94"
     height="100%"
     width="100%"
     y="138.98187"
     x="32.237972"
     xlink:href="#a"
     transform="translate(0.34793299)" />
  <use
     style="opacity:0.5"
     id="use96"
     height="100%"
     width="100%"
     y="92.730438"
     x="39.746468"
     xlink:href="#a"
     transform="translate(0.34793299)" />
  <use
     style="opacity:0.5"
     id="use98"
     height="100%"
     width="100%"
     y="79.360779"
     x="60.176044"
     xlink:href="#b"
     transform="translate(0.34793299)" />
  <use
     style="opacity:0.5"
     id="use100"
     height="100%"
     width="100%"
     y="56.099976"
     x="88.882362"
     xlink:href="#a"
     transform="translate(0.34793299)" />
  <use
     style="opacity:0.5"
     id="use102"
     height="100%"
     width="100%"
     y="72.801537"
     x="116.78622"
     xlink:href="#b"
     transform="translate(0.34793299)" />
  <use
     style="opacity:0.5"
     id="use104"
     height="100%"
     width="100%"
     y="72.801537"
     x="-11.21378"
     xlink:href="#b"
     transform="translate(0.34793299)" />
  <use
     style="opacity:0.5"
     id="use106"
     height="100%"
     width="100%"
     y="58.886063"
     x="19.024693"
     xlink:href="#a"
     transform="translate(0.34793299)" />
  <use
     style="opacity:0.5"
     id="use108"
     height="100%"
     width="100%"
     y="29.168118"
     x="87.805946"
     xlink:href="#a"
     transform="translate(0.34793299)" />
  <use
     style="opacity:0.5"
     id="use110"
     height="100%"
     width="100%"
     y="12.940027"
     x="11.858787"
     xlink:href="#b"
     transform="translate(0.34793299)" />
  <use
     style="opacity:0.5"
     id="use112"
     height="100%"
     width="100%"
     y="12.940027"
     x="139.85878"
     xlink:href="#b"
     transform="translate(0.34793299)" />
  <use
     style="opacity:0.5"
     id="use114"
     height="100%"
     width="100%"
     y="140.94003"
     x="139.85878"
     xlink:href="#b"
     transform="translate(0.34793299)" />
  <use
     style="opacity:0.5"
     id="use116"
     height="100%"
     width="100%"
     y="140.94003"
     x="11.858787"
     xlink:href="#b"
     transform="translate(0.34793299)" />
  <use
     style="opacity:0.5"
     id="use118"
     height="100%"
     width="100%"
     y="140.94003"
     x="139.85878"
     xlink:href="#b"
     transform="translate(0.34793299)" />
  <use
     style="opacity:0.5"
     id="use120"
     height="100%"
     width="100%"
     y="23.591576"
     x="75.59713"
     xlink:href="#a"
     transform="translate(0.34793299)" />
  <use
     style="opacity:0.5"
     id="use122"
     height="100%"
     width="100%"
     y="123.7843"
     x="69.544632"
     xlink:href="#a"
     transform="translate(0.34793299)" />
  <use
     style="opacity:0.5"
     id="use124"
     height="100%"
     width="100%"
     y="-4.2156949"
     x="69.544632"
     xlink:href="#a"
     transform="translate(0.34793299)" />
  <use
     style="opacity:0.5"
     id="use126"
     height="100%"
     width="100%"
     y="26.749544"
     x="60.865673"
     xlink:href="#a"
     transform="translate(0.34793299)" />
  <use
     style="opacity:0.5"
     id="use128"
     height="100%"
     width="100%"
     y="73.307922"
     x="97.14817"
     xlink:href="#b"
     transform="translate(0.34793299)" />
  <use
     style="opacity:0.5"
     id="use130"
     height="100%"
     width="100%"
     y="120.04665"
     x="27.236195"
     xlink:href="#b"
     transform="translate(0.34793299)" />
  <use
     style="opacity:0.5"
     id="use132"
     height="100%"
     width="100%"
     y="-7.9533544"
     x="27.236195"
     xlink:href="#b"
     transform="translate(0.34793299)" />
  <path
     style="opacity:0.5"
     id="path134"
     fill="#5790cd"
     d="m 4.3045125,55.288043 h 6.9999995 c 0,0 0,0 0,0 v 0.99262 c 0,0 0,0 0,0 H 4.3045125 c 0,0 0,0 0,0 v -0.99262 c 0,0 0,0 0,0 z" />
  <path
     style="opacity:0.5"
     id="path136"
     fill="#5790cd"
     d="m 33.87146,22.541997 h 6 c 0,0 0,0 0,0 v 0.49631 c 0,0 0,0 0,0 h -6 c 0,0 0,0 0,0 v -0.49631 c 0,0 0,0 0,0 z" />
  <path
     style="opacity:0.5"
     id="path138"
     fill="#5790cd"
     d="m 52.727766,15.129489 h 6 c 0,0 0,0 0,0 v 0.49631 c 0,0 0,0 0,0 h -6 c 0,0 0,0 0,0 v -0.49631 c 0,0 0,0 0,0 z" />
  <path
     style="opacity:0.5"
     id="path140"
     fill="#5790cd"
     d="m 33.058155,9.498857 h 6 c 0,0 0,0 0,0 v 0.49631 c 0,0 0,0 0,0 h -6 c 0,0 0,0 0,0 v -0.49631 c 0,0 0,0 0,0 z" />
  <path
     style="opacity:0.5"
     id="path142"
     fill="#5790cd"
     d="m 22.063084,59.181034 h 6 c 0,0 0,0 0,0 v 0.49631 c 0,0 0,0 0,0 h -6 c 0,0 0,0 0,0 v -0.49631 c 0,0 0,0 0,0 z" />
  <path
     style="opacity:0.5"
     id="path144"
     fill="#5790cd"
     d="m 11.435835,18.774942 h 5.999999 c 0,0 0,0 0,0 v 0.49631 c 0,0 0,0 0,0 h -6 c 0,0 0,0 0,0 v -0.49631 c 0,0 0,0 1e-6,0 z" />
  <path
     style="opacity:0.5"
     id="path146"
     fill="#5790cd"
     d="M 0.17396649,14.109447 H 4.2111412 c 0,0 0,0 0,0 v 0.49631 c 0,0 0,0 0,0 H 0.17396649 c 0,0 0,0 0,0 v -0.49631 c 0,0 0,0 0,0 z" />
  <path
     style="opacity:0.5"
     id="path148"
     fill="#5790cd"
     d="m 62.173966,14.109447 h 2 c 0,0 0,0 0,0 v 0.49631 c 0,0 0,0 0,0 h -2 c 0,0 0,0 0,0 v -0.49631 c 0,0 0,0 0,0 z" />
  <path
     style="opacity:0.5"
     id="path150"
     fill="#5790cd"
     d="m 22.430577,1.5293478 h 7 c 0,0 0,0 0,0 v 0.99262 c 0,0 0,0 0,0 h -7 c 0,0 0,0 0,0 v -0.99262 c 0,0 0,0 0,0 z" />
  <path
     style="opacity:0.5"
     id="path152"
     fill="#5790cd"
     d="m 52.520216,30.290801 h 7 c 0,0 0,0 0,0 v 0.99262 c 0,0 0,0 0,0 h -7 c 0,0 0,0 0,0 v -0.99262 c 0,0 0,0 0,0 z" />
  <path
     style="opacity:0.5"
     id="path154"
     fill="#5790cd"
     d="m 8.6014225,40.00121 h 6.9999995 c 0,0 0,0 0,0 v 0.99262 c 0,0 0,0 0,0 H 8.6014225 c 0,0 0,0 0,0 v -0.99262 c 0,0 0,0 0,0 z" />
  <path
     style="opacity:0.5"
     id="path156"
     fill="#5790cd"
     d="m 10.560716,23.033276 h 6.999999 c 0,0 0,0 0,0 v 0.99262 c 0,0 0,0 0,0 h -6.999999 c 0,0 0,0 0,0 v -0.99262 c 0,0 0,0 0,0 z" />
  <path
     style="opacity:0.5"
     id="path158"
     fill="#5790cd"
     d="m 23.605761,27.15674 h 6 c 0,0 0,0 0,0 v 0.49631 c 0,0 0,0 0,0 h -6 c 0,0 0,0 0,0 v -0.49631 c 0,0 0,0 0,0 z" />
  <path
     style="opacity:0.5"
     id="path160"
     fill="#5790cd"
     d="m 58.673966,57.734583 h 5.5 c 0,0 0,0 0,0 v 0.99262 c 0,0 0,0 0,0 h -5.5 c 0,0 0,0 0,0 v -0.99262 c 0,0 0,0 0,0 z" />
  <path
     style="opacity:0.5"
     id="path162"
     fill="#5790cd"
     d="M 0.17396649,57.734583 H 1.6739665 c 0,0 0,0 0,0 v 0.99262 c 0,0 0,0 0,0 H 0.17396649 c 0,0 0,0 0,0 v -0.99262 c 0,0 0,0 0,0 z" />
  <path
     style="opacity:0.5"
     id="path164"
     fill="#5790cd"
     d="m 43.273442,44.267602 h 6 c 0,0 0,0 0,0 v 0.49631 c 0,0 0,0 0,0 h -6 c 0,0 0,0 0,0 v -0.49631 c 0,0 0,0 0,0 z" />
  <path
     style="opacity:0.5"
     id="path166"
     fill="#5790cd"
     d="m 54.786111,49.071694 h 7 c 0,0 0,0 0,0 v 0.99262 c 0,0 0,0 0,0 h -7 c 0,0 0,0 0,0 v -0.99262 c 0,0 0,0 0,0 z" />
  <path
     style="opacity:0.5"
     id="path168"
     fill="#5790cd"
     d="m 23.211466,52.393539 h 6 c 0,0 0,0 0,0 v 0.49631 c 0,0 0,0 0,0 h -6 c 0,0 0,0 0,0 v -0.49631 c 0,0 0,0 0,0 z" />
  <path
     style="opacity:0.5"
     id="path170"
     fill="#5790cd"
     d="m 57.752761,1.8968058 h 6.000005 c 0,0 0,0 0,0 v 0.49631 c 0,0 0,0 0,0 h -6.000005 c 0,0 0,0 0,0 v -0.49631 c 0,0 0,0 0,0 z" />
  <path
     style="opacity:0.5"
     id="path172"
     fill="#5790cd"
     d="m 42.651875,59.614134 h 6 c 0,0 0,0 0,0 v 0.49631 c 0,0 0,0 0,0 h -6 c 0,0 0,0 0,0 v -0.49631 c 0,0 0,0 0,0 z" />
  <path
     style="opacity:0.5"
     id="path174"
     fill="#5790cd"
     d="m 34.626122,46.850712 h 7 c 0,0 0,0 0,0 v 0.99262 c 0,0 0,0 0,0 h -7 c 0,0 0,0 0,0 v -0.99262 c 0,0 0,0 0,0 z" />
  <path
     style="opacity:0.5"
     id="path176"
     fill="#5790cd"
     d="m 3.3644145,44.355092 h 6.9999995 c 0,0 0,0 0,0 v 0.99262 c 0,0 0,0 0,0 H 3.3644145 c 0,0 0,0 0,0 v -0.99262 c 0,0 0,0 0,0 z" />
  <path
     style="opacity:0.5"
     id="path178"
     fill="#5790cd"
     d="m 48.121147,5.8685913 h 6.999999 c 0,0 0,0 0,0 v 0.99262 c 0,0 0,0 0,0 h -6.999999 c 0,0 0,0 0,0 v -0.99262 c 0,0 0,0 0,0 z" />
  <path
     style="opacity:0.5"
     id="path180"
     fill="#5790cd"
     d="m 34.478207,36.813841 h 7 c 0,0 0,0 0,0 v 0.99262 c 0,0 0,0 0,0 h -7 c 0,0 0,0 0,0 v -0.99262 c 0,0 0,0 0,0 z" />
  <path
     style="opacity:0.5"
     id="path182"
     fill="#5790cd"
     d="m 12.792952,5.4264308 h 7 c 0,0 0,0 0,0 v 0.9926199 c 0,0 0,0 0,0 h -7 c 0,0 0,0 0,0 V 5.4264308 c 0,0 0,0 0,0 z" />
  <path
     style="opacity:0.5"
     id="path184"
     fill="#5790cd"
     d="m 16.5472,45.999054 h 7 c 0,0 0,0 0,0 v 0.99262 c 0,0 0,0 0,0 h -7 c 0,0 0,0 0,0 v -0.99262 c 0,0 0,0 0,0 z" />
  <path
     style="opacity:0.5"
     id="path186"
     fill="#5790cd"
     d="m 27.261988,39.85987 h 6 c 0,0 0,0 0,0 v 0.49631 c 0,0 0,0 0,0 h -6 c 0,0 0,0 0,0 v -0.49631 c 0,0 0,0 0,0 z" />
  <path
     style="opacity:0.5"
     id="path188"
     fill="#5790cd"
     d="m 41.115147,27.818992 h 7 c 0,0 0,0 0,0 v 0.99262 c 0,0 0,0 0,0 h -7 c 0,0 0,0 0,0 v -0.99262 c 0,0 0,0 0,0 z" />
  <path
     style="opacity:0.5"
     id="path190"
     fill="#5790cd"
     d="m 55.567076,36.604453 h 6.000005 c 0,0 0,0 0,0 v 0.49631 c 0,0 0,0 0,0 h -6.000005 c 0,0 0,0 0,0 v -0.49631 c 0,0 0,0 0,0 z" />
  <path
     style="opacity:0.5"
     id="path192"
     fill="#5790cd"
     d="m 6.186313,29.201755 h 7 c 0,0 0,0 0,0 v 0.99262 c 0,0 0,0 0,0 h -7 c 0,0 0,0 0,0 v -0.99262 c 0,0 0,0 0,0 z" />
  <path
     style="opacity:0.5"
     id="path194"
     fill="#5790cd"
     d="m 40.576939,14.452442 h 7 c 0,0 0,0 0,0 v 0.99262 c 0,0 0,0 0,0 h -7 c 0,0 0,0 0,0 v -0.99262 c 0,0 0,0 0,0 z" />
  <path
     style="opacity:0.5"
     id="path196"
     fill="#5790cd"
     d="m 3.10336,6.8945891 h 6 c 0,0 0,0 0,0 v 0.49631 c 0,0 0,0 0,0 h -6 c 0,0 0,0 0,0 v -0.49631 c 0,0 0,0 0,0 z" />
  <path
     style="opacity:0.5"
     id="path198"
     fill="#5790cd"
     d="m 34.472531,11.684749 h 7 c 0,0 0,0 0,0 v 0.99262 c 0,0 0,0 0,0 h -7 c 0,0 0,0 0,0 v -0.99262 c 0,0 0,0 0,0 z" />
  <path
     style="opacity:0.5"
     id="path200"
     fill="#5790cd"
     d="m 31.446282,61.411396 h 7 c 0,0 0,0 0,0 v 0.99262 c 0,0 0,0 0,0 h -7 c 0,0 0,0 0,0 v -0.99262 c 0,0 0,0 0,0 z" />
  <path
     style="opacity:0.5"
     id="path202"
     fill="#5790cd"
     d="m 27.106802,13.25208 h 7 c 0,0 0,0 0,0 v 0.99262 c 0,0 0,0 0,0 h -7 c 0,0 0,0 0,0 v -0.99262 c 0,0 0,0 0,0 z" />
  <path
     style="opacity:0.5"
     id="path204"
     fill="#5790cd"
     d="m 45.748051,36.855777 h 6 c 0,0 0,0 0,0 v 0.49631 c 0,0 0,0 0,0 h -6 c 0,0 0,0 0,0 v -0.49631 c 0,0 0,0 0,0 z" />
  <path
     style="opacity:0.5"
     id="path206"
     fill="#5790cd"
     d="m 10.792063,60.052673 h 6 c 0,0 0,0 0,0 v 0.49631 c 0,0 0,0 0,0 h -6 c 0,0 0,0 0,0 v -0.49631 c 0,0 0,0 0,0 z" />
  <g
     style="opacity:0.5"
     id="g210"
     transform="translate(0.34793299)">
    <path
       id="path208"
       d="M -0.34793299,0 H 63.652067 V 64 H -0.34793299 Z"
       fill="none" />
  </g>
  <path
     style="opacity:0.5"
     id="path212"
     fill="#5790cd"
     d="m 16.739738,35.884459 h 6 c 0,0 0,0 0,0 v 0.49631 c 0,0 0,0 0,0 h -6 c 0,0 0,0 0,0 v -0.49631 c 0,0 0,0 0,0 z" />
  <path
     style="opacity:0.5"
     id="path214"
     fill="#5790cd"
     d="m 12.309256,12.986883 h 6 c 0,0 0,0 0,0 v 0.49631 c 0,0 0,0 0,0 h -6 c 0,0 0,0 0,0 v -0.49631 c 0,0 0,0 0,0 z" />
  <path
     style="opacity:0.5"
     id="path216"
     fill="#5790cd"
     d="m 4.309256,20.986883 h 6 c 0,0 0,0 0,0 v 0.49631 c 0,0 0,0 0,0 h -6 c 0,0 0,0 0,0 v -0.49631 c 0,0 0,0 0,0 z" />
  <path
     style="opacity:0.5"
     id="path218"
     fill="#5790cd"
     d="m 48.309256,20.986883 h 6 c 0,0 0,0 0,0 v 0.49631 c 0,0 0,0 0,0 h -6 c 0,0 0,0 0,0 v -0.49631 c 0,0 0,0 0,0 z" />
  <path
     style="opacity:0.5"
     id="path220"
     fill="#5790cd"
     d="m 4.309256,32.986883 h 6 c 0,0 0,0 0,0 v 0.49631 c 0,0 0,0 0,0 h -6 c 0,0 0,0 0,0 v -0.49631 c 0,0 0,0 0,0 z" />
  <path
     style="opacity:0.5"
     id="path222"
     fill="#5790cd"
     d="m 10.309256,50.986883 h 6 c 0,0 0,0 0,0 v 0.49631 c 0,0 0,0 0,0 h -6 c 0,0 0,0 0,0 v -0.49631 c 0,0 0,0 0,0 z" />
  <path
     style="opacity:0.5"
     id="path224"
     fill="#5790cd"
     d="m 2.309256,34.986883 h 6 c 0,0 0,0 0,0 v 0.49631 c 0,0 0,0 0,0 h -6 c 0,0 0,0 0,0 v -0.49631 c 0,0 0,0 0,0 z" />
  <path
     style="opacity:0.5"
     id="path226"
     fill="#5790cd"
     d="m 54.309256,8.986883 h 6 c 0,0 0,0 0,0 v 0.49631 c 0,0 0,0 0,0 h -6 c 0,0 0,0 0,0 v -0.49631 c 0,0 0,0 0,0 z" />
  <path
     style="opacity:0.5"
     id="path228"
     fill="#5790cd"
     d="m 8.309256,0.986883 h 6 c 0,0 0,0 0,0 v 0.49631 c 0,0 0,0 0,0 h -6 c 0,0 0,0 0,0 v -0.49631 c 0,0 0,0 0,0 z" />
  <path
     style="opacity:0.5"
     id="path230"
     fill="#5790cd"
     d="m 24.309256,32.986883 h 6 c 0,0 0,0 0,0 v 0.49631 c 0,0 0,0 0,0 h -6 c 0,0 0,0 0,0 v -0.49631 c 0,0 0,0 0,0 z" />
  <path
     style="opacity:0.5"
     id="path232"
     fill="#5790cd"
     d="m 22.309256,18.986883 h 6 c 0,0 0,0 0,0 v 0.49631 c 0,0 0,0 0,0 h -6 c 0,0 0,0 0,0 v -0.49631 c 0,0 0,0 0,0 z" />
  <path
     style="opacity:0.5"
     id="path234"
     fill="#5790cd"
     d="m 32.309256,54.986883 h 6 c 0,0 0,0 0,0 v 0.49631 c 0,0 0,0 0,0 h -6 c 0,0 0,0 0,0 v -0.49631 c 0,0 0,0 0,0 z" />
  <path
     style="opacity:0.5"
     id="path236"
     fill="#5790cd"
     d="m 42.309256,50.986883 h 6 c 0,0 0,0 0,0 v 0.49631 c 0,0 0,0 0,0 h -6 c 0,0 0,0 0,0 v -0.49631 c 0,0 0,0 0,0 z" />
  <path
     style="opacity:0.5"
     id="path238"
     fill="#5790cd"
     d="m 38.309256,4.986883 h 6 c 0,0 0,0 0,0 v 0.49631 c 0,0 0,0 0,0 h -6 c 0,0 0,0 0,0 v -0.49631 c 0,0 0,0 0,0 z" />
  <path
     style="opacity:0.5"
     id="path240"
     fill="#5790cd"
     d="m 20.309256,8.986883 h 6 c 0,0 0,0 0,0 v 0.49631 c 0,0 0,0 0,0 h -6 c 0,0 0,0 0,0 v -0.49631 c 0,0 0,0 0,0 z" />
</svg>
