<svg height="64.173965" width="64.347931" xmlns="http://www.w3.org/2000/svg" xmlns:xlink="http://www.w3.org/1999/xlink"><defs><g id="a" stroke="#fff" stroke-linecap="round">m</g><g id="b" stroke="#fff" stroke-linecap="round">"</g></defs><g transform="translate(.347933)"><use height="100%" opacity=".5" width="100%" x="13.598887" xlink:href="#b" y="84.112823"/><use height="100%" opacity=".5" width="100%" x="141.59889" xlink:href="#b" y="84.112823"/><use height="100%" opacity=".5" width="100%" x="15.261092" xlink:href="#b" y="119.44654"/><use height="100%" opacity=".5" width="100%" x="143.26109" xlink:href="#b" y="119.44654"/><use height="100%" opacity=".5" width="100%" x="143.26109" xlink:href="#b" y="-8.553457"/><use height="100%" opacity=".5" width="100%" x="15.261092" xlink:href="#b" y="-8.553457"/><use height="100%" opacity=".5" width="100%" x="143.26109" xlink:href="#b" y="-8.553457"/><use height="100%" opacity=".5" width="100%" x="73.394989" xlink:href="#a" y="44.467518"/><use height="100%" opacity=".5" width="100%" x="111.1076" xlink:href="#a" y="29.532278"/><use height="100%" opacity=".5" width="100%" x="71.768379" xlink:href="#a" y="18.187288"/><use height="100%" opacity=".5" width="100%" x="49.778236" xlink:href="#a" y="118.29041"/><use height="100%" opacity=".5" width="100%" x="49.778236" xlink:href="#a" y="-9.709598"/><use height="100%" opacity=".5" width="100%" x="28.523737" xlink:href="#a" y="36.877392"/><use height="100%" opacity=".5" width="100%" x="2.417162" xlink:href="#a" y="27.477026"/><use height="100%" opacity=".5" width="100%" x="130.41716" xlink:href="#a" y="27.477026"/><use height="100%" opacity=".5" width="100%" x="51.513222" xlink:href="#b" y="3.129764"/><use height="100%" opacity=".5" width="100%" x="51.513222" xlink:href="#b" y="131.12976"/><use height="100%" opacity=".5" width="100%" x="111.6925" xlink:href="#b" y="61.080349"/><use height="100%" opacity=".5" width="100%" x="23.854912" xlink:href="#b" y="80.645561"/><use height="100%" opacity=".5" width="100%" x="27.773499" xlink:href="#b" y="46.457382"/><use height="100%" opacity=".5" width="100%" x="52.86359" xlink:href="#a" y="53.765625"/><use height="100%" opacity=".5" width="100%" x="121.82526" xlink:href="#b" y="116.3761"/><use height="100%" opacity=".5" width="100%" x="-6.174739" xlink:href="#b" y="116.3761"/><use height="100%" opacity=".5" width="100%" x="-6.174739" xlink:href="#b" y="-11.623898"/><use height="100%" opacity=".5" width="100%" x="121.82526" xlink:href="#b" y="-11.623898"/><use height="100%" opacity=".5" width="100%" x="-6.174739" xlink:href="#b" y="-11.623898"/><use height="100%" opacity=".5" width="100%" x="92.198952" xlink:href="#a" y="88.241783"/><use height="100%" opacity=".5" width="100%" x="116.22429" xlink:href="#b" y="98.92141"/><use height="100%" opacity=".5" width="100%" x="-11.77571" xlink:href="#b" y="98.92141"/><use height="100%" opacity=".5" width="100%" x="52.075001" xlink:href="#a" y="104.61449"/><use height="100%" opacity=".5" width="100%" x="121.15759" xlink:href="#a" y="2.870144"/><use height="100%" opacity=".5" width="100%" x="-6.842405" xlink:href="#a" y="2.870144"/><use height="100%" opacity=".5" width="100%" x="-6.842405" xlink:href="#a" y="130.87015"/><use height="100%" opacity=".5" width="100%" x="121.15759" xlink:href="#a" y="130.87015"/><use height="100%" opacity=".5" width="100%" x="-6.842405" xlink:href="#a" y="130.87015"/><use height="100%" opacity=".5" width="100%" x="90.955818" xlink:href="#a" y="119.16305"/><use height="100%" opacity=".5" width="100%" x="90.955818" xlink:href="#a" y="-8.836951"/><use height="100%" opacity=".5" width="100%" x="75.904312" xlink:href="#b" y="94.446419"/><use height="100%" opacity=".5" width="100%" x="13.380896" xlink:href="#b" y="89.418068"/><use height="100%" opacity=".5" width="100%" x="141.38089" xlink:href="#b" y="89.418068"/><use height="100%" opacity=".5" width="100%" x="102.89436" xlink:href="#b" y="11.872775"/><use height="100%" opacity=".5" width="100%" x="102.89436" xlink:href="#b" y="139.87277"/><use height="100%" opacity=".5" width="100%" x="75.608482" xlink:href="#b" y="74.223427"/><use height="100%" opacity=".5" width="100%" x="32.237972" xlink:href="#b" y="10.981879"/><use height="100%" opacity=".5" width="100%" x="32.237972" xlink:href="#b" y="138.98187"/><use height="100%" opacity=".5" width="100%" x="39.746468" xlink:href="#b" y="92.730438"/><use height="100%" opacity=".5" width="100%" x="60.176044" xlink:href="#a" y="79.360779"/><use height="100%" opacity=".5" width="100%" x="88.882362" xlink:href="#b" y="56.099976"/><use height="100%" opacity=".5" width="100%" x="116.78622" xlink:href="#a" y="72.801537"/><use height="100%" opacity=".5" width="100%" x="-11.21378" xlink:href="#a" y="72.801537"/><use height="100%" opacity=".5" width="100%" x="19.024693" xlink:href="#b" y="58.886063"/><use height="100%" opacity=".5" width="100%" x="87.805946" xlink:href="#b" y="29.168118"/><use height="100%" opacity=".5" width="100%" x="11.858787" xlink:href="#a" y="12.940027"/><use height="100%" opacity=".5" width="100%" x="139.85878" xlink:href="#a" y="12.940027"/><use height="100%" opacity=".5" width="100%" x="139.85878" xlink:href="#a" y="140.94003"/><use height="100%" opacity=".5" width="100%" x="11.858787" xlink:href="#a" y="140.94003"/><use height="100%" opacity=".5" width="100%" x="139.85878" xlink:href="#a" y="140.94003"/><use height="100%" opacity=".5" width="100%" x="75.59713" xlink:href="#b" y="23.591576"/><use height="100%" opacity=".5" width="100%" x="69.544632" xlink:href="#b" y="123.7843"/><use height="100%" opacity=".5" width="100%" x="69.544632" xlink:href="#b" y="-4.215695"/><use height="100%" opacity=".5" width="100%" x="60.865673" xlink:href="#b" y="26.749544"/><use height="100%" opacity=".5" width="100%" x="97.14817" xlink:href="#a" y="73.307922"/><use height="100%" opacity=".5" width="100%" x="27.236195" xlink:href="#a" y="120.04665"/><use height="100%" opacity=".5" width="100%" x="27.236195" xlink:href="#a" y="-7.953354"/></g><path d="m4.3045125 55.288043h6.9999995v.99262h-6.9999995z" fill="#5790cd" opacity=".5"/><path d="m33.87146 22.541997h6v.49631h-6z" fill="#5790cd" opacity=".5"/><path d="m52.727766 15.129489h6v.49631h-6z" fill="#5790cd" opacity=".5"/><path d="m33.058155 9.498857h6v.49631h-6z" fill="#5790cd" opacity=".5"/><path d="m22.063084 59.181034h6v.49631h-6z" fill="#5790cd" opacity=".5"/><path d="m11.435835 18.774942h5.999999v.49631h-6v-.49631z" fill="#5790cd" opacity=".5"/><path d="m.17396649 14.109447h4.03717471v.49631h-4.03717471z" fill="#5790cd" opacity=".5"/><path d="m62.173966 14.109447h2v.49631h-2z" fill="#5790cd" opacity=".5"/><path d="m22.430577 1.5293478h7v.99262h-7z" fill="#5790cd" opacity=".5"/><path d="m52.520216 30.290801h7v.99262h-7z" fill="#5790cd" opacity=".5"/><path d="m8.6014225 40.00121h6.9999995v.99262h-6.9999995z" fill="#5790cd" opacity=".5"/><path d="m10.560716 23.033276h6.999999v.99262h-6.999999z" fill="#5790cd" opacity=".5"/><path d="m23.605761 27.15674h6v.49631h-6z" fill="#5790cd" opacity=".5"/><path d="m58.673966 57.734583h5.5v.99262h-5.5z" fill="#5790cd" opacity=".5"/><path d="m.17396649 57.734583h1.50000001v.99262h-1.50000001z" fill="#5790cd" opacity=".5"/><path d="m43.273442 44.267602h6v.49631h-6z" fill="#5790cd" opacity=".5"/><path d="m54.786111 49.071694h7v.99262h-7z" fill="#5790cd" opacity=".5"/><path d="m23.211466 52.393539h6v.49631h-6z" fill="#5790cd" opacity=".5"/><path d="m57.752761 1.8968058h6.000005v.49631h-6.000005z" fill="#5790cd" opacity=".5"/><path d="m42.651875 59.614134h6v.49631h-6z" fill="#5790cd" opacity=".5"/><path d="m34.626122 46.850712h7v.99262h-7z" fill="#5790cd" opacity=".5"/><path d="m3.3644145 44.355092h6.9999995v.99262h-6.9999995z" fill="#5790cd" opacity=".5"/><path d="m48.121147 5.8685913h6.999999v.99262h-6.999999z" fill="#5790cd" opacity=".5"/><path d="m34.478207 36.813841h7v.99262h-7z" fill="#5790cd" opacity=".5"/><path d="m12.792952 5.4264308h7v.9926199h-7z" fill="#5790cd" opacity=".5"/><path d="m16.5472 45.999054h7v.99262h-7z" fill="#5790cd" opacity=".5"/><path d="m27.261988 39.85987h6v.49631h-6z" fill="#5790cd" opacity=".5"/><path d="m41.115147 27.818992h7v.99262h-7z" fill="#5790cd" opacity=".5"/><path d="m55.567076 36.604453h6.000005v.49631h-6.000005z" fill="#5790cd" opacity=".5"/><path d="m6.186313 29.201755h7v.99262h-7z" fill="#5790cd" opacity=".5"/><path d="m40.576939 14.452442h7v.99262h-7z" fill="#5790cd" opacity=".5"/><path d="m3.10336 6.8945891h6v.49631h-6z" fill="#5790cd" opacity=".5"/><path d="m34.472531 11.684749h7v.99262h-7z" fill="#5790cd" opacity=".5"/><path d="m31.446282 61.411396h7v.99262h-7z" fill="#5790cd" opacity=".5"/><path d="m27.106802 13.25208h7v.99262h-7z" fill="#5790cd" opacity=".5"/><path d="m45.748051 36.855777h6v.49631h-6z" fill="#5790cd" opacity=".5"/><path d="m10.792063 60.052673h6v.49631h-6z" fill="#5790cd" opacity=".5"/><path d="m-.34793299 0h63.99999999v64h-63.99999999z" fill="none" opacity=".5" transform="translate(.347933)"/><path d="m16.739738 35.884459h6v.49631h-6z" fill="#5790cd" opacity=".5"/><path d="m12.309256 12.986883h6v.49631h-6z" fill="#5790cd" opacity=".5"/><path d="m4.309256 20.986883h6v.49631h-6z" fill="#5790cd" opacity=".5"/><path d="m48.309256 20.986883h6v.49631h-6z" fill="#5790cd" opacity=".5"/><path d="m4.309256 32.986883h6v.49631h-6z" fill="#5790cd" opacity=".5"/><path d="m10.309256 50.986883h6v.49631h-6z" fill="#5790cd" opacity=".5"/><path d="m2.309256 34.986883h6v.49631h-6z" fill="#5790cd" opacity=".5"/><path d="m54.309256 8.986883h6v.49631h-6z" fill="#5790cd" opacity=".5"/><path d="m8.309256.986883h6v.49631h-6z" fill="#5790cd" opacity=".5"/><path d="m24.309256 32.986883h6v.49631h-6z" fill="#5790cd" opacity=".5"/><path d="m22.309256 18.986883h6v.49631h-6z" fill="#5790cd" opacity=".5"/><path d="m32.309256 54.986883h6v.49631h-6z" fill="#5790cd" opacity=".5"/><path d="m42.309256 50.986883h6v.49631h-6z" fill="#5790cd" opacity=".5"/><path d="m38.309256 4.986883h6v.49631h-6z" fill="#5790cd" opacity=".5"/><path d="m20.309256 8.986883h6v.49631h-6z" fill="#5790cd" opacity=".5"/></svg>