<svg enable-background="new 0 0 18.836 18.822" height="18.822" viewBox="0 0 18.836 18.822" width="18.836" xmlns="http://www.w3.org/2000/svg"><g fill="none" stroke="#a5b576" stroke-width=".6"><g transform="translate(-.092524 .1998)"><path d="m9.418 5.418v7.5"/><path d="m7.918 12.166c1.5 0 2.25 0 3-.75.395-.396.354-1.146 0-1.5-.75-.75-3-.75-3.412-1.697-.313-.737-.026-.952.41-1.302.804-.646 3-.75 3-.75"/></g><g transform="translate(-8.092524 8.1998)"><path d="m8.001 6.833v7.5"/><path d="m6.501 13.583c1.5 0 2.25 0 3-.75.395-.396.354-1.146 0-1.5-.75-.75-3-.75-3.408-1.697-.315-.737-.028-.952.408-1.303.804-.646 3-.75 3-.75"/></g><g transform="translate(-8.092524 -7.8002)"><path d="m8.001 4v7.5"/><path d="m6.501 10.75c1.5 0 2.25 0 3-.75.395-.396.354-1.146 0-1.5-.75-.75-3-.75-3.408-1.698-.315-.737-.028-.952.408-1.302.804-.646 3-.75 3-.75"/></g><g transform="translate(7.907476 -7.8002)"><path d="m10.837 4v7.5"/><path d="m9.337 10.75c1.5 0 2.25 0 3-.75.396-.396.354-1.146 0-1.5-.75-.75-3-.75-3.408-1.698-.318-.737-.032-.952.408-1.302.803-.646 3-.75 3-.75"/></g><g transform="translate(7.907476 8.1998)"><path d="m10.837 6.833v7.5"/><path d="m9.337 13.583c1.5 0 2.25 0 3-.75.396-.396.354-1.146 0-1.5-.75-.75-3-.75-3.408-1.697-.315-.735-.029-.95.408-1.303.803-.646 3-.75 3-.75"/></g></g></svg>