<svg enable-background="new 0 0 24 24" height="24" viewBox="0 0 24 24" width="24" xmlns="http://www.w3.org/2000/svg"><path clip-rule="evenodd" d="m16.055 5.917-1.301-.082c-.51 0-.516.858-.516 1.366l.103 1.926c-.298-1.212-.88-2.28-1.61-2.282.539-.32 1.125-1.333 1.125-2.006 0-.174-.027-.356-.065-.537l.122-.003-.385-2.164s-1.564.006-2.102.006c-.508 0-.594.922-1.273.922-1.479 0-2.111.109-2.111.109l.07 1.265 1.692-.041c-.026.159-.042.326-.042.51 0 .919.557 1.62 1.097 1.939-.908.263-1.043 2.185-1.146 3.477l-3.025.42.166 1.701 3.203-.306c.001.015.002.022.004.038l2.848-2.014.318.242-3.061 2.527c.054.189.131.309.281.652l-3.656 8.229h2.24l3.034-6.174.946 6.227 2.467-.053-1.424-7.77c.248-.541.378-1.186.445-1.936l.065 1.221c0 .508.412.92.92.92h.488c.51 0 1.34-.494 1.34-1.004v-6.165c.001-.508-.748-1.16-1.257-1.16z" fill="#f33" fill-rule="evenodd"/></svg>