<svg enable-background="new 0 0 24 24" height="24" viewBox="0 0 24 24" width="24" xmlns="http://www.w3.org/2000/svg"><g stroke="#fff" stroke-width=".25" transform="translate(-376.7706 213.0283)"><path d="m379.257-201.029c0-5.254 4.259-9.513 9.513-9.513s9.513 4.259 9.513 9.513c0 5.256-4.259 9.514-9.513 9.514s-9.513-4.257-9.513-9.514" fill="#176fc1"/><path d="m394.709-198.884c.186.117.465.488.465.488-.048-.396-.325-.721-.325-.721-.373-.277-.232-.348-.535-1.185-.301-.836.162-1.138-.789-1.742-.394-.249-.805-.291-1.04-.291-.01-.012-.019-.024-.029-.035-.577-.647-1.89-.529-2.831-.465-.122-.259-.357-.76-.458-.988-.14-.314 0-.72.046-.917.046-.198.104-.232.127-.883.022-.618-.564-.869-.622-.892l.042-.014-.117-.187-.143.066c.068-.174.079-.385.05-.507-.086-.371-.279-.639-.655-.553-.191.043-.327.207-.378.415v-.002-.034s-.022.267-.197.348c0 0-.093.14 0 .152l.194-.11c.002.012.004.023.008.036.06.241.216.425.4.505l-.137.056.051.103c-.007 0-.026.011-.063.048-.081.082-.418.651-.511.825s-.035.14-.198.314c-.135.144-.855.778-1.095.989-1.12-1.045-1.308-1.005-1.763-1.163-.387-.136-.677-.013-.763.032-.264-.117-.353-.241-.353-.241s-.044.156-.049.287c-.037-.02-.071-.042-.103-.066-.174-.139-.348-.127-.348-.127s-.081 0-.011.081c.069.081.098.175.244.245.165.078.176.151.166.252-.136.16-.259.342-.282.502 0 0-.023.964-.058 1.22 0 0-.104.628-.163.767 0 0-.116.105.035.221 0 0 .151.082.313.255 0 0 .059.035.175-.046 0 0-.059.081.116.07.175-.012.302-.046.326-.245.006-.046.018-.102.035-.161.231-.147.499-.234.766-.315.029-.009.057-.016.085-.023.072.232.172.467.287.686.255.488.232.767.279 1.162.041.35.028 1.115.539 1.402-.154.32-.523 1.055-.856 1.471 0 0-.17.078-.093.402 0 0 0 0-.046.156-.096.314-.491 1.189-.629 1.359 0 0-.119.117.005.193l-.042.137s-.225.236-.067.643l.469-.207.04-.021s-.042-.207-.059-.318c-.016-.096.097-.051-.042-.129-.068-.037 0-.123 0-.123.134-.055.077-.201.077-.201.232-.619.434-1.303.62-1.41.187-.109.187-.23.187-.23s-.031-.01.014-.08c.044-.07.554-.566.711-.709 0 .002.113-.107.192-.252.083-.146.133-.326.134-.322.001.008.064.055.064.055-.035.057-.047.205-.12.314-.1.15-.26.26-.259.262.057.26.178.609.404 1.082 0 0-.034.152.067.221 0 0 .65.9.774 1.146.124.248.046.217.171.232l.186.186.042.055.104.051s.033.324.444.471l.149-.49.011-.045s-.185-.102-.28-.16c-.083-.053.025-.109-.125-.055-.072.027-.128.051-.128.051l-.1-.08s.255-.09-.256-.523c-.511-.434-.526-.869-.526-.869.092-.168-.078-.262-.078-.262.063-.291-.031-1.006-.079-1.1-.046-.094 0-.125.031-.201.083-.207.081-.408.049-.572.525.018 1.009 0 1.42-.047.099.057.219.121.343.17.302.117.163-.188.163-.188s.349.07.581.094c.134.014.121-.18.087-.346.304-.072.378-.025.378-.025-.022.141.101.268.092.389-.067.855.179 1.152.232 1.314.063.188.048.65.048.65-.202.48-.635 1.225-.697 1.408-.062.188.015.234.015.234l-.093.109c-.263.107-.418.604-.418.604l.682-.094c.232-.51-.031-.463-.031-.463l.093-.109c.247-.016.263-.186.263-.186.108-.898.837-1.736.883-1.891.047-.156-.03-.156-.063-.234-.03-.076-.03-.322-.03-.322-.124-.992.496-1.287.62-1.395.123-.109.031-.217.031-.217-.155-.232-.202-.636-.202-.636l.108-.117s.255 1.254 1.046 1.813c0 0 .837.951 1.139 1.51.303.557.116.256.185.557.07.305.253.939.397 1.256.146.324.611.697.611.697l.262-.543s-.061-.17-.34-.105l.03-.143s-.076.078-.232-.107c0 0-.062.156-.021-.061.039-.213-.117-.311-.117-.311-.295-.496-.34-1.084-.34-1.084.029-.049.029-.156.029-.156-.034-.24-.062-.543-.279-.896-.298-.488-.464-1.031-.464-1.031.043-.539.157-2.093-.345-3.017.738.057.895.634.787.785-.117.164-.14.558 0 .697s.021.302.186.696c.163.396.601.91.601.91-.043-.029.153.16.073.02-.279-.488-.582-1.277-.582-1.277.281.348.485.941.605 1.197.151.324.22.418.405.58.187.162.339.385.339.385.022-.188-.093-.373-.211-.488-.115-.119-.162-.328-.162-.328zm-11.436-6.173c-.003-.001-.008-.002-.011-.003l.023-.007c-.005.004-.008.007-.012.01zm.758 2.41c-.163.058-.325.127-.453.244-.008.006-.017.01-.025.016.088-.242.2-.48.2-.48s.333-.151.449-.504c.042-.127.073-.402.027.039-.02.186.002.394.052.608-.084.02-.167.046-.25.077zm3.18-.519c-.118-.056-.238-.121-.363-.198.499-.252.82-.573.82-.573-.102.229-.284.519-.457.771" fill="#fff"/></g></svg>