<?xml version="1.0" encoding="iso-8859-1"?>
<!-- Generator: Adobe Illustrator 14.0.0, SVG Export Plug-In . SVG Version: 6.00 Build 43363)  -->
<!DOCTYPE svg PUBLIC "-//W3C//DTD SVG 1.1//EN" "http://www.w3.org/Graphics/SVG/1.1/DTD/svg11.dtd">
<svg version="1.1" id="Vrstva_1" xmlns="http://www.w3.org/2000/svg" xmlns:xlink="http://www.w3.org/1999/xlink" x="0px" y="0px"
	 width="24px" height="24px" viewBox="0 0 24 24" style="enable-background:new 0 0 24 24;" xml:space="preserve">
<g>
	<path style="fill:#FFFFFF;" d="M9.466,6.321c0.522-0.639,2.972-0.944,4.366-0.437c1.393,0.507,2.981,1.016,4.284,1.617
		c1.305,0.603,0.661,1.769-0.62,1.212c-1.282-0.555-1.953-0.868-2.681-1.074c-0.767-0.216-2.496-0.527-2.496-0.527
		s1.33,3.974,0.998,4.454c-0.355,0.513-2.811,0.089-3.003-0.119c-0.258-0.278-0.725-2.272-0.725-2.272s-0.341,1.182-0.975,1.609
		c-0.613,0.413-1.999,0.756-3.523,1.141c-1.497,0.377-1.541-0.872-0.179-1.211c1.388-0.344,1.776-0.26,2.669-1.044
		C8.398,8.953,8.901,7.013,9.466,6.321z"/>
	<path style="fill:#FFFFFF;" d="M11.74,4.563c-0.289,0.657-1.04,0.964-1.678,0.685C9.425,4.967,9.142,4.208,9.43,3.55
		c0.289-0.658,1.04-0.966,1.677-0.686S12.028,3.904,11.74,4.563z"/>
	<path style="fill:#FFFFFF;" d="M10.043,13.406c0.151,1.25,0.41,3.209,0.568,4.164c0.179,1.086,1.528,1.092,1.356-0.059
		c-0.169-1.141-0.487-2.881-0.635-4.139C11.204,12.279,9.904,12.251,10.043,13.406z"/>
	<path style="fill:#FFFFFF;" d="M12.05,12.739c-0.139-0.577,1.073-0.416,1.186,0.062c0.109,0.475,1.589,6.527,1.83,7.633
		c0.239,1.107-1.136,1.172-1.327,0.17C13.558,19.658,12.191,13.332,12.05,12.739z"/>
	<line style="fill:none;stroke:#FFFFFF;" x1="4.692" y1="12.546" x2="5.737" y2="20.836"/>
	<line style="fill:none;stroke:#FFFFFF;" x1="17.633" y1="9.787" x2="20.031" y2="21.139"/>
</g>
</svg>
