<?xml version="1.0" encoding="utf-8"?>
<!-- Generator: Adobe Illustrator 14.0.0, SVG Export Plug-In . SVG Version: 6.00 Build 43363)  -->
<!DOCTYPE svg PUBLIC "-//W3C//DTD SVG 1.1//EN" "http://www.w3.org/Graphics/SVG/1.1/DTD/svg11.dtd">
<svg version="1.1"
	 id="airport" xmlns:xs="http://www.w3.org/2001/XMLSchema" xmlns:inkscape="http://www.inkscape.org/namespaces/inkscape" xmlns:rdf="http://www.w3.org/1999/02/22-rdf-syntax-ns#" xmlns:svg="http://www.w3.org/2000/svg" xmlns:cc="http://web.resource.org/cc/" xmlns:xi="http://www.w3.org/2001/XInclude" xmlns:dc="http://purl.org/dc/elements/1.1/"
	 xmlns="http://www.w3.org/2000/svg" xmlns:xlink="http://www.w3.org/1999/xlink" x="0px" y="0px" width="24px" height="24px"
	 viewBox="0 0 24 24" enable-background="new 0 0 24 24" xml:space="preserve">
<path d="M22.1,12c0-1.2,1.4-4.3,1.9-4.8h-2.4l-2.4,2.4h-6l6-9.6h-4.8L7.2,9.6c-2.4,0-4.8,0.5-6,1.2C0,12,0,12,1.2,13.2
	c1.2,0.7,3.6,1.2,6,1.2l7.2,9.6h4.8l-6-9.6h5.5l2.9,2.4H24C23.5,16.3,22.1,13.2,22.1,12z"/>
<line fill="none" stroke="#000000" stroke-width="2" stroke-linecap="round" x1="9.1" y1="17.4" x2="14.8" y2="17.4"/>
<line fill="none" stroke="#000000" stroke-width="2" stroke-linecap="round" x1="9.1" y1="6.6" x2="14.8" y2="6.6"/>
</svg>
