<svg height="20" width="20" xmlns="http://www.w3.org/2000/svg"><path d="m4.9278227 4.4824438-2.0820402 13.1743292h14.0695445l-2.050494-13.2121865z" fill-rule="evenodd" stroke="#000" stroke-width=".109474"/><path d="m2.841054 1.438447h14.015866v3.030458h-14.015866z" stroke-linecap="round" stroke-width="2.491"/><path d="m9.4571335 15.333227c-.7456 0-2.83328-.29824-2.68416-1.64032s1.64032-.59648 2.68416-.44736v-1.93856c-1.19296-.29824-2.68416-1.19296-2.68416-2.8332799 0-1.64032 1.4912-2.68416 2.68416-2.68416 0-.89472 0-1.19296.44736-1.19296.4473605 0 .4473605.29824.4473605 1.19296.894719 0 2.982399.29824 2.535039 1.34208s-1.789439.59648-2.535039.44736v1.93856c1.342079.29824 2.833279 1.1929599 2.833279 2.8332799s-1.34208 2.9824-2.833279 2.9824c0 .89472 0 1.19296-.4473605 1.19296-.44736 0-.44736-.29824-.44736-1.19296zm0-6.1139199v-1.64032c-1.04384.14912-1.04384 1.4912 0 1.64032zm.8947205 2.3859199v1.64032c1.043839-.14912 1.043839-1.4912 0-1.64032z" fill="#fff"/></svg>