<svg enable-background="new 0 0 18.6 18.6" height="18.6" viewBox="0 0 18.6 18.6" width="18.6" xmlns="http://www.w3.org/2000/svg"><path d="m9.7 0-9.7 7.5h2.2v11.2h14.2v-11.2h2.2z"/><path d="m9.2 16c-.9 0-3.3-.3-3.1-1.9s1.9-.7 3.1-.5v-2.2c-1.4-.4-3.1-1.5-3.1-3.4s1.7-3.1 3.1-3.1c0-1 0-1.4.5-1.4s.5.3.5 1.4c1 0 3.4.3 2.9 1.6-.5 1.2-2.1.7-2.9.5v2.2c1.6.3 3.3 1.4 3.3 3.3s-1.6 3.4-3.3 3.4c0 1 0 1.4-.5 1.4s-.5-.3-.5-1.3zm0-7.1v-1.9c-1.2.2-1.2 1.7 0 1.9zm1 2.7v1.9c1.2-.1 1.2-1.7 0-1.9z" fill="#1adb05" stroke="#000" stroke-width=".25"/></svg>