<?xml version="1.0" encoding="utf-8"?>
<!-- Generator: Adobe Illustrator 14.0.0, SVG Export Plug-In . SVG Version: 6.00 Build 43363)  -->
<!DOCTYPE svg PUBLIC "-//W3C//DTD SVG 1.1//EN" "http://www.w3.org/Graphics/SVG/1.1/DTD/svg11.dtd">
<svg version="1.1" id="Vrstva_1" xmlns="http://www.w3.org/2000/svg" xmlns:xlink="http://www.w3.org/1999/xlink" x="0px" y="0px"
	 width="20px" height="20px" viewBox="0 0 20 20" enable-background="new 0 0 20 20" xml:space="preserve">
<g>
	<path d="M14.4,19.3c-0.6,0-1.1-0.4-1.2-0.9L12,13.6H7.4l-1.2,4.7c-0.1,0.6-0.6,0.9-1.2,0.9c-0.1,0-0.2,0-0.3,0
		c-0.3-0.1-0.6-0.3-0.8-0.6S3.7,18,3.8,17.7l1-4.1c-0.6-0.1-1.1-0.6-1.1-1.2c0-0.7,0.6-1.3,1.3-1.3h8.4l1.7-9.4c0.1-0.6,0.6-1,1.2-1
		c0.1,0,0.1,0,0.2,0c0.3,0.1,0.6,0.2,0.8,0.5c0.2,0.3,0.3,0.6,0.2,0.9l-1.9,10.4l0,0.1c0,0.1-0.1,0.2-0.1,0.2c0,0.1-0.1,0.2-0.1,0.2
		c-0.1,0.1-0.1,0.1-0.1,0.1c-0.1,0.1-0.2,0.1-0.2,0.2c-0.1,0-0.1,0.1-0.1,0.1c-0.1,0-0.2,0.1-0.3,0.1l1,4.1c0.1,0.3,0,0.7-0.1,0.9
		c-0.2,0.3-0.4,0.5-0.8,0.6C14.6,19.3,14.5,19.3,14.4,19.3L14.4,19.3z"/>
	<path fill="#EAEAEA" d="M16.3,1c0.1,0,0.1,0,0.2,0c0.5,0.1,0.9,0.6,0.8,1.2l-1.9,10.4c0,0,0,0.1,0,0.1c0,0.1,0,0.1-0.1,0.2
		c0,0.1-0.1,0.1-0.1,0.2c0,0-0.1,0.1-0.1,0.1c-0.1,0.1-0.1,0.1-0.2,0.1c0,0-0.1,0-0.1,0.1c-0.1,0-0.2,0.1-0.4,0.1c0,0,0,0,0,0h-0.1
		l1.1,4.4c0.1,0.5-0.2,1.1-0.7,1.2c-0.1,0-0.2,0-0.2,0c-0.4,0-0.9-0.3-1-0.8l-1.2-4.9h-5l-1.2,4.9C5.8,18.7,5.4,19,5,19
		c-0.1,0-0.2,0-0.2,0c-0.5-0.1-0.9-0.7-0.7-1.2l1.1-4.4H5c-0.6,0-1-0.4-1-1s0.4-1,1-1h8.6l1.7-9.6C15.4,1.3,15.8,1,16.3,1 M16.3,0.5
		c-0.7,0-1.4,0.5-1.5,1.2l-1.7,9.1H5c-0.8,0-1.5,0.7-1.5,1.5c0,0.7,0.4,1.2,1,1.4l-1,3.9c-0.1,0.4,0,0.8,0.2,1.1s0.5,0.6,0.9,0.7
		c0.1,0,0.2,0,0.4,0c0.7,0,1.3-0.5,1.5-1.1l1.1-4.5h4.3l1.1,4.5c0.2,0.7,0.8,1.1,1.5,1.1c0.1,0,0.2,0,0.4,0c0.4-0.1,0.7-0.3,0.9-0.7
		s0.3-0.7,0.2-1.1l-1-3.9c0,0,0,0,0.1,0c0.1,0,0.1-0.1,0.2-0.1c0.1-0.1,0.2-0.1,0.3-0.2c0,0,0.1-0.1,0.1-0.1
		c0.1-0.1,0.1-0.2,0.2-0.3c0-0.1,0.1-0.1,0.1-0.2c0,0,0-0.1,0.1-0.2l1.9-10.4c0.1-0.4,0-0.8-0.2-1.1c-0.2-0.3-0.6-0.6-1-0.6
		C16.5,0.5,16.4,0.5,16.3,0.5L16.3,0.5z"/>
</g>
</svg>
