<svg enable-background="new 0 0 20 20" height="20" viewBox="0 0 20 20" width="20" xmlns="http://www.w3.org/2000/svg"><path d="m14.4 19.3c-.6 0-1.1-.4-1.2-.9l-1.2-4.8h-4.6l-1.2 4.7c-.1.6-.6.9-1.2.9-.1 0-.2 0-.3 0-.3-.1-.6-.3-.8-.6s-.2-.6-.1-.9l1-4.1c-.6-.1-1.1-.6-1.1-1.2 0-.7.6-1.3 1.3-1.3h8.4l1.7-9.4c.1-.6.6-1 1.2-1h.2c.3.1.6.2.8.5s.3.6.2.9l-1.9 10.4v.1c0 .1-.1.2-.1.2 0 .1-.1.2-.1.2-.1.1-.1.1-.1.1-.1.1-.2.1-.2.2-.1 0-.1.1-.1.1-.1 0-.2.1-.3.1l1 4.1c.1.3 0 .7-.1.9-.2.3-.4.5-.8.6-.2.2-.3.2-.4.2z"/><path d="m16.3 1h.2c.5.1.9.6.8 1.2l-1.9 10.4v.1c0 .1 0 .1-.1.2 0 .1-.1.1-.1.2 0 0-.1.1-.1.1-.1.1-.1.1-.2.1 0 0-.1 0-.1.1-.1 0-.2.1-.4.1h-.1l1.1 4.4c.1.5-.2 1.1-.7 1.2-.1 0-.2 0-.2 0-.4 0-.9-.3-1-.8l-1.2-4.9h-5l-1.2 4.9c-.3.4-.7.7-1.1.7-.1 0-.2 0-.2 0-.5-.1-.9-.7-.7-1.2l1.1-4.4h-.2c-.6 0-1-.4-1-1s.4-1 1-1h8.6l1.7-9.6c.1-.5.5-.8 1-.8m0-.5c-.7 0-1.4.5-1.5 1.2l-1.7 9.1h-8.1c-.8 0-1.5.7-1.5 1.5 0 .7.4 1.2 1 1.4l-1 3.9c-.1.4 0 .8.2 1.1s.5.6.9.7h.4c.7 0 1.3-.5 1.5-1.1l1.1-4.5h4.3l1.1 4.5c.2.7.8 1.1 1.5 1.1h.4c.4-.1.7-.3.9-.7s.3-.7.2-1.1l-1-3.9h.1c.1 0 .1-.1.2-.1.1-.1.2-.1.3-.2 0 0 .1-.1.1-.1.1-.1.1-.2.2-.3 0-.1.1-.1.1-.2 0 0 0-.1.1-.2l1.9-10.4c.1-.4 0-.8-.2-1.1s-.6-.6-1-.6c-.3 0-.4 0-.5 0z" fill="#eaeaea"/></svg>