<svg height="16" width="16" xmlns="http://www.w3.org/2000/svg"><g transform="matrix(.2297763 -.21971 .21971 .2297763 -15.777098 7.045076)"><path d="m57.120282 25.87914c-.000038-1.151953-.408037-2.111952-1.224-2.88-.768036-.76795-1.728035-1.15195-2.88-1.152-1.104032.00005-2.064031.40805-2.88 1.224-.76803.768048-1.152029 1.704047-1.152 2.808-.000029 1.104045.38397 2.064044 1.152 2.88.815969.768043 1.775968 1.152042 2.88 1.152 1.151965.000042 2.111964-.383957 2.88-1.152.815963-.767956 1.223962-1.727955 1.224-2.88"/><path d="m73.608282 55.32714c-.000054-3.02398-1.080053-5.591978-3.24-7.704-2.112049-2.159973-4.680046-3.239972-7.704-3.24-3.02404.000028-5.616037 1.080027-7.776 3.24-2.112033 2.112022-3.168032 4.68002-3.168 7.704-.000032 3.024014 1.055967 5.616011 3.168 7.776 2.159963 2.112007 4.75196 3.168006 7.776 3.168 3.023954.000006 5.591951-1.055993 7.704-3.168 2.159947-2.159989 3.239946-4.751986 3.24-7.776"/><path d="m59.640282 37.75914c-.00004-1.199964-.576039-1.799964-1.728-1.8h-4.824l-3.6-6.768c-.576029-.815956-1.368029-1.223956-2.376-1.224-1.056026.000044-1.848026.384044-2.376 1.152l-7.776 7.632c-.624017.624035-.936016 1.488034-.936 2.592-.000016 1.440031.455983 2.40003 1.368 2.88l8.784 4.824-.072 8.784c-.000026 1.440015.719973 2.160014 2.16 2.16 1.48797.000014 2.231969-.719985 2.232-2.16v-10.8c-.000031-.575972-.264031-1.319972-.792-2.232l-5.904-3.168 4.752-4.824 2.016 3.888c.287969.528033.791968.792033 1.512.792h5.76c1.199961.000033 1.79996-.575967 1.8-1.728"/><path d="m45.168282 55.32714c-.000026-3.02398-1.080024-5.591978-3.24-7.704-2.11202-2.159973-4.680018-3.239972-7.704-3.24-3.024012.000028-5.616009 1.080027-7.776 3.24-2.112005 2.112022-3.168004 4.68002-3.168 7.704-.000004 3.024014 1.055995 5.616011 3.168 7.776 2.159991 2.112007 4.751988 3.168006 7.776 3.168 3.023982.000006 5.59198-1.055993 7.704-3.168 2.159976-2.159989 3.239974-4.751986 3.24-7.776"/><g fill="#fff"><path d="m71.520282 55.32714c-.000052 2.448014-.864051 4.536012-2.592 6.264-1.728048 1.728009-3.816045 2.592008-6.264 2.592-2.448041.000008-4.536039-.863991-6.264-2.592-1.728035-1.727988-2.592034-3.815986-2.592-6.264-.000034-2.447981.863965-4.535979 2.592-6.264 1.727961-1.727975 3.815959-2.591974 6.264-2.592 2.447955.000026 4.535952.864025 6.264 2.592 1.727949 1.728021 2.591948 3.816019 2.592 6.264"/><path d="m43.080282 55.32714c-.000023 2.448014-.864023 4.536012-2.592 6.264-1.728019 1.728009-3.816017 2.592008-6.264 2.592-2.448012.000008-4.53601-.863991-6.264-2.592-1.728007-1.727988-2.592006-3.815986-2.592-6.264-.000006-2.447981.863993-4.535979 2.592-6.264 1.72799-1.727975 3.815988-2.591974 6.264-2.592 2.447983.000026 4.535981.864025 6.264 2.592 1.727977 1.728021 2.591977 3.816019 2.592 6.264"/></g></g><g fill="#00f"><path d="m7.4758621 9.9693176c-.2085859-.076931-.3794245-.23617-1.2809624-1.19399-.5566773-.5914304-1.0276583-1.0736014-1.0466238-1.0714917-.0189656.0021096-.74741.1938917-1.6187659.4261827-1.73314.46203-1.7503686.4645435-2.0336145.2966193-.1899762-.1126293-.4791458-.4160103-.57756205-.6059482-.11100862-.2142407-.11492862-.4217976-.04730828-2.5049625.05293483-1.6307455.06183517-1.7633258.1269938-1.8915893.16228203-.3194503.48185003-.5344827.79431513-.5344827.1368397 0 .4678359.093612 1.3605311.3847838l1.1796969.3847841.5901393-.5658183c.6134872-.5882048.77821-.7018431.9636014-.6647648.1339724.0267945.3936124.2519869.4514075.3915172.0587256.1417745.0249931.3579052-.0740434.4744176-.1320093.1553038-1.436939 1.3966093-1.5388307 1.4638024-.1518559.1001425-.3081041.0748325-1.0054169-.1628613-.3633214-.1238462-.6753731-.2160335-.6934496-.2048618-.01969.0121693-.0328663.448988-.0328663 1.0895666 0 1.0141755.003199 1.068239.0621028 1.0495438.3499331-.1110648 1.94116-.5361383 2.0078355-.5363648.0479493-.0001625.1953628.0519517.3275862.11581.2256783.1089931.3164111.1958486 1.4809831 1.4176903.6823173.7158714 1.2756673 1.3491469 1.3185556 1.407279.1599548.2168065.1376041.4829551-.0606959.7227517-.1724035.208481-.5047104.3673043-.6536086.3123869z"/><path d="m3.6765952 15.668049c-1.3098262-.232489-2.3827535-1.194203-2.77268899-2.48529-.08525276-.282276-.09403483-.363365-.09709414-.896552-.00288552-.502837.00772655-.629741.07461586-.89231.15442517-.606185.46010107-1.135749.91891967-1.5919701.4618265-.4592124.952711-.7483641 1.5351755-.9042838.2918066-.0781141.3958352-.08825.8989597-.0875945.4973769.0006483.6102331.011699.8969475.0878255.5524821.1466925.9637669.364259 1.3617718.7203683.6437041.5759456 1.0136824 1.2129956 1.1589507 1.9955506.0595972.321049.0495544 1.031713-.019148 1.354989-.2682614 1.262294-1.3154855 2.337889-2.5759317 2.64572-.3747297.091518-1.0245479.116724-1.3804779.053548zm1.1211107-.655524c1.0990103-.210276 1.9929982-1.097631 2.2163472-2.199904.0783676-.386759.0517803-1.05102-.0555748-1.388483-.1701021-.534703-.52692-1.064678-.9387893-1.394366-.2693662-.2156199-.765429-.4662006-1.0610683-.5359882-.692041-.1633614-1.39898-.0846959-2.0046124.2230641-.6787135.3448981-1.2512145 1.0488631-1.4487438 1.7814221-.0981707.364078-.1061811 1.095263-.0156166 1.425552.2400338.875401.8591266 1.595314 1.658628 1.928735.4836055.201681 1.11259.262682 1.64943.159967z"/><path d="m10.336386 9.4379497c-1.1238588-.1453518-2.1610581-.8991869-2.6841126-1.9508094-.4612337-.9273275-.4417355-2.1289393.0499942-3.0810186.4314834-.835432 1.2825255-1.5269024 2.1701462-1.763242.3656282-.0973528 1.3164882-.1105987 1.6902252-.0235452.610582.142221 1.119461.4181889 1.582913.8584227.778575.73957 1.129745 1.6189987 1.078921 2.7019235-.039451.840611-.330182 1.5310224-.90711 2.1541576-.780066.8425431-1.873117 1.2473945-2.980977 1.1041114zm.908734-.655668c.629112-.0974389 1.157286-.3906631 1.63234-.9062203.685294-.7437228.907689-1.8219628.579158-2.8079448-.301206-.9039763-1.150764-1.6546607-2.091371-1.8479745-1.125609-.2313352-2.2712753.2287493-2.9252346 1.1747348-.3632352.5254386-.5011069 1.03146-.4723476 1.7336262.026988.6589072.1922255 1.1068.597328 1.6191093.6408841.8104883 1.6391982 1.19589 2.6801262 1.034669z"/><path d="m1.7387583 2.5594193c-.3543255-.1131548-.6277476-.3560348-.79187347-.7034183-.09126207-.193161-.10524345-.2606644-.1035638-.5.00253621-.36144514.09658276-.60947583.32647177-.861011.2034558-.22261276.501601-.38343931.7739048-.41746138.223501-.02792448.556021.02909138.7516165.12887655.2003521.10221242.4620762.38192897.5671628.6061538.0797786.17022448.0924393.24103203.0908569.50813073-.0015383.2595396-.0166669.3426234-.0924159.5075196-.2695031.5866738-.9504534.9137866-1.5221596.73121z"/></g></svg>