<svg enable-background="new 0.7 0 16.3 16.2" height="16.2" viewBox=".7 0 16.3 16.2" width="16.3" xmlns="http://www.w3.org/2000/svg"><path d="m15 8.4c0 3.3-2.7 6-6 6s-6-2.7-6-6 2.7-6 6-6 6 2.7 6 6z"/><path d="m14 8.4c0 2.8-2.2 5-5 5s-5-2.2-5-5 2.2-5 5-5 5 2.2 5 5z" fill="#fff"/><path d="m8.3 1.4h1.4v14h-1.4z"/><path d="m2 7.7h14v1.4h-14z"/><path d="m2 7.9h14v1h-14z" transform="matrix(.7071 -.7071 .7071 .7071 -3.2943 8.8152)"/><path d="m2 7.9h14v1h-14z" transform="matrix(.7071 .7071 -.7071 .7071 8.567 -3.9137)"/></svg>