<?xml version="1.0" encoding="utf-8"?>
<!-- Generator: Adobe Illustrator 14.0.0, SVG Export Plug-In . SVG Version: 6.00 Build 43363)  -->
<!DOCTYPE svg PUBLIC "-//W3C//DTD SVG 1.1//EN" "http://www.w3.org/Graphics/SVG/1.1/DTD/svg11.dtd">
<svg version="1.1"
	 id="airport" xmlns:cc="http://web.resource.org/cc/" xmlns:rdf="http://www.w3.org/1999/02/22-rdf-syntax-ns#" xmlns:svg="http://www.w3.org/2000/svg" xmlns:inkscape="http://www.inkscape.org/namespaces/inkscape" xmlns:dc="http://purl.org/dc/elements/1.1/" xmlns:xi="http://www.w3.org/2001/XInclude" xmlns:xs="http://www.w3.org/2001/XMLSchema"
	 xmlns="http://www.w3.org/2000/svg" xmlns:xlink="http://www.w3.org/1999/xlink" x="0px" y="0px" width="24px" height="24px"
	 viewBox="0 0 24 24" enable-background="new 0 0 24 24" xml:space="preserve">
<g id="layer1" transform="translate(0,-1036.3622)" inkscape:label="Vrstva 1" inkscape:groupmode="layer">
	<path id="path2987" sodipodi:nodetypes="cccsccccssccccsccccssccsssssss" inkscape:connector-curvature="0" stroke="#FFFFFF" d="
		M3.428,1039.238l-1.868,1.952l3.48,3.481c-0.732,1.083-1.188,2.333-1.188,3.734c0,1.361,0.408,2.671,1.104,3.734l-3.395,3.392
		l1.868,1.955l3.395-3.395c1.082,0.732,2.418,1.101,3.819,1.101h2.716c1.4,0,2.736-0.368,3.818-1.101l3.396,3.395l1.867-1.955
		l-3.395-3.392c0.694-1.063,1.103-2.373,1.103-3.734c0-1.402-0.456-2.651-1.188-3.734l3.48-3.481l-1.867-1.952l-3.48,3.481
		c-1.065-0.695-2.37-1.104-3.733-1.104h-2.716c-1.363,0-2.668,0.409-3.735,1.104L3.428,1039.238z M10.642,1044.331h2.716
		c2.28,0,4.073,1.793,4.073,4.074c0,2.281-1.793,4.073-4.073,4.073h-2.716c-2.281,0-4.074-1.792-4.074-4.073
		C6.568,1046.124,8.361,1044.331,10.642,1044.331z"/>
	<path id="rect2987" sodipodi:nodetypes="cccsccccssccccsccccssccsssssss" inkscape:connector-curvature="0" d="M3.428,1039.238
		l-1.868,1.952l3.48,3.481c-0.732,1.083-1.188,2.333-1.188,3.734c0,1.361,0.408,2.671,1.104,3.734l-3.395,3.392l1.868,1.955
		l3.395-3.395c1.082,0.732,2.418,1.101,3.819,1.101h2.716c1.4,0,2.736-0.368,3.818-1.101l3.396,3.395l1.867-1.955l-3.395-3.392
		c0.694-1.063,1.103-2.373,1.103-3.734c0-1.402-0.456-2.651-1.188-3.734l3.48-3.481l-1.867-1.952l-3.48,3.481
		c-1.065-0.695-2.37-1.104-3.733-1.104h-2.716c-1.363,0-2.668,0.409-3.735,1.104L3.428,1039.238z M10.642,1044.331h2.716
		c2.28,0,4.073,1.793,4.073,4.074c0,2.281-1.793,4.073-4.073,4.073h-2.716c-2.281,0-4.074-1.792-4.074-4.073
		C6.568,1046.124,8.361,1044.331,10.642,1044.331z"/>
</g>
</svg>
