<svg enable-background="new 0 0 24 24" height="24" viewBox="0 0 24 24" width="24" xmlns="http://www.w3.org/2000/svg"><g transform="translate(0 -1036.3622)"><path d="m3.428 1039.238-1.868 1.952 3.48 3.481c-.732 1.083-1.188 2.333-1.188 3.734 0 1.361.408 2.671 1.104 3.734l-3.395 3.392 1.868 1.955 3.395-3.395c1.082.732 2.418 1.101 3.819 1.101h2.716c1.4 0 2.736-.368 3.818-1.101l3.396 3.395 1.867-1.955-3.395-3.392c.694-1.063 1.103-2.373 1.103-3.734 0-1.402-.456-2.651-1.188-3.734l3.48-3.481-1.867-1.952-3.48 3.481c-1.065-.695-2.37-1.104-3.733-1.104h-2.716c-1.363 0-2.668.409-3.735 1.104zm7.214 5.093h2.716c2.28 0 4.073 1.793 4.073 4.074s-1.793 4.073-4.073 4.073h-2.716c-2.281 0-4.074-1.792-4.074-4.073s1.793-4.074 4.074-4.074z" stroke="#fff"/><path d="m3.428 1039.238-1.868 1.952 3.48 3.481c-.732 1.083-1.188 2.333-1.188 3.734 0 1.361.408 2.671 1.104 3.734l-3.395 3.392 1.868 1.955 3.395-3.395c1.082.732 2.418 1.101 3.819 1.101h2.716c1.4 0 2.736-.368 3.818-1.101l3.396 3.395 1.867-1.955-3.395-3.392c.694-1.063 1.103-2.373 1.103-3.734 0-1.402-.456-2.651-1.188-3.734l3.48-3.481-1.867-1.952-3.48 3.481c-1.065-.695-2.37-1.104-3.733-1.104h-2.716c-1.363 0-2.668.409-3.735 1.104zm7.214 5.093h2.716c2.28 0 4.073 1.793 4.073 4.074s-1.793 4.073-4.073 4.073h-2.716c-2.281 0-4.074-1.792-4.074-4.073s1.793-4.074 4.074-4.074z"/></g></svg>