<svg enable-background="new 0 0 24 24" height="24" viewBox="0 0 24 24" width="24" xmlns="http://www.w3.org/2000/svg"><path d="m5.145 5.047-1.239 1.295 3.209 3.209c-.485.719-.788 1.547-.788 2.477 0 .904.271 1.771.731 2.477l-3.152 3.153 1.239 1.295 3.153-3.153c.718.485 1.604.731 2.533.731h3.603c.93 0 1.816-.246 2.534-.731l3.152 3.153 1.238-1.295-3.152-3.153c.461-.706.731-1.573.731-2.477 0-.93-.302-1.758-.788-2.477l3.209-3.209-1.238-1.295-3.209 3.209c-.707-.461-1.573-.732-2.478-.732h-3.603c-.904 0-1.77.271-2.478.732zm5.686 4.279h3.603c1.514 0 2.703 1.189 2.703 2.702s-1.189 2.703-2.703 2.703h-3.603c-1.513 0-2.702-1.189-2.702-2.703s1.189-2.702 2.702-2.702z" fill="#fff" stroke="#fff"/><path d="m17.478 16.951c-.828.466-1.804.71-2.848.71h-4.152c-1.043 0-2.018-.244-2.846-.71l-3.717 3.717-2.119-2.215 3.704-3.705c-.462-.84-.713-1.812-.713-2.778 0-.973.26-1.908.772-2.785l-3.764-3.762 2.119-2.216 3.785 3.786c.842-.463 1.813-.715 2.778-.715h4.152c.966 0 1.938.252 2.779.715l3.784-3.786 2.119 2.216-3.761 3.762c.513.875.772 1.811.772 2.785 0 .966-.251 1.938-.714 2.777l3.704 3.706-2.119 2.215zm-7-7.597c-1.466 0-2.615 1.149-2.615 2.615 0 1.467 1.149 2.615 2.615 2.615h4.152c1.467 0 2.616-1.148 2.616-2.615 0-1.466-1.149-2.615-2.616-2.615z"/><path d="m21.186 3.922 1.428 1.493-3.699 3.699c.561.829.908 1.784.908 2.856 0 1.042-.312 2.041-.843 2.855l3.634 3.636-1.428 1.492-3.634-3.635c-.827.56-1.85.843-2.922.843h-4.152c-1.071 0-2.093-.283-2.92-.843l-3.635 3.635-1.428-1.492 3.634-3.636c-.532-.814-.843-1.813-.843-2.855 0-1.072.349-2.027.908-2.856l-3.699-3.699 1.428-1.493 3.699 3.7c.816-.532 1.814-.844 2.856-.844h4.152c1.043 0 2.042.313 2.857.844zm-10.708 11.163h4.152c1.746 0 3.116-1.371 3.116-3.115 0-1.745-1.37-3.115-3.116-3.115h-4.152c-1.744 0-3.115 1.371-3.115 3.115-.001 1.744 1.37 3.115 3.115 3.115m10.723-12.593-.723.723-3.166 3.167c-.832-.393-1.76-.604-2.683-.604h-4.152c-.937 0-1.851.207-2.683.603l-3.165-3.166-.723-.723-.706.739-1.428 1.493-.676.707.691.691 3.153 3.152c-.435.854-.654 1.758-.654 2.696 0 .923.211 1.851.603 2.682l-3.102 3.103-.691.691.676.707 1.428 1.492.707.738.723-.723 3.097-3.097c.825.393 1.761.598 2.751.598h4.152c.991 0 1.928-.205 2.753-.598l3.096 3.097.723.723.707-.738 1.428-1.492.676-.707-.691-.691-3.102-3.104c.393-.831.604-1.758.604-2.681 0-.939-.22-1.842-.654-2.696l3.152-3.152.691-.691-.676-.707-1.428-1.493zm-10.723 11.593c-1.186 0-2.115-.929-2.115-2.115s.929-2.115 2.115-2.115h4.152c1.187 0 2.116.929 2.116 2.115 0 1.187-.93 2.115-2.116 2.115z" fill="#f1d581"/></svg>