<svg enable-background="new 0 0 28 28" height="28" viewBox="0 0 28 28" width="28" xmlns="http://www.w3.org/2000/svg"><path d="m2.8 20.9c-.8 0-1.5-.7-1.5-1.5v-12.3c0-.8.7-1.5 1.5-1.5h22.4c.8 0 1.5.7 1.5 1.5v12.3c0 .8-.7 1.5-1.5 1.5z" fill="#2143b1"/><path d="m25.2 6.1c.5 0 1 .5 1 1v12.3c0 .5-.5 1-1 1h-22.4c-.5 0-1-.5-1-1v-12.3c0-.5.5-1 1-1zm0-1h-22.4c-1.1 0-2 .9-2 2v12.3c0 1.1.9 2 2 2h22.4c1.1 0 2-.9 2-2v-12.3c0-1.1-.9-2-2-2z" fill="#fff"/><path d="m5.4 9.2h16.4c.4.5.5 1.3.7 2 .2 1.3.6 2.6.5 3.9 0 .4.1 1.2-.5 1.2-5.8 0-11.2 0-17 0-.6 0-.5-.7-.5-1.4 0-1.7-.1-3.3 0-4.9 0-.4.1-.8.4-.8z" fill="#fff"/><g fill="#2143b1"><path d="m20.5 16.3c.1 1.2-1.4 1.9-2.2 1.1-.9-.7-.5-2.3.6-2.5.8-.2 1.6.5 1.6 1.4z" stroke="#fff" stroke-width=".7559"/><path d="m10.5 16.3c.1 1.2-1.4 1.9-2.2 1.1-.9-.7-.5-2.3.6-2.5.8-.2 1.6.5 1.6 1.4z" stroke="#fff" stroke-width=".7559"/><path d="m18.1 10.4h2.8c.1 0 .3 0 .3.1.3.7.3 1.5.5 2.3.1.5 0 .7-.5.7-1.1 0-2.1 0-3.1 0-.2 0-.3-.2-.3-.3 0-.9 0-1.9 0-2.5.1-.2.2-.3.3-.3z"/><path d="m11.5 10.4h4.4c.2 0 .3.1.3.2v2.6c0 .1-.1.2-.3.2h-4.4c-.2 0-.3-.1-.3-.2v-2.6c0-.1.1-.2.3-.2z"/><path d="m6.3 10.4h3.1c.1 0 .2.1.2.2v2.6c0 .1-.1.2-.2.2h-2.9c-.1 0-.6.1-.6-.2v-2.5c.1-.1.3-.3.4-.3z"/></g></svg>