<?xml version="1.0" encoding="utf-8"?>
<!-- Generator: Adobe Illustrator 14.0.0, SVG Export Plug-In . SVG Version: 6.00 Build 43363)  -->
<!DOCTYPE svg PUBLIC "-//W3C//DTD SVG 1.1//EN" "http://www.w3.org/Graphics/SVG/1.1/DTD/svg11.dtd">
<svg version="1.1" xmlns="http://www.w3.org/2000/svg" xmlns:xlink="http://www.w3.org/1999/xlink" x="0px" y="0px" width="28px"
	 height="28px" viewBox="0 0 28 28" enable-background="new 0 0 28 28" xml:space="preserve">
<g id="Vrstva_2">
	<g>
		<path fill="#2143B1" d="M2.8,20.9c-0.8,0-1.5-0.7-1.5-1.5V7.1c0-0.8,0.7-1.5,1.5-1.5h22.4c0.8,0,1.5,0.7,1.5,1.5v12.3
			c0,0.8-0.7,1.5-1.5,1.5H2.8z"/>
		<path fill="#FFFFFF" d="M25.2,6.1c0.5,0,1,0.5,1,1v12.3c0,0.5-0.5,1-1,1H2.8c-0.5,0-1-0.5-1-1V7.1c0-0.5,0.5-1,1-1H25.2 M25.2,5.1
			H2.8c-1.1,0-2,0.9-2,2v12.3c0,1.1,0.9,2,2,2h22.4c1.1,0,2-0.9,2-2V7.1C27.2,6,26.3,5.1,25.2,5.1L25.2,5.1z"/>
	</g>
</g>
<g id="symbol-bus" xmlns:xs="http://www.w3.org/2001/XMLSchema" xmlns:inkscape="http://www.inkscape.org/namespaces/inkscape" xmlns:rdf="http://www.w3.org/1999/02/22-rdf-syntax-ns#" xmlns:svg="http://www.w3.org/2000/svg" xmlns:cc="http://web.resource.org/cc/" xmlns:xi="http://www.w3.org/2001/XInclude" xmlns:dc="http://purl.org/dc/elements/1.1/">
	<path fill="#FFFFFF" d="M5.4,9.2c5.6,0,10.8,0,16.4,0c0.4,0.5,0.5,1.3,0.7,2c0.2,1.3,0.6,2.6,0.5,3.9c0,0.4,0.1,1.2-0.5,1.2
		c-5.8,0-11.2,0-17,0c-0.6,0-0.5-0.7-0.5-1.4c0-1.7-0.1-3.3,0-4.9C5,9.6,5.1,9.2,5.4,9.2z"/>
	<path fill="#2143B1" stroke="#FFFFFF" stroke-width="0.7559" d="M20.5,16.3c0.1,1.2-1.4,1.9-2.2,1.1c-0.9-0.7-0.5-2.3,0.6-2.5
		C19.7,14.7,20.5,15.4,20.5,16.3z"/>
	<path fill="#2143B1" stroke="#FFFFFF" stroke-width="0.7559" d="M10.5,16.3c0.1,1.2-1.4,1.9-2.2,1.1c-0.9-0.7-0.5-2.3,0.6-2.5
		C9.7,14.7,10.5,15.4,10.5,16.3z"/>
	<path fill="#2143B1" d="M18.1,10.4c1.1,0,1.7,0,2.8,0c0.1,0,0.3,0,0.3,0.1c0.3,0.7,0.3,1.5,0.5,2.3c0.1,0.5,0,0.7-0.5,0.7
		c-1.1,0-2.1,0-3.1,0c-0.2,0-0.3-0.2-0.3-0.3c0-0.9,0-1.9,0-2.5C17.9,10.5,18,10.4,18.1,10.4z"/>
	<path fill="#2143B1" d="M11.5,10.4h4.4c0.2,0,0.3,0.1,0.3,0.2v2.6c0,0.1-0.1,0.2-0.3,0.2h-4.4c-0.2,0-0.3-0.1-0.3-0.2v-2.6
		C11.2,10.5,11.3,10.4,11.5,10.4z"/>
	<path fill="#2143B1" d="M6.3,10.4l3.1,0c0.1,0,0.2,0.1,0.2,0.2v2.6c0,0.1-0.1,0.2-0.2,0.2l-2.9,0c-0.1,0-0.6,0.1-0.6-0.2l0-2.5
		C6,10.6,6.2,10.4,6.3,10.4z"/>
</g>
</svg>
