<?xml version="1.0" encoding="utf-8"?>
<!-- Generator: Adobe Illustrator 14.0.0, SVG Export Plug-In . SVG Version: 6.00 Build 43363)  -->
<!DOCTYPE svg PUBLIC "-//W3C//DTD SVG 1.1//EN" "http://www.w3.org/Graphics/SVG/1.1/DTD/svg11.dtd">
<svg version="1.1" id="symbol-bus-station" xmlns:svg="http://www.w3.org/2000/svg"
	 xmlns="http://www.w3.org/2000/svg" xmlns:xlink="http://www.w3.org/1999/xlink" x="0px" y="0px" width="41px" height="41px"
	 viewBox="0 0 41 41" enable-background="new 0 0 41 41" xml:space="preserve">
<g id="g3353" transform="matrix(1.524215,0,0,1.5911274,-437.4375,-1077.4843)">
	<a id="a3337">
		<g id="g2468" transform="matrix(0.466,0,0,0.466,295.1017,691.67072)">
			<path id="path2470" fill="#0000FF" stroke="#000000" stroke-width="0.331" d="M-4-9.6c9.8,0,19.6,0,29.4,0
				c0.8,0.9,0.8,2.2,1.2,3.3c0.4,2.1,1,4.2,0.9,6.4c0,0.7,0.2,2-0.9,1.9C16.4,2,6.2,2-4,2c-1.1,0-1.4-1.1-1.4-2.1
				c0-2.7-0.1-5.5,0-8.2C-5.3-9-4.6-9.6-4-9.6z"/>
			<path id="path2472" fill="#0000FF" stroke="#FFFFFF" stroke-width="0.7559" d="M21,1.6C21,3,19.1,3.9,18,2.9
				c-1.2-0.9-0.7-2.9,0.8-3.1C19.9-0.4,21,0.5,21,1.6z"/>
			<path id="path2474" fill="#0000FF" stroke="#FFFFFF" stroke-width="0.7559" d="M5.3,1.6C5.4,3,3.5,3.9,2.4,2.9
				C1.2,2.1,1.8,0,3.2-0.2C4.3-0.4,5.4,0.5,5.3,1.6z"/>
			<path id="path2476" fill="#FFFFFF" stroke="#000000" stroke-width="0.3548" d="M19.3-8.8c2,0,3.1,0,5.1,0c0.3,0,0.5,0.1,0.6,0.3
				c0.6,1.2,0.6,2.6,0.9,3.9c0.1,0.9,0,1.2-0.9,1.2c-1.9,0-3.9,0-5.7,0c-0.3,0-0.5-0.3-0.5-0.5c0-1.6,0-3.3,0-4.4
				C18.8-8.6,19-8.8,19.3-8.8z"/>
			<path id="rect2478" fill="#FFFFFF" stroke="#000000" stroke-width="0.35" d="M3.9-8.8h6c0.2,0,0.4,0.2,0.4,0.4v4.6
				c0,0.2-0.2,0.4-0.4,0.4h-6c-0.2,0-0.4-0.2-0.4-0.4v-4.6C3.5-8.6,3.7-8.8,3.9-8.8z"/>
			<path id="rect2480" fill="#FFFFFF" stroke="#000000" stroke-width="0.35" d="M-3.8-8.8h6c0.2,0,0.4,0.2,0.4,0.4v4.6
				c0,0.2-0.2,0.4-0.4,0.4h-6c-0.2,0-0.4-0.2-0.4-0.4v-4.6C-4.2-8.6-4-8.8-3.8-8.8z"/>
			<path id="rect2482" fill="#FFFFFF" stroke="#000000" stroke-width="0.35" d="M11.6-8.8h6c0.2,0,0.4,0.2,0.4,0.4v4.6
				c0,0.2-0.2,0.4-0.4,0.4h-6c-0.2,0-0.4-0.2-0.4-0.4v-4.6C11.2-8.6,11.3-8.8,11.6-8.8z"/>
		</g>
	</a>
	<path id="path3305" fill="#FFFFFF" fill-opacity="0" stroke="#0000FF" stroke-linejoin="bevel" d="M310.1,690
		c0,5.3-4.4,9.5-9.9,9.5c-5.5,0-9.9-4.3-9.9-9.5l0,0c0-5.3,4.4-9.5,9.9-9.5C305.7,680.5,310.1,684.7,310.1,690L310.1,690z"/>
</g>
</svg>
