<svg enable-background="new 0 0 41 41" height="41" viewBox="0 0 41 41" width="41" xmlns="http://www.w3.org/2000/svg"><g transform="matrix(1.524215 0 0 1.5911274 -437.4375 -1077.4843)"><a><g transform="matrix(.466 0 0 .466 295.1017 691.67072)"><path d="m-4-9.6h29.4c.8.9.8 2.2 1.2 3.3.4 2.1 1 4.2.9 6.4 0 .7.2 2-.9 1.9-10.2 0-20.4 0-30.6 0-1.1 0-1.4-1.1-1.4-2.1 0-2.7-.1-5.5 0-8.2.1-.7.8-1.3 1.4-1.3z" fill="#00f" stroke="#000" stroke-width=".331"/><path d="m21 1.6c0 1.4-1.9 2.3-3 1.3-1.2-.9-.7-2.9.8-3.1 1.1-.2 2.2.7 2.2 1.8z" fill="#00f" stroke="#fff" stroke-width=".7559"/><path d="m5.3 1.6c.1 1.4-1.8 2.3-2.9 1.3-1.2-.8-.6-2.9.8-3.1 1.1-.2 2.2.7 2.1 1.8z" fill="#00f" stroke="#fff" stroke-width=".7559"/><g fill="#fff" stroke="#000"><path d="m19.3-8.8h5.1c.3 0 .5.1.6.3.6 1.2.6 2.6.9 3.9.1.9 0 1.2-.9 1.2-1.9 0-3.9 0-5.7 0-.3 0-.5-.3-.5-.5 0-1.6 0-3.3 0-4.4 0-.3.2-.5.5-.5z" stroke-width=".3548"/><path d="m3.9-8.8h6c.2 0 .4.2.4.4v4.6c0 .2-.2.4-.4.4h-6c-.2 0-.4-.2-.4-.4v-4.6c0-.2.2-.4.4-.4z" stroke-width=".35"/><path d="m-3.8-8.8h6c.2 0 .4.2.4.4v4.6c0 .2-.2.4-.4.4h-6c-.2 0-.4-.2-.4-.4v-4.6c0-.2.2-.4.4-.4z" stroke-width=".35"/><path d="m11.6-8.8h6c.2 0 .4.2.4.4v4.6c0 .2-.2.4-.4.4h-6c-.2 0-.4-.2-.4-.4v-4.6c0-.2.1-.4.4-.4z" stroke-width=".35"/></g></g></a><path d="m310.1 690c0 5.3-4.4 9.5-9.9 9.5s-9.9-4.3-9.9-9.5c0-5.3 4.4-9.5 9.9-9.5s9.9 4.2 9.9 9.5z" fill="none" stroke="#00f" stroke-linejoin="bevel"/></g></svg>