<?xml version="1.0" encoding="utf-8"?>
<!-- Generator: Adobe Illustrator 14.0.0, SVG Export Plug-In . SVG Version: 6.00 Build 43363)  -->
<!DOCTYPE svg PUBLIC "-//W3C//DTD SVG 1.0//EN" "http://www.w3.org/TR/2001/REC-SVG-20010904/DTD/svg10.dtd">
<svg version="1.0"
	 id="campSite" xmlns:xi="http://www.w3.org/2001/XInclude" xmlns:xs="http://www.w3.org/2001/XMLSchema" xmlns:dc="http://purl.org/dc/elements/1.1/" xmlns:rdf="http://www.w3.org/1999/02/22-rdf-syntax-ns#" xmlns:inkscape="http://www.inkscape.org/namespaces/inkscape" xmlns:cc="http://web.resource.org/cc/" xmlns:svg="http://www.w3.org/2000/svg"
	 xmlns="http://www.w3.org/2000/svg" xmlns:xlink="http://www.w3.org/1999/xlink" x="0px" y="0px" width="18.6px" height="18.6px"
	 viewBox="0 0 18.6 18.6" style="enable-background:new 0 0 18.6 18.6;" xml:space="preserve">
<g>
	<polygon style="fill:#BA2E2E;" points="0.3,17.9 7.1,6.9 3.6,0.7 7.2,0.7 9.3,4.2 11.5,0.7 15,0.7 11.5,6.9 18.3,17.9 	"/>
	<path style="fill:#F4F4F4;" d="M14.2,1.2L11,6.9l6.5,10.5H1.2L7.7,6.9L4.5,1.2h2.4l2.4,3.9l2.4-3.9H14.2 M15.9,0.2h-1.7h-2.4h-0.6
		l-0.3,0.5L9.3,3.2L7.7,0.7L7.5,0.2H6.9H4.5H2.8l0.9,1.5l2.9,5.1l-6.1,10l-0.9,1.5h1.8h16.2h1.8l-0.9-1.5l-6.2-10L15,1.7L15.9,0.2
		L15.9,0.2z"/>
</g>
<polygon style="fill:#F4F4F4;" points="11.1,16.1 7.5,16.1 9.3,7.6 9.3,7.6 "/>
</svg>
