<?xml version="1.0" encoding="utf-8"?>
<!-- Generator: Adobe Illustrator 14.0.0, SVG Export Plug-In . SVG Version: 6.00 Build 43363)  -->
<!DOCTYPE svg PUBLIC "-//W3C//DTD SVG 1.1//EN" "http://www.w3.org/Graphics/SVG/1.1/DTD/svg11.dtd">
<svg version="1.1" id="Vrstva_1" xmlns="http://www.w3.org/2000/svg" xmlns:xlink="http://www.w3.org/1999/xlink" x="0px" y="0px"
	 width="20px" height="20px" viewBox="0 0 20 20" enable-background="new 0 0 20 20" xml:space="preserve">
<g>
	
		<image overflow="visible" opacity="0.84" width="20" height="19" xlink:href="DC7051DF.png"  transform="matrix(1 0 0 1 0.1997 0.604)">
	</image>
	<g>
		<g>
			<g>
				<rect x="3" y="6.2" width="4" height="11.8"/>
			</g>
			<g>
				<rect x="3" y="10.5" width="14" height="7.6"/>
			</g>
			<g>
				<rect x="13" y="6" width="4" height="10.9"/>
			</g>
			<g>
				<polyline points="4.9,1.9 8.4,6.2 1.6,6.2 4.9,1.9 				"/>
			</g>
			<g>
				<polyline points="14.9,1.9 18.4,6.2 11.6,6.2 14.9,1.9 				"/>
			</g>
		</g>
	</g>
</g>
<g>
	
		<image overflow="visible" opacity="0.84" width="6" height="4" xlink:href="DC7051DD.png"  transform="matrix(1 0 0 1 2.1997 2.604)">
	</image>
	<g>
		<polyline fill="#FFFFFF" points="5,3.8 6.3,5.5 3.7,5.5 5,3.8 		"/>
	</g>
</g>
<g>
	
		<image overflow="visible" opacity="0.84" width="6" height="4" xlink:href="DC7051E3.png"  transform="matrix(1 0 0 1 12.1992 2.604)">
	</image>
	<g>
		<polyline fill="#FFFFFF" points="15,3.8 16.3,5.5 13.7,5.5 15,3.8 		"/>
	</g>
</g>
</svg>
