<svg enable-background="new 0 0 16 16" height="16" viewBox="0 0 16 16" width="16" xmlns="http://www.w3.org/2000/svg"><path d="m11.8 11.9v-1.3c-.1-1.2-.5-2.3-1.3-3.1-.4-.5-1.1-.8-1.9-.8-.2 0-.4 0-.5 0-1.2.2-2.1.7-2.2 3.9v1.2h-5.4v-2.7h1.4c.7-3.7 3.6-5.4 6.1-5.4s5.4 1.7 6.1 5.4h1.4v2.8z"/><path d="m8 4.2c2.6 0 5.1 1.8 5.7 5.4h1.3v1.8h-2.6v-.8c-.1-1.4-.7-2.7-1.4-3.5-.6-.6-1.4-.9-2.3-.9-.2 0-.4 0-.6.1-1.7.3-2.5 1.2-2.6 4.4v.7h-4.5v-1.8h1.3c.6-3.5 3.1-5.4 5.7-5.4m0-1c-2.6 0-5.6 1.7-6.5 5.4h-.5-1v1 1.8 1h1 4.4 1v-1-.7c0-3.1.9-3.2 1.8-3.4h.4c.6 0 1.2.2 1.5.6.7.7 1.1 1.7 1.2 2.8v.8 1h1 2.7 1v-1-1.9-1h-1-.5c-.9-3.7-3.9-5.4-6.5-5.4z" fill="#f4f4f4"/></svg>