<?xml version="1.0" encoding="utf-8"?>
<!-- Generator: Adobe Illustrator 14.0.0, SVG Export Plug-In . SVG Version: 6.00 Build 43363)  -->
<!DOCTYPE svg PUBLIC "-//W3C//DTD SVG 1.0//EN" "http://www.w3.org/TR/2001/REC-SVG-20010904/DTD/svg10.dtd">
<svg version="1.0" id="Vrstva_1" xmlns="http://www.w3.org/2000/svg" xmlns:xlink="http://www.w3.org/1999/xlink" x="0px" y="0px"
	 width="24px" height="24px" viewBox="0 0 24 24" style="enable-background:new 0 0 24 24;" xml:space="preserve">
<polygon points="-7.9,3.1 -7.9,3.1 -7.9,3.1 -7.9,3.1 -7.9,3.1 -7.9,3.1 -7.9,3.1 -7.9,3.1 "/>
<g>
	<g>
		<path d="M16,22.9c-0.2,0-0.5-0.1-0.7-0.2l0,0l-0.1-0.1c-0.2-0.1-0.3-0.2-0.4-0.4l-0.1-0.1l0,0l-3.3-4.9l-3.5,5.3l-0.1-0.1
			c-0.3,0.2-0.7,0.4-1,0.4H5.1c-0.9,0-1.7-0.8-1.7-1.7s0.8-1.7,1.7-1.7h0.7L9,14.8H7.6c-2.2,0-3.9-1.8-3.9-3.9c0-1.7,1-3.1,2.5-3.7
			C5.4,6.5,4.9,5.6,4.9,4.5c0-1.9,1.6-3.5,3.5-3.5c1,0,2,0.5,2.6,1.2c0.6-0.8,1.6-1.2,2.6-1.2c1.9,0,3.5,1.6,3.5,3.5
			c0,0.9-0.3,1.7-0.9,2.3h1.2v1l4.1-2.4v10.6l-4.1-2.4v1h-3.7l3.2,4.8h0.6c0.9,0,1.7,0.8,1.7,1.7s-0.8,1.7-1.7,1.7H16z"/>
		<path style="fill:#F4F4F4;" d="M13.7,1.6c1.6,0,3,1.3,3,3c0,1.4-0.9,2.5-2.2,2.8h2.4v1.4L21,6.4v8.9l-4.1-2.4v1.4h-4.1l3.9,5.8
			h0.8c0.7,0,1.2,0.5,1.2,1.2c0,0.7-0.5,1.2-1.2,1.2H16c-0.2,0-0.4,0-0.5-0.1c0,0-0.1-0.1-0.1-0.1c-0.1-0.1-0.2-0.2-0.3-0.3
			c0,0,0,0-0.1-0.1l-3.7-5.5l-3.7,5.5l0,0c-0.2,0.3-0.6,0.5-1,0.5H5.1c-0.7,0-1.2-0.5-1.2-1.2c0-0.7,0.5-1.2,1.2-1.2h1l3.9-5.8H7.6
			c-1.9,0-3.4-1.5-3.4-3.4c0-1.9,1.5-3.4,3.4-3.4C6.3,7,5.4,5.9,5.4,4.5c0-1.6,1.3-3,3-3c1.2,0,2.2,0.7,2.6,1.7
			C11.5,2.3,12.5,1.6,13.7,1.6 M9.2,7.4h3.7c-0.8-0.2-1.5-0.8-1.8-1.5C10.7,6.6,10,7.2,9.2,7.4 M13.7,0.6c-1,0-1.9,0.4-2.6,1
			c-0.7-0.6-1.6-1-2.6-1c-2.2,0-4,1.8-4,4c0,0.9,0.3,1.8,0.9,2.5C4,7.8,3.1,9.2,3.1,10.8c0,2.4,2,4.4,4.4,4.4h0.5l-2.5,3.8H5.1
			c-1.2,0-2.2,1-2.2,2.2c0,1.2,1,2.2,2.2,2.2h1.6c0.4,0,0.7-0.1,1-0.3l0.2,0.1l0.6-0.8l2.8-4.3l2.8,4.3l0.1,0.1l0.1,0.1
			c0.1,0.1,0.3,0.3,0.5,0.4c0.1,0,0.1,0.1,0.2,0.1c0.3,0.2,0.6,0.2,1,0.2h1.5c1.2,0,2.2-1,2.2-2.2c0-1.2-1-2.2-2.2-2.2h-0.3
			l-2.5-3.8h2.3h1v-0.7l2.6,1.5L22,17v-1.7V6.4V4.7l-1.5,0.9L17.9,7V6.4h-0.7c0.3-0.6,0.5-1.2,0.5-1.8C17.6,2.4,15.9,0.6,13.7,0.6
			L13.7,0.6z"/>
	</g>
	<circle style="fill:#FFFFFF;" cx="13.8" cy="4.5" r="1.3"/>
	<circle style="fill:#FFFFFF;" cx="8.3" cy="4.5" r="1.3"/>
</g>
</svg>
