<svg enable-background="new 0 0 24 24" height="24" viewBox="0 0 24 24" width="24" xmlns="http://www.w3.org/2000/svg"><path d="m16 22.9c-.2 0-.5-.1-.7-.2l-.1-.1c-.2-.1-.3-.2-.4-.4l-.1-.1-3.3-4.9-3.5 5.3-.1-.1c-.3.2-.7.4-1 .4h-1.7c-.9 0-1.7-.8-1.7-1.7s.8-1.7 1.7-1.7h.7l3.2-4.6h-1.4c-2.2 0-3.9-1.8-3.9-3.9 0-1.7 1-3.1 2.5-3.7-.8-.7-1.3-1.6-1.3-2.7 0-1.9 1.6-3.5 3.5-3.5 1 0 2 .5 2.6 1.2.6-.8 1.6-1.2 2.6-1.2 1.9 0 3.5 1.6 3.5 3.5 0 .9-.3 1.7-.9 2.3h1.2v1l4.1-2.4v10.6l-4.1-2.4v1h-3.7l3.2 4.8h.6c.9 0 1.7.8 1.7 1.7s-.8 1.7-1.7 1.7h-1.5z"/><path d="m13.7 1.6c1.6 0 3 1.3 3 3 0 1.4-.9 2.5-2.2 2.8h2.4v1.4l4.1-2.4v8.9l-4.1-2.4v1.4h-4.1l3.9 5.8h.8c.7 0 1.2.5 1.2 1.2s-.5 1.2-1.2 1.2h-1.5c-.2 0-.4 0-.5-.1 0 0-.1-.1-.1-.1-.1-.1-.2-.2-.3-.3 0 0 0 0-.1-.1l-3.7-5.5-3.7 5.5c-.2.3-.6.5-1 .5h-1.5c-.7 0-1.2-.5-1.2-1.2s.5-1.2 1.2-1.2h1l3.9-5.8h-2.4c-1.9 0-3.4-1.5-3.4-3.4s1.5-3.4 3.4-3.4c-1.3-.4-2.2-1.5-2.2-2.9 0-1.6 1.3-3 3-3 1.2 0 2.2.7 2.6 1.7.5-.9 1.5-1.6 2.7-1.6m-4.5 5.8h3.7c-.8-.2-1.5-.8-1.8-1.5-.4.7-1.1 1.3-1.9 1.5m4.5-6.8c-1 0-1.9.4-2.6 1-.7-.6-1.6-1-2.6-1-2.2 0-4 1.8-4 4 0 .9.3 1.8.9 2.5-1.4.7-2.3 2.1-2.3 3.7 0 2.4 2 4.4 4.4 4.4h.5l-2.5 3.8h-.4c-1.2 0-2.2 1-2.2 2.2s1 2.2 2.2 2.2h1.6c.4 0 .7-.1 1-.3l.2.1.6-.8 2.8-4.3 2.8 4.3.1.1.1.1c.1.1.3.3.5.4.1 0 .1.1.2.1.3.2.6.2 1 .2h1.5c1.2 0 2.2-1 2.2-2.2s-1-2.2-2.2-2.2h-.3l-2.5-3.8h2.3 1v-.7l2.6 1.5 1.4 1.1v-1.7-8.9-1.7l-1.5.9-2.6 1.4v-.6h-.7c.3-.6.5-1.2.5-1.8-.1-2.2-1.8-4-4-4z" fill="#f4f4f4"/><g fill="#fff"><circle cx="13.8" cy="4.5" r="1.3"/><circle cx="8.3" cy="4.5" r="1.3"/></g></svg>