<svg enable-background="new 0 0 18.6 18.6" height="18.6" viewBox="0 0 18.6 18.6" width="18.6" xmlns="http://www.w3.org/2000/svg"><path d="m3.7 0h11.2c2.1 0 3.7 1.7 3.7 3.7v11.2c0 2.1-1.7 3.7-3.7 3.7h-11.2c-2 0-3.7-1.6-3.7-3.7v-11.2c0-2 1.7-3.7 3.7-3.7z" fill="#fff"/><path d="m14.9 0h-11.2c-2 0-3.7 1.7-3.7 3.7v11.2c0 2.1 1.7 3.7 3.7 3.7h11.2c2.1 0 3.7-1.7 3.7-3.7v-11.2c.1-2-1.6-3.7-3.7-3.7zm-2.7 10.5c.4-.2.6-.3.6-.2l.2.2c.2.2.5.1.7-.2l-1 6h-3.3l-1.1-5.8c.2.2.6.2.7 0 .4-.4.4-.4.6-.2l.2.2c.1.1.2.1.3.1v-1h.4v.9h.1c.4-.4.4-.3.6-.2l.2.2c.3.2.6.2.8 0zm-2-2.8h.4v1.1h-.4zm1 .9v1.1h-.4v-1.1zm-.4-1.8h.4v1.1h-.4zm-8.7-2.3v-2.7l5.3.7c1.6.3 4.3.7 4.3 3.9h-1.8c0-1.1-.9-1.4-2.8-1.5zm11.9 13.2h-5.7l-1.7-9.1.8-.1s1.4 7.9 1.5 8.5h4.4c.1-.6 1.5-8.5 1.5-8.5l.8.1z" fill="#00f"/></svg>