<?xml version="1.0" encoding="utf-8"?>
<!-- Generator: Adobe Illustrator 14.0.0, SVG Export Plug-In . SVG Version: 6.00 Build 43363)  -->
<!DOCTYPE svg PUBLIC "-//W3C//DTD SVG 1.0//EN" "http://www.w3.org/TR/2001/REC-SVG-20010904/DTD/svg10.dtd">
<svg version="1.0"
	 id="drinking_water" xmlns:xs="http://www.w3.org/2001/XMLSchema" xmlns:inkscape="http://www.inkscape.org/namespaces/inkscape" xmlns:rdf="http://www.w3.org/1999/02/22-rdf-syntax-ns#" xmlns:svg="http://www.w3.org/2000/svg" xmlns:cc="http://web.resource.org/cc/" xmlns:xi="http://www.w3.org/2001/XInclude" xmlns:dc="http://purl.org/dc/elements/1.1/"
	 xmlns="http://www.w3.org/2000/svg" xmlns:xlink="http://www.w3.org/1999/xlink" x="0px" y="0px" width="18.6px" height="18.6px"
	 viewBox="0 0 18.6 18.6" style="enable-background:new 0 0 18.6 18.6;" xml:space="preserve">
<path style="fill:#FFFFFF;" d="M3.7,0h11.2c2.1,0,3.7,1.7,3.7,3.7v11.2c0,2.1-1.7,3.7-3.7,3.7H3.7C1.7,18.6,0,17,0,14.9V3.7
	C0,1.7,1.7,0,3.7,0z"/>
<path style="fill:#0000FF;" d="M14.9,0H3.7C1.7,0,0,1.7,0,3.7v11.2c0,2.1,1.7,3.7,3.7,3.7h11.2c2.1,0,3.7-1.7,3.7-3.7V3.7
	C18.7,1.7,17,0,14.9,0z M12.2,10.5c0.4-0.2,0.6-0.3,0.6-0.2l0.2,0.2c0.2,0.2,0.5,0.1,0.7-0.2l-1,6H9.4l-1.1-5.8
	c0.2,0.2,0.6,0.2,0.7,0c0.4-0.4,0.4-0.4,0.6-0.2l0.2,0.2c0.1,0.1,0.2,0.1,0.3,0.1l0-1l0.4,0l0,0.9c0,0,0,0,0.1,0
	c0.4-0.4,0.4-0.3,0.6-0.2l0.2,0.2C11.7,10.7,12,10.7,12.2,10.5z M10.2,7.7l0.4,0l0,1.1l-0.4,0L10.2,7.7z M11.2,8.6l0,1.1l-0.4,0
	l0-1.1L11.2,8.6z M10.8,6.8l0.4,0l0,1.1l-0.4,0L10.8,6.8z M2.1,4.5V1.8l5.3,0.7c1.6,0.3,4.3,0.7,4.3,3.9H9.9C9.9,5.3,9,5,7.1,4.9
	L2.1,4.5z M14,17.7H8.3L6.6,8.6l0.8-0.1c0,0,1.4,7.9,1.5,8.5h4.4c0.1-0.6,1.5-8.5,1.5-8.5l0.8,0.1L14,17.7z"/>
</svg>
