<svg enable-background="new 0 0 20 21" height="21" viewBox="0 0 20 21" width="20" xmlns="http://www.w3.org/2000/svg"><path d="m367.7 601.2 9.8-169.1-115.2.3 10.1 168.2c10.7 14.6 85.4 13.2 95.3.6z" stroke="#fff" stroke-width=".5" transform="matrix(.08446899 0 0 .07197365 -20.592828 -25.080303)"/><g transform="matrix(.08446899 0 0 .07197365 -20.592828 -25.080303)"><path d="m319.9 588.4c-16.5 0-25.5-3.4-28.4-5.6l-6.9-141.2 71.1-.2-6.6 141.7c-3.4 2.2-13.6 5.3-29.2 5.3z"/><path d="m349.4 448.5-6.1 129.9c-4.2 1.5-12.1 3.1-23.5 3.1s-18.9-1.7-22.7-3.2l-6.3-129.7zm12.6-14-83.6.2 7.3 151.1c3.8 6.5 19 9.5 34.2 9.5 15.6 0 31.3-3.1 35-8.9z" fill="#fff"/></g><g fill="#443626" stroke="#fff"><path d="m461.1 595.5-108.7.1s3.3 31 13.9 35l81.3-.1c10.3-3.7 13.5-35 13.5-35z" transform="matrix(.08446899 0 0 .07302621 -20.592828 -25.715203)"/><g stroke-width=".75" transform="matrix(.08432527 0 0 .08993014 -20.533086 -35.763483)"><path d="m464.2 573.6s7.6 4.8 6.8 11.1-7.1 10.6-7.1 10.6"/><path d="m465 573.8h-114.9s-7.6 4.8-6.8 11.1 7.1 10.6 7.1 10.6l113.9-.3"/></g><path d="m12.2 12.9h3.2c2.9.5 3 2.8 3 2.8h-9.2s.1-2.3 3-2.8z" stroke-width=".75"/></g><path d="m7.7 6.9h.6l1.1-4.6-.5-.1z" stroke="#000"/></svg>