<?xml version="1.0" encoding="utf-8"?>
<!-- Generator: Adobe Illustrator 14.0.0, SVG Export Plug-In . SVG Version: 6.00 Build 43363)  -->
<!DOCTYPE svg PUBLIC "-//W3C//DTD SVG 1.0//EN" "http://www.w3.org/TR/2001/REC-SVG-20010904/DTD/svg10.dtd">
<svg version="1.0" id="symbol-fastfood" xmlns:svg="http://www.w3.org/2000/svg"
	 xmlns="http://www.w3.org/2000/svg" xmlns:xlink="http://www.w3.org/1999/xlink" x="0px" y="0px" width="20px" height="21px"
	 viewBox="0 0 20 21" style="enable-background:new 0 0 20 21;" xml:space="preserve">
<g id="g3417" transform="matrix(8.446899e-2,0,0,7.1973653e-2,-20.592828,-25.080303)">
	<path id="path3415" style="stroke:#FFFFFF;stroke-width:0.5;" d="M367.7,601.2l9.8-169.1l-115.2,0.3l10.1,168.2
		C283.1,615.2,357.8,613.8,367.7,601.2z"/>
</g>
<g id="g3417_1_" transform="matrix(8.446899e-2,0,0,7.1973653e-2,-20.592828,-25.080303)">
	<g id="path3415_1_">
		<path d="M319.9,588.4c-16.5,0-25.5-3.4-28.4-5.6l-6.9-141.2l71.1-0.2l-6.6,141.7C345.7,585.3,335.5,588.4,319.9,588.4
			C319.9,588.4,319.9,588.4,319.9,588.4z"/>
		<path style="fill:#FFFFFF;" d="M349.4,448.5l-6.1,129.9c-4.2,1.5-12.1,3.1-23.5,3.1c-11.4,0-18.9-1.7-22.7-3.2l-6.3-129.7
			L349.4,448.5 M362,434.5l-83.6,0.2l7.3,151.1c3.8,6.5,19,9.5,34.2,9.5c15.6,0,31.3-3.1,35-8.9L362,434.5L362,434.5z"/>
	</g>
</g>
<g id="g3384" transform="matrix(8.446899e-2,0,0,7.302621e-2,-20.592828,-25.715203)">
	<path id="path3225" style="fill:#443626;stroke:#FFFFFF;" d="M461.1,595.5l-108.7,0.1c0,0,3.3,31,13.9,35l81.3-0.1
		C457.9,626.8,461.1,595.5,461.1,595.5z"/>
</g>
<g id="g3237" transform="matrix(8.4325274e-2,0,0,8.9930135e-2,-20.533086,-35.763483)">
	<path id="path3233" style="fill:#443626;stroke:#FFFFFF;stroke-width:0.75;" d="M464.2,573.6c0,0,7.6,4.8,6.8,11.1
		c-0.8,6.3-7.1,10.6-7.1,10.6"/>
	<path id="path3235" style="fill:#443626;stroke:#FFFFFF;stroke-width:0.75;" d="M465,573.8H350.1c0,0-7.6,4.8-6.8,11.1
		c0.8,6.3,7.1,10.6,7.1,10.6l113.9-0.3"/>
</g>
<path id="path3265" style="fill:#443626;stroke:#FFFFFF;stroke-width:0.75;" d="M12.2,12.9l3.2,0c2.9,0.5,3,2.8,3,2.8l-9.2,0
	c0,0,0,0,0,0S9.3,13.4,12.2,12.9z"/>
<path id="path3221" style="stroke:#000000;" d="M7.7,6.9h0.6l1.1-4.6L8.9,2.2L7.7,6.9z"/>
</svg>
