<svg enable-background="new 0 0 20 20" height="20" viewBox="0 0 20 20" width="20" xmlns="http://www.w3.org/2000/svg"><path d="m18.2 10-3-2h-4.3v-1.2h3.8v-4h-3.8v-1.2c0-.3-.2-.5-.5-.5h-1c-.3 0-.5.2-.5.5v1.1h-4l-3 2 3 2h4v1.3h-3.6v4h3.6v6.3c0 .3.2.5.5.5h1c.3 0 .5-.2.5-.5v-6.3h4.3z" fill="#333"/><path d="m18.2 10-3-2h-4.3v-1.2h3.8v-4h-3.8v-1.2c0-.3-.2-.5-.5-.5h-1c-.3 0-.5.2-.5.5v1.1h-4l-3 2 3 2h4v1.3h-3.6v4h3.6v6.3c0 .3.2.5.5.5h1c.3 0 .5-.2.5-.5v-6.3h4.3z" fill="none" stroke="#f9f9f9"/><g fill="#f9f9f9"><path d="m5.9 4.1h2.2v1h-2.2z"/><path d="m12 9.3h2.1v1h-2.1z"/></g></svg>