<?xml version="1.0" encoding="utf-8"?>
<!-- Generator: Adobe Illustrator 14.0.0, SVG Export Plug-In . SVG Version: 6.00 Build 43363)  -->
<!DOCTYPE svg PUBLIC "-//W3C//DTD SVG 1.1//EN" "http://www.w3.org/Graphics/SVG/1.1/DTD/svg11.dtd">
<svg version="1.1"
	 id="symbol-helipad" xmlns:xs="http://www.w3.org/2001/XMLSchema" xmlns:inkscape="http://www.inkscape.org/namespaces/inkscape" xmlns:rdf="http://www.w3.org/1999/02/22-rdf-syntax-ns#" xmlns:svg="http://www.w3.org/2000/svg" xmlns:xi="http://www.w3.org/2001/XInclude" xmlns:cc="http://web.resource.org/cc/" xmlns:dc="http://purl.org/dc/elements/1.1/"
	 xmlns="http://www.w3.org/2000/svg" xmlns:xlink="http://www.w3.org/1999/xlink" x="0px" y="0px" width="37.279px"
	 height="37.279px" viewBox="0 0 37.279 37.279" enable-background="new 0 0 37.279 37.279" xml:space="preserve">
<g transform="translate(5,210)">
	<path d="M1.79-206.104c-2.204,0.01-3.441,1.141-3.441,3.471v23.965c0,2.187,1.112,3.317,3.317,3.317h24.062
		c2.205,0,3.316-1.073,3.316-3.317v-23.965c0-2.272-1.111-3.461-3.384-3.471C25.66-206.104,1.781-206.104,1.79-206.104z"/>
	<path fill="none" stroke="#000000" stroke-width="3.42" d="M1.79-206.104c-2.204,0.01-3.441,1.141-3.441,3.471v23.965
		c0,2.187,1.112,3.317,3.317,3.317h24.062c2.205,0,3.316-1.073,3.316-3.317v-23.965c0-2.272-1.111-3.461-3.384-3.471
		C25.66-206.104,1.781-206.104,1.79-206.104"/>
	<path fill="#FFFFFF" d="M2.826-191.178c1.543,0.01,2.789-1.236,2.779-2.771c0.01-1.533-1.236-2.78-2.779-2.78
		c-1.524,0-2.771,1.247-2.78,2.78C0.056-192.415,1.302-191.169,2.826-191.178z"/>
	<path d="M2.826-192.185c0.987,0,1.773-0.786,1.773-1.764s-0.786-1.773-1.773-1.773c-0.969,0-1.765,0.796-1.765,1.773
		S1.858-192.185,2.826-192.185z"/>
	<path fill="#FFFFFF" d="M11.77-185.043c-2.118,0-2.118,2.856,0,2.856h12.29c2.061,0,2.061-2.856,0-2.856H11.77z"/>
	<polygon fill="#FFFFFF" points="15.394,-194.879 15.394,-197.476 14.311,-197.476 14.311,-194.879 	"/>
	<polygon fill="#FFFFFF" points="17.08,-197.41 17.08,-197.966 12.652,-197.966 12.652,-197.41 	"/>
	<path fill="#FFFFFF" d="M17.464-198.349h7.084c0.949,0,0.949,1.353,0,1.353h-7.084C16.544-196.997,16.544-198.349,17.464-198.349z"
		/>
	<path fill="#FFFFFF" d="M5.184-198.349h7.008c0.949,0,0.949,1.353,0,1.353H5.184C4.187-196.997,4.168-198.349,5.184-198.349z"/>
	<path fill="#FFFFFF" d="M12.872-186.884c-0.91,0-1.361-0.661-1.515-1.228l-0.709-1.782l-8.101-3.222
		c-0.978-0.374-0.738-1.831,0.374-1.831h17.581c1.955,0,3.049,1.18,3.557,2.426l1.409,3.432c0.508,1.18-0.346,2.205-1.61,2.205
		H12.872z"/>
	<polygon points="17.311,-190.804 17.311,-193.844 15.412,-193.844 15.412,-190.804 	"/>
	<polygon points="20.312,-193.844 20.312,-190.804 18.433,-190.804 18.433,-193.844 	"/>
	<path d="M21.462-193.719c0.584,0.144,1.169,0.671,1.553,1.533l0.604,1.391h-2.156V-193.719z"/>
</g>
</svg>
