<svg enable-background="new 0 0 37.279 37.279" height="37.279" viewBox="0 0 37.279 37.279" width="37.279" xmlns="http://www.w3.org/2000/svg"><g transform="translate(5 210)"><path d="m1.79-206.104c-2.204.01-3.441 1.141-3.441 3.471v23.965c0 2.187 1.112 3.317 3.317 3.317h24.062c2.205 0 3.316-1.073 3.316-3.317v-23.965c0-2.272-1.111-3.461-3.384-3.471z"/><path d="m1.79-206.104c-2.204.01-3.441 1.141-3.441 3.471v23.965c0 2.187 1.112 3.317 3.317 3.317h24.062c2.205 0 3.316-1.073 3.316-3.317v-23.965c0-2.272-1.111-3.461-3.384-3.471z" fill="none" stroke="#000" stroke-width="3.42"/><path d="m2.826-191.178c1.543.01 2.789-1.236 2.779-2.771.01-1.533-1.236-2.78-2.779-2.78-1.524 0-2.771 1.247-2.78 2.78.01 1.534 1.256 2.78 2.78 2.771z" fill="#fff"/><path d="m2.826-192.185c.987 0 1.773-.786 1.773-1.764s-.786-1.773-1.773-1.773c-.969 0-1.765.796-1.765 1.773s.797 1.764 1.765 1.764z"/><g fill="#fff"><path d="m11.77-185.043c-2.118 0-2.118 2.856 0 2.856h12.29c2.061 0 2.061-2.856 0-2.856z"/><path d="m15.394-194.879v-2.597h-1.083v2.597z"/><path d="m17.08-197.41v-.556h-4.428v.556z"/><path d="m17.464-198.349h7.084c.949 0 .949 1.353 0 1.353h-7.084c-.92-.001-.92-1.353 0-1.353z"/><path d="m5.184-198.349h7.008c.949 0 .949 1.353 0 1.353h-7.008c-.997-.001-1.016-1.353 0-1.353z"/><path d="m12.872-186.884c-.91 0-1.361-.661-1.515-1.228l-.709-1.782-8.101-3.222c-.978-.374-.738-1.831.374-1.831h17.581c1.955 0 3.049 1.18 3.557 2.426l1.409 3.432c.508 1.18-.346 2.205-1.61 2.205z"/></g><path d="m17.311-190.804v-3.04h-1.899v3.04z"/><path d="m20.312-193.844v3.04h-1.879v-3.04z"/><path d="m21.462-193.719c.584.144 1.169.671 1.553 1.533l.604 1.391h-2.156v-2.924z"/></g></svg>