<svg enable-background="new 0 0 23.5 18.1" height="18.1" viewBox="0 0 23.5 18.1" width="23.5" xmlns="http://www.w3.org/2000/svg"><path d="m6.2 4.2h10.8v11.5h-10.8z" fill="#f4f4f4" stroke="#ba2e2e"/><path d="m4.1 17.3v-9.4l-.6.3-2-2 10.2-5.4 10.1 5.4-2 2.1-.8-.4v9.3h-14.9zm12-2.8.1-7.6-4.6-2.3-4.7 2.2v7.6z" fill="#ba2e2e"/><path d="m11.6 1.3 9.3 5-1.3 1.3-1.1-.5v9.6h-13.9v-9.6l-1 .5-1.3-1.3zm5 13.7.1-8.4-5.1-2.5-5.2 2.4v8.4zm-5-14.8-.5.3-9.3 5-1.2.5 1 1 1.3 1.3.5.5.3-.1v8.1 1h1 13.9 1v-1-8.1l.3.1.5-.5 1.2-1.3.9-1-1.2-.6-9.3-5zm-4.2 6.9 4.2-1.9 4.1 2v6.8h-8.2z" fill="#f4f4f4"/><path d="m4 17.2v-9.4l-.6.3-2-2 10.2-5.4 10.1 5.4-2 2.1-.7-.3v9.3zm11.9-3v-7.5l-4.5-2.2-4.4 2.2v7.5z" fill="#ba2e2e"/><path d="m11.5 1.2 9.3 5-1.3 1.3-1.1-.5v9.6h-13.9v-9.5l-1 .4-1.3-1.3zm4.9 13.6v-8.3l-4.9-2.5-5 2.3v8.4zm-4.9-14.7-.5.3-9.3 5-1.2.6 1 1 1.3 1.3.5.5.3-.1v8.1 1h1 13.9 1v-1-8.2l.3.1.5-.5 1.3-1.3.9-1-1.2-.6-9.3-5zm-4 6.9 4-1.9 4 2v6.7h-7.9z" fill="#f4f4f4"/></svg>