<?xml version="1.0" encoding="utf-8"?>
<!-- Generator: Adobe Illustrator 14.0.0, SVG Export Plug-In . SVG Version: 6.00 Build 43363)  -->
<!DOCTYPE svg PUBLIC "-//W3C//DTD SVG 1.1//EN" "http://www.w3.org/Graphics/SVG/1.1/DTD/svg11.dtd">
<svg version="1.1"
	 id="information" xmlns:inkscape="http://www.inkscape.org/namespaces/inkscape" xmlns:cc="http://web.resource.org/cc/" xmlns:rdf="http://www.w3.org/1999/02/22-rdf-syntax-ns#" xmlns:dc="http://purl.org/dc/elements/1.1/" xmlns:svg="http://www.w3.org/2000/svg" xmlns:xs="http://www.w3.org/2001/XMLSchema" xmlns:xi="http://www.w3.org/2001/XInclude"
	 xmlns="http://www.w3.org/2000/svg" xmlns:xlink="http://www.w3.org/1999/xlink" x="0px" y="0px" width="20px" height="20px"
	 viewBox="0 0 20 20" enable-background="new 0 0 20 20" xml:space="preserve">
<circle fill="#634318" stroke="#F4F4F4" cx="10" cy="10" r="9.54"/>
<path fill="#FFFFFF" d="M11.344,7.075v7.95h1.06v0.946h-0.188h-4.62v-0.946h1.061V8.021H7.595V7.075h0.19H11.344L11.344,7.075z
	 M8.582,4.577c0-0.34,0.122-0.647,0.368-0.918s0.565-0.407,0.956-0.407h0.189c0.327,0,0.63,0.119,0.909,0.36
	c0.275,0.239,0.414,0.561,0.414,0.965c0,0.341-0.119,0.647-0.359,0.918c-0.238,0.271-0.559,0.406-0.964,0.406H9.906
	c-0.327,0-0.63-0.12-0.908-0.359C8.72,5.303,8.582,4.98,8.582,4.577L8.582,4.577z"/>
</svg>
