<svg enable-background="new 0 0 24 24" height="24" viewBox="0 0 24 24" width="24" xmlns="http://www.w3.org/2000/svg"><path d="m.5.614h23v23h-23z" fill="#019241"/><path d="m23 1.114v22h-22v-22zm1-1h-1-22-1v1 22 1h1 22 1v-1-22z" fill="#f4f4f4"/><path d="m2.757 2.446h18.486v18.484h-18.486z" fill="none" stroke="#f2f2f2"/><path d="m13.544 9.038v8.302h1.216v.988h-.216-5.304v-.988h1.216v-7.314h-1.216v-.988h.217zm-3.173-2.608c0-.355.141-.676.424-.958.283-.284.649-.425 1.097-.425h.218c.376 0 .724.125 1.044.376.316.25.476.585.476 1.007 0 .356-.137.676-.412.958-.274.284-.642.424-1.107.424h-.218c-.375 0-.723-.125-1.043-.375-.319-.249-.479-.585-.479-1.007z" fill="#fff"/></svg>