<svg enable-background="new 0 0 20 20" height="20" viewBox="0 0 20 20" width="20" xmlns="http://www.w3.org/2000/svg"><circle cx="10" cy="10" fill="#634318" r="9.54" stroke="#f4f4f4"/><path d="m11.344 7.075v7.95h1.06v.946h-.188-4.62v-.946h1.061v-7.004h-1.062v-.946h.19zm-2.762-2.498c0-.34.122-.647.368-.918s.565-.407.956-.407h.189c.327 0 .63.119.909.36.275.239.414.561.414.965 0 .341-.119.647-.359.918-.238.271-.559.406-.964.406h-.189c-.327 0-.63-.12-.908-.359s-.416-.562-.416-.965z" fill="#fff"/></svg>