<svg enable-background="new -2.68 -2.68 24 24" height="24" viewBox="-2.68 -2.68 24 24" width="24" xmlns="http://www.w3.org/2000/svg"><g fill="#d6d6d6" stroke="#000"><path d="m8.167 5.05.187 13.853 5.948-4.994v-12.837z" stroke-width="1.5"/><path d="m3.922 4.087-.144 14.124s-.235 1.507 1.606 1.55c2.076.049 2.5-.346 2.5-.346l.096-14.253s-.66.474-2.123.432c-1.84-.054-1.935-1.507-1.935-1.507z" stroke-width="1.5"/><path d="m9.631 7.189 2.924-1.736"/><path d="m9.865 9.214 2.548-1.517"/><path d="m9.961 11.278 2.782-1.637"/><path d="m3.683 4.432 6.512-4.564c-.276.772.51 1.08 1.368 1.121 1.888.086 2.974-.258 2.974-.258" stroke-width="1.5"/><path d="m4.526 4.328 5.28-3.881s-.256.602.956.836c1.209.234 2.161.033 2.161.033l-5.463 3.581s-.991.535-2.164.034c-1.172-.502-.77-.603-.77-.603z" stroke-width=".5"/></g></svg>