<?xml version="1.0" encoding="utf-8"?>
<!-- Generator: Adobe Illustrator 14.0.0, SVG Export Plug-In . SVG Version: 6.00 Build 43363)  -->
<!DOCTYPE svg PUBLIC "-//W3C//DTD SVG 1.1//EN" "http://www.w3.org/Graphics/SVG/1.1/DTD/svg11.dtd">
<svg version="1.1"
	 id="symbol-library" xmlns:xs="http://www.w3.org/2001/XMLSchema" xmlns:inkscape="http://www.inkscape.org/namespaces/inkscape" xmlns:rdf="http://www.w3.org/1999/02/22-rdf-syntax-ns#" xmlns:svg="http://www.w3.org/2000/svg" xmlns:xi="http://www.w3.org/2001/XInclude" xmlns:cc="http://web.resource.org/cc/" xmlns:dc="http://purl.org/dc/elements/1.1/"
	 xmlns="http://www.w3.org/2000/svg" xmlns:xlink="http://www.w3.org/1999/xlink" x="0px" y="0px" width="24px" height="24px"
	 viewBox="-2.68 -2.68 24 24" enable-background="new -2.68 -2.68 24 24" xml:space="preserve">
<path fill="#D6D6D6" stroke="#000000" stroke-width="1.5" d="M8.167,5.05l0.187,13.853l5.948-4.994V1.072L8.167,5.05z"/>
<path fill="#D6D6D6" stroke="#000000" stroke-width="1.5" d="M3.922,4.087L3.778,18.211c0,0-0.235,1.507,1.606,1.55
	c2.076,0.049,2.5-0.346,2.5-0.346L7.98,5.162c0,0-0.66,0.474-2.123,0.432C4.017,5.54,3.922,4.087,3.922,4.087z"/>
<path fill="#D6D6D6" stroke="#000000" d="M9.631,7.189l2.924-1.736"/>
<path fill="#D6D6D6" stroke="#000000" d="M9.865,9.214l2.548-1.517"/>
<path fill="#D6D6D6" stroke="#000000" d="M9.961,11.278l2.782-1.637"/>
<path fill="#D6D6D6" stroke="#000000" stroke-width="1.5" d="M3.683,4.432l6.512-4.564c-0.276,0.772,0.51,1.08,1.368,1.121
	c1.888,0.086,2.974-0.258,2.974-0.258"/>
<path fill="#D6D6D6" stroke="#000000" stroke-width="0.5" d="M4.526,4.328l5.28-3.881c0,0-0.256,0.602,0.956,0.836
	c1.209,0.234,2.161,0.033,2.161,0.033L7.46,4.897c0,0-0.991,0.535-2.164,0.034C4.124,4.429,4.526,4.328,4.526,4.328z"/>
</svg>
