<svg enable-background="new 0 0 20 20" height="20" viewBox="0 0 20 20" width="20" xmlns="http://www.w3.org/2000/svg"><path d="m3.165 17.58v-6.876l-1.675.414-.847-3.433 2.522-.624v-3.758h5.599v2.374l9.814-2.426.849 3.434-10.663 2.635v8.26z"/><path d="m8.264 3.803v2.513l9.949-2.459.608 2.463-10.557 2.609v8.151h-4.599v-7.015l-1.809.447-.608-2.462 2.417-.598v-3.649zm10.68-1.157-.972.24-8.708 2.152v-1.235-1h-1-4.599-1v1 2.867l-1.657.41-.97.24.24.971.608 2.463.24.971.971-.24.569-.141v5.737 1h1 4.599 1v-1-7.37l9.798-2.421.971-.24-.24-.971-.608-2.463z" fill="#f4f4f4"/></svg>