<?xml version="1.0" encoding="utf-8"?>
<!-- Generator: Adobe Illustrator 14.0.0, SVG Export Plug-In . SVG Version: 6.00 Build 43363)  -->
<!DOCTYPE svg PUBLIC "-//W3C//DTD SVG 1.1//EN" "http://www.w3.org/Graphics/SVG/1.1/DTD/svg11.dtd">
<svg version="1.1" id="Vrstva_1" xmlns="http://www.w3.org/2000/svg" xmlns:xlink="http://www.w3.org/1999/xlink" x="0px" y="0px"
	 width="8.5px" height="8.5px" viewBox="0 0 8.5 8.5" enable-background="new 0 0 8.5 8.5" xml:space="preserve">
<g id="g3798" transform="translate(0,1)">
	<path id="path3001" fill="#FFFFFF" stroke="#FFFFFF" d="M4.2-0.3c-0.9,0-1.6,0.6-1.9,1.1C2,1.4,1.9,1.9,1.9,1.9V2v0.1v3.5H0.7v1.2
		h7.1V5.6H6.6V2.1V2V1.9c0,0-0.1-0.5-0.4-1.1C5.8,0.3,5.2-0.3,4.2-0.3z M4.2,0.9c0.4,0,0.7,0.2,0.9,0.6c0.2,0.3,0.3,0.7,0.3,0.7v3.4
		H3.1V2.2c0,0,0-0.4,0.3-0.7C3.5,1.1,3.8,0.9,4.2,0.9z"/>
	<path id="path3014" d="M4.2-0.3c-0.9,0-1.6,0.6-1.9,1.1C2,1.4,1.9,1.9,1.9,1.9V2v0.1v3.5H0.7v1.2h7.1V5.6H6.6V2.1V2V1.9
		c0,0-0.1-0.5-0.4-1.1C5.8,0.3,5.2-0.3,4.2-0.3z M4.2,0.9c0.4,0,0.7,0.2,0.9,0.6c0.2,0.3,0.3,0.7,0.3,0.7v3.4H3.1V2.2
		c0,0,0-0.4,0.3-0.7C3.5,1.1,3.8,0.9,4.2,0.9z"/>
</g>
</svg>
