<svg enable-background="new 0 0 8.5 8.5" height="8.5" viewBox="0 0 8.5 8.5" width="8.5" xmlns="http://www.w3.org/2000/svg"><g transform="translate(0 1)"><path d="m4.2-.3c-.9 0-1.6.6-1.9 1.1-.3.6-.4 1.1-.4 1.1v.1.1 3.5h-1.2v1.2h7.1v-1.2h-1.2v-3.5-.1-.1s-.1-.5-.4-1.1c-.4-.5-1-1.1-2-1.1zm0 1.2c.4 0 .7.2.9.6.2.3.3.7.3.7v3.4h-2.3v-3.4s0-.4.3-.7c.1-.4.4-.6.8-.6z" fill="#fff" stroke="#fff"/><path d="m4.2-.3c-.9 0-1.6.6-1.9 1.1-.3.6-.4 1.1-.4 1.1v.1.1 3.5h-1.2v1.2h7.1v-1.2h-1.2v-3.5-.1-.1s-.1-.5-.4-1.1c-.4-.5-1-1.1-2-1.1zm0 1.2c.4 0 .7.2.9.6.2.3.3.7.3.7v3.4h-2.3v-3.4s0-.4.3-.7c.1-.4.4-.6.8-.6z"/></g></svg>