<svg enable-background="new -2 -2 20 20" height="20" viewBox="-2 -2 20 20" width="20" xmlns="http://www.w3.org/2000/svg" xmlns:xlink="http://www.w3.org/1999/xlink"><filter id="a" height="1.2631" width="1.220629" x="-.110314" y="-.13155"><feGaussianBlur stdDeviation=".44885986"/></filter><g transform="translate(0 -1036.3622)"><g filter="url(#a)"><path d="m11.293 1037.999-1.672 1.671 1.622 1.621-3.192 3.195-3.343-3.342 1.427-1.476-1.62-1.671-3.257 3.256-.849 4.211 3.169-3.239 3.39 3.391-4.176 4.127 1.082 1.13 4.177-4.176 4.175 4.176 1.082-1.13-4.176-4.127 3.241-3.243 1.719 1.72 1.672-1.671z" fill="#fff"/><path d="m11.293 1037.999-1.672 1.671 1.622 1.621-3.192 3.195-3.343-3.342 1.427-1.476-1.62-1.671-3.257 3.256-.849 4.211 3.169-3.239 3.39 3.391-4.176 4.127 1.082 1.13 4.177-4.176 4.175 4.176 1.082-1.13-4.176-4.127 3.241-3.243 1.719 1.72 1.672-1.671z" fill="none" stroke="#fff"/></g><path d="m11.293 1037.999-1.672 1.671 1.622 1.621-3.192 3.194-3.343-3.342 1.427-1.476-1.62-1.671-3.257 3.256-.849 4.21 3.169-3.238 3.39 3.391-4.176 4.127 1.082 1.13 4.177-4.176 4.175 4.176 1.082-1.13-4.176-4.127 3.241-3.243 1.719 1.72 1.672-1.67z"/></g></svg>