<svg enable-background="new 0 0 24 24" height="24" viewBox="0 0 24 24" width="24" xmlns="http://www.w3.org/2000/svg"><g fill="none" stroke="#fff" stroke-width="4"><path d="m7.4 4.4v15.2"/><path d="m16.9 4.4v15.2"/><path d="m7.4 12h9.5"/></g><path d="m7 21.3v-17.8h5.5c1.3 0 2.2.1 2.9.3.8.3 1.5.9 2 1.7s.8 1.9.8 3.1c0 1.6-.4 2.9-1.2 3.9s-2.2 1.5-4.2 1.5h-3.9v7.2h-1.9zm1.9-9.3h3.8c1.2 0 2.1-.3 2.6-.8.6-.5.8-1.3.8-2.4 0-.7-.1-1.3-.4-1.8s-.6-.8-1-1-1.1-.3-2.1-.3h-3.7z" fill="#356ab7" stroke="#356ab7" stroke-width="1.5"/></svg>