<svg enable-background="new 0 0 18.641 18.641" height="18.641" viewBox="0 0 18.641 18.641" width="18.641" xmlns="http://www.w3.org/2000/svg"><path d="m13.71 7.31c-.699.38-2.63.38-3.319 0-.41-.23-.41-1.62 0-1.84.689-.39 2.62-.39 3.319 0 .41.22.41 1.61 0 1.84z" fill="#fff"/><path d="m8.39 5.71.04-1.62c.47-.58 1.15-.15 1.3-1.13.04-.22-4.24-.46-4.43.19-1.46 3.62-4.61 14.021-1.62 14.11 3.63.12 1.4-2.521 2.49-10.57.35-1.36 1.71-.34 2.22-.98zm5.32 1.6c.41-.23.41-1.62 0-1.84-.699-.39-2.63-.39-3.319 0-.41.22-.41 1.61 0 1.84.689.38 2.619.38 3.319 0zm2.11-3.27v14.53l-7.55.07-.02-10.56c0-.45-1.47-.35-1.33-.07-.51 8.6.94 10.06-3.2 10.09-5.59.05.9-15.51 1.01-16.82h9.1c1.12 0 .4 1.61.851 2.09.539.47.889.29 1.139.67z"/></svg>