<svg enable-background="new 0 0 18.641 18.641" height="18.641" viewBox="0 0 18.641 18.641" width="18.641" xmlns="http://www.w3.org/2000/svg"><path d="m1.036 0h16.568c.572 0 1.036.464 1.036 1.036v16.568c0 .572-.464 1.036-1.036 1.036h-16.568c-.572 0-1.036-.463-1.036-1.036v-16.568c0-.572.464-1.036 1.036-1.036z" fill="#3aa53a"/><path d="m11.464 7.177v-4.07h-4.287v4.07h-4.07v4.287h4.07v4.069h4.287v-4.069h4.069v-4.287zm-10.169 10.427h16.051c.144 0 .259-.116.259-.259v-16.05c0-.144-.115-.259-.259-.259h-16.051c-.144 0-.259.115-.259.259v16.051c0 .142.115.258.259.258zm.776-1.035v-14.498h14.498v14.498z" fill="#fff"/></svg>