<?xml version="1.0" encoding="utf-8"?>
<!-- Generator: Adobe Illustrator 14.0.0, SVG Export Plug-In . SVG Version: 6.00 Build 43363)  -->
<!DOCTYPE svg PUBLIC "-//W3C//DTD SVG 1.1//EN" "http://www.w3.org/Graphics/SVG/1.1/DTD/svg11.dtd">
<svg version="1.1"
	 id="svg2" inkscape:version="0.48.0 r9654" sodipodi:docname="shelter.svg" inkscape:export-ydpi="90" inkscape:export-xdpi="90" inkscape:export-filename="F:\GIS\render\symbols\shelter.png" xmlns:cc="http://creativecommons.org/ns#" xmlns:rdf="http://www.w3.org/1999/02/22-rdf-syntax-ns#" xmlns:svg="http://www.w3.org/2000/svg" xmlns:sodipodi="http://sodipodi.sourceforge.net/DTD/sodipodi-0.dtd" xmlns:inkscape="http://www.inkscape.org/namespaces/inkscape" inkscape:label="PozadĂ­" xmlns:dc="http://purl.org/dc/elements/1.1/"
	 xmlns="http://www.w3.org/2000/svg" xmlns:xlink="http://www.w3.org/1999/xlink" x="0px" y="0px" width="16px" height="16px"
	 viewBox="0 0 16 16" enable-background="new 0 0 16 16" xml:space="preserve">
<filter  y="-0.11142955" x="-0.12999867" width="1.2599973" height="1.2228591" id="filter4951" inkscape:collect="always">
	<feGaussianBlur  id="feGaussianBlur4953" stdDeviation="0.48749499" inkscape:collect="always"></feGaussianBlur>
</filter>
<defs>
	
	<inkscape:path-effect  effect="spiro" id="path-effect4437" is_visible="true"></inkscape:path-effect>
</defs>
<sodipodi:namedview  id="base" inkscape:window-y="8" inkscape:window-x="-5" inkscape:window-height="737" inkscape:window-width="1256" inkscape:current-layer="layer1" inkscape:document-units="px" inkscape:pageshadow="2" inkscape:pageopacity="0.0" inkscape:window-maximized="0" showgrid="true" inkscape:cy="8.5275863" inkscape:cx="7.8686579" pagecolor="#ffffff" inkscape:zoom="27.375" borderopacity="1.0" bordercolor="#666666">
	
		<inkscape:grid  type="xygrid" dotted="false" enabled="true" visible="true" id="grid3768" snapvisiblegridlinesonly="true" empspacing="4">
		</inkscape:grid>
</sodipodi:namedview>
<g id="layer1" transform="translate(0,-1036.3622)" inkscape:groupmode="layer" inkscape:label="Vrstva 1">
	<g id="g4439" transform="translate(0.43180375,-2.0697673)" filter="url(#filter4951)">
		<g sodipodi:nodetypes="cccccccccccc" inkscape:connector-curvature="0">
			<polygon fill="#FFFFFF" points="3.196,1053.801 3.196,1051.719 6.527,1051.719 6.527,1045.846 0.674,1045.801 7.568,1038.907 
				14.469,1045.807 8.609,1045.807 8.609,1051.719 11.941,1051.719 11.941,1053.801 			"/>
			<path fill="#F7F7F7" d="M7.568,1039.437l5.996,5.995h-5.33v6.662h3.332v1.332H3.571v-1.332h3.331v-6.62l-5.329-0.041
				L7.568,1039.437 M7.568,1038.377l-0.53,0.53l-5.996,5.996l-1.267,1.267l1.791,0.014l4.585,0.035v5.126H3.571h-0.75v0.75v1.332
				v0.75h0.75h7.995h0.75v-0.75v-1.332v-0.75h-0.75H8.984v-5.162h4.58h1.811l-1.281-1.28l-5.994-5.995L7.568,1038.377
				L7.568,1038.377z"/>
		</g>
	</g>
	<g id="g3758" transform="translate(0.43180375,-2.0697673)">
		<g id="path3754" sodipodi:nodetypes="cccccccccccc" inkscape:connector-curvature="0">
			<polygon fill="#CC1F1F" points="3.196,1053.801 3.196,1051.719 6.527,1051.719 6.527,1045.846 0.674,1045.801 7.568,1038.907 
				14.47,1045.807 8.609,1045.807 8.609,1051.719 11.941,1051.719 11.941,1053.801 			"/>
			<path fill="#F7F7F7" d="M7.568,1039.437l5.996,5.995h-5.33v6.662h3.332v1.332H3.571v-1.332h3.331v-6.62l-5.329-0.041
				L7.568,1039.437 M7.568,1038.377l-0.53,0.53l-5.996,5.996l-1.267,1.267l1.791,0.014l4.585,0.035v5.126H3.571h-0.75v0.75v1.332
				v0.75h0.75h7.995h0.75v-0.75v-1.332v-0.75h-0.75H8.984v-5.162h4.58h1.811l-1.28-1.28l-5.996-5.995L7.568,1038.377L7.568,1038.377
				z"/>
		</g>
	</g>
</g>
</svg>
