<svg enable-background="new 0 0 16 16" height="16" viewBox="0 0 16 16" width="16" xmlns="http://www.w3.org/2000/svg" xmlns:xlink="http://www.w3.org/1999/xlink"><filter id="a" height="1.222859" width="1.259997" x="-.129999" y="-.11143"><feGaussianBlur stdDeviation=".48749499"/></filter><g transform="translate(.431804 -1038.431967)"><g filter="url(#a)"><path d="m3.196 1053.801v-2.082h3.331v-5.873l-5.853-.045 6.894-6.894 6.901 6.9h-5.86v5.912h3.332v2.082z" fill="#fff"/><path d="m7.568 1039.437 5.996 5.995h-5.33v6.662h3.332v1.332h-7.995v-1.332h3.331v-6.62l-5.329-.041zm0-1.06-.53.53-5.996 5.996-1.267 1.267 1.791.014 4.585.035v5.126h-2.58-.75v.75 1.332.75h.75 7.995.75v-.75-1.332-.75h-.75-2.582v-5.162h4.58 1.811l-1.281-1.28-5.994-5.995z" fill="#f7f7f7"/></g><g><path d="m3.196 1053.801v-2.082h3.331v-5.873l-5.853-.045 6.894-6.894 6.902 6.9h-5.861v5.912h3.332v2.082z" fill="#cc1f1f"/><path d="m7.568 1039.437 5.996 5.995h-5.33v6.662h3.332v1.332h-7.995v-1.332h3.331v-6.62l-5.329-.041zm0-1.06-.53.53-5.996 5.996-1.267 1.267 1.791.014 4.585.035v5.126h-2.58-.75v.75 1.332.75h.75 7.995.75v-.75-1.332-.75h-.75-2.582v-5.162h4.58 1.811l-1.28-1.28-5.996-5.995z" fill="#f7f7f7"/></g></g></svg>