<svg height="18" width="18" xmlns="http://www.w3.org/2000/svg"><g transform="matrix(.06720191 0 0 .06722715 -14.47422 -27.17495)"><g stroke="#000"><rect fill="#c7f1a3" height="250" ry="48.57143" stroke-linecap="round" stroke-linejoin="round" stroke-miterlimit="1.1" stroke-width="17.799999" width="250" x="224.28572" y="413.07645"/><path d="m247.27748 532.72088 204.01648 40.23733" fill="none" stroke-linecap="round" stroke-miterlimit="1.1" stroke-width="14.2"/><path d="m349.28571 554.13022-21.51263 45.16811h43.02527z" fill-rule="evenodd" stroke-width=".831891"/></g><g transform="matrix(.8785919 .3718702 -.3462376 .9436356 143.99832 -69.706166)"><path d="m338.53918 463.22191c-8.9525 1.66739-20.95672 48.62705-20.95672 48.62705l34.61374-4.78652s-4.32951 15.51183-8.18502 27.01742c-2.40466 7.17586 5.60707 9.49056 9.63988 1.52914 7.449-14.70555 13.0522-30.95967 13.0522-30.95967s-18.70966-43.18825-28.16408-41.42742z" fill-rule="evenodd" stroke="#000" stroke-width="1.33471"/><path d="m286.86472 449.50504c.00356 5.13117-3.71051 9.29292-8.29328 9.29292s-8.29684-4.16175-8.29328-9.29292c-.00356-5.13117 3.71051-9.29292 8.29328-9.29292s8.29684 4.16175 8.29328 9.29292z" stroke-width="5.9" transform="matrix(-1.664894 -.163643 -.2881576 1.3383147 941.37379 -110.14043)"/></g><g transform="matrix(-.9492779 -.09530299 -.1490016 .9940458 828.53274 98.070173)"><path d="m338.53918 463.22191c-8.9525 1.66739-20.95672 48.62705-20.95672 48.62705l34.61374-4.78652s-4.32951 15.51183-8.18502 27.01742c-2.40466 7.17586 5.60707 9.49056 9.63988 1.52914 7.449-14.70555 13.0522-30.95967 13.0522-30.95967s-18.70966-43.18825-28.16408-41.42742z" fill-rule="evenodd" stroke="#000" stroke-width="1.33471"/><path d="m286.86472 449.50504c.00356 5.13117-3.71051 9.29292-8.29328 9.29292s-8.29684-4.16175-8.29328-9.29292c-.00356-5.13117 3.71051-9.29292 8.29328-9.29292s8.29684 4.16175 8.29328 9.29292z" stroke-width="5.9" transform="matrix(-1.664894 -.163643 -.2881576 1.3383147 941.37379 -110.14043)"/></g></g></svg>