<?xml version="1.0" encoding="utf-8"?>
<!-- Generator: Adobe Illustrator 14.0.0, SVG Export Plug-In . SVG Version: 6.00 Build 43363)  -->
<!DOCTYPE svg PUBLIC "-//W3C//DTD SVG 1.1//EN" "http://www.w3.org/Graphics/SVG/1.1/DTD/svg11.dtd">
<svg version="1.1"
	 id="svg4674" inkscape:version="0.47pre4 r22446" sodipodi:docname="OSB_police.svg" xmlns:dc="http://purl.org/dc/elements/1.1/" xmlns:cc="http://creativecommons.org/ns#" xmlns:rdf="http://www.w3.org/1999/02/22-rdf-syntax-ns#" xmlns:svg="http://www.w3.org/2000/svg" xmlns:sodipodi="http://sodipodi.sourceforge.net/DTD/sodipodi-0.dtd" xmlns:inkscape="http://www.inkscape.org/namespaces/inkscape"
	 xmlns="http://www.w3.org/2000/svg" xmlns:xlink="http://www.w3.org/1999/xlink" x="0px" y="0px" width="20px" height="20px"
	 viewBox="-2 -2 20 20" enable-background="new -2 -2 20 20" xml:space="preserve">
<defs>
	
	
		<inkscape:perspective  id="perspective4682" inkscape:persp3d-origin="372.04724 : 350.78739 : 1" inkscape:vp_z="744.09448 : 526.18109 : 1" inkscape:vp_y="0 : 1000 : 0" inkscape:vp_x="0 : 526.18109 : 1" sodipodi:type="inkscape:persp3d">
		</inkscape:perspective>
	
		<inkscape:perspective  id="perspective5212" inkscape:persp3d-origin="0.5 : 0.33333333 : 1" inkscape:vp_z="1 : 0.5 : 1" inkscape:vp_y="0 : 1000 : 0" inkscape:vp_x="0 : 0.5 : 1" sodipodi:type="inkscape:persp3d">
		</inkscape:perspective>
	
		<inkscape:perspective  id="perspective5242" inkscape:persp3d-origin="0.5 : 0.33333333 : 1" inkscape:vp_z="1 : 0.5 : 1" inkscape:vp_y="0 : 1000 : 0" inkscape:vp_x="0 : 0.5 : 1" sodipodi:type="inkscape:persp3d">
		</inkscape:perspective>
	
		<inkscape:perspective  id="perspective5242-4" inkscape:persp3d-origin="0.5 : 0.33333333 : 1" inkscape:vp_z="1 : 0.5 : 1" inkscape:vp_y="0 : 1000 : 0" inkscape:vp_x="0 : 0.5 : 1" sodipodi:type="inkscape:persp3d">
		</inkscape:perspective>
	
		<inkscape:perspective  id="perspective5242-0" inkscape:persp3d-origin="0.5 : 0.33333333 : 1" inkscape:vp_z="1 : 0.5 : 1" inkscape:vp_y="0 : 1000 : 0" inkscape:vp_x="0 : 0.5 : 1" sodipodi:type="inkscape:persp3d">
		</inkscape:perspective>
	
		<inkscape:perspective  id="perspective5242-6" inkscape:persp3d-origin="0.5 : 0.33333333 : 1" inkscape:vp_z="1 : 0.5 : 1" inkscape:vp_y="0 : 1000 : 0" inkscape:vp_x="0 : 0.5 : 1" sodipodi:type="inkscape:persp3d">
		</inkscape:perspective>
	
		<inkscape:perspective  id="perspective5242-3" inkscape:persp3d-origin="0.5 : 0.33333333 : 1" inkscape:vp_z="1 : 0.5 : 1" inkscape:vp_y="0 : 1000 : 0" inkscape:vp_x="0 : 0.5 : 1" sodipodi:type="inkscape:persp3d">
		</inkscape:perspective>
</defs>
<sodipodi:namedview  id="base" inkscape:window-y="25" inkscape:window-x="0" inkscape:window-height="697" inkscape:window-width="1024" inkscape:current-layer="g5294" inkscape:document-units="px" inkscape:pageshadow="2" inkscape:pageopacity="0.0" showgrid="false" inkscape:cy="5.155386" inkscape:cx="16.121665" inkscape:zoom="15.839192" borderopacity="1.0" bordercolor="#666666" pagecolor="#ffffff" inkscape:window-maximized="1">
	</sodipodi:namedview>
<g>
	<path fill="#141484" d="M8,17.2c-0.9,0-1.7-0.8-1.7-1.7c0-0.5,0.2-1,0.6-1.3L5.7,12l-2.3,0c-0.1,0.8-0.8,1.4-1.7,1.4
		c-0.9,0-1.7-0.8-1.7-1.7C0,10.7,0.7,10,1.7,10C1.8,10,2,10,2.2,10L3.3,8L2.1,5.7C1.9,5.8,1.7,5.8,1.5,5.8c-0.9,0-1.7-0.8-1.7-1.7
		c0-0.9,0.8-1.7,1.7-1.7c0.9,0,1.6,0.7,1.7,1.5l2.5,0l1.2-2.1C6.5,1.5,6.3,1.1,6.3,0.6c0-0.9,0.8-1.7,1.7-1.7s1.7,0.8,1.7,1.7
		c0,0.5-0.2,1-0.6,1.3L10.3,4l2.4,0c0.1-0.8,0.8-1.4,1.7-1.4c0.9,0,1.7,0.8,1.7,1.7c0,0.9-0.8,1.7-1.7,1.7c-0.2,0-0.4,0-0.6-0.1
		L12.6,8l1.3,2.3c0.2-0.1,0.4-0.1,0.6-0.1c0.9,0,1.7,0.8,1.7,1.7c0,0.9-0.8,1.7-1.7,1.7c-0.9,0-1.6-0.7-1.7-1.6l-2.6,0L9,14.1
		c0.4,0.3,0.7,0.8,0.7,1.4C9.7,16.4,9,17.2,8,17.2L8,17.2z"/>
	<path fill="#E8E8E8" d="M8-0.6c0.7,0,1.2,0.5,1.2,1.2c0,0.5-0.4,1-0.8,1.1L10,4.4l3.2,0c0-0.1,0-0.1,0-0.2c0-0.7,0.5-1.2,1.2-1.2
		c0.7,0,1.2,0.5,1.2,1.2S15,5.5,14.4,5.5c-0.3,0-0.5-0.1-0.7-0.3L12,8l1.7,3c0.2-0.2,0.5-0.3,0.8-0.3c0.7,0,1.2,0.5,1.2,1.2
		c0,0.7-0.5,1.2-1.2,1.2c-0.7,0-1.2-0.5-1.2-1.2c0-0.1,0-0.3,0.1-0.4l-3.4,0l-1.7,2.9c0.5,0.1,0.9,0.6,0.9,1.1
		c0,0.7-0.5,1.2-1.2,1.2c-0.7,0-1.2-0.5-1.2-1.2c0-0.5,0.3-0.9,0.8-1.1L6,11.5l-3.1,0c0,0.1,0,0.1,0,0.2c0,0.7-0.5,1.2-1.2,1.2
		c-0.7,0-1.2-0.5-1.2-1.2c0-0.7,0.5-1.2,1.2-1.2c0.3,0,0.5,0.1,0.7,0.2L3.9,8L2.3,5C2,5.2,1.8,5.3,1.5,5.3c-0.7,0-1.2-0.5-1.2-1.2
		c0-0.7,0.5-1.2,1.2-1.2c0.7,0,1.2,0.5,1.2,1.2c0,0.1,0,0.2-0.1,0.3l3.3,0l1.6-2.8C7.1,1.5,6.8,1.1,6.8,0.6C6.8-0.1,7.4-0.6,8-0.6
		 M8-1.6c-1.2,0-2.2,1-2.2,2.2c0,0.5,0.2,0.9,0.4,1.3L5.4,3.5l-1.8,0C3.3,2.6,2.5,1.9,1.5,1.9c-1.2,0-2.2,1-2.2,2.2
		c0,1.2,1,2.2,2.2,2.2c0.1,0,0.2,0,0.3,0l1,1.7L1.9,9.5c-0.1,0-0.2,0-0.2,0c-1.2,0-2.2,1-2.2,2.2c0,1.2,1,2.2,2.2,2.2
		c0.9,0,1.7-0.6,2-1.4l1.7,0l1,1.6C6,14.5,5.8,15,5.8,15.5c0,1.2,1,2.2,2.2,2.2c1.2,0,2.2-1,2.2-2.2c0-0.5-0.2-1.1-0.6-1.5l0.9-1.6
		l1.8,0c0.3,0.9,1.1,1.6,2.1,1.6c1.2,0,2.2-1,2.2-2.2c0-1.2-1-2.2-2.2-2.2c-0.1,0-0.3,0-0.4,0l-1-1.7L14,6.4c0.1,0,0.2,0,0.3,0
		c1.2,0,2.2-1,2.2-2.2c0-1.2-1-2.2-2.2-2.2c-0.9,0-1.7,0.6-2,1.4l-1.7,0L9.7,2c0.3-0.4,0.5-0.9,0.5-1.4C10.2-0.6,9.2-1.6,8-1.6
		L8-1.6z"/>
</g>
</svg>
