<svg enable-background="new -2 -2 20 20" height="20" viewBox="-2 -2 20 20" width="20" xmlns="http://www.w3.org/2000/svg"><path d="m8 17.2c-.9 0-1.7-.8-1.7-1.7 0-.5.2-1 .6-1.3l-1.2-2.2h-2.3c-.1.8-.8 1.4-1.7 1.4s-1.7-.8-1.7-1.7c0-1 .7-1.7 1.7-1.7h.5l1.1-2-1.2-2.3c-.2.1-.4.1-.6.1-.9 0-1.7-.8-1.7-1.7s.8-1.7 1.7-1.7 1.6.7 1.7 1.5h2.5l1.2-2.1c-.4-.3-.6-.7-.6-1.2 0-.9.8-1.7 1.7-1.7s1.7.8 1.7 1.7c0 .5-.2 1-.6 1.3l1.2 2.1h2.4c.1-.8.8-1.4 1.7-1.4s1.7.8 1.7 1.7-.8 1.7-1.7 1.7c-.2 0-.4 0-.6-.1l-1.2 2.1 1.3 2.3c.2-.1.4-.1.6-.1.9 0 1.7.8 1.7 1.7s-.8 1.7-1.7 1.7-1.6-.7-1.7-1.6h-2.6l-1.2 2.1c.4.3.7.8.7 1.4 0 .9-.7 1.7-1.7 1.7z" fill="#141484"/><path d="m8-.6c.7 0 1.2.5 1.2 1.2 0 .5-.4 1-.8 1.1l1.6 2.7h3.2c0-.1 0-.1 0-.2 0-.7.5-1.2 1.2-1.2s1.2.5 1.2 1.2-.6 1.3-1.2 1.3c-.3 0-.5-.1-.7-.3l-1.7 2.8 1.7 3c.2-.2.5-.3.8-.3.7 0 1.2.5 1.2 1.2s-.5 1.2-1.2 1.2-1.2-.5-1.2-1.2c0-.1 0-.3.1-.4h-3.4l-1.7 2.9c.5.1.9.6.9 1.1 0 .7-.5 1.2-1.2 1.2s-1.2-.5-1.2-1.2c0-.5.3-.9.8-1.1l-1.6-2.9h-3.1v.2c0 .7-.5 1.2-1.2 1.2s-1.2-.5-1.2-1.2.5-1.2 1.2-1.2c.3 0 .5.1.7.2l1.5-2.7-1.6-3c-.3.2-.5.3-.8.3-.7 0-1.2-.5-1.2-1.2s.5-1.2 1.2-1.2 1.2.5 1.2 1.2c0 .1 0 .2-.1.3h3.3l1.6-2.8c-.4-.1-.7-.5-.7-1 0-.7.6-1.2 1.2-1.2m0-1c-1.2 0-2.2 1-2.2 2.2 0 .5.2.9.4 1.3l-.8 1.6h-1.8c-.3-.9-1.1-1.6-2.1-1.6-1.2 0-2.2 1-2.2 2.2s1 2.2 2.2 2.2h.3l1 1.7-.9 1.5c-.1 0-.2 0-.2 0-1.2 0-2.2 1-2.2 2.2s1 2.2 2.2 2.2c.9 0 1.7-.6 2-1.4h1.7l1 1.6c-.4.4-.6.9-.6 1.4 0 1.2 1 2.2 2.2 2.2s2.2-1 2.2-2.2c0-.5-.2-1.1-.6-1.5l.9-1.6h1.8c.3.9 1.1 1.6 2.1 1.6 1.2 0 2.2-1 2.2-2.2s-1-2.2-2.2-2.2c-.1 0-.3 0-.4 0l-1-1.7 1-1.5h.3c1.2 0 2.2-1 2.2-2.2s-1-2.2-2.2-2.2c-.9 0-1.7.6-2 1.4h-1.7l-.9-1.4c.3-.4.5-.9.5-1.4 0-1.2-1-2.2-2.2-2.2z" fill="#e8e8e8"/></svg>