<svg enable-background="new 0 0 13.98 13.98" height="13.98" viewBox="0 0 13.98 13.98" width="13.98" xmlns="http://www.w3.org/2000/svg"><path d="m6.99 13.48c-3.579 0-6.49-2.911-6.49-6.49s2.912-6.49 6.49-6.49c3.579 0 6.49 2.912 6.49 6.49 0 3.579-2.911 6.49-6.49 6.49z" fill="#f00"/><path d="m6.99 1c3.303 0 5.99 2.687 5.99 5.99s-2.688 5.99-5.99 5.99c-3.303 0-5.99-2.687-5.99-5.99s2.687-5.99 5.99-5.99m0-1c-3.86 0-6.99 3.13-6.99 6.99s3.13 6.99 6.99 6.99 6.99-3.13 6.99-6.99-3.13-6.99-6.99-6.99z" fill="#f00"/><ellipse cx="6.99" cy="6.99" fill="#fff" rx="6.213" ry="6.213"/><path d="m11.65 5.436v3.884h-9.32v-3.884l4.66 2.33zm-9.32-.776h9.32l-4.66 2.33zm-.777 5.436h10.873v-6.212h-10.873z" fill="#f00" stroke="#f00" stroke-width=".5"/></svg>