<svg enable-background="new -0.68 -0.68 20 20" height="20" viewBox="-.68 -.68 20 20" width="20" xmlns="http://www.w3.org/2000/svg"><path d="m9.32 19.14c-5.415 0-9.82-4.405-9.82-9.82s4.405-9.82 9.82-9.82 9.82 4.405 9.82 9.82-4.405 9.82-9.82 9.82z" fill="#e80a0a"/><path d="m9.32 0c5.147 0 9.32 4.173 9.32 9.32s-4.173 9.32-9.32 9.32-9.32-4.172-9.32-9.32 4.173-9.32 9.32-9.32m0-1c-5.69 0-10.32 4.63-10.32 10.32s4.63 10.32 10.32 10.32 10.32-4.63 10.32-10.32-4.63-10.32-10.32-10.32z" fill="#f4f4f4"/><path d="m15.239 7.151v4.932h-11.838v-4.932l5.919 2.959zm-11.838-.987h11.838l-5.918 2.96zm-.986 6.906h13.812v-7.893h-13.812z" fill="#ff0" stroke="#ff0" stroke-width=".75"/></svg>