<svg enable-background="new 0 0 20 20" height="20" viewBox="0 0 20 20" width="20" xmlns="http://www.w3.org/2000/svg"><path d="m8.9 19.7.8-9.3-5 2.9-1.5-2.5 5.1-3c.1-.7.4-1.3.9-1.7v-5.8h2.9v5.8c.5.4.9 1 1 1.7l5.1 2.9-1.5 2.5-5-2.9 1 9.2h-3.8z"/><g fill="#fff"><path d="m11.6.8v5.6c.6.3 1 1 1 1.7v.1l4.9 2.8-1 1.7-5-2.9c-.2.1-.4.2-.6.2l.2.2 1 9h-2.7l.7-9 .2-.2c-.2 0-.4-.1-.6-.2l-5 2.9-1-1.7 4.9-2.8s0 0 0-.1c0-.7.4-1.3 1-1.7v-5.6zm1-1h-1-1.9-1v1 5.1c-.5.4-.8 1-.9 1.6l-4.5 2.6-.9.5.5.9 1 1.7.5.8.9-.5 3.7-2.2-.6 7.8-.1 1.1h1.1 2.7 1.1l-.1-1.1-.9-7.7 3.7 2.2.9.5.5-.9 1-1.7.5-.9-.8-.5-4.5-2.6c-.1-.6-.4-1.2-.9-1.6v-5.1z"/><circle cx="10.6" cy="8.1" r="1.2"/></g></svg>