<?xml version="1.0" encoding="utf-8"?>
<!-- Generator: Adobe Illustrator 14.0.0, SVG Export Plug-In . SVG Version: 6.00 Build 43363)  -->
<!DOCTYPE svg PUBLIC "-//W3C//DTD SVG 1.0//EN" "http://www.w3.org/TR/2001/REC-SVG-20010904/DTD/svg10.dtd">
<svg version="1.0" id="Vrstva_1" xmlns="http://www.w3.org/2000/svg" xmlns:xlink="http://www.w3.org/1999/xlink" x="0px" y="0px"
	 width="20px" height="20px" viewBox="0 0 20 20" style="enable-background:new 0 0 20 20;" xml:space="preserve">
<g>
	<polygon points="0.8,19.9 0.8,11.6 1.6,11.6 5.8,7.6 5.8,11.4 9.9,7.6 9.9,11.2 13.7,7.6 13.7,11.6 15,11.6 15,0.1 19.1,0.1 
		19.1,19.9 	"/>
	<path style="fill:#FFFFFF;" d="M18.6,0.6v18.8h-0.4h-2.7H1.3v-7.3h0.5l3.6-3.4v3.4h0.5l3.6-3.4v3.4h0.2l3.6-3.4v3.4h2.3V0.6H18.6
		 M19.6-0.4h-1h-3.1h-1v1v10.5h-0.3V8.7V6.4L12.5,8l-2.1,2V8.7V6.4L8.7,8l-2.4,2.3V8.7V6.4L4.6,8l-3.3,3.1H1.3h-1v1v7.3v1h1h14.2
		h2.7h0.4h1v-1V0.6V-0.4L19.6-0.4z"/>
</g>
<sodipodi:namedview  id="namedview10" inkscape:cy="9.2770693" inkscape:zoom="26.052568" inkscape:cx="9.9125234" showgrid="true" borderopacity="1.0" bordercolor="#666666" pagecolor="#ffffff" gridtolerance="30" inkscape:document-units="px" inkscape:current-layer="layer1" inkscape:snap-bbox="true" inkscape:object-paths="true" inkscape:object-nodes="true" inkscape:bbox-paths="true" inkscape:bbox-nodes="true" inkscape:window-x="122" inkscape:window-y="11" inkscape:window-height="805" inkscape:pageopacity="0.0" inkscape:pageshadow="2" inkscape:window-width="1172">
	<inkscape:grid  type="xygrid" visible="true" enabled="true" id="grid12" empspacing="2" spacingx="0.5px" spacingy="0.5px">
		</inkscape:grid>
</sodipodi:namedview>
</svg>
