<?xml version="1.0" encoding="utf-8"?>
<!-- Generator: Adobe Illustrator 14.0.0, SVG Export Plug-In . SVG Version: 6.00 Build 43363)  -->
<!DOCTYPE svg PUBLIC "-//W3C//DTD SVG 1.0//EN" "http://www.w3.org/TR/2001/REC-SVG-20010904/DTD/svg10.dtd">
<svg version="1.0"
	 id="pub" xmlns:xs="http://www.w3.org/2001/XMLSchema" xmlns:inkscape="http://www.inkscape.org/namespaces/inkscape" xmlns:rdf="http://www.w3.org/1999/02/22-rdf-syntax-ns#" xmlns:svg="http://www.w3.org/2000/svg" xmlns:cc="http://web.resource.org/cc/" xmlns:xi="http://www.w3.org/2001/XInclude" xmlns:dc="http://purl.org/dc/elements/1.1/"
	 xmlns="http://www.w3.org/2000/svg" xmlns:xlink="http://www.w3.org/1999/xlink" x="0px" y="0px" width="14px" height="14px"
	 viewBox="0 0 14 14" style="enable-background:new 0 0 14 14;" xml:space="preserve">
<path d="M1.6,0.1c-1,0-1.6,0.5-1.6,1.6v10.9c0,1,0.5,1.5,1.5,1.5h10.9c1,0,1.5-0.5,1.5-1.5V1.6c0-1-0.5-1.6-1.5-1.6
	C12.4,0.1,1.6,0.1,1.6,0.1z"/>
<path style="fill:none;stroke:#000000;stroke-width:0.25;" d="M1.6,0.1c-1,0-1.6,0.5-1.6,1.6v10.9c0,1,0.5,1.5,1.5,1.5h10.9
	c1,0,1.5-0.5,1.5-1.5V1.6c0-1-0.5-1.6-1.5-1.6C12.4,0.1,1.6,0.1,1.6,0.1"/>
<path style="fill:#FFFFFF;" d="M2,2.4h10.2L7.7,7.9v3.5h2.5c0.8,0,0.8,1.2,0,1.2H4.1c-0.8,0-0.8-1.2,0-1.2h2.4V7.9L2,2.4z"/>
<path d="M8.3,5.2C8.7,5.2,9,4.8,9,4.5c0-0.4-0.3-0.7-0.7-0.7c-0.4,0-0.7,0.3-0.7,0.7S7.9,5.2,8.3,5.2z"/>
</svg>
