<svg enable-background="new 0 0 14 14" height="14" viewBox="0 0 14 14" width="14" xmlns="http://www.w3.org/2000/svg"><path d="m1.6.1c-1 0-1.6.5-1.6 1.6v10.9c0 1 .5 1.5 1.5 1.5h10.9c1 0 1.5-.5 1.5-1.5v-11c0-1-.5-1.6-1.5-1.6 0 .1-10.8.1-10.8.1z"/><path d="m1.6.1c-1 0-1.6.5-1.6 1.6v10.9c0 1 .5 1.5 1.5 1.5h10.9c1 0 1.5-.5 1.5-1.5v-11c0-1-.5-1.6-1.5-1.6 0 .1-10.8.1-10.8.1" fill="none" stroke="#000" stroke-width=".25"/><path d="m2 2.4h10.2l-4.5 5.5v3.5h2.5c.8 0 .8 1.2 0 1.2h-6.1c-.8 0-.8-1.2 0-1.2h2.4v-3.5z" fill="#fff"/><path d="m8.3 5.2c.4 0 .7-.4.7-.7 0-.4-.3-.7-.7-.7s-.7.3-.7.7.3.7.7.7z"/></svg>