<?xml version="1.0" encoding="utf-8"?>
<!-- Generator: Adobe Illustrator 14.0.0, SVG Export Plug-In . SVG Version: 6.00 Build 43363)  -->
<!DOCTYPE svg PUBLIC "-//W3C//DTD SVG 1.0//EN" "http://www.w3.org/TR/2001/REC-SVG-20010904/DTD/svg10.dtd">
<svg version="1.0"
	 id="symbol-railway-crossing" xmlns:xs="http://www.w3.org/2001/XMLSchema" xmlns:inkscape="http://www.inkscape.org/namespaces/inkscape" xmlns:rdf="http://www.w3.org/1999/02/22-rdf-syntax-ns#" xmlns:svg="http://www.w3.org/2000/svg" xmlns:cc="http://web.resource.org/cc/" xmlns:xi="http://www.w3.org/2001/XInclude" xmlns:dc="http://purl.org/dc/elements/1.1/"
	 xmlns="http://www.w3.org/2000/svg" xmlns:xlink="http://www.w3.org/1999/xlink" x="0px" y="0px" width="32.6px" height="32.6px"
	 viewBox="0 0 32.6 32.6" style="enable-background:new 0 0 32.6 32.6;" xml:space="preserve">
<path style="fill:#FF0000;stroke:#FF0000;" d="M2.8,8.4l3.6,0.1l10.3,5l10.8-5.3l3.4,0.2L30.1,11l-10,4.7l9.5,4.4l0.8,2.8l-3.2,0.3
	l-10.5-5.4c0,0-10.3,5.2-10.5,5.4c-0.2,0.2-3.5,0.1-3.5,0.1L3,20.6l9.4-4.6l-9.1-4.3L2.8,8.4z"/>
<path style="fill:#FFFFFF;" d="M5.4,9.3l-0.9,1.5l10.1,5L4.7,21l0.9,1.4l11.2-5.8l10.7,5.7l1.1-1.8l-10.3-5l10.3-4.7l-1.1-1.6
	l-10.7,5.3L5.4,9.3z"/>
</svg>
