<?xml version="1.0" encoding="utf-8"?>
<!-- Generator: Adobe Illustrator 14.0.0, SVG Export Plug-In . SVG Version: 6.00 Build 43363)  -->
<!DOCTYPE svg PUBLIC "-//W3C//DTD SVG 1.0//EN" "http://www.w3.org/TR/2001/REC-SVG-20010904/DTD/svg10.dtd">
<svg version="1.0" id="symbol-railway-crossing-small" xmlns:svg="http://www.w3.org/2000/svg"
	 xmlns="http://www.w3.org/2000/svg" xmlns:xlink="http://www.w3.org/1999/xlink" x="0px" y="0px" width="32.6px" height="32.6px"
	 viewBox="0 0 32.6 32.6" style="enable-background:new 0 0 32.6 32.6;" xml:space="preserve">
<path id="path5" style="fill:#FF0000;stroke:#FF0000;stroke-width:0.5;" d="M9.8,12.1l1.8,0l5.2,2.5l5.4-2.6l1.7,0.1l-0.4,1.3
	l-5,2.4l4.8,2.2l0.4,1.4L22,19.5l-5.3-2.7c0,0-5.1,2.6-5.3,2.7c-0.1,0.1-1.8,0-1.8,0l0.2-1.4l4.7-2.3l-4.5-2.2L9.8,12.1z"/>
<path id="path7" style="fill:#FFFFFF;" d="M11.1,12.5l-0.4,0.8l5.1,2.5l-5,2.6l0.4,0.7l5.6-2.9l5.3,2.9l0.6-0.9l-5.1-2.5l5.1-2.4
	l-0.6-0.8l-5.3,2.6L11.1,12.5z"/>
</svg>
