<svg enable-background="new 0 0 20 20" height="20" viewBox="0 0 20 20" width="20" xmlns="http://www.w3.org/2000/svg"><circle cx="8.2" cy="10.8" r="2.5"/><path d="m15 11.5c1.4 0 2.5 1.1 2.5 2.5s-1.1 2.5-2.5 2.5-2.5-1.1-2.5-2.5 1.1-2.5 2.5-2.5z"/><path d="m5.3 1 12.8 6.4c.2.1.4.4.4.6v7.4c0 .2-.2.3-.4.2l-12.8-6.3c-.2-.1-.4-.4-.4-.6v-7.5c0-.2.2-.3.4-.2z"/><g fill="#fff"><path d="m6.3 2.6 2.5 1.2c.1.1.2.2.2.3v3.7c0 .1-.1.2-.2.1l-2.5-1.2c-.1-.1-.2-.2-.2-.3v-3.7c0-.1.1-.2.2-.1z"/><path d="m10.5 4.6 2.5 1.2c.1.1.2.2.2.3v3.7c0 .1-.1.2-.2.1l-2.5-1.2c-.1-.1-.2-.2-.2-.3v-3.7c0-.1 0-.1.2-.1z"/><path d="m14.6 6.7 2.5 1.2c.1.1.2.2.2.3v3.8c0 .1-.1.2-.2.1l-2.5-1.2c-.1-.1-.2-.2-.2-.3v-3.8c0-.1.1-.2.2-.1z"/></g><path d="m.8 5.5 8.7 4.3" stroke="#000" stroke-dasharray="1"/><path d="m2.3 11.5 17 8" fill="none" stroke="#000"/></svg>