<svg enable-background="new -0.7 -0.7 20 20" height="20" viewBox="-.7 -.7 20 20" width="20" xmlns="http://www.w3.org/2000/svg"><path d="m15.2 12.3c-.1 0-.3 0-.4 0h-.1l-2-3.7 4.2-2.5 1.9 3.6c.1.6 0 1.1-.3 1.5-.7.7-1.9 1.1-3.3 1.1z" fill="#3bb73b"/><path d="m16.8 6.3 1.8 3.5c.4 1.8-1.6 2.5-3.4 2.5-.1 0-.3 0-.4 0l-1.9-3.5zm.1-.4-.2.1-4 2.4-.2.1.1.2 1.9 3.5.1.1h.1.4c1.5 0 2.7-.4 3.3-1.2.4-.4.5-1 .3-1.6l-1.7-3.3z" fill="#f4f4f4"/><path d="m9.7 14.9 2.3-4.1.1 1.7h3.1c1.4 0 2.3-.3 3-1l.2.1-2.4 4.5c-.3.6-1.2 1.1-1.9 1.1-.1 0-.1 0-.2 0h-1.8l-.1 1.9z" fill="#3bb73b"/><path d="m11.9 11.2.1 1.4h3.2c1.2 0 2.3-.2 3.1-1l-2.4 4.5c-.3.6-1.1 1.1-1.8 1.1h-.1-2v1.5l-2.1-3.8zm.2-.9-.4.7-2.1 3.7-.1.1.1.2 2.1 3.8.4.8v-.9-1.3h1.7.1c.8 0 1.7-.5 2-1.2l2.4-4.5-.4-.3c-.6.7-1.5.9-2.9.9h-3l-.1-1.2z" fill="#f4f4f4"/><path d="m7.2 6.7h-.2v-.1l-4-2.3 2.2-3.4c.4-.3.8-.5 1.2-.5 1.2 0 2.4 1.3 3 2.7v.1l-2 3.3.3.2z" fill="#3bb73b"/><path d="m6.4.5c1.1 0 2.3 1.3 2.9 2.6l-2.1 3.5-4-2.3 2.1-3.3c.4-.3.7-.5 1.1-.5m0-.2c-.4 0-.9.2-1.2.5l-2.2 3.3-.2.2.2.1 3.8 2.2-.1.2h.4l.1.1v-.1h.8l-.4-.3 2-3.2.1-.1-.1-.2c-.7-1.3-1.9-2.7-3.2-2.7z" fill="#f4f4f4"/><path d="m9.4 6.3 1.5-.9-1.6-2.8c-.7-1.2-1.4-1.8-2.3-2.1v-.2h5.2c.8 0 1.7.6 2 1.3l.8 1.5 1.6-.8-2.5 4.1z" fill="#3bb73b"/><path d="m12.2.3c.7 0 1.5.6 1.8 1.2l1 1.7 1.4-.7-2.3 3.7h-4.3l1.2-.8-1.6-2.8c-.6-1.1-1.3-1.9-2.4-2.2zm0-.2h-5.2v.5c.9.3 1.6.9 2.2 2.1l1.5 2.6-1 .7-.8.4h.9 4.3.1l.1-.1 2.3-3.7.4-.7-.8.4-1.1.6-.8-1.5c-.3-.7-1.3-1.3-2.1-1.3z" fill="#f4f4f4"/><path d="m3.8 12.4c-1 0-1.9 0-2.6-.4-.5-.2-1-.8-1.2-1.4-.1-.4-.1-.8.1-1.2l1.1-2-1.5-1.1 4.8-.1 2.5 4.4-1.5-.8z" fill="#3bb73b"/><path d="m4.5 6.3 2.2 3.9-1.3-.6-1.7 2.7c-.9 0-1.9 0-2.5-.4-.6-.3-1.7-1.3-1-2.4l1.2-2.1-1.3-1zm.1-.2h-.1-4.4-.7l.6.4 1 .9-1 1.9c-.2.4-.3.9-.1 1.3.2.7.8 1.2 1.3 1.5.7.4 1.7.4 2.7.4h.1v-.1l1.5-2.4 1 .5.7.4-.4-.7-2.1-4z" fill="#f4f4f4"/><path d="m5.4 17.3c-1.2 0-2.1-.3-2.5-.9l-2.7-4.9.2-.1c.8.8 1.7 1 2.4 1h.2 5.5v4.8z" fill="#3bb73b"/><path d="m.3 11.5c.8.8 1.7 1 2.5 1h.2 5.4v4.6h-2.8c-.1 0-.1 0-.2 0-1 0-1.9-.2-2.4-.8zm.2-.2-.4.3 2.7 4.8c.5.6 1.4.9 2.6.9h.2 2.8.3v-.3-4.6-.2h-.2-5.4c-.1 0-.2 0-.2 0-.8.1-1.7-.1-2.4-.9z" fill="#f4f4f4"/></svg>