<?xml version="1.0" encoding="utf-8"?>
<!-- Generator: Adobe Illustrator 14.0.0, SVG Export Plug-In . SVG Version: 6.00 Build 43363)  -->
<!DOCTYPE svg PUBLIC "-//W3C//DTD SVG 1.1 Tiny//EN" "http://www.w3.org/Graphics/SVG/1.1/DTD/svg11-tiny.dtd">
<svg version="1.1" baseProfile="tiny"
	 id="svg2" inkscape:version="0.48.0 r9654" sodipodi:docname="rocks.svg" inkscape:export-ydpi="90" inkscape:export-xdpi="90" xmlns:dc="http://purl.org/dc/elements/1.1/" xmlns:cc="http://creativecommons.org/ns#" xmlns:rdf="http://www.w3.org/1999/02/22-rdf-syntax-ns#" xmlns:svg="http://www.w3.org/2000/svg" xmlns:sodipodi="http://sodipodi.sourceforge.net/DTD/sodipodi-0.dtd" xmlns:inkscape="http://www.inkscape.org/namespaces/inkscape" inkscape:label="PozadĂ­" inkscape:export-filename="F:\GIS\render\symbols\rocks.png"
	 xmlns="http://www.w3.org/2000/svg" xmlns:xlink="http://www.w3.org/1999/xlink" x="0px" y="0px" width="8.504px" height="8.504px"
	 viewBox="3.081 0.853 8.504 8.504" xml:space="preserve">
<sodipodi:namedview  id="base" inkscape:window-y="22" inkscape:window-x="22" inkscape:window-height="731" inkscape:window-width="1087" inkscape:current-layer="layer1" inkscape:document-units="px" inkscape:pageshadow="2" inkscape:pageopacity="0.0" borderopacity="1.0" showgrid="true" bordercolor="#666666" pagecolor="#ffffff" inkscape:cy="11" inkscape:cx="7.9999994" inkscape:zoom="56.938944" inkscape:window-maximized="0">
	<inkscape:grid  type="xygrid" id="grid3751"></inkscape:grid>
</sodipodi:namedview>
<g id="layer1" transform="translate(0,-1036.3622)" inkscape:groupmode="layer" inkscape:label="Vrstva 1">
	<g id="path2984-1" sodipodi:nodetypes="cccccc" inkscape:connector-curvature="0">
		<polygon fill="#333333" points="3.773,1044.974 6.501,1037.758 8.276,1041.71 9.635,1040.116 10.875,1044.974 		"/>
		<path fill="#FFFFFF" d="M6.511,1038.085l1.731,3.856l1.33-1.561l1.141,4.468H3.954L6.511,1038.085 M6.491,1037.431l-0.214,0.566
			l-2.557,6.763l-0.128,0.339h0.362h6.759h0.322l-0.08-0.313l-1.141-4.468l-0.119-0.468l-0.313,0.368l-1.074,1.26l-1.57-3.496
			L6.491,1037.431L6.491,1037.431z"/>
	</g>
	<g id="path2984" sodipodi:nodetypes="cccccc" inkscape:connector-curvature="0">
		<polygon fill="#333333" points="3.773,1044.974 6.501,1037.758 8.276,1041.71 9.635,1040.116 10.875,1044.974 		"/>
		<path fill="#FFFFFF" d="M6.511,1038.085l1.731,3.856l1.33-1.561l1.141,4.468H3.954L6.511,1038.085 M6.491,1037.431l-0.214,0.566
			l-2.557,6.763l-0.128,0.339h0.362h6.759h0.322l-0.08-0.313l-1.141-4.468l-0.119-0.468l-0.313,0.368l-1.074,1.26l-1.57-3.496
			L6.491,1037.431L6.491,1037.431z"/>
	</g>
</g>
</svg>
