<svg height="8.504" viewBox="3.081 .853 8.504 8.504" width="8.504" xmlns="http://www.w3.org/2000/svg"><g transform="translate(0 -1036.3622)"><g><path d="m3.773 1044.974 2.728-7.216 1.775 3.952 1.359-1.594 1.24 4.858z" fill="#333"/><path d="m6.511 1038.085 1.731 3.856 1.33-1.561 1.141 4.468h-6.759zm-.02-.654-.214.566-2.557 6.763-.128.339h.362 6.759.322l-.08-.313-1.141-4.468-.119-.468-.313.368-1.074 1.26-1.57-3.496z" fill="#fff"/></g><g><path d="m3.773 1044.974 2.728-7.216 1.775 3.952 1.359-1.594 1.24 4.858z" fill="#333"/><path d="m6.511 1038.085 1.731 3.856 1.33-1.561 1.141 4.468h-6.759zm-.02-.654-.214.566-2.557 6.763-.128.339h.362 6.759.322l-.08-.313-1.141-4.468-.119-.468-.313.368-1.074 1.26-1.57-3.496z" fill="#fff"/></g></g></svg>