<?xml version="1.0" encoding="utf-8"?>
<!-- Generator: Adobe Illustrator 14.0.0, SVG Export Plug-In . SVG Version: 6.00 Build 43363)  -->
<!DOCTYPE svg PUBLIC "-//W3C//DTD SVG 1.0//EN" "http://www.w3.org/TR/2001/REC-SVG-20010904/DTD/svg10.dtd">
<svg version="1.0"
	 id="symbol-school" xmlns:xs="http://www.w3.org/2001/XMLSchema" xmlns:inkscape="http://www.inkscape.org/namespaces/inkscape" xmlns:rdf="http://www.w3.org/1999/02/22-rdf-syntax-ns#" xmlns:svg="http://www.w3.org/2000/svg" xmlns:cc="http://web.resource.org/cc/" xmlns:xi="http://www.w3.org/2001/XInclude" xmlns:dc="http://purl.org/dc/elements/1.1/"
	 xmlns="http://www.w3.org/2000/svg" xmlns:xlink="http://www.w3.org/1999/xlink" x="0px" y="0px" width="18.6px" height="18.6px"
	 viewBox="0 0 18.6 18.6" style="enable-background:new 0 0 18.6 18.6;" xml:space="preserve">
<path style="fill:none;stroke:#A52A2A;" d="M9.4,0.4L4.5,15.7"/>
<path style="fill:none;stroke:#A52A2A;" d="M9.4,0.4l2.9,18.1"/>
<path style="fill:none;stroke:#A52A2A;" d="M9.4,0.4l6.3,11.7"/>
<path d="M2.8,2.4c0,0,12,2.8,12,3c0,0.1-0.1,9.4-0.1,9.4L2.5,10.7L2.8,2.4z"/>
<path style="fill:none;stroke:#FFFFFF;stroke-width:0.5;" d="M4.1,5.6C4,5.3,4.8,4.9,5.1,4.9c0.6,0,0.8,0.4,1.1,1
	c0.3,0.6,0.5,1.5,0.5,2.2c0,0.3,0.1,1.7,0.2,1.7"/>
<path style="fill:none;stroke:#FFFFFF;stroke-width:0.5;" d="M6.5,6.9C5.8,6.4,4,7.2,4,8.1c0,0.8,0.7,1,1.3,1.1
	c0.7,0.1,0.8,0,1.2-0.5"/>
<path style="fill:none;stroke:#FFFFFF;stroke-width:0.5;" d="M8.3,4.5C7.8,5.6,8.2,7.2,8.1,8.4C8,9.1,8.1,10.1,8,10.7"/>
<path style="fill:none;stroke:#FFFFFF;stroke-width:0.5;" d="M8.1,7.7c0.5-0.2,0.8-0.8,1.4-0.4c0.5,0.3,0.6,1,0.6,1.5
	c0,0.7-0.1,1.1-0.8,1.3c-0.3,0.1-1.1,0.2-1-0.3"/>
<path style="fill:none;stroke:#FFFFFF;stroke-width:0.5;" d="M13.6,8.5c-0.2-0.5-0.9-0.8-1.4-0.7c-0.7,0.2-1,1.1-0.9,1.7
	c0.1,1.1,1.3,2.4,2.2,1.3"/>
</svg>
