<svg enable-background="new 0 0 18.6 18.6" height="18.6" viewBox="0 0 18.6 18.6" width="18.6" xmlns="http://www.w3.org/2000/svg"><path d="m9.4.4-4.9 15.3" fill="none" stroke="#a52a2a"/><path d="m9.4.4 2.9 18.1" fill="none" stroke="#a52a2a"/><path d="m9.4.4 6.3 11.7" fill="none" stroke="#a52a2a"/><path d="m2.8 2.4s12 2.8 12 3c0 .1-.1 9.4-.1 9.4l-12.2-4.1z"/><g fill="none"><path d="m4.1 5.6c-.1-.3.7-.7 1-.7.6 0 .8.4 1.1 1s.5 1.5.5 2.2c0 .3.1 1.7.2 1.7" stroke="#fff" stroke-width=".5"/><path d="m6.5 6.9c-.7-.5-2.5.3-2.5 1.2 0 .8.7 1 1.3 1.1.7.1.8 0 1.2-.5" stroke="#fff" stroke-width=".5"/><path d="m8.3 4.5c-.5 1.1-.1 2.7-.2 3.9-.1.7 0 1.7-.1 2.3" stroke="#fff" stroke-width=".5"/><path d="m8.1 7.7c.5-.2.8-.8 1.4-.4.5.3.6 1 .6 1.5 0 .7-.1 1.1-.8 1.3-.3.1-1.1.2-1-.3" stroke="#fff" stroke-width=".5"/><path d="m13.6 8.5c-.2-.5-.9-.8-1.4-.7-.7.2-1 1.1-.9 1.7.1 1.1 1.3 2.4 2.2 1.3" stroke="#fff" stroke-width=".5"/></g></svg>