<?xml version="1.0" encoding="utf-8"?>
<!-- Generator: Adobe Illustrator 14.0.0, SVG Export Plug-In . SVG Version: 6.00 Build 43363)  -->
<!DOCTYPE svg PUBLIC "-//W3C//DTD SVG 1.0//EN" "http://www.w3.org/TR/2001/REC-SVG-20010904/DTD/svg10.dtd">
<svg version="1.0"
	 id="symbol-shelter" xmlns:xs="http://www.w3.org/2001/XMLSchema" xmlns:inkscape="http://www.inkscape.org/namespaces/inkscape" xmlns:rdf="http://www.w3.org/1999/02/22-rdf-syntax-ns#" xmlns:svg="http://www.w3.org/2000/svg" xmlns:cc="http://web.resource.org/cc/" xmlns:xi="http://www.w3.org/2001/XInclude" xmlns:dc="http://purl.org/dc/elements/1.1/"
	 xmlns="http://www.w3.org/2000/svg" xmlns:xlink="http://www.w3.org/1999/xlink" x="0px" y="0px" width="32px" height="32px"
	 viewBox="3.1 2.5 32 32" style="enable-background:new 3.1 2.5 32 32;" xml:space="preserve">
<path style="fill:none;stroke:#000000;stroke-width:0.75;stroke-linecap:round;" d="M10.1,7L7,10.1"/>
<path style="fill:none;stroke:#000000;stroke-width:0.75;stroke-linecap:round;" d="M11.2,10.6l-3.8,3.8"/>
<path style="fill:none;stroke:#000000;stroke-width:0.75;stroke-linecap:round;" d="M15.9,9.7l-3.8,3.8"/>
<path style="fill:none;stroke:#000000;stroke-width:0.75;stroke-linecap:round;" d="M9.6,15.2l-3,3"/>
<path style="fill:none;stroke:#000000;stroke-width:0.75;stroke-linecap:round;" d="M19.8,8.9L16,12.7"/>
<path style="fill:none;stroke:#000000;stroke-width:0.75;stroke-linecap:round;" d="M25.3,6.6l-3.8,3.8"/>
<path style="fill:none;stroke:#000000;stroke-width:0.75;stroke-linecap:round;" d="M26.8,11.2L23,15.1"/>
<path style="fill:none;stroke:#000000;stroke-width:0.75;stroke-linecap:round;" d="M31.2,10.9l-2.8,2.7"/>
<path style="fill:none;stroke:#000000;stroke-width:0.75;stroke-linecap:round;" d="M31.2,6.2L28.3,9"/>
<path style="fill:none;stroke:#000000;stroke-width:0.75;stroke-linecap:round;" d="M31.3,14.6l-2.9,2.9"/>
<path style="fill:none;stroke:#000000;stroke-width:0.75;stroke-linecap:round;" d="M26.5,15.5l-1.3,1.2"/>
<path style="fill:none;stroke:#000000;stroke-width:0.75;stroke-linecap:round;" d="M22.6,12.5l-1.9,1.8"/>
<path style="fill:none;stroke:#000000;stroke-width:0.75;stroke-linecap:round;" d="M15,6.6L12.8,9"/>
<g>
	<rect x="11.4" y="19.1" style="fill:#161616;" width="3" height="11.3"/>
	<path style="fill:#F4F4F4;" d="M14.3,19.3v10.9h-2.6V19.3H14.3 M14.7,18.9h-0.4h-2.6h-0.4v0.4v10.9v0.4h0.4h2.6h0.4v-0.4V19.3V18.9
		L14.7,18.9z"/>
</g>
<g>
	<rect x="23.4" y="19.1" style="fill:#161616;" width="2.9" height="11.3"/>
	<path style="fill:#F4F4F4;" d="M26.1,19.3v10.9h-2.5V19.3H26.1 M26.5,18.9h-0.4h-2.5h-0.4v0.4v10.9v0.4h0.4h2.5h0.4v-0.4V19.3V18.9
		L26.5,18.9z"/>
</g>
<g>
	<polygon style="fill:#161616;" points="25.5,20.9 18.6,19.6 11.7,20.9 7.7,22.7 6.7,21.5 18.6,14.4 30.6,21.5 29.6,22.7 	"/>
	<path style="fill:#F4F4F4;" d="M18.6,14.6l11.7,7l-0.8,0.9l-3.9-1.8l-7-1.3l-7,1.3l-3.9,1.8L7,21.6L18.6,14.6 M18.6,14.2l-0.2,0.1
		l-11.7,7l-0.4,0.2l0.3,0.4l0.8,0.9l0.2,0.2l0.3-0.1l3.8-1.7l6.9-1.3l6.9,1.3l3.9,1.7l0.3,0.1l0.2-0.2l0.8-0.9l0.3-0.4l-0.4-0.2
		l-11.7-7L18.6,14.2L18.6,14.2z"/>
</g>
</svg>
