<svg enable-background="new 3.1 2.5 32 32" height="32" viewBox="3.1 2.5 32 32" width="32" xmlns="http://www.w3.org/2000/svg"><g fill="none" stroke="#000" stroke-linecap="round" stroke-width=".75"><path d="m10.1 7-3.1 3.1"/><path d="m11.2 10.6-3.8 3.8"/><path d="m15.9 9.7-3.8 3.8"/><path d="m9.6 15.2-3 3"/><path d="m19.8 8.9-3.8 3.8"/><path d="m25.3 6.6-3.8 3.8"/><path d="m26.8 11.2-3.8 3.9"/><path d="m31.2 10.9-2.8 2.7"/><path d="m31.2 6.2-2.9 2.8"/><path d="m31.3 14.6-2.9 2.9"/><path d="m26.5 15.5-1.3 1.2"/><path d="m22.6 12.5-1.9 1.8"/><path d="m15 6.6-2.2 2.4"/></g><path d="m11.4 19.1h3v11.3h-3z" fill="#161616"/><path d="m14.3 19.3v10.9h-2.6v-10.9zm.4-.4h-.4-2.6-.4v.4 10.9.4h.4 2.6.4v-.4-10.9z" fill="#f4f4f4"/><path d="m23.4 19.1h2.9v11.3h-2.9z" fill="#161616"/><path d="m26.1 19.3v10.9h-2.5v-10.9zm.4-.4h-.4-2.5-.4v.4 10.9.4h.4 2.5.4v-.4-10.9z" fill="#f4f4f4"/><path d="m25.5 20.9-6.9-1.3-6.9 1.3-4 1.8-1-1.2 11.9-7.1 12 7.1-1 1.2z" fill="#161616"/><path d="m18.6 14.6 11.7 7-.8.9-3.9-1.8-7-1.3-7 1.3-3.9 1.8-.7-.9zm0-.4-.2.1-11.7 7-.4.2.3.4.8.9.2.2.3-.1 3.8-1.7 6.9-1.3 6.9 1.3 3.9 1.7.3.1.2-.2.8-.9.3-.4-.4-.2-11.7-7z" fill="#f4f4f4"/></svg>