<?xml version="1.0" encoding="utf-8"?>
<!-- Generator: Adobe Illustrator 14.0.0, SVG Export Plug-In . SVG Version: 6.00 Build 43363)  -->
<!DOCTYPE svg PUBLIC "-//W3C//DTD SVG 1.1//EN" "http://www.w3.org/Graphics/SVG/1.1/DTD/svg11.dtd">
<svg version="1.1"
	 id="symbol-soccer-borderless" xmlns:rdf="http://www.w3.org/1999/02/22-rdf-syntax-ns#" xmlns:xs="http://www.w3.org/2001/XMLSchema" xmlns:cc="http://web.resource.org/cc/" xmlns:dc="http://purl.org/dc/elements/1.1/" xmlns:xi="http://www.w3.org/2001/XInclude" xmlns:inkscape="http://www.inkscape.org/namespaces/inkscape" xmlns:svg="http://www.w3.org/2000/svg"
	 xmlns="http://www.w3.org/2000/svg" xmlns:xlink="http://www.w3.org/1999/xlink" x="0px" y="0px" width="46.601px" height="46.6px"
	 viewBox="0 0 46.601 46.6" enable-background="new 0 0 46.601 46.6" xml:space="preserve">
<path d="M21.552,22.308c0,0-4.528,3.891-5.504,4.628c-0.992,0.749-1.53,1.055-2.33,0.137c-0.789-0.903-0.118-1.303,0.629-2.135
	c0.731-0.814,5.327-4.927,5.327-4.927L21.552,22.308z"/>
<path d="M22.648,23.489c0,0-12.591,15.506-13.343,16.501c-0.763,1.009-0.458,1.596,0.16,2.076c0.604,0.47,1.449,0.354,2.091-0.448
	c0.631-0.788,13.096-16.367,13.096-16.367L22.648,23.489z"/>
<path d="M23.896,39.629c0,1.434-1.15,2.595-2.57,2.595c-1.419,0-2.569-1.161-2.569-2.595s1.15-2.595,2.569-2.595
	C22.746,37.034,23.896,38.196,23.896,39.629L23.896,39.629z"/>
<path d="M25.299,11.465c3.083-0.56,5.593-0.804,8.47,1.352l4.813,4.28c1.367,1.664,1.394,3.473-0.668,4.554
	c-1.965,1.031-4.588,2.072-5.895,2.485c-1.294,0.408-1.887,0.392-2.06-0.461c-0.172-0.85,0.743-1.374,1.589-1.746
	c0.878-0.386,1.731-0.607,3.521-1.74c1.809-1.145,1.25-1.488-0.08-2.616c-1.342-1.137-2.988-1.473-3.982-0.081
	c-1.396,1.866-3.511,5.211-3.947,5.754c-0.43,0.534-0.875,0.935-1.537,0.613c-0.656-0.319-4.065-3.051-4.54-3.794
	c-0.453-0.71-0.493-0.89,0.086-1.688c0.572-0.788,1.801-2.267,1.801-2.267c1.508-1.889,2.175-2.127-0.506-1.24
	c-2.662,0.881-7.51,2.515-11.269,3.821c-1.187,0.334-1.72,0.597-2.044-0.39c-0.332-1.012,0-1.144,1.103-1.609
	S23.979,11.692,25.299,11.465z"/>
<path d="M34.597,7.67c0,1.51-1.225,2.732-2.732,2.732c-1.51,0-2.732-1.223-2.732-2.732c0-1.509,1.223-2.732,2.732-2.732
	C33.372,4.938,34.597,6.161,34.597,7.67z"/>
</svg>
