<svg enable-background="new 0 0 46.601 46.6" height="46.6" viewBox="0 0 46.601 46.6" width="46.601" xmlns="http://www.w3.org/2000/svg"><path d="m21.552 22.308s-4.528 3.891-5.504 4.628c-.992.749-1.53 1.055-2.33.137-.789-.903-.118-1.303.629-2.135.731-.814 5.327-4.927 5.327-4.927z"/><path d="m22.648 23.489s-12.591 15.506-13.343 16.501c-.763 1.009-.458 1.596.16 2.076.604.47 1.449.354 2.091-.448.631-.788 13.096-16.367 13.096-16.367z"/><path d="m23.896 39.629c0 1.434-1.15 2.595-2.57 2.595-1.419 0-2.569-1.161-2.569-2.595s1.15-2.595 2.569-2.595c1.42 0 2.57 1.162 2.57 2.595z"/><path d="m25.299 11.465c3.083-.56 5.593-.804 8.47 1.352l4.813 4.28c1.367 1.664 1.394 3.473-.668 4.554-1.965 1.031-4.588 2.072-5.895 2.485-1.294.408-1.887.392-2.06-.461-.172-.85.743-1.374 1.589-1.746.878-.386 1.731-.607 3.521-1.74 1.809-1.145 1.25-1.488-.08-2.616-1.342-1.137-2.988-1.473-3.982-.081-1.396 1.866-3.511 5.211-3.947 5.754-.43.534-.875.935-1.537.613-.656-.319-4.065-3.051-4.54-3.794-.453-.71-.493-.89.086-1.688.572-.788 1.801-2.267 1.801-2.267 1.508-1.889 2.175-2.127-.506-1.24-2.662.881-7.51 2.515-11.269 3.821-1.187.334-1.72.597-2.044-.39-.332-1.012 0-1.144 1.103-1.609s13.825-5 15.145-5.227z"/><path d="m34.597 7.67c0 1.51-1.225 2.732-2.732 2.732-1.51 0-2.732-1.223-2.732-2.732s1.223-2.732 2.732-2.732c1.507 0 2.732 1.223 2.732 2.732z"/></svg>