<?xml version="1.0" encoding="utf-8"?>
<!-- Generator: Adobe Illustrator 14.0.0, SVG Export Plug-In . SVG Version: 6.00 Build 43363)  -->
<!DOCTYPE svg PUBLIC "-//W3C//DTD SVG 1.0//EN" "http://www.w3.org/TR/2001/REC-SVG-20010904/DTD/svg10.dtd">
<svg version="1.0" id="Vrstva_1" xmlns="http://www.w3.org/2000/svg" xmlns:xlink="http://www.w3.org/1999/xlink" x="0px" y="0px"
	 width="20px" height="20px" viewBox="0 0 20 20" style="enable-background:new 0 0 20 20;" xml:space="preserve">
<g>
	<path style="fill:#5F91FF;" d="M9.9,19.5c-0.7,0-1.1-0.3-1.2-0.7c-0.1-0.4,0.2-0.8,0.9-1c0.6-0.2,1-0.6,1.1-1
		c0.2-0.9-0.9-2.3-1.9-3.2C7.3,12.4,6.7,11.2,7,10C7,9.8,7.1,9.6,7.2,9.4C5.9,8.4,5.1,7,5.1,5.4c0-2.7,2.2-4.9,4.9-4.9
		c2.7,0,4.9,2.2,4.9,4.9s-2.2,4.9-4.9,4.9c0,0,0,0-0.1,0c0,0.3,0.1,0.5,0.1,0.6c0.5,0.8,0.9,1.1,1.6,1.7c0.7,0.5,1.8,1.5,1.8,2.9
		c0,2.1-0.8,3.2-2.8,4C10.4,19.5,10.1,19.5,9.9,19.5L9.9,19.5z"/>
	<path style="fill:#FFFFFF;" d="M10,1c2.4,0,4.4,2,4.4,4.4c0,2.4-2,4.4-4.4,4.4c-0.2,0-0.4,0-0.5-0.1c-0.1,0.6,0,1.1,0.2,1.4
		c0.5,0.8,1,1.2,1.7,1.8c0.8,0.6,1.6,1.4,1.6,2.5c0,2-0.7,2.8-2.5,3.5C10.3,19,10.1,19,9.9,19c-0.6,0-1.1-0.4-0.1-0.7
		c2.9-1.1,0.7-3.9-0.6-5c-0.8-0.7-1.9-1.9-1.6-3.2c0.1-0.3,0.2-0.7,0.4-1C6.5,8.4,5.6,7,5.6,5.4C5.6,3,7.6,1,10,1 M10,0
		C7,0,4.6,2.4,4.6,5.4c0,1.6,0.7,3.1,2,4.1c0,0.1-0.1,0.3-0.1,0.4c-0.3,1.3,0.3,2.7,1.9,4.1c1.1,0.9,1.8,2.1,1.7,2.7
		c0,0.2-0.3,0.5-0.8,0.6c-1.2,0.5-1.3,1.2-1.2,1.6C8.3,19.6,9,20,9.9,20c0.3,0,0.7-0.1,0.9-0.2c2.3-0.9,3.2-2.2,3.2-4.5
		c0-1.6-1.3-2.7-1.9-3.2c-0.7-0.6-1-0.9-1.4-1.5c2.7-0.3,4.8-2.6,4.8-5.4C15.4,2.4,13,0,10,0L10,0z"/>
</g>
</svg>
