<svg enable-background="new 0 0 20 20" height="20" viewBox="0 0 20 20" width="20" xmlns="http://www.w3.org/2000/svg"><path d="m9.9 19.5c-.7 0-1.1-.3-1.2-.7s.2-.8.9-1c.6-.2 1-.6 1.1-1 .2-.9-.9-2.3-1.9-3.2-1.5-1.2-2.1-2.4-1.8-3.6 0-.2.1-.4.2-.6-1.3-1-2.1-2.4-2.1-4 0-2.7 2.2-4.9 4.9-4.9s4.9 2.2 4.9 4.9-2.2 4.9-4.9 4.9c0 0 0 0-.1 0 0 .3.1.5.1.6.5.8.9 1.1 1.6 1.7.7.5 1.8 1.5 1.8 2.9 0 2.1-.8 3.2-2.8 4-.2 0-.5 0-.7 0z" fill="#5f91ff"/><path d="m10 1c2.4 0 4.4 2 4.4 4.4s-2 4.4-4.4 4.4c-.2 0-.4 0-.5-.1-.1.6 0 1.1.2 1.4.5.8 1 1.2 1.7 1.8.8.6 1.6 1.4 1.6 2.5 0 2-.7 2.8-2.5 3.5-.2.1-.4.1-.6.1-.6 0-1.1-.4-.1-.7 2.9-1.1.7-3.9-.6-5-.8-.7-1.9-1.9-1.6-3.2.1-.3.2-.7.4-1-1.5-.7-2.4-2.1-2.4-3.7 0-2.4 2-4.4 4.4-4.4m0-1c-3 0-5.4 2.4-5.4 5.4 0 1.6.7 3.1 2 4.1 0 .1-.1.3-.1.4-.3 1.3.3 2.7 1.9 4.1 1.1.9 1.8 2.1 1.7 2.7 0 .2-.3.5-.8.6-1.2.5-1.3 1.2-1.2 1.6.2.7.9 1.1 1.8 1.1.3 0 .7-.1.9-.2 2.3-.9 3.2-2.2 3.2-4.5 0-1.6-1.3-2.7-1.9-3.2-.7-.6-1-.9-1.4-1.5 2.7-.3 4.8-2.6 4.8-5.4-.1-2.8-2.5-5.2-5.5-5.2z" fill="#fff"/></svg>