<svg enable-background="new 0 0 24 24" height="24" viewBox="0 0 24 24" width="24" xmlns="http://www.w3.org/2000/svg"><g fill="none"><path d="m7.4 4.4v15.2" stroke="#fff" stroke-width="4"/><path d="m16.9 4.4v15.2" stroke="#fff" stroke-width="4"/><path d="m7.4 12h9.5" stroke="#fff" stroke-width="4"/></g><path d="m22.1 21c0 .5-.5 1-1 1h-18c-.5 0-1-.5-1-1v-18.1c0-.5.5-1 1-1h18.1c.5 0 1 .5 1 1v18.1z" fill="#00f"/><path d="m22.1 21c0 .5-.5 1-1 1h-18c-.5 0-1-.5-1-1v-18.1c0-.5.5-1 1-1h18.1c.5 0 1 .5 1 1v18.1z" fill="none" stroke="#000" stroke-width=".331"/><path d="m6.5 4.9h2.9v7.4c0 1.2 0 1.9.1 2.3.1.6.4 1 .9 1.3s1.1.5 1.9.5 1.4-.2 1.9-.5.7-.7.8-1.2.1-1.2.1-2.3v-7.5h2.9v7.1c0 1.6-.1 2.8-.2 3.5-.2.7-.4 1.2-.9 1.7-.4.5-1 .8-1.7 1.1s-1.6.4-2.8.4c-1.4 0-2.4-.1-3.1-.4s-1.3-.7-1.7-1.2-.7-1-.8-1.5c-.2-.8-.3-1.9-.3-3.5z" fill="#fff" stroke="#fff"/></svg>