<?xml version="1.0" encoding="utf-8"?>
<!-- Generator: Adobe Illustrator 14.0.0, SVG Export Plug-In . SVG Version: 6.00 Build 43363)  -->
<!DOCTYPE svg PUBLIC "-//W3C//DTD SVG 1.1//EN" "http://www.w3.org/Graphics/SVG/1.1/DTD/svg11.dtd">
<svg version="1.1" id="Vrstva_1" xmlns="http://www.w3.org/2000/svg" xmlns:xlink="http://www.w3.org/1999/xlink" x="0px" y="0px"
	 width="24px" height="24px" viewBox="0 0 24 24" enable-background="new 0 0 24 24" xml:space="preserve">
<g>
	<line fill="none" stroke="#FFFFFF" stroke-width="4" x1="7.4" y1="4.4" x2="7.4" y2="19.6"/>
	<line fill="none" stroke="#FFFFFF" stroke-width="4" x1="16.9" y1="4.4" x2="16.9" y2="19.6"/>
	<line fill="none" stroke="#FFFFFF" stroke-width="4" x1="7.4" y1="12" x2="16.9" y2="12"/>
</g>
<g>
	<path fill="#0000FF" d="M22.1,21c0,0.5-0.5,1-1,1H3.1c-0.5,0-1-0.5-1-1V2.9c0-0.5,0.5-1,1-1h18.1c0.5,0,1,0.5,1,1V21z"/>
	<path fill="none" stroke="#000000" stroke-width="0.331" d="M22.1,21c0,0.5-0.5,1-1,1H3.1c-0.5,0-1-0.5-1-1V2.9c0-0.5,0.5-1,1-1
		h18.1c0.5,0,1,0.5,1,1V21z"/>
</g>
<g>
	<path fill="#FFFFFF" stroke="#FFFFFF" d="M6.5,4.9h2.9v7.4c0,1.2,0,1.9,0.1,2.3c0.1,0.6,0.4,1,0.9,1.3c0.5,0.3,1.1,0.5,1.9,0.5
		c0.8,0,1.4-0.2,1.9-0.5s0.7-0.7,0.8-1.2s0.1-1.2,0.1-2.3V4.9H18V12c0,1.6-0.1,2.8-0.2,3.5c-0.2,0.7-0.4,1.2-0.9,1.7
		c-0.4,0.5-1,0.8-1.7,1.1c-0.7,0.3-1.6,0.4-2.8,0.4c-1.4,0-2.4-0.1-3.1-0.4S8,17.6,7.6,17.1c-0.4-0.5-0.7-1-0.8-1.5
		c-0.2-0.8-0.3-1.9-0.3-3.5V4.9z"/>
</g>
</svg>
