<?xml version="1.0" encoding="utf-8"?>
<!-- Generator: Adobe Illustrator 14.0.0, SVG Export Plug-In . SVG Version: 6.00 Build 43363)  -->
<!DOCTYPE svg PUBLIC "-//W3C//DTD SVG 1.0//EN" "http://www.w3.org/TR/2001/REC-SVG-20010904/DTD/svg10.dtd">
<svg version="1.0"
	 id="symbol-supermarket" xmlns:xs="http://www.w3.org/2001/XMLSchema" xmlns:inkscape="http://www.inkscape.org/namespaces/inkscape" xmlns:rdf="http://www.w3.org/1999/02/22-rdf-syntax-ns#" xmlns:svg="http://www.w3.org/2000/svg" xmlns:cc="http://web.resource.org/cc/" xmlns:xi="http://www.w3.org/2001/XInclude" xmlns:dc="http://purl.org/dc/elements/1.1/"
	 xmlns="http://www.w3.org/2000/svg" xmlns:xlink="http://www.w3.org/1999/xlink" x="0px" y="0px" width="18.6px" height="18.6px"
	 viewBox="0 0 18.6 18.6" style="enable-background:new 0 0 18.6 18.6;" xml:space="preserve">
<path d="M8.8,12.9c0,0.3-0.2,0.6-0.5,0.6c-0.3,0-0.5-0.2-0.5-0.6c0-0.3,0.2-0.6,0.5-0.6C8.6,12.3,8.8,12.6,8.8,12.9z"/>
<path style="fill:none;stroke:#000000;" d="M0.9,5.2l9.3-2.4l5.6,2.1L4.8,7.2L0.9,5.2z"/>
<path style="fill:#D3D3D3;stroke:#000000;" d="M1.3,11.5l3.8,2.2l9.2-1.7l-5-2.4L1.3,11.5z"/>
<path style="fill:#C4C2C2;stroke:#000000;" d="M5.2,7.2v6.4"/>
<path style="fill:none;stroke:#000000;stroke-linecap:round;" d="M14.5,14.1l2.3-9c0.1-0.8,0.5-1.1,1-1.1"/>
<path style="fill:none;stroke:#000000;stroke-width:0.904;stroke-linecap:round;" d="M9.1,11.6l1.5-8.8c0-0.6,0.1-1,0.8-1.2"/>
<path style="fill:none;stroke:#000000;" d="M0.8,11.4V5.1"/>
<path style="fill:none;stroke:#000000;stroke-width:0.16;" d="M11.3,1.5C11.3,1.5,11.3,1.5,11.3,1.5z"/>
<path style="fill:none;stroke:#000000;stroke-width:1.27;stroke-linecap:round;" d="M11.3,1.6L17.8,4"/>
<path style="fill:none;stroke:#000000;stroke-width:0.732;" d="M9,11.6l-6.3,2.2c-1.6,0.7-0.4,1.6,0.2,2c0.8,0.5,1.2,0.8,3.2,0.5
	c2.9-0.4,8.3-2.2,8.3-2.2"/>
<path d="M3.8,14.6c0,0.3-0.2,0.6-0.5,0.6s-0.5-0.2-0.5-0.6c0-0.3,0.2-0.6,0.5-0.6S3.8,14.3,3.8,14.6z"/>
<path d="M7.3,17.1c0,0.3-0.2,0.6-0.5,0.6s-0.5-0.2-0.5-0.6c0-0.3,0.2-0.6,0.5-0.6S7.3,16.8,7.3,17.1z"/>
<path d="M13.9,15.3c0,0.3-0.2,0.6-0.5,0.6c-0.3,0-0.5-0.2-0.5-0.6c0-0.3,0.2-0.6,0.5-0.6C13.7,14.8,13.9,15,13.9,15.3z"/>
</svg>
