<svg enable-background="new 0 0 18.6 18.6" height="18.6" viewBox="0 0 18.6 18.6" width="18.6" xmlns="http://www.w3.org/2000/svg"><path d="m8.8 12.9c0 .3-.2.6-.5.6s-.5-.2-.5-.6c0-.3.2-.6.5-.6s.5.3.5.6z"/><g stroke="#000"><path d="m.9 5.2 9.3-2.4 5.6 2.1-11 2.3z" fill="none"/><path d="m1.3 11.5 3.8 2.2 9.2-1.7-5-2.4z" fill="#d3d3d3"/><path d="m5.2 7.2v6.4" fill="#c4c2c2"/><path d="m14.5 14.1 2.3-9c.1-.8.5-1.1 1-1.1" fill="none" stroke-linecap="round"/><path d="m9.1 11.6 1.5-8.8c0-.6.1-1 .8-1.2" fill="none" stroke-linecap="round" stroke-width=".904"/><path d="m.8 11.4v-6.3" fill="none"/><path d="m11.3 1.6 6.5 2.4" fill="none" stroke-linecap="round" stroke-width="1.27"/><path d="m9 11.6-6.3 2.2c-1.6.7-.4 1.6.2 2 .8.5 1.2.8 3.2.5 2.9-.4 8.3-2.2 8.3-2.2" fill="none" stroke-width=".732"/></g><path d="m3.8 14.6c0 .3-.2.6-.5.6s-.5-.2-.5-.6c0-.3.2-.6.5-.6s.5.3.5.6z"/><path d="m7.3 17.1c0 .3-.2.6-.5.6s-.5-.2-.5-.6c0-.3.2-.6.5-.6s.5.3.5.6z"/><path d="m13.9 15.3c0 .3-.2.6-.5.6s-.5-.2-.5-.6c0-.3.2-.6.5-.6.3.1.5.3.5.6z"/></svg>