<?xml version="1.0" encoding="utf-8"?>
<!-- Generator: Adobe Illustrator 14.0.0, SVG Export Plug-In . SVG Version: 6.00 Build 43363)  -->
<!DOCTYPE svg PUBLIC "-//W3C//DTD SVG 1.0//EN" "http://www.w3.org/TR/2001/REC-SVG-20010904/DTD/svg10.dtd">
<svg version="1.0" id="symbol-telephone" xmlns:svg="http://www.w3.org/2000/svg"
	 xmlns="http://www.w3.org/2000/svg" xmlns:xlink="http://www.w3.org/1999/xlink" x="0px" y="0px" width="6.6px" height="18.5px"
	 viewBox="0 0 6.6 18.5" style="enable-background:new 0 0 6.6 18.5;" xml:space="preserve">
<g id="layer1" transform="translate(-1.6609657e-2,-1.4674477e-2)">
	<path id="path11" style="fill:#0F0F0F;" d="M3.2,0.4c0.3-0.2,0.6-0.3,1-0.4c0,1.5,0,3.1,0,4.6c0,0.2,0,0.5,0,0.7
		c-0.2,0-0.5,0.1-0.6,0.3C3.3,6,3.3,6.3,3.2,6.7C3.1,7.5,3,8.4,3,9.3c0,0.9,0.1,1.8,0.2,2.7c0.1,0.3,0.1,0.7,0.3,1
		c0.1,0.2,0.3,0.3,0.6,0.3c0,1.7,0,3.5,0,5.2c-0.4,0-0.7-0.2-1-0.4c-0.8-0.5-1.4-1.2-1.8-2.1c-0.7-1.4-1.1-3-1.2-4.6
		C0,10.7,0,9.8,0,8.9c0-1.8,0.2-3.6,0.8-5.2C1.1,3,1.4,2.3,1.9,1.6C2.2,1.2,2.7,0.7,3.2,0.4z"/>
	<path id="path15" style="fill:#0F0F0F;" d="M4.6,0c0.5,0,1,0,1.5,0c0.3,0,0.5,0.2,0.5,0.4c0,0.2,0,0.5,0,0.7v3.2
		c0,0.2,0,0.4-0.1,0.6C6.5,5.2,6.3,5.4,6,5.4c-0.5,0-1,0-1.5,0C4.6,3.6,4.6,1.8,4.6,0z"/>
	<path id="path19" style="fill:#0F0F0F;" d="M4.6,13.3c0.5,0,1,0,1.5,0c0.3,0,0.5,0.2,0.5,0.4c0,0.2,0,0.5,0,0.7v3.1
		c0,0.2,0,0.5-0.1,0.7c-0.1,0.2-0.3,0.3-0.5,0.3c-0.5,0-1,0-1.4,0C4.6,16.8,4.6,15.1,4.6,13.3z"/>
</g>
</svg>
