<svg enable-background="new 0 0 6.6 18.5" height="18.5" viewBox="0 0 6.6 18.5" width="6.6" xmlns="http://www.w3.org/2000/svg"><g fill="#0f0f0f" transform="translate(-.01661 -.014674)"><path d="m3.2.4c.3-.2.6-.3 1-.4v4.6.7c-.2 0-.5.1-.6.3-.3.4-.3.7-.4 1.1-.1.8-.2 1.7-.2 2.6s.1 1.8.2 2.7c.1.3.1.7.3 1 .1.2.3.3.6.3v5.2c-.4 0-.7-.2-1-.4-.8-.5-1.4-1.2-1.8-2.1-.7-1.4-1.1-3-1.2-4.6-.1-.7-.1-1.6-.1-2.5 0-1.8.2-3.6.8-5.2.3-.7.6-1.4 1.1-2.1.3-.4.8-.9 1.3-1.2z"/><path d="m4.6 0h1.5c.3 0 .5.2.5.4v.7 3.2c0 .2 0 .4-.1.6 0 .3-.2.5-.5.5-.5 0-1 0-1.5 0 .1-1.8.1-3.6.1-5.4z"/><path d="m4.6 13.3h1.5c.3 0 .5.2.5.4v.7 3.1c0 .2 0 .5-.1.7s-.3.3-.5.3c-.5 0-1 0-1.4 0 0-1.7 0-3.4 0-5.2z"/></g></svg>