<svg enable-background="new 0 0 37.28 37.279" height="37.279" viewBox="0 0 37.28 37.279" width="37.28" xmlns="http://www.w3.org/2000/svg"><path d="m16.587 10.312c.605-1.343 4.695-3.005 7.335-2.774 2.638.229 5.617.374 8.143.809 2.533.436 1.961 2.745-.508 2.379-2.471-.365-3.773-.595-5.126-.613-1.423-.02-4.553.244-4.553.244s4.135 6.245 3.784 7.228c-.375 1.049-4.812 1.452-5.239 1.183-.574-.361-2.304-3.587-2.304-3.587s-.042 2.199-.939 3.231c-.866.996-3.101 2.229-5.554 3.598-2.41 1.346-3.063-.792-.869-2.006 2.237-1.238 2.947-1.271 4.126-3.038 1.078-1.616 1.049-5.199 1.704-6.654z"/><path d="m20.589 5.984c-.193 1.27-1.348 2.146-2.578 1.959s-2.071-1.368-1.877-2.638c.193-1.27 1.348-2.146 2.578-1.959s2.07 1.369 1.877 2.638z"/><path d="m8.603 11.743c.793 2.022.377 4.077-.928 4.589s-3.007-.713-3.8-2.735-.378-4.077.928-4.59c1.305-.512 3.006.713 3.8 2.736z" fill="none" stroke="#000"/><path d="m7.709 16.253 2.644 5.688" fill="none" stroke="#000"/><path d="m20.862 22.278c.84 2.089 2.191 5.348 2.907 6.925.812 1.792 3.145 1.179 2.315-.729-.822-1.89-2.176-4.748-3.014-6.853-.725-1.828-2.981-1.274-2.208.657z"/><path d="m24.018 20.197c-.507-.934 1.661-1.214 2.075-.439.41.766 5.764 10.529 6.691 12.327.928 1.8-1.418 2.547-2.211.907-.75-1.55-6.035-11.837-6.555-12.795z"/><path d="m4.482 2.001h28.066c1.494 0 2.705 1.211 2.705 2.705v28.066c0 1.494-1.211 2.705-2.705 2.705h-28.066c-1.494 0-2.706-1.211-2.706-2.705v-28.066c.001-1.494 1.212-2.705 2.706-2.705z" fill="none" stroke="#000" stroke-linejoin="round"/></svg>