<?xml version="1.0" encoding="utf-8"?>
<!-- Generator: Adobe Illustrator 14.0.0, SVG Export Plug-In . SVG Version: 6.00 Build 43363)  -->
<!DOCTYPE svg PUBLIC "-//W3C//DTD SVG 1.1//EN" "http://www.w3.org/Graphics/SVG/1.1/DTD/svg11.dtd">
<svg version="1.1"
	 id="symbol-tennis" xmlns:rdf="http://www.w3.org/1999/02/22-rdf-syntax-ns#" xmlns:xs="http://www.w3.org/2001/XMLSchema" xmlns:cc="http://web.resource.org/cc/" xmlns:dc="http://purl.org/dc/elements/1.1/" xmlns:xi="http://www.w3.org/2001/XInclude" xmlns:inkscape="http://www.inkscape.org/namespaces/inkscape" xmlns:svg="http://www.w3.org/2000/svg"
	 xmlns="http://www.w3.org/2000/svg" xmlns:xlink="http://www.w3.org/1999/xlink" x="0px" y="0px" width="37.28px"
	 height="37.279px" viewBox="0 0 37.28 37.279" enable-background="new 0 0 37.28 37.279" xml:space="preserve">
<path d="M16.587,10.312c0.605-1.343,4.695-3.005,7.335-2.774c2.638,0.229,5.617,0.374,8.143,0.809
	c2.533,0.436,1.961,2.745-0.508,2.379c-2.471-0.365-3.773-0.595-5.126-0.613c-1.423-0.02-4.553,0.244-4.553,0.244
	s4.135,6.245,3.784,7.228c-0.375,1.049-4.812,1.452-5.239,1.183c-0.574-0.361-2.304-3.587-2.304-3.587s-0.042,2.199-0.939,3.231
	c-0.866,0.996-3.101,2.229-5.554,3.598c-2.41,1.346-3.063-0.792-0.869-2.006c2.237-1.238,2.947-1.271,4.126-3.038
	C15.961,15.35,15.932,11.767,16.587,10.312z"/>
<path d="M20.589,5.984c-0.193,1.27-1.348,2.146-2.578,1.959s-2.071-1.368-1.877-2.638c0.193-1.27,1.348-2.146,2.578-1.959
	S20.782,4.715,20.589,5.984z"/>
<path fill="none" stroke="#000000" d="M8.603,11.743c0.793,2.022,0.377,4.077-0.928,4.589c-1.305,0.512-3.007-0.713-3.8-2.735
	c-0.793-2.022-0.378-4.077,0.928-4.59C6.108,8.495,7.809,9.72,8.603,11.743z"/>
<path fill="none" stroke="#000000" d="M7.709,16.253l2.644,5.688l0,0"/>
<path d="M20.862,22.278c0.84,2.089,2.191,5.348,2.907,6.925c0.812,1.792,3.145,1.179,2.315-0.729
	c-0.822-1.89-2.176-4.748-3.014-6.853C22.345,19.793,20.089,20.347,20.862,22.278z"/>
<path d="M24.018,20.197c-0.507-0.934,1.661-1.214,2.075-0.439c0.41,0.766,5.764,10.529,6.691,12.327
	c0.928,1.8-1.418,2.547-2.211,0.907C29.823,31.442,24.538,21.155,24.018,20.197z"/>
<path fill="none" stroke="#000000" stroke-linejoin="round" d="M4.482,2.001h28.066c1.494,0,2.705,1.211,2.705,2.705v28.066
	c0,1.494-1.211,2.705-2.705,2.705H4.482c-1.494,0-2.706-1.211-2.706-2.705V4.706C1.777,3.212,2.988,2.001,4.482,2.001z"/>
</svg>
