<svg enable-background="new -0.4 -0.4 24 24" height="24" viewBox="-.4 -.4 24 24" width="24" xmlns="http://www.w3.org/2000/svg"><path d="m11 4.3s2.2 1.1 4.8.8c2.7-.2 4-1.6 4.2-1.7s.7 1.3.7 1.3l.2 1.4-.1 1.2.2 1 .3 1.6-.2 1.3-.3 1.3-.8 2.3-1.1 2-2.5.9-1.3-.6-.9-.9-1.2-1.9.2-1.7-.9-1.2-.8-1v-1.4l.1-2.2-.3-1.4z" stroke="#000" stroke-width=".75"/><g stroke="#fff"><path d="m11.8 5.2s1.9.9 4.2.7 3.5-1.4 3.7-1.5c.1-.1.6 1.2.6 1.2l.2 1.2-.1 1.1.2.9.3 1.4-.2 1.2-.2 1.2-.7 2-.9 1.8-2.4.6-1.1-.5-.8-.8-1.1-1.7.2-1.5-.8-1-.7-.9v-1.2l.1-2-.3-1.2z" fill="none" stroke-width=".5"/><path d="m15.3 9.7c0 .3-.5.6-1.1.6s-1.1-.3-1.1-.6.5-.6 1.1-.6c.7 0 1.1.2 1.1.6z" fill="#fff" stroke-width=".5"/><path d="m19.9 9.2c0 .4-.6.6-1.3.6s-1.3-.3-1.3-.6c0-.4.6-.6 1.3-.6s1.3.2 1.3.6z" fill="#fff" stroke-width=".5"/><path d="m13.4 8.5.6-1.8.6 1.1" fill="none" stroke-width=".5"/><path d="m17.2 7.9.3-1.3 1.5 1" fill="none" stroke-width=".5"/><path d="m16.4 9.4-.3 2.7h.9z" fill="none" stroke-width=".5"/><path d="m15.9 15.7s.1-2.3 1.2-2.4 1.6.7 1.8 1.2" fill="none" stroke-width=".75"/></g><path d="m11.6 7.1s-.8.7-2.6.7-1.8.2-3.6-1.4c-1.7-1.5-1.3-1.5-1.3-1.5l-.4 4.3-.2.9-.6.6 1.1 5.3 1.6 3.4s.1.4 1.6.4 1.3-.4 1.7-.8.6-1.4 1.5-2c.8-.6 1.8-1.9 1.8-1.9l.7-.9.1-1.4-1-1.2-.5-1.3z" fill="#fff" stroke="#000" stroke-width=".75"/><path d="m4.9 9.6s-.1-.6 1.1-.6 1.3.7 1.3.7" fill="none" stroke="#000" stroke-width=".5"/><path d="m9.3 10.3s.3-.5.5-.6c.3-.1.9.2.9.2" fill="none" stroke="#000" stroke-width=".5"/><path d="m4.9 11.4 1-.8s.5-.1 1.1.1.3.6.3.6z"/><path d="m9.8 11.6s.6-.5 1.2-.4.7.8.7.8-.3.2-1.1 0c-.9-.2-.8-.4-.8-.4z"/><path d="m8.1 11.2-1.1 3.4h1.2z"/><path d="m5.4 14.1s0-.2.6.7c.6.8.4 1.5 1.9 1.4s1.6-1.9 2.4-1.7c.7.1.6.3.3.8s-1 1-1.4 1.5.2 1.7-1.7 1.6-1.9-1.8-2.1-2c-.3-.3 0-2.3 0-2.3z"/></svg>