<?xml version="1.0" encoding="utf-8"?>
<!-- Generator: Adobe Illustrator 14.0.0, SVG Export Plug-In . SVG Version: 6.00 Build 43363)  -->
<!DOCTYPE svg PUBLIC "-//W3C//DTD SVG 1.1//EN" "http://www.w3.org/Graphics/SVG/1.1/DTD/svg11.dtd">
<svg version="1.1"
	 id="theatre" xmlns:dc="http://purl.org/dc/elements/1.1/" xmlns:rdf="http://www.w3.org/1999/02/22-rdf-syntax-ns#" xmlns:cc="http://creativecommons.org/ns#" xmlns:svg="http://www.w3.org/2000/svg"
	 xmlns="http://www.w3.org/2000/svg" xmlns:xlink="http://www.w3.org/1999/xlink" x="0px" y="0px" width="24px" height="24px"
	 viewBox="-0.4 -0.4 24 24" enable-background="new -0.4 -0.4 24 24" xml:space="preserve">
<path id="path4635" stroke="#000000" stroke-width="0.75" d="M11,4.3c0,0,2.2,1.1,4.8,0.8c2.7-0.2,4-1.6,4.2-1.7
	c0.2-0.1,0.7,1.3,0.7,1.3l0.2,1.4l-0.1,1.2l0.2,1l0.3,1.6l-0.2,1.3l-0.3,1.3L20,14.8l-1.1,2l-2.5,0.9l-1.3-0.6l-0.9-0.9l-1.2-1.9
	l0.2-1.7l-0.9-1.2l-0.8-1l0-1.4l0.1-2.2l-0.3-1.4L11,4.3z"/>
<path id="path4637" fill="none" stroke="#FFFFFF" stroke-width="0.5" d="M11.8,5.2c0,0,1.9,0.9,4.2,0.7c2.3-0.2,3.5-1.4,3.7-1.5
	c0.1-0.1,0.6,1.2,0.6,1.2l0.2,1.2l-0.1,1.1l0.2,0.9l0.3,1.4l-0.2,1.2l-0.2,1.2l-0.7,2l-0.9,1.8L16.5,17l-1.1-0.5l-0.8-0.8l-1.1-1.7
	l0.2-1.5l-0.8-1l-0.7-0.9l0-1.2l0.1-2L12,6.2L11.8,5.2z"/>
<path id="path4639" fill="#FFFFFF" stroke="#FFFFFF" stroke-width="0.5" d="M15.3,9.7c0,0.3-0.5,0.6-1.1,0.6c-0.6,0-1.1-0.3-1.1-0.6
	c0-0.3,0.5-0.6,1.1-0.6C14.9,9.1,15.3,9.3,15.3,9.7z"/>
<path id="path4641" fill="#FFFFFF" stroke="#FFFFFF" stroke-width="0.5" d="M19.9,9.2c0,0.4-0.6,0.6-1.3,0.6c-0.7,0-1.3-0.3-1.3-0.6
	c0-0.4,0.6-0.6,1.3-0.6C19.3,8.6,19.9,8.8,19.9,9.2z"/>
<path id="path4643" fill="none" stroke="#FFFFFF" stroke-width="0.5" d="M13.4,8.5L14,6.7l0.6,1.1"/>
<path id="path4645" fill="none" stroke="#FFFFFF" stroke-width="0.5" d="M17.2,7.9l0.3-1.3l1.5,1"/>
<path id="path4647" fill="none" stroke="#FFFFFF" stroke-width="0.5" d="M16.4,9.4l-0.3,2.7l0.9,0L16.4,9.4z"/>
<path id="path4649" fill="none" stroke="#FFFFFF" stroke-width="0.75" d="M15.9,15.7c0,0,0.1-2.3,1.2-2.4c1.1-0.1,1.6,0.7,1.8,1.2"
	/>
<path id="path4651" fill="#FFFFFF" stroke="#000000" stroke-width="0.75" d="M11.6,7.1c0,0-0.8,0.7-2.6,0.7C7.2,7.8,7.2,8,5.4,6.4
	C3.7,4.9,4.1,4.9,4.1,4.9L3.7,9.2l-0.2,0.9l-0.6,0.6l1.1,5.3l1.6,3.4c0,0,0.1,0.4,1.6,0.4c1.5,0,1.3-0.4,1.7-0.8s0.6-1.4,1.5-2
	c0.8-0.6,1.8-1.9,1.8-1.9l0.7-0.9l0.1-1.4l-1-1.2l-0.5-1.3L11.6,7.1z"/>
<path id="path4653" fill="none" stroke="#000000" stroke-width="0.5" d="M4.9,9.6C4.9,9.6,4.8,9,6,9c1.2,0,1.3,0.7,1.3,0.7"/>
<path id="path4655" fill="none" stroke="#000000" stroke-width="0.5" d="M9.3,10.3c0,0,0.3-0.5,0.5-0.6c0.3-0.1,0.9,0.2,0.9,0.2"/>
<path id="path4657" d="M4.9,11.4l1-0.8c0,0,0.5-0.1,1.1,0.1c0.6,0.2,0.3,0.6,0.3,0.6L4.9,11.4z"/>
<path id="path4659" d="M9.8,11.6c0,0,0.6-0.5,1.2-0.4c0.6,0.1,0.7,0.8,0.7,0.8s-0.3,0.2-1.1,0C9.7,11.8,9.8,11.6,9.8,11.6z"/>
<path id="path4661" d="M8.1,11.2L7,14.6h1.2L8.1,11.2z"/>
<path id="path4663" d="M5.4,14.1c0,0,0-0.2,0.6,0.7c0.6,0.8,0.4,1.5,1.9,1.4c1.5-0.1,1.6-1.9,2.4-1.7c0.7,0.1,0.6,0.3,0.3,0.8
	c-0.3,0.5-1,1-1.4,1.5c-0.4,0.5,0.2,1.7-1.7,1.6c-1.9-0.1-1.9-1.8-2.1-2C5.1,16.1,5.4,14.1,5.4,14.1z"/>
</svg>
