<svg height="20" width="20" xmlns="http://www.w3.org/2000/svg"><rect fill="#00f" height="20" rx="4" width="20"/><g stroke="#fff" stroke-linejoin="round" stroke-width=".5"><path d="m10.014549 3.04895h1.142857v14.107142h-1.142857z" fill="#00f"/><path d="m16.28598 4.17394c0 .66274-.53726 1.2-1.2 1.2s-1.2-.53726-1.2-1.2.53726-1.2 1.2-1.2 1.2.53726 1.2 1.2z" fill="#fff"/><path d="m6.96455 4.29894c0 .66274-.537258 1.2-1.2 1.2-.662741 0-1.2-.53726-1.2-1.2s.537259-1.2 1.2-1.2c.662742 0 1.2.53726 1.2 1.2z" fill="#fff"/><path d="m5.49209 12.84473h.454568l.07576 4.01536h.73236l.07576-4.04061 1.212183-.0252-1.313198-4.82348.353553-.20203 1.06066 3.48502.782868-.42931-1.59099-4.6467-3.207234-.10102-1.641498 4.84873.707107.2778 1.161675-3.43452.3283.0505-1.313199 4.92449 1.111168.0252.151523 4.11637h.732361l.126269-4.04061z" fill="#fff" fill-rule="evenodd"/><path d="m13.39653 6.05146 3.08097-.0252 1.01015.78287.17678 4.52042-.88389-.0252-.10101-3.58604-.45457-.0505.0126 9.23027-.84601.0252-.17677-5.4927-.42932-.0252-.10101 5.55584-.78287-.0505-.0505-9.16713h-.47982l.0505 3.51027-.85863.0253-.0758-4.41942.90913-.80812z" fill="#fff" fill-rule="evenodd"/></g></svg>