<?xml version="1.0" encoding="utf-8"?>
<!-- Generator: Adobe Illustrator 14.0.0, SVG Export Plug-In . SVG Version: 6.00 Build 43363)  -->
<!DOCTYPE svg PUBLIC "-//W3C//DTD SVG 1.0//EN" "http://www.w3.org/TR/2001/REC-SVG-20010904/DTD/svg10.dtd">
<svg version="1.0" id="Vrstva_1" xmlns="http://www.w3.org/2000/svg" xmlns:xlink="http://www.w3.org/1999/xlink" x="0px" y="0px"
	 width="20px" height="20px" viewBox="0 0 20 20" style="enable-background:new 0 0 20 20;" xml:space="preserve">
<g>
	<polygon style="fill:#020202;" points="5,19.6 5,17.2 7.6,17.2 7.6,7.7 8.8,7.7 8.8,6.4 6.3,6.4 6.3,4.6 8.8,4.6 8.8,3.9 6.3,3.9 
		6.3,2.1 8.8,2.1 8.8,0.7 10.7,0.7 10.7,2.1 13.1,2.1 13.1,3.9 10.7,3.9 10.7,4.6 13.1,4.6 13.1,6.4 10.7,6.4 10.7,7.7 12,7.7 
		12,17.2 14.7,17.2 14.7,19.6 	"/>
	<path style="fill:#F4F4F4;" d="M10.3,1.1v1.4h2.5v1h-2.5V5h2.5v1h-2.5v2.1h1.4v9.5h2.7v1.7h-9v-1.7H8V8.1h1.2V6H6.7V5h2.5V3.5H6.7
		v-1h2.5V1.1H10.3 M11,0.3h-0.8H9.2H8.5v0.8v0.7H6.7H6v0.8v1v0.8V5v1v0.8h0.8h1.8v0.6H8H7.3v0.8v8.8H5.4H4.6v0.8v1.7V20h0.8h9h0.8
		v-0.8v-1.7v-0.8h-0.8h-1.9V8.1V7.3h-0.8H11V6.8h1.7h0.8V6V5V4.3V3.5v-1V1.7h-0.8H11V1.1V0.3L11,0.3z"/>
</g>
</svg>
