<svg enable-background="new 0 0 20 20" height="20" viewBox="0 0 20 20" width="20" xmlns="http://www.w3.org/2000/svg"><path d="m5 19.6v-2.4h2.6v-9.5h1.2v-1.3h-2.5v-1.8h2.5v-.7h-2.5v-1.8h2.5v-1.4h1.9v1.4h2.4v1.8h-2.4v.7h2.4v1.8h-2.4v1.3h1.3v9.5h2.7v2.4z" fill="#020202"/><path d="m10.3 1.1v1.4h2.5v1h-2.5v1.5h2.5v1h-2.5v2.1h1.4v9.5h2.7v1.7h-9v-1.7h2.6v-9.5h1.2v-2.1h-2.5v-1h2.5v-1.5h-2.5v-1h2.5v-1.4zm.7-.8h-.8-1-.7v.8.7h-1.8-.7v.8 1 .8.6 1 .8h.8 1.8v.6h-.6-.7v.8 8.8h-1.9-.8v.8 1.7.5h.8 9 .8v-.8-1.7-.8h-.8-1.9v-8.6-.8h-.8-.7v-.5h1.7.8v-.8-1-.7-.8-1-.8h-.8-1.7v-.6z" fill="#f4f4f4"/></svg>