<svg enable-background="new -0.2 -0.2 19 19" height="19" viewBox="-.2 -.2 19 19" width="19" xmlns="http://www.w3.org/2000/svg"><path d="m12.8 3.6c0 2-1.6 3.6-3.6 3.6s-3.6-1.6-3.6-3.6 1.6-3.6 3.6-3.6 3.6 1.6 3.6 3.6z"/><path d="m12.8 15.3c0 2-1.6 3.6-3.6 3.6s-3.6-1.6-3.6-3.6 1.6-3.6 3.6-3.6 3.6 1.7 3.6 3.6z"/><path d="m12.8 15.6h-7.1v-12h7.2v12z"/><path d="m11.9 3.6c0 1.5-1.2 2.7-2.7 2.7-1.4-.1-2.6-1.3-2.6-2.7 0-1.5 1.2-2.7 2.7-2.7 1.4 0 2.6 1.2 2.6 2.7z" fill="#f00"/><path d="m12 15.2c0 1.5-1.2 2.7-2.7 2.7s-2.7-1.2-2.7-2.7 1.2-2.7 2.7-2.7 2.7 1.2 2.7 2.7z" fill="#32cd32"/><path d="m12 9.3c0 1.5-1.2 2.7-2.7 2.7s-2.7-1.2-2.7-2.7 1.2-2.7 2.7-2.7 2.7 1.2 2.7 2.7z" fill="#ff0"/></svg>