<?xml version="1.0" encoding="utf-8"?>
<!-- Generator: Adobe Illustrator 14.0.0, SVG Export Plug-In . SVG Version: 6.00 Build 43363)  -->
<!DOCTYPE svg PUBLIC "-//W3C//DTD SVG 1.1//EN" "http://www.w3.org/Graphics/SVG/1.1/DTD/svg11.dtd">
<svg version="1.1" xmlns="http://www.w3.org/2000/svg" xmlns:xlink="http://www.w3.org/1999/xlink" x="0px" y="0px" width="27px"
	 height="27px" viewBox="0.5 0.5 27 27" enable-background="new 0.5 0.5 27 27" xml:space="preserve">
<g id="Vrstva_2">
	<g>
		<path fill="#2143B1" d="M3.6,22.6c-0.8,0-1.5-0.7-1.5-1.5V7.5C2.1,6.7,2.8,6,3.6,6h20.8c0.8,0,1.5,0.7,1.5,1.5v13.6
			c0,0.8-0.7,1.5-1.5,1.5H3.6z"/>
		<path fill="#F4F4F4" d="M24.4,6.5c0.5,0,1,0.5,1,1v13.6c0,0.5-0.5,1-1,1H3.6c-0.5,0-1-0.5-1-1V7.5c0-0.5,0.5-1,1-1H24.4 M24.4,5.5
			H3.6c-1.1,0-2,0.9-2,2v13.6c0,1.1,0.9,2,2,2h20.8c1.1,0,2-0.9,2-2V7.5C26.4,6.4,25.5,5.5,24.4,5.5L24.4,5.5z"/>
	</g>
</g>
<g id="symbol-bus" xmlns:xi="http://www.w3.org/2001/XInclude" xmlns:xs="http://www.w3.org/2001/XMLSchema" xmlns:dc="http://purl.org/dc/elements/1.1/" xmlns:rdf="http://www.w3.org/1999/02/22-rdf-syntax-ns#" xmlns:inkscape="http://www.inkscape.org/namespaces/inkscape" xmlns:cc="http://web.resource.org/cc/" xmlns:svg="http://www.w3.org/2000/svg">
	<path fill="#0000FF" stroke="#FFFFFF" stroke-width="0.7559" d="M20.3,18.4c0,0.9-1.2,1.5-1.9,0.9c-0.8-0.6-0.4-1.9,0.5-2
		C19.6,17.1,20.3,17.7,20.3,18.4z"/>
	<path fill="#0000FF" stroke="#FFFFFF" stroke-width="0.7559" d="M9.3,18.4c0,0.9-1.2,1.5-1.9,0.9c-0.8-0.6-0.4-1.9,0.5-2
		C8.6,17.1,9.4,17.7,9.3,18.4z"/>
	<path fill="#FFFFFF" d="M8.3,12.4c5.7,0,5.6,0,11.3,0c0.6,0,1.7,0.1,2,0.7c0.3,0.8,1,2.3,1.4,4.4c0.1,0.5,0.2,1.6-0.5,1.6
		c-5.9,0-11.3,0-17.2,0c-0.6,0-0.6-1.1-0.6-1.3c0-1.6,0.6-3.8,1.2-4.9C6.2,12.4,7.9,12.4,8.3,12.4z"/>
	<path fill="#2143B1" d="M17.6,13.4c1,0,1.5,0,2.5,0c0.1,0,0.2,0,0.3,0.1c0.3,0.6,0.3,1.4,0.4,2.2c0.1,0.5,0,0.7-0.5,0.7
		c-0.9,0-1.9,0-2.8,0c-0.2,0-0.2-0.2-0.2-0.3c0-0.9,0-1.8,0-2.4C17.3,13.5,17.4,13.4,17.6,13.4z"/>
	<path fill="#2143B1" d="M14.3,13.4h1.5c0.1,0,0.1,0.2,0.1,0.4v4.2c0,0.2,0,0.4-0.1,0.4h-1.5c-0.1,0-0.1-0.2-0.1-0.4v-4.2
		C14.2,13.5,14.2,13.4,14.3,13.4z"/>
	<path fill="#2143B1" d="M11.2,13.4h1.5c0.1,0,0.1,0.2,0.1,0.4v4.2c0,0.2,0,0.4-0.1,0.4h-1.5c-0.1,0-0.1-0.2-0.1-0.4v-4.2
		C11.1,13.5,11.1,13.4,11.2,13.4z"/>
	<path fill="#2143B1" d="M9.7,13.4c-1,0-1.3,0-2.3,0c-0.1,0-0.3,0-0.4,0.1c-0.3,0.6-0.4,1.5-0.6,2.2c-0.1,0.5,0,0.7,0.5,0.7
		c0.9,0,1.9,0,2.8,0c0.2,0,0.3-0.2,0.3-0.3c0-0.9,0-1.8,0-2.4C9.9,13.5,9.8,13.4,9.7,13.4z"/>
	<g>
		<line fill="none" stroke="#FFFFFF" stroke-linecap="square" x1="8.2" y1="10.5" x2="10.2" y2="12.3"/>
		<line fill="none" stroke="#FFFFFF" stroke-linecap="square" x1="10.2" y1="12.3" x2="12" y2="10.5"/>
		<line fill="none" stroke="#FFFFFF" x1="8.2" y1="10.4" x2="10.2" y2="8.6"/>
		<line fill="none" stroke="#FFFFFF" stroke-linecap="square" x1="10.2" y1="8.6" x2="12" y2="10.5"/>
	</g>
</g>
</svg>
