<svg enable-background="new 0.5 0.5 27 27" height="27" viewBox=".5 .5 27 27" width="27" xmlns="http://www.w3.org/2000/svg"><path d="m3.6 22.6c-.8 0-1.5-.7-1.5-1.5v-13.6c0-.8.7-1.5 1.5-1.5h20.8c.8 0 1.5.7 1.5 1.5v13.6c0 .8-.7 1.5-1.5 1.5z" fill="#2143b1"/><path d="m24.4 6.5c.5 0 1 .5 1 1v13.6c0 .5-.5 1-1 1h-20.8c-.5 0-1-.5-1-1v-13.6c0-.5.5-1 1-1zm0-1h-20.8c-1.1 0-2 .9-2 2v13.6c0 1.1.9 2 2 2h20.8c1.1 0 2-.9 2-2v-13.6c0-1.1-.9-2-2-2z" fill="#f4f4f4"/><path d="m20.3 18.4c0 .9-1.2 1.5-1.9.9-.8-.6-.4-1.9.5-2 .7-.2 1.4.4 1.4 1.1z" fill="#00f" stroke="#fff" stroke-width=".7559"/><path d="m9.3 18.4c0 .9-1.2 1.5-1.9.9-.8-.6-.4-1.9.5-2 .7-.2 1.5.4 1.4 1.1z" fill="#00f" stroke="#fff" stroke-width=".7559"/><path d="m8.3 12.4h11.3c.6 0 1.7.1 2 .7.3.8 1 2.3 1.4 4.4.1.5.2 1.6-.5 1.6-5.9 0-11.3 0-17.2 0-.6 0-.6-1.1-.6-1.3 0-1.6.6-3.8 1.2-4.9.3-.5 2-.5 2.4-.5z" fill="#fff"/><g fill="#2143b1"><path d="m17.6 13.4h2.5c.1 0 .2 0 .3.1.3.6.3 1.4.4 2.2.1.5 0 .7-.5.7-.9 0-1.9 0-2.8 0-.2 0-.2-.2-.2-.3 0-.9 0-1.8 0-2.4 0-.2.1-.3.3-.3z"/><path d="m14.3 13.4h1.5c.1 0 .1.2.1.4v4.2c0 .2 0 .4-.1.4h-1.5c-.1 0-.1-.2-.1-.4v-4.2c0-.3 0-.4.1-.4z"/><path d="m11.2 13.4h1.5c.1 0 .1.2.1.4v4.2c0 .2 0 .4-.1.4h-1.5c-.1 0-.1-.2-.1-.4v-4.2c0-.3 0-.4.1-.4z"/><path d="m9.7 13.4c-1 0-1.3 0-2.3 0-.1 0-.3 0-.4.1-.3.6-.4 1.5-.6 2.2-.1.5 0 .7.5.7h2.8c.2 0 .3-.2.3-.3 0-.9 0-1.8 0-2.4-.1-.2-.2-.3-.3-.3z"/></g><path d="m8.2 10.5 2 1.8" fill="none" stroke="#fff" stroke-linecap="square"/><path d="m10.2 12.3 1.8-1.8" fill="none" stroke="#fff" stroke-linecap="square"/><path d="m8.2 10.4 2-1.8" fill="none" stroke="#fff"/><path d="m10.2 8.6 1.8 1.9" fill="none" stroke="#fff" stroke-linecap="square"/></svg>