<?xml version="1.0" encoding="utf-8"?>
<!-- Generator: Adobe Illustrator 14.0.0, SVG Export Plug-In . SVG Version: 6.00 Build 43363)  -->
<!DOCTYPE svg PUBLIC "-//W3C//DTD SVG 1.0//EN" "http://www.w3.org/TR/2001/REC-SVG-20010904/DTD/svg10.dtd">
<svg version="1.0"
	 id="symbol-university" xmlns:xs="http://www.w3.org/2001/XMLSchema" xmlns:inkscape="http://www.inkscape.org/namespaces/inkscape" xmlns:rdf="http://www.w3.org/1999/02/22-rdf-syntax-ns#" xmlns:svg="http://www.w3.org/2000/svg" xmlns:cc="http://web.resource.org/cc/" xmlns:xi="http://www.w3.org/2001/XInclude" xmlns:dc="http://purl.org/dc/elements/1.1/"
	 xmlns="http://www.w3.org/2000/svg" xmlns:xlink="http://www.w3.org/1999/xlink" x="0px" y="0px" width="18.6px" height="18.6px"
	 viewBox="0 0 18.6 18.6" style="enable-background:new 0 0 18.6 18.6;" xml:space="preserve">
<g transform="translate(0,32)">
	<path d="M9.5-27.1c-1,0.1-1.9,0.4-1.8,0.8c0,0.1,0,0.1-0.1,0.1l-7.2-0.1l2,0.6c-0.1,0.3-0.2,0.6-0.3,1.1c-0.1,0.6-0.1,1,0,1.2
		l1.3,3.8l-0.8,1.2L3.1-18l0.4-0.8L4-17.9l0.6-0.3l-1.1-6.5l1.8,4.1c0,0,0.8-3.8,3.8-3.8c3.1,0,4.6,4.2,4.6,4.2l1.5-5.2l3.1-0.8h-7
		c0-0.1,0-0.1,0-0.1C11.3-26.7,10.5-27.1,9.5-27.1L9.5-27.1L9.5-27.1z"/>
</g>
</svg>
