<svg enable-background="new -2 -2 20 20" height="20" viewBox="-2 -2 20 20" width="20" xmlns="http://www.w3.org/2000/svg"><path d="m.8 9.6c-.1 0-.2 0-.3 0-.6-.2-1.1-.6-1.4-1.1-.1-.3-.1-.5 0-.8.1-.4.5-.8 1-1.1.2-.1.4-.2.7-.2h.3c.5.1 1.3.2 2.4.5 1.2.3 1.7.4 1.9.8.1.2.1.4 0 .5-.1.2-.2.6-3.1 1.2-.8.1-1.2.2-1.5.2z" fill="#00f"/><path d="m.8 6.9h.3c.5 0 1.2.2 2.4.4 1.3.4 1.5.5 1.5.7-.1.2-1.2.6-2.8.9-.7.1-1.1.2-1.4.2-.1 0-.2 0-.2 0-.4-.1-.8-.5-1-.8-.1-.2-.1-.3 0-.5.1-.3.3-.6.7-.8.2 0 .3-.1.5-.1m0-1c-.4 0-.6.1-.9.2-.6.3-1.1.9-1.3 1.4-.1.5-.1.8.1 1.2.3.6.9 1.2 1.7 1.3.1 0 .3.1.5.1.3 0 .7-.1 1.5-.2 3-.6 3.4-1 3.6-1.5 0-.4 0-.7-.2-1-.3-.6-.9-.7-2.2-1-1.1-.3-1.9-.4-2.4-.5-.2 0-.3 0-.4 0z" fill="#f4f4f4"/><path d="m8 16.9c-.3 0-.5-.1-.7-.2-.3-.2-.5-.4-.7-.8-.2-.3-.2-.5-.1-1.1 0-.7.5-3.9 1.2-4.2l.1-.1h.2c.6 0 .9.6 1.4 3 .3 1.4.3 2-.1 2.6-.1.2-.3.4-.5.6-.3.2-.6.2-.8.2z" fill="#00f"/><path d="m8 11c.2 0 .5.8.9 2.6.3 1.4.3 1.8 0 2.3-.1.2-.3.4-.4.4-.1.1-.3.1-.4.1s-.3 0-.4-.1c-.2-.1-.3-.3-.5-.6-.1-.2-.1-.3-.1-.8-.1-1.3.5-3.7.9-3.9-.1 0-.1 0 0 0m0-1c-.2 0-.4.1-.6.2-1 .6-1.4 4.6-1.4 4.6 0 .5 0 .9.2 1.3.2.5.5.8.8 1s.6.3 1 .3.7-.1 1-.3.5-.5.7-.7c.5-.8.4-1.7.2-3-.5-2.1-.8-3.4-1.9-3.4z" fill="#f4f4f4"/><path d="m2.2 14.7c-.3 0-.5-.1-.7-.2-.6-.5-.3-1.4-.2-1.7.1-.5.2-.6.6-1 .5-.5 2-1.5 2.9-1.9.6-.3.8-.4 1-.4.3 0 .6.3.6.6 0 .6-1.6 3.1-2.2 3.7s-1.1.9-1.7.9c-.1 0-.2 0-.3 0z" fill="#00f"/><path d="m5.8 10c.1 0 .1 0 .1.1 0 .4-1.4 2.6-2.1 3.4-.4.5-.8.7-1.3.7-.1 0-.2 0-.2 0-.2 0-.2 0-.4-.1-.2-.2-.3-.6-.1-1.1.1-.4.2-.5.5-.8.5-.4 1.9-1.4 2.8-1.9.4-.2.6-.3.7-.3m0-1c-.3 0-.6.2-1.2.5-.9.4-2.4 1.5-3 2-.4.4-.6.7-.8 1.2-.3 1-.2 1.7.4 2.2.3.3.6.4 1 .4h.3c.8-.1 1.4-.4 2.1-1.1.5-.5 2.3-3.1 2.3-4 0-.7-.4-1.2-1.1-1.2z" fill="#f4f4f4"/><path d="m13.4 14.7c-.2 0-.6 0-.8-.1-.8-.4-2.8-3.3-3-4.2 0-.1-.1-.4.1-.6s.4-.2.5-.2c.4 0 1 .2 2.6 1.4 1.4 1 2 1.6 1.9 2.7 0 .4-.2.8-.7 1-.2 0-.4 0-.6 0z" fill="#00f"/><path d="m10.2 10c.3 0 1 .4 2.4 1.3 1.4 1 1.8 1.5 1.7 2.2 0 .4-.1.5-.4.6-.1 0-.3.1-.5.1s-.5 0-.6-.1c-.7-.3-2.6-3-2.7-3.9-.1-.1-.1-.2.1-.2m0-1c-.4 0-.7.2-.9.4-.3.4-.3.9-.2 1 .2 1.1 2.3 4.1 3.3 4.6.3.2.8.2 1.1.2s.6 0 .8-.1c.6-.2.9-.7 1-1.4.2-1.5-.8-2.3-2.1-3.2-1.9-1.2-2.5-1.5-3-1.5z" fill="#f4f4f4"/><path d="m15.1 9.8c-.4 0-.9-.1-1.7-.2-1.7-.4-2.3-.6-2.6-.9-.1-.1-.3-.3-.2-.6 0-.3.3-.5.4-.5.5-.3 3.4-.9 4.2-.9h.1c.5 0 .6.1 1 .3.6.4.9 1 .7 1.6-.1.4-.5.8-1 1.1-.3 0-.5.1-.9.1z" fill="#00f"/><path d="m15.2 7.2c.4 0 .4 0 .7.2.4.3.6.7.5 1s-.4.6-.7.8c-.1.1-.3.1-.6.1-.4 0-.9-.1-1.6-.2-1.5-.3-2.1-.5-2.4-.7-.1-.2-.1-.3.1-.4.3-.2 3.2-.8 3.9-.8zm0-1h-.1c-.7 0-3.8.6-4.4 1-.3.2-.5.5-.6.9 0 .2 0 .6.4 1 .5.5 1.2.7 2.9 1 .9.2 1.4.3 1.8.3s.7-.1 1-.2c.6-.3 1.1-.8 1.2-1.4.2-.8-.1-1.6-.9-2.1-.5-.4-.7-.5-1.3-.5z" fill="#f4f4f4"/><path d="m5.6 6.4c-.2 0-.3-.1-.7-.3-.5-.3-1.9-1.2-2.6-1.7s-1-.9-1.2-1.3c-.2-.6-.1-1.6.4-1.9.3-.1.6-.2.8-.2s.5 0 .8.2c.5.2 1 .8 1.7 1.7 1.6 2.4 1.5 2.9 1.3 3.2-.1.1-.3.3-.5.3z" fill="#00f"/><path d="m2.3 1.5c.2 0 .5 0 .6.1.3.2.8.7 1.4 1.6 1 1.4 1.5 2.4 1.3 2.6 0 0-.1.1-.1.1-.1 0-.2-.1-.4-.2-.5-.3-1.8-1.2-2.5-1.7-.6-.4-.9-.8-1-1.1-.2-.4-.1-1.1.2-1.3.1 0 .3-.1.5-.1m0-1c-.5 0-.8.1-1.1.3-.7.5-.8 1.7-.5 2.5.3.6.7 1 1.3 1.5.7.5 2.1 1.5 2.7 1.8.3.2.5.3.9.3.3 0 .6-.1.9-.4.5-.7.2-1.7-1.3-3.9-.7-1-1.3-1.6-1.8-1.9-.4-.2-.8-.2-1.1-.2z" fill="#f4f4f4"/><path d="m10.4 6.6c-.2 0-.3-.1-.5-.2-.4-.4-.1-1 .2-1.5.5-.9 1.6-2.5 2-3 .3-.3.5-.5.9-.5h.5c.5 0 1 .2 1.2.5.2.1.3.5.3.6 0 .3 0 .6-.1.9-.3.5-.9 1.1-2.3 2-1.6 1-1.9 1.2-2.2 1.2z" fill="#00f"/><path d="m13.6 1.7c.3 0 .6.1.7.3 0 .1.1.3.1.5 0 .3 0 .4-.1.6-.2.4-.8 1-2.2 1.8-1.2.8-1.6 1.1-1.8 1.1h-.1c-.1-.1 0-.3.3-.9.5-1 1.6-2.5 2-2.9.3-.3.4-.3.7-.4.2-.1.3-.1.4-.1m0-1c-.2 0-.4 0-.6.1-.5.1-.8.3-1.2.7-.4.5-1.5 2.1-2 3.1-.4.6-.8 1.4-.2 2.1.2.2.5.3.8.3.5 0 .9-.2 2.4-1.2s2.2-1.6 2.5-2.2c.2-.4.2-.7.2-1.2 0-.2-.1-.7-.3-1-.3-.4-.9-.7-1.6-.7z" fill="#f4f4f4"/><path d="m8 5.5c-.2 0-.4-.1-.5-.2-.4-.5-.8-2.3-.9-3.1-.2-1.1-.2-1.7.1-2.2.3-.6.8-.9 1.3-.9.6 0 1.1.4 1.4 1 .2.3.2.5.1 1 0 .8-.6 3.4-.9 3.9-.2.4-.5.5-.6.5z" fill="#00f"/><path d="m8-.4c.3 0 .7.3 1 .8v.7c0 .8-.6 3.3-.8 3.7-.1.1-.1.2-.2.2 0 0-.1 0-.1-.1-.2-.2-.5-1.3-.8-2.7-.2-1.2-.2-1.6 0-2s.6-.6.9-.6m0-1c-.7 0-1.4.4-1.8 1.1-.3.7-.3 1.4-.1 2.6.5 2.7.9 3.1 1 3.2.2.3.5.5.9.5.2 0 .7-.1 1.1-.7.3-.6.9-3.4.9-4.2 0-.5 0-.8-.2-1.3-.4-.8-1.1-1.2-1.8-1.2z" fill="#f4f4f4"/><path d="m10 8c0 1.1-.9 2-2 2s-2.1-.9-2.1-2 .9-2.1 2.1-2.1c1.1 0 2 .9 2 2.1z" fill="#0101ff" stroke="#000" stroke-width=".25"/></svg>