<svg enable-background="new 3.906 0.094 12 12" height="12" viewBox="3.906 .094 12 12" width="12" xmlns="http://www.w3.org/2000/svg" xmlns:xlink="http://www.w3.org/1999/xlink"><filter id="a" height="1.24" width="1.24" x="-.12" y="-.12"><feGaussianBlur stdDeviation=".4"/></filter><g fill="none"><g filter="url(#a)" stroke="#fff" stroke-linecap="round"><path d="m13.663 6.03c0 2.085-1.691 3.777-3.777 3.777-2.087 0-3.778-1.691-3.778-3.777 0-2.087 1.691-3.778 3.778-3.778 2.086-.001 3.777 1.691 3.777 3.778z"/><path d="m9.886 2.397v-2.18"/><path d="m13.519 6.03h2.18"/><path d="m6.253 6.03h-2.18"/><path d="m9.886 9.662v2.18"/><path d="m6.979 3.124-1.453-1.454"/><path d="m12.792 3.124 1.453-1.453"/><path d="m12.792 8.936 1.453 1.453"/><path d="m6.979 8.936-1.453 1.453"/></g><g stroke="#000"><path d="m13.415 6.03c0 1.948-1.58 3.53-3.529 3.53-1.95 0-3.53-1.582-3.53-3.53 0-1.95 1.58-3.53 3.53-3.53 1.949 0 3.529 1.581 3.529 3.53z" stroke-width="1.5"/><path d="m9.886 2.397v-2.18" stroke-width="2"/><path d="m13.519 6.03h2.18" stroke-width="2"/><path d="m6.253 6.03h-2.18" stroke-width="2"/><path d="m9.886 9.662v2.18" stroke-width="2"/><path d="m7.629 3.773-2.103-2.103" stroke-width="2"/><path d="m12.108 3.807 2.137-2.137" stroke-width="2"/><path d="m12.313 8.457 1.932 1.932" stroke-width="2"/><path d="m7.458 8.457-1.932 1.932" stroke-width="2"/></g></g></svg>