<?xml version="1.0" encoding="utf-8"?>
<!-- Generator: Adobe Illustrator 14.0.0, SVG Export Plug-In . SVG Version: 6.00 Build 43363)  -->
<!DOCTYPE svg PUBLIC "-//W3C//DTD SVG 1.1//EN" "http://www.w3.org/Graphics/SVG/1.1/DTD/svg11.dtd">
<svg version="1.1" id="Vrstva_1" xmlns="http://www.w3.org/2000/svg" xmlns:xlink="http://www.w3.org/1999/xlink" x="0px" y="0px"
	 width="24px" height="24px" viewBox="0 0 24 24" enable-background="new 0 0 24 24" xml:space="preserve">
<g>
	<polygon fill="#333333" points="10.6,22.8 10.6,9.9 5.4,9.9 5.4,7.1 10.6,7.1 10.6,1.9 13.4,1.9 13.4,7.1 18.6,7.1 18.6,9.9 
		13.4,9.9 13.4,20.1 18.6,20.1 18.6,22.8 	"/>
	<path fill="#FFFFFF" d="M13.3,2v5.2h5.2v2.6h-5.2v10.4h5.2v2.6H12h-1.3v-1.3V9.8H5.5V7.2h5.2V2H13.3 M13.5,1.8h-0.2h-2.6h-0.2V2v5
		h-5H5.3v0.2v2.6V10h0.2h5v11.5v1.3V23h0.2H12h6.5h0.2v-0.2v-2.6V20h-0.2h-5V10h5h0.2V9.8V7.2V7h-0.2h-5V2V1.8L13.5,1.8z"/>
</g>
</svg>
