<svg height="27.213" viewBox="0 0 25.229 27.213" width="25.229" xmlns="http://www.w3.org/2000/svg"><g fill="#636363" stroke="#636363" stroke-width=".25"><path d="m16.893 21.8c0-.577-.468-1.045-1.045-1.045s-1.045.468-1.045 1.045c0 .01.005.019.006.028h-.006v2.268h2.09v-2.268h-.006c0-.01.006-.018.006-.028z"/><path d="m22.32 15.565c0-.577-.468-1.045-1.045-1.045s-1.045.468-1.045 1.045c0 .01.005.019.006.028h-.006v2.268h2.09v-2.268h-.006c.001-.009.006-.018.006-.028z"/><path d="m22.32 3.092c0-.577-.468-1.045-1.045-1.045s-1.045.468-1.045 1.045c0 .01.005.019.006.028h-.006v2.268h2.09v-2.268h-.006c.001-.01.006-.018.006-.028z"/><path d="m11.185 3.092c0-.577-.468-1.045-1.045-1.045s-1.045.468-1.045 1.045c0 .01.005.019.006.028h-.006v2.268h2.09v-2.268h-.006c0-.01.006-.018.006-.028z"/><path d="m16.893 9.329c0-.577-.468-1.045-1.045-1.045s-1.045.468-1.045 1.045c0 .01.005.019.006.028h-.006v2.268h2.09v-2.268h-.006c0-.009.006-.018.006-.028z"/><path d="m4.934 9.329c0-.577-.468-1.045-1.045-1.045s-1.045.468-1.045 1.045c0 .01.005.019.006.028h-.006v2.268h2.09v-2.268h-.006c.001-.009.006-.018.006-.028z"/><path d="m11.185 15.565c0-.577-.468-1.045-1.045-1.045s-1.045.468-1.045 1.045c0 .01.005.019.006.028h-.006v2.268h2.09v-2.268h-.006c0-.009.006-.018.006-.028z"/><path d="m4.934 21.8c0-.577-.468-1.045-1.045-1.045s-1.045.468-1.045 1.045c0 .01.005.019.006.028h-.006v2.268h2.09v-2.268h-.006c.001-.01.006-.018.006-.028z"/></g></svg>