<?xml version="1.0" encoding="utf-8"?>
<!-- Generator: Adobe Illustrator 14.0.0, SVG Export Plug-In . SVG Version: 6.00 Build 43363)  -->
<!DOCTYPE svg PUBLIC "-//W3C//DTD SVG 1.1//EN" "http://www.w3.org/Graphics/SVG/1.1/DTD/svg11.dtd">
<svg version="1.1"
	 id="svg2" inkscape:export-filename="F:\GIS\render\symbols\vineyard.png" inkscape:version="0.48.0 r9654" sodipodi:docname="vineyard.svg" inkscape:export-ydpi="90" inkscape:export-xdpi="90" xmlns:cc="http://creativecommons.org/ns#" xmlns:rdf="http://www.w3.org/1999/02/22-rdf-syntax-ns#" xmlns:svg="http://www.w3.org/2000/svg" xmlns:sodipodi="http://sodipodi.sourceforge.net/DTD/sodipodi-0.dtd" xmlns:inkscape="http://www.inkscape.org/namespaces/inkscape" inkscape:label="PozadĂ­" xmlns:dc="http://purl.org/dc/elements/1.1/"
	 xmlns="http://www.w3.org/2000/svg" xmlns:xlink="http://www.w3.org/1999/xlink" x="0px" y="0px" width="16px" height="16px"
	 viewBox="0 0 16 16" enable-background="new 0 0 16 16" xml:space="preserve">
<sodipodi:namedview  id="base" inkscape:window-maximized="0" inkscape:window-y="8" inkscape:window-x="-3" inkscape:window-height="737" inkscape:window-width="1256" inkscape:current-layer="layer1" inkscape:document-units="px" inkscape:pageshadow="2" inkscape:pageopacity="0.0" showgrid="true" inkscape:cy="8" inkscape:cx="6.405825" inkscape:zoom="26.27551" borderopacity="1.0" bordercolor="#666666" pagecolor="#ffffff">
	
		<inkscape:grid  type="xygrid" enabled="true" visible="true" dotted="false" id="grid3768" snapvisiblegridlinesonly="true" empspacing="4">
		</inkscape:grid>
</sodipodi:namedview>
<g id="layer1" transform="translate(0,-1036.3622)" inkscape:groupmode="layer" inkscape:label="Vrstva 1">
	<g id="g3764" transform="translate(-0.0925243,0.1998)">
		
			<path id="path3758" inkscape:connector-curvature="0" sodipodi:nodetypes="cc" fill="none" stroke="#A5B576" stroke-width="0.6" d="
			M8,1040.362v7.5"/>
		
			<path id="path3762" inkscape:connector-curvature="0" sodipodi:nodetypes="czsssc" fill="none" stroke="#A5B576" stroke-width="0.6" d="
			M7.093,1047.662c1.5,0,2-2,2-2.5s-0.146-1.146-0.5-1.5c-0.75-0.75-2-0.25-2.408-1.2c-0.315-0.736-0.028-0.951,0.408-1.3
			c0.804-0.645,2.908-0.05,2.908-0.05"/>
	</g>
	<g id="g5004" transform="translate(-8.0925243,8.2)">
		
			<path id="path5006" inkscape:connector-curvature="0" sodipodi:nodetypes="cc" fill="none" stroke="#A5B576" stroke-width="0.6" d="
			M8,1040.362v7.5"/>
		
			<path id="path5008" inkscape:connector-curvature="0" sodipodi:nodetypes="czsssc" fill="none" stroke="#A5B576" stroke-width="0.6" d="
			M7.093,1047.662c1.5,0,2-2,2-2.5s-0.146-1.146-0.5-1.5c-0.75-0.75-2-0.25-2.408-1.199c-0.315-0.736-0.028-0.951,0.408-1.301
			c0.804-0.645,2.908-0.05,2.908-0.05"/>
	</g>
	<g id="g5010" transform="translate(-8.0925243,-7.8)">
		
			<path id="path5012" inkscape:connector-curvature="0" sodipodi:nodetypes="cc" fill="none" stroke="#A5B576" stroke-width="0.6" d="
			M8,1040.362v7.5"/>
		
			<path id="path5014" inkscape:connector-curvature="0" sodipodi:nodetypes="czsssc" fill="none" stroke="#A5B576" stroke-width="0.6" d="
			M7.093,1047.662c1.5,0,2-2,2-2.5s-0.146-1.146-0.5-1.5c-0.75-0.75-2-0.25-2.408-1.2c-0.315-0.735-0.028-0.951,0.408-1.3
			c0.804-0.645,2.908-0.05,2.908-0.05"/>
	</g>
	<g id="g5016" transform="translate(7.9074757,-7.8)">
		
			<path id="path5018" inkscape:connector-curvature="0" sodipodi:nodetypes="cc" fill="none" stroke="#A5B576" stroke-width="0.6" d="
			M8.001,1040.362v7.5"/>
		
			<path id="path5020" inkscape:connector-curvature="0" sodipodi:nodetypes="czsssc" fill="none" stroke="#A5B576" stroke-width="0.6" d="
			M7.093,1047.662c1.5,0,2-2,2-2.5s-0.146-1.146-0.5-1.5c-0.75-0.75-2-0.25-2.408-1.2c-0.314-0.735-0.027-0.951,0.408-1.3
			c0.805-0.645,2.908-0.05,2.908-0.05"/>
	</g>
	<g id="g5022" transform="translate(7.9074757,8.2)">
		
			<path id="path5024" inkscape:connector-curvature="0" sodipodi:nodetypes="cc" fill="none" stroke="#A5B576" stroke-width="0.6" d="
			M8.001,1040.362v7.5"/>
		
			<path id="path5026" inkscape:connector-curvature="0" sodipodi:nodetypes="czsssc" fill="none" stroke="#A5B576" stroke-width="0.6" d="
			M7.093,1047.662c1.5,0,2-2,2-2.5s-0.146-1.146-0.5-1.5c-0.75-0.75-2-0.25-2.408-1.199c-0.314-0.736-0.027-0.951,0.408-1.301
			c0.805-0.645,2.908-0.05,2.908-0.05"/>
	</g>
</g>
</svg>
