<?xml version="1.0" encoding="utf-8"?>
<!-- Generator: Adobe Illustrator 14.0.0, SVG Export Plug-In . SVG Version: 6.00 Build 43363)  -->
<!DOCTYPE svg PUBLIC "-//W3C//DTD SVG 1.1 Tiny//EN" "http://www.w3.org/Graphics/SVG/1.1/DTD/svg11-tiny.dtd">
<svg version="1.1" baseProfile="tiny" id="Vrstva_5"
	 xmlns="http://www.w3.org/2000/svg" xmlns:xlink="http://www.w3.org/1999/xlink" x="0px" y="0px" width="64px" height="64px"
	 viewBox="0 0 64 64" xml:space="preserve">
<path id="path9696" fill="#8FC9A1" d="M44.282,35.674c-1.162-0.02-2.386,0.624-2.633,1.941c-0.104,0.558-0.192,0.737-0.853,0.749
	c-2.034,0.035-2.899,3.025-1.181,4.436c0.17,0.139,0.072,0.261-0.501,0.696c-2.918,2.22,0.224,6.646,3.208,4.522
	c0.438-0.312,0.507-0.315,0.605-0.058c0.208,0.542,0.115,3.146-0.145,4.009l-0.26,0.858h1.562c0.155,0,0.231,0.001,0.357,0
	c0.127,0.001,0.206,0,0.362,0h1.562l-0.254-0.858c-0.26-0.863-0.357-3.467-0.149-4.009c0.099-0.258,0.168-0.254,0.604,0.058
	c2.984,2.124,6.127-2.303,3.208-4.522c-0.572-0.436-0.7-0.618-0.495-0.696c1.72-0.66,0.798-4.1-1.187-4.436
	c-0.651-0.11-0.742-0.191-0.847-0.749c-0.259-1.38-1.591-2.016-2.799-1.929C44.394,35.682,44.337,35.675,44.282,35.674z"/>
<path id="path9696_1_" fill="#8FC9A1" d="M19.219,10.257c-1.162-0.02-2.386,0.624-2.633,1.941c-0.104,0.558-0.192,0.737-0.853,0.749
	c-2.034,0.035-2.899,3.025-1.181,4.436c0.17,0.139,0.072,0.261-0.501,0.696c-2.918,2.22,0.224,6.646,3.208,4.522
	c0.438-0.312,0.507-0.315,0.605-0.058c0.208,0.542,0.115,3.146-0.145,4.009l-0.26,0.858h1.562c0.155,0,0.231,0.001,0.357,0
	c0.127,0.001,0.206,0,0.362,0h1.562l-0.254-0.858c-0.26-0.863-0.357-3.467-0.149-4.009c0.099-0.258,0.168-0.254,0.604,0.058
	c2.984,2.124,6.127-2.303,3.208-4.522c-0.572-0.436-0.7-0.618-0.495-0.696c1.72-0.66,0.798-4.1-1.187-4.436
	c-0.651-0.11-0.742-0.191-0.847-0.749c-0.259-1.38-1.591-2.016-2.799-1.929C19.331,10.265,19.274,10.258,19.219,10.257z"/>
</svg>
