<svg height="64" viewBox="0 0 64 64" width="64" xmlns="http://www.w3.org/2000/svg"><g fill="#8fc9a1"><path d="m44.282 35.674c-1.162-.02-2.386.624-2.633 1.941-.104.558-.192.737-.853.749-2.034.035-2.899 3.025-1.181 4.436.17.139.072.261-.501.696-2.918 2.22.224 6.646 3.208 4.522.438-.312.507-.315.605-.058.208.542.115 3.146-.145 4.009l-.26.858h1.562c.155 0 .231.001.357 0 .127.001.206 0 .362 0h1.562l-.254-.858c-.26-.863-.357-3.467-.149-4.009.099-.258.168-.254.604.058 2.984 2.124 6.127-2.303 3.208-4.522-.572-.436-.7-.618-.495-.696 1.72-.66.798-4.1-1.187-4.436-.651-.11-.742-.191-.847-.749-.259-1.38-1.591-2.016-2.799-1.929-.052-.004-.109-.011-.164-.012z"/><path d="m19.219 10.257c-1.162-.02-2.386.624-2.633 1.941-.104.558-.192.737-.853.749-2.034.035-2.899 3.025-1.181 4.436.17.139.072.261-.501.696-2.918 2.22.224 6.646 3.208 4.522.438-.312.507-.315.605-.058.208.542.115 3.146-.145 4.009l-.26.858h1.562c.155 0 .231.001.357 0 .127.001.206 0 .362 0h1.562l-.254-.858c-.26-.863-.357-3.467-.149-4.009.099-.258.168-.254.604.058 2.984 2.124 6.127-2.303 3.208-4.522-.572-.436-.7-.618-.495-.696 1.72-.66.798-4.1-1.187-4.436-.651-.11-.742-.191-.847-.749-.259-1.38-1.591-2.016-2.799-1.929-.052-.004-.109-.011-.164-.012z"/></g></svg>