<?xml version="1.0" encoding="utf-8"?>
<!-- Generator: Adobe Illustrator 14.0.0, SVG Export Plug-In . SVG Version: 6.00 Build 43363)  -->
<!DOCTYPE svg PUBLIC "-//W3C//DTD SVG 1.1 Tiny//EN" "http://www.w3.org/Graphics/SVG/1.1/DTD/svg11-tiny.dtd">
<svg version="1.1" baseProfile="tiny" id="Vrstva_5"
	 xmlns="http://www.w3.org/2000/svg" xmlns:xlink="http://www.w3.org/1999/xlink" x="0px" y="0px" width="64px" height="64px"
	 viewBox="0 0 64 64" xml:space="preserve">
<path id="path8893" sodipodi:nodetypes="cccccccccccccccccccc" fill="#8FC9A1" d="M19.504,8.642l-4.767,9.184l2.167-0.341
	l-2.879,3.376l2.538-0.486l-3.609,3.484l5.281-0.73v4.704h1.179L19.504,8.642z M19.427,8.968v18.865h1.178v-4.704l5.208,0.777
	l-3.281-3.531l2.284,0.486l-2.836-3.319l2.208,0.271L19.427,8.968z"/>
<path id="path8893_1_" sodipodi:nodetypes="cccccccccccccccccccc" fill="#8FC9A1" d="M44.567,34.226l-4.767,9.184l2.167-0.341
	l-2.879,3.377l2.537-0.486l-3.609,3.484l5.281-0.73v4.704h1.179L44.567,34.226z M44.49,34.553v18.864h1.178v-4.704l5.208,0.777
	l-3.281-3.531l2.283,0.486l-2.836-3.32l2.209,0.271L44.49,34.553z"/>
</svg>
