<?xml version="1.0" encoding="iso-8859-1"?>
<!-- Generator: Adobe Illustrator 14.0.0, SVG Export Plug-In . SVG Version: 6.00 Build 43363)  -->
<!DOCTYPE svg PUBLIC "-//W3C//DTD SVG 1.1//EN" "http://www.w3.org/Graphics/SVG/1.1/DTD/svg11.dtd">
<svg version="1.1" id="Vrstva_1" xmlns="http://www.w3.org/2000/svg" xmlns:xlink="http://www.w3.org/1999/xlink" x="0px" y="0px"
	 width="24px" height="24px" viewBox="0 0 24 24" style="enable-background:new 0 0 24 24;" xml:space="preserve">
<g>
	<g>
		<path style="fill:#FFFFFF;" d="M12,23.25C5.796,23.25,0.75,18.203,0.75,12C0.75,5.796,5.796,0.75,12,0.75
			c6.204,0,11.25,5.047,11.25,11.25C23.25,18.203,18.203,23.25,12,23.25L12,23.25z"/>
		<path style="fill:#FFFFFF;" d="M12,1.5c5.79,0,10.5,4.71,10.5,10.5S17.789,22.5,12,22.5S1.5,17.79,1.5,12S6.21,1.5,12,1.5 M12,0
			C5.372,0,0,5.372,0,12c0,6.627,5.373,12,12,12s12-5.373,12-12C24,5.372,18.627,0,12,0L12,0z"/>
	</g>
</g>
</svg>
