<svg enable-background="new 0 0 24 24" height="24" viewBox="0 0 24 24" width="24" xmlns="http://www.w3.org/2000/svg"><path d="m3.407 14.111s-1.116-1.767-1.098-2.288c.019-.521 1.173-2.347 1.173-2.347l.027-2.038.886.028.036.456 2.458-3.79.895.448-2.682 4.162 6.647-5.948.651.548-6.572 6.097 10.762-5.641.409.763-10.743 5.735 13.872-3.352.203.819-13.758 3.548 15.117.159v.875l-15.043-.113 13.76 3.836-.196.818-14.058-3.62 10.92 6.152-.502.783-10.854-6.043 6.46 6.416-.596.633-6.553-6.33 2.372 4.338-.79.457-2.271-3.873-.019.383h-.977z" fill="#e9bf1e" stroke="#e9bf1e" stroke-width=".75"/></svg>