<svg enable-background="new 0 0 24 24" height="24" viewBox="0 0 24 24" width="24" xmlns="http://www.w3.org/2000/svg"><g fill="#fff"><path d="m9.466 6.321c.522-.639 2.972-.944 4.366-.437 1.393.507 2.981 1.016 4.284 1.617 1.305.603.661 1.769-.62 1.212-1.282-.555-1.953-.868-2.681-1.074-.767-.216-2.496-.527-2.496-.527s1.33 3.974.998 4.454c-.355.513-2.811.089-3.003-.119-.258-.278-.725-2.272-.725-2.272s-.341 1.182-.975 1.609c-.613.413-1.999.756-3.523 1.141-1.497.377-1.541-.872-.179-1.211 1.388-.344 1.776-.26 2.669-1.044.817-.717 1.32-2.657 1.885-3.349z"/><path d="m11.74 4.563c-.289.657-1.04.964-1.678.685-.637-.281-.92-1.04-.632-1.698.289-.658 1.04-.966 1.677-.686s.921 1.04.633 1.699z"/><path d="m10.043 13.406c.151 1.25.41 3.209.568 4.164.179 1.086 1.528 1.092 1.356-.059-.169-1.141-.487-2.881-.635-4.139-.128-1.093-1.428-1.121-1.289.034z"/><path d="m12.05 12.739c-.139-.577 1.073-.416 1.186.062.109.475 1.589 6.527 1.83 7.633.239 1.107-1.136 1.172-1.327.17-.181-.946-1.548-7.272-1.689-7.865z"/></g><path d="m4.692 12.546 1.045 8.29" fill="none" stroke="#fff"/><path d="m17.633 9.787 2.398 11.352" fill="none" stroke="#fff"/></svg>