<svg enable-background="new 0 0 24 24" height="24" viewBox="0 0 24 24" width="24" xmlns="http://www.w3.org/2000/svg"><path clip-rule="evenodd" d="m16.275 5.917-1.301-.082c-.51 0-.516.858-.516 1.366l.104 1.925c-.299-1.211-.881-2.279-1.612-2.28.54-.32 1.125-1.333 1.125-2.006 0-.174-.027-.356-.066-.537l.123-.003-.385-2.164s-1.565.006-2.101.006c-.509 0-.595.922-1.274.922-1.479 0-2.11.109-2.11.109l.07 1.265 1.691-.041c-.025.158-.041.326-.041.509 0 .919.557 1.62 1.097 1.939-.907.263-1.042 2.185-1.146 3.478l-3.026.419.167 1.701 3.203-.305c.001.014.002.023.003.038l2.848-2.013.318.242-3.06 2.527c.053.189.13.308.28.652l-3.656 8.229h2.24l3.035-6.174.946 6.227 2.467-.053-1.424-7.77c.248-.539.379-1.182.445-1.93l.064 1.215c0 .508.412.92.92.92h.488c.51 0 1.34-.494 1.34-1.004v-6.167c.002-.507-.746-1.16-1.256-1.16z" fill="#191919" fill-rule="evenodd"/></svg>