<svg enable-background="new 0 0 24 24" height="24" viewBox="0 0 24 24" width="24" xmlns="http://www.w3.org/2000/svg"><path d="m9.889 3.408s1.767-1.116 2.288-1.098c.521.019 2.347 1.173 2.347 1.173l2.038.027-.028.886-.456.036 3.79 2.458-.448.895-4.161-2.682 5.948 6.647-.549.65-6.098-6.571 5.641 10.762-.763.409-5.735-10.744 3.353 13.873-.819.203-3.548-13.759-.159 15.118h-.875l.112-15.043-3.836 13.76-.818-.196 3.621-14.058-6.152 10.92-.783-.502 6.043-10.855-6.416 6.46-.633-.596 6.33-6.553-4.338 2.373-.457-.791 3.873-2.271-.383-.019v-.977z" fill="#e9bf1e" stroke="#e9bf1e" stroke-width="2"/></svg>