<svg enable-background="new 0 0 24 24" height="24" viewBox="0 0 24 24" width="24" xmlns="http://www.w3.org/2000/svg"><g transform="translate(0 -1036.3622)"><path d="m15.853 1040.628-2.007 2.008 1.948 1.948-3.838 3.838-4.016-4.015 1.717-1.774-1.949-2.008-3.914 3.912-1.021 5.06 3.809-3.891 4.075 4.074-5.02 4.96 1.3 1.359 5.019-5.02 5.019 5.02 1.299-1.359-5.019-4.96 3.896-3.897 2.069 2.067 2.007-2.008z" fill="#fff"/><path d="m15.853 1040.628-2.007 2.008 1.948 1.948-3.838 3.838-4.016-4.015 1.717-1.774-1.949-2.008-3.914 3.912-1.021 5.06 3.809-3.891 4.075 4.074-5.02 4.96 1.3 1.359 5.019-5.02 5.019 5.02 1.299-1.359-5.019-4.96 3.896-3.897 2.069 2.067 2.007-2.008z" fill="none" stroke="#fff" stroke-width=".25"/><path d="m15.853 1040.628-2.007 2.008 1.948 1.948-3.838 3.838-4.015-4.016 1.716-1.774-1.949-2.008-3.914 3.913-1.021 5.061 3.809-3.893 4.075 4.074-5.02 4.96 1.299 1.359 5.019-5.021 5.019 5.021 1.3-1.359-5.02-4.96 3.896-3.897 2.068 2.066 2.007-2.008z"/></g></svg>