<?xml version="1.0" encoding="UTF-8" standalone="no"?>
<!-- Generator: Adobe Illustrator 14.0.0, SVG Export Plug-In . SVG Version: 6.00 Build 43363)  -->

<svg
   version="1.1"
   id="Layer_2"
   x="0px"
   y="0px"
   width="400px"
   height="400px"
   viewBox="0 0 400 400"
   enable-background="new 0 0 400 400"
   xml:space="preserve"
   sodipodi:docname="poi_climbing.svg"
   inkscape:version="1.1 (c68e22c387, 2021-05-23)"
   xmlns:inkscape="http://www.inkscape.org/namespaces/inkscape"
   xmlns:sodipodi="http://sodipodi.sourceforge.net/DTD/sodipodi-0.dtd"
   xmlns="http://www.w3.org/2000/svg"
   xmlns:svg="http://www.w3.org/2000/svg"><defs
   id="defs17" /><sodipodi:namedview
   id="namedview15"
   pagecolor="#ffffff"
   bordercolor="#111111"
   borderopacity="1"
   inkscape:pageshadow="0"
   inkscape:pageopacity="0"
   inkscape:pagecheckerboard="1"
   showgrid="false"
   inkscape:zoom="2.06"
   inkscape:cx="199.75728"
   inkscape:cy="200.24272"
   inkscape:window-width="1920"
   inkscape:window-height="1009"
   inkscape:window-x="1912"
   inkscape:window-y="-8"
   inkscape:window-maximized="1"
   inkscape:current-layer="g12" />
<g
   id="g12">
	<circle
   cx="190.403"
   cy="92.55"
   r="23.05"
   id="circle2" />
	<path
   d="m 152.78124,147.631 -31.687,-38.824 c -3.497,-4.285 -10.495,-4.362 -15.628,-0.171 l -1.644,1.34 c -5.135001,4.191 -6.461001,11.062 -2.965,15.346 0,0 37.64,46.27 38.512,46.778 4.412,4.632 8.461,6.728 13.859,4.187 l 37.122,-17.471 V 186 h 60.72 v -38.684 l 54.157,-72.381 c 6.249,-8.351 7.012,-18.34 1.707,-22.308 l -1.697,-1.271 c -5.308,-3.972 -14.674,-0.419 -20.923,7.934 l -48.777,65.191 h -34.097 z"
   id="path4" />
	
	
	<path
   d="m 188.38224,219.764 -13.847,50.956 -37.229,48.658 c -3.85,5.028 -1.843,13.032 4.483,17.874 l 2.023,1.549 c 6.326,4.84 14.574,4.687 18.425,-0.347 l 38.7,-50.578 c 0.778,-1.021 1.307,-2.164 1.619,-3.376 0.717,-0.833 1.25,-1.784 1.539,-2.848 l 7.946,-29.245 c 3.058,0.421 6.563,0.692 10.292,0.765 l 3.824,0.073 c 11.378,0.218 23.562,-4.499 24.396,-5.07 l 22.519,-15.411 6.271,41.158 c 0.878,5.766 7.974,9.467 15.849,8.268 l 2.52,-0.383 c 7.874,-1.199 13.548,-6.846 12.668,-12.613 l -8.83,-57.963 c -0.224,-1.468 -3.202,-9.404 -4.989,-12.018 l -1.439,-2.103 c -4.498,-6.573 -11.845,-9.371 -16.41,-6.246 l -27.638,18.915 c 0,-4.093 -0.0156,-58.97931 -0.004,-23.779 -20.23867,3.83333 -62.18724,-110.624042 -60.716,11.5 z"
   id="path10"
   sodipodi:nodetypes="cccccccccccccccccccccccccc" />
</g>
</svg>
