<svg enable-background="new 0 0 48 48" height="48" viewBox="0 0 48 48" width="48" xmlns="http://www.w3.org/2000/svg"><circle cx="31" cy="32" r="2"/><circle cx="17" cy="32" r="2"/><path d="m14.02 18h20v10h-20z"/><path d="m35.6 5.6c-3.6-1.42-7.879-1.6-11.6-1.6-3.72 0-8 .18-11.6 1.6-5.34 2.08-8.4 6.5-8.4 12.12v26.28h40v-26.28c0-5.62-3.061-10.04-8.4-12.12zm.4 26.16c0 2.9-2.359 5.24-5.26 5.24l2.26 2.24v.76h-3l-3-3h-5.66l-3 3h-3.34v-.76l2.24-2.24c-2.88 0-5.24-2.359-5.24-5.24v-13.76c0-5.26 6-6 12-6 6.641 0 12 .76 12 6z"/></svg>