<svg enable-background="new 0 0 48 48" height="48" viewBox="0 0 48 48" width="48" xmlns="http://www.w3.org/2000/svg"><path d="m10.017 12.265c4.274 0 10.884 2.568 17.251 6.703 10.082 6.549 14.805 13.922 13.504 15.926-.347.534-1.363.841-2.787.841-4.276 0-10.888-2.568-17.253-6.703-4.737-3.076-8.737-6.615-11.262-9.964-2.269-3.009-2.761-5.162-2.243-5.959.347-.537 1.364-.844 2.79-.844m-.001-2c-2.12 0-3.695.564-4.467 1.753-2.405 3.704 3.903 12.074 14.093 18.691 6.922 4.495 13.854 7.025 18.343 7.025 2.119 0 3.693-.564 4.465-1.752 2.406-3.706-3.903-12.074-14.093-18.692-6.921-4.495-13.852-7.025-18.341-7.025z"/><path d="m37.984 12.265c1.425 0 2.441.307 2.789.842 1.301 2.003-3.423 9.377-13.505 15.924-6.366 4.135-12.978 6.703-17.253 6.703-1.425 0-2.441-.307-2.789-.841-1.301-2.004 3.422-9.378 13.506-15.926 6.367-4.134 12.977-6.702 17.252-6.702m0-2c-4.489 0-11.42 2.531-18.341 7.025-10.19 6.618-16.5 14.986-14.094 18.692.771 1.188 2.346 1.752 4.466 1.752 4.488 0 11.421-2.53 18.342-7.025 10.189-6.617 16.498-14.987 14.094-18.691-.771-1.189-2.347-1.753-4.467-1.753z"/><path d="m24 4c2.389 0 6 7.977 6 20s-3.611 20-6 20-6-7.977-6-20 3.611-20 6-20m0-2c-4.418 0-8 9.85-8 22s3.582 22 8 22c4.416 0 8-9.85 8-22s-3.584-22-8-22z"/><circle cx="24" cy="24" r="4"/></svg>