<?xml version="1.0" encoding="utf-8"?>
<!-- Generator: Adobe Illustrator 15.0.2, SVG Export Plug-In . SVG Version: 6.00 Build 0)  -->
<!DOCTYPE svg PUBLIC "-//W3C//DTD SVG 1.1//EN" "http://www.w3.org/Graphics/SVG/1.1/DTD/svg11.dtd">
<svg version="1.1" xmlns="http://www.w3.org/2000/svg" xmlns:xlink="http://www.w3.org/1999/xlink" x="0px" y="0px" width="48px"
	 height="48px" viewBox="0 0 48 48" enable-background="new 0 0 48 48" xml:space="preserve">
<g id="Vrstva_3">
	<g>
		<path d="M20,36c0-2.209,1.791-4,4-4s4,1.791,4,4v8h9V20l-26,0v24h9V36z"/>
	</g>
	<g>
		<path d="M16,6h-2V4h-2v2h-2V4H8v2H6V4H4v2v6h2v32h10V12h2V6V4h-2V6z M12,19h-2v-7h2V19z M42,4v2h-2V4h-2v2h-2V4h-2v2h-2V4h-2v2v6
			h2v32h10V12h2V6V4H42z M38,19h-2v-7h2V19z"/>
	</g>
</g>
<g id="Vrstva_2">
</g>
<g id="Vrstva_4">
</g>
</svg>
