<?xml version="1.0" encoding="utf-8"?>
<!-- Generator: Adobe Illustrator 15.0.2, SVG Export Plug-In . SVG Version: 6.00 Build 0)  -->
<!DOCTYPE svg PUBLIC "-//W3C//DTD SVG 1.1//EN" "http://www.w3.org/Graphics/SVG/1.1/DTD/svg11.dtd">
<svg version="1.1" id="Vrstva_3" xmlns="http://www.w3.org/2000/svg" xmlns:xlink="http://www.w3.org/1999/xlink" x="0px" y="0px"
	 width="48px" height="48px" viewBox="0 0 48 48" enable-background="new 0 0 48 48" xml:space="preserve">
<path d="M34.42,18.98L25.66,5.86C25.279,5.3,24.641,5.02,24,5.02s-1.279,0.28-1.66,0.86l-8.76,13.1H4c-1.1,0-2,0.9-2,2
	c0,0.18,0.02,0.359,0.08,0.54l5.08,18.541c0.46,1.68,2,2.92,3.84,2.92h26c1.84,0,3.38-1.24,3.859-2.92l5.08-18.541L46,20.98
	c0-1.1-0.9-2-2-2H34.42z M18,18.98l6-8.8l6,8.8H18z M24,34.98c-2.2,0-4-1.801-4-4c0-2.201,1.8-4,4-4s4,1.799,4,4
	C28,33.18,26.2,34.98,24,34.98z"/>
</svg>
