<?xml version="1.0" encoding="utf-8"?>
<!-- Generator: Adobe Illustrator 15.0.2, SVG Export Plug-In . SVG Version: 6.00 Build 0)  -->
<!DOCTYPE svg PUBLIC "-//W3C//DTD SVG 1.1//EN" "http://www.w3.org/Graphics/SVG/1.1/DTD/svg11.dtd">
<svg version="1.1" id="Vrstva_3" xmlns="http://www.w3.org/2000/svg" xmlns:xlink="http://www.w3.org/1999/xlink" x="0px" y="0px"
	 width="48px" height="48px" viewBox="0 0 48 48" enable-background="new 0 0 48 48" xml:space="preserve">
<g>
	<g>
		<path d="M8.775,2.431L6.798,4.974C11.418,8.849,14,16.528,14,24c0,7.473-2.582,15.151-7.201,19.026l1.977,2.543
			C15.422,41.668,20,33.478,20,24C20,14.523,15.422,6.333,8.775,2.431z"/>
	</g>
</g>
<g>
	<g>
		<path d="M39.225,2.431l1.978,2.542C36.582,8.849,34,16.528,34,24c0,7.473,2.582,15.151,7.201,19.026l-1.977,2.543
			C32.578,41.668,28,33.478,28,24C28,14.523,32.578,6.333,39.225,2.431z"/>
	</g>
</g>
</svg>
