<?xml version="1.0" encoding="utf-8"?>
<!-- Generator: Adobe Illustrator 15.0.2, SVG Export Plug-In . SVG Version: 6.00 Build 0)  -->
<!DOCTYPE svg PUBLIC "-//W3C//DTD SVG 1.1//EN" "http://www.w3.org/Graphics/SVG/1.1/DTD/svg11.dtd">
<svg version="1.1" id="Vrstva_3" xmlns="http://www.w3.org/2000/svg" xmlns:xlink="http://www.w3.org/1999/xlink" x="0px" y="0px"
	 width="48px" height="48px" viewBox="0 0 48 48" enable-background="new 0 0 48 48" xml:space="preserve">
<path d="M5.994,17c-2.994-4,1-6,1-8S8,2,14,2c7.313,0,10.932,12,16.994,12C36.995,14,44,16,44,23c0,8-4.013,6.705-4,13
	c0.006,3,0,9,0,9h-9.006c0,0,0-3,3-3l-0.057-2.496c0,0-2.586-1.316-2.813-5.875C30.994,31,31.994,30,31.994,30s-2,1-5,1
	c-5,0-7-5-7-5S19.871,27.527,19,30.066C17.994,33,16,33,16,33s-1,4-2,5s-1.012,1-1.006,2S15,41,15,43s-1,2-3,2c-1.629,0-3-1-3-3
	c0-5,4-26,4-26S8.155,19.886,5.994,17z"/>
</svg>
