<?xml version="1.0" encoding="utf-8"?>
<!-- Generator: Adobe Illustrator 15.0.2, SVG Export Plug-In . SVG Version: 6.00 Build 0)  -->
<!DOCTYPE svg PUBLIC "-//W3C//DTD SVG 1.1//EN" "http://www.w3.org/Graphics/SVG/1.1/DTD/svg11.dtd">
<svg version="1.1" xmlns="http://www.w3.org/2000/svg" xmlns:xlink="http://www.w3.org/1999/xlink" x="0px" y="0px" width="48px"
	 height="48px" viewBox="0 0 48 48" enable-background="new 0 0 48 48" xml:space="preserve">
<g id="Vrstva_3">
	<g id="layer1" transform="translate(-337.32573,-348.96455)" inkscape:groupmode="layer" inkscape:label="Ebene 1">
		<g id="g2382">
			<path id="path4884" fill="#1F408E" d="M361.326,392.965c11.045,0,20-8.954,20-20c0-11.045-8.954-20-20-20s-20,8.955-20,20
				C341.326,384.01,350.281,392.965,361.326,392.965z"/>
			<path id="path4886" fill="#FFFFFF" d="M361.326,389.694c9.239,0,16.73-7.49,16.73-16.729c0-9.24-7.491-16.729-16.73-16.729
				s-16.729,7.49-16.729,16.729C344.597,382.204,352.087,389.694,361.326,389.694z"/>
			<path id="path4888" fill="#1F408E" d="M370.317,363.406h-17.981v3.115h6.959v19.597h4.062v-19.597h6.96V363.406z"/>
		</g>
	</g>
</g>
<g id="Vrstva_2">
</g>
</svg>
