<svg enable-background="new 0 0 48 48" height="48" viewBox="0 0 48 48" width="48" xmlns="http://www.w3.org/2000/svg"><path d="m26 24c0-.112-.016-.221-.033-.328l17.741-2.957c-.509-3.07-1.709-5.901-3.447-8.33l-14.637 10.455c-.128-.179-.285-.335-.464-.464l10.455-14.637c-2.43-1.738-5.26-2.938-8.331-3.447l-2.957 17.741c-.106-.018-.215-.033-.327-.033s-.221.015-.328.033l-2.957-17.741c-3.07.509-5.901 1.709-8.33 3.447l10.455 14.637c-.179.128-.335.285-.464.464l-14.637-10.455c-1.738 2.429-2.938 5.26-3.447 8.33l17.741 2.957c-.018.107-.033.216-.033.328s.015.221.033.328l-17.741 2.956c.509 3.071 1.709 5.901 3.447 8.331l14.637-10.455c.128.179.285.336.464.464l-10.455 14.638c2.429 1.737 5.26 2.938 8.33 3.446l2.957-17.741c.107.017.216.033.328.033s.221-.016.328-.033l2.957 17.741c3.071-.509 5.901-1.709 8.331-3.446l-10.456-14.638c.179-.128.336-.285.464-.464l14.637 10.455c1.738-2.43 2.938-5.26 3.447-8.331l-17.741-2.957c.017-.106.033-.215.033-.327z"/></svg>