<svg enable-background="new 0 0 48 48" height="48" viewBox="0 0 48 48" width="48" xmlns="http://www.w3.org/2000/svg"><path d="m42 24c0 9.941-8.059 18-18 18s-18-8.059-18-18 8.059-18 18-18 18 8.059 18 18z" fill="#fff"/><path d="m24 4c-11.045 0-20 8.954-20 20s8.955 20 20 20c11.046 0 20-8.954 20-20s-8.954-20-20-20zm0 36.655c-9.183 0-16.654-7.472-16.654-16.655s7.471-16.654 16.654-16.654c9.184 0 16.655 7.471 16.655 16.654s-7.471 16.655-16.655 16.655z" fill="#1e1e1e"/><path d="m34 16.218v-2.218h-2.218l-7.782 7.781-7.781-7.781h-2.219v20h3.302v-14.48l6.698 6.698z" fill="#1e1e1e"/><path d="m18.566 22.801v4.435l5.434 5.435 6.698-6.698v8.021h3.302v-15.76l-10 10z" fill="#13171b"/></svg>