<?xml version="1.0" encoding="utf-8"?>
<!-- Generator: Adobe Illustrator 15.0.2, SVG Export Plug-In . SVG Version: 6.00 Build 0)  -->
<!DOCTYPE svg PUBLIC "-//W3C//DTD SVG 1.1//EN" "http://www.w3.org/Graphics/SVG/1.1/DTD/svg11.dtd">
<svg version="1.1" id="Vrstva_3" xmlns="http://www.w3.org/2000/svg" xmlns:xlink="http://www.w3.org/1999/xlink" x="0px" y="0px"
	 width="48px" height="48px" viewBox="0 0 48 48" enable-background="new 0 0 48 48" xml:space="preserve">
<path d="M44,40c0,2.209-1.791,4-4,4H8c-2.209,0-4-1.791-4-4l2-8c0-2.209,1.791-4,4-4h28c2.209,0,4,1.791,4,4L44,40z"/>
<path d="M38,24c0,2.209-1.791,4-4,4H14c-2.209,0-4-1.791-4-4v-4c0-2.209,1.791-4,4-4c0,0,2-2,10-2s10,2,10,2c2.209,0,4,1.791,4,4V24
	z"/>
</svg>
