<svg xmlns="http://www.w3.org/2000/svg" xmlns:xlink="http://www.w3.org/1999/xlink" x="0px" y="0px" width="36px" height="46px" viewBox="-0.771 -1 36 46">
  <path fill="#755741" d="M0.899,0.182c-2.345,1.354,0.057,9.914,5.358,19.265c0.281-3.053,2.846-5.444,5.972-5.444
	c1.021,0,1.984,0.257,2.826,0.708C9.573,5.304,3.266-1.186,0.899,0.182z M15.549,15.005c1.613,1.075,2.68,2.911,2.68,4.996
	s-1.064,3.92-2.68,4.996c10.896-0.043,19.68-2.261,19.68-4.996C35.229,17.268,26.446,15.049,15.549,15.005z M6.257,20.557
	c-5.3,9.351-7.703,17.909-5.358,19.264c2.367,1.365,8.672-5.121,14.155-14.525c-0.843,0.45-1.804,0.707-2.825,0.707
	C9.103,26.001,6.537,23.61,6.257,20.557z"/>
  <circle fill="#755741" cx="12.229" cy="20.001" r="3"/>
  <path fill="#755741" d="M8.408,37.535L7.229,45h8l-0.792-15.042C12.4,32.971,10.339,35.545,8.408,37.535z"/>
</svg>