<?xml version="1.0" encoding="utf-8"?>
<!-- Generator: Adobe Illustrator 15.0.2, SVG Export Plug-In . SVG Version: 6.00 Build 0)  -->
<!DOCTYPE svg PUBLIC "-//W3C//DTD SVG 1.1//EN" "http://www.w3.org/Graphics/SVG/1.1/DTD/svg11.dtd">
<svg version="1.1" xmlns="http://www.w3.org/2000/svg" xmlns:xlink="http://www.w3.org/1999/xlink" x="0px" y="0px" width="64px"
	 height="64px" viewBox="0 0 64 64" enable-background="new 0 0 64 64" xml:space="preserve">
<g id="Vrstva_3">
	<path id="bg" fill="#FFFFFF" d="M54,17H42h-4v4v6c0,3.309-2.691,6-6,6s-6-2.691-6-6l0-6l0-4h-4H10H6v4v6v4h4h2.401
		C14.26,40.117,22.342,47,32,47s17.739-6.883,19.599-16H54h4v-4v-6v-4H54z"/>
</g>
<g id="Vrstva_3_kopie">
	<g>
		<path fill="#755741" d="M42,21v6c0,5.514-4.486,10-10,10c-5.514,0-10-4.486-10-10h0v-6H10v6h6c0,8.836,7.164,16,16,16
			c8.837,0,16-7.164,16-16h6v-6H42z"/>
	</g>
</g>
</svg>
