<?xml version="1.0" encoding="utf-8"?>
<!-- Generator: Adobe Illustrator 15.0.2, SVG Export Plug-In . SVG Version: 6.00 Build 0)  -->
<!DOCTYPE svg PUBLIC "-//W3C//DTD SVG 1.1//EN" "http://www.w3.org/Graphics/SVG/1.1/DTD/svg11.dtd">
<svg version="1.1" xmlns="http://www.w3.org/2000/svg" xmlns:xlink="http://www.w3.org/1999/xlink" x="0px" y="0px" width="48px"
	 height="48px" viewBox="0 0 48 48" enable-background="new 0 0 48 48" xml:space="preserve">
<g id="Vrstva_3">
	<path fill="#D9261C" d="M14.532,28.58l18.822,0.072L23.91,38L14.532,28.58z M41.074,21.033l-6.581-0.025l-0.029,6.548
		L41.074,21.033z M6.879,20.901l6.566,0.025l-0.028,6.537L6.879,20.901z M48,14.185l-13.477-0.052l-0.03,5.764l7.705,0.029
		L48,14.185z M0,14l13.471,0.052l-0.022,5.764l-7.683-0.03L0,14z M23.97,19.514l5.172-5.401l4.258,0.015l-0.045,13.412l-3.823-0.016
		l0.03-8.299l-5.606,5.648l-5.576-5.69l-0.03,8.299l-3.811-0.015l0.053-13.411l4.253,0.018L23.97,19.514z"/>
</g>
<g id="Vrstva_2">
</g>
</svg>
