<svg enable-background="new 0 0 48 48" height="48" viewBox="0 0 48 48" width="48" xmlns="http://www.w3.org/2000/svg"><path d="m44 42c-2.221 0-3.46-.74-4.359-1.28-.741-.44-1.202-.72-2.301-.72-1.119 0-1.561.26-2.3.72-.92.54-2.14 1.28-4.36 1.28s-3.459-.74-4.359-1.28c-.74-.439-1.2-.72-2.3-.72-1.12 0-1.56.26-2.3.72-.921.54-2.161 1.28-4.381 1.28s-3.46-.74-4.36-1.28c-.74-.46-1.2-.72-2.3-.72s-1.56.26-2.3.72c-.92.54-2.16 1.28-4.38 1.28v-4c1.12 0 1.56-.26 2.3-.72.92-.54 2.16-1.28 4.38-1.28s3.46.74 4.36 1.28c.74.46 1.18.72 2.3.72s1.56-.26 2.3-.72c.92-.54 2.16-1.28 4.38-1.28s3.46.74 4.36 1.28c.74.439 1.2.72 2.3.72s1.561-.26 2.301-.72c.899-.54 2.139-1.28 4.359-1.28 2.221 0 3.46.74 4.36 1.28.739.46 1.18.72 2.3.72z"/><path d="m39.862 23c-.365-2.919-1.515-5.588-3.233-7.8l1.514-1.514-2.829-2.829-1.514 1.514c-2.211-1.719-4.881-2.868-7.8-3.233v-2.138h-4v2.138c-2.918.365-5.588 1.515-7.8 3.233l-1.514-1.514-2.829 2.829 1.514 1.514c-1.719 2.211-2.869 4.881-3.233 7.8h-2.138v4h2.138c.225 1.799.75 3.502 1.521 5.063.318-.037.652-.063 1.021-.063 2.22 0 3.46.74 4.36 1.28.74.46 1.18.72 2.3.72.191 0 .357-.01.514-.025l4.146-4.147v2.413c.571-.145 1.231-.241 2.02-.241.771 0 1.418.093 1.98.232v-2.404l4.141 4.142c.164.017.338.03.539.03 1.1 0 1.561-.26 2.301-.72.899-.54 2.139-1.28 4.359-1.28.362 0 .689.025 1.003.061.77-1.56 1.295-3.263 1.52-5.061h2.137v-4zm-13.862-9.819c1.818.307 3.497 1.02 4.941 2.049l-4.941 4.941zm-4 0v6.991l-4.94-4.94c1.444-1.031 3.122-1.744 4.94-2.051zm-7.77 18.76c-1.029-1.444-1.742-3.123-2.049-4.941h6.991zm-2.049-8.941c.308-1.818 1.021-3.496 2.05-4.94l4.94 4.94zm11.819 4c-1.657 0-3-1.345-3-3 0-1.657 1.343-3 3-3 1.655 0 3 1.343 3 3 0 1.655-1.345 3-3 3zm9.771 4.941-4.943-4.941h6.991c-.306 1.818-1.019 3.498-2.048 4.941zm-4.943-8.941 4.941-4.941c1.029 1.444 1.742 3.123 2.05 4.941z"/></svg>