<svg enable-background="new 0 0 48 48" height="48" viewBox="0 0 48 48" width="48" xmlns="http://www.w3.org/2000/svg"><path d="m44 44c-2.221 0-3.46-.74-4.359-1.28-.741-.44-1.202-.72-2.301-.72-1.119 0-1.561.26-2.3.72-.92.54-2.14 1.28-4.36 1.28s-3.459-.74-4.359-1.28c-.741-.44-1.201-.72-2.301-.72-1.12 0-1.56.26-2.299.72-.921.54-2.161 1.28-4.381 1.28s-3.46-.74-4.36-1.28c-.74-.46-1.2-.72-2.3-.72s-1.56.26-2.3.72c-.92.54-2.16 1.28-4.38 1.28v-4c1.12 0 1.56-.26 2.3-.72.92-.54 2.16-1.28 4.38-1.28s3.46.74 4.36 1.28c.74.46 1.18.72 2.3.72s1.56-.26 2.3-.72c.92-.54 2.16-1.28 4.38-1.28 2.221 0 3.461.74 4.36 1.28.74.439 1.2.72 2.3.72s1.561-.26 2.301-.72c.899-.54 2.139-1.28 4.359-1.28 2.221 0 3.46.74 4.36 1.28.739.46 1.18.72 2.3.72z"/><path d="m4 4h25v4h-25z"/><path d="m5 6h13s6 3 6 13c0 5-6 19-6 19s2.516-9.906 1-19c-1-6-14-13-14-13z"/><path d="m13 5h13s6 3 6 13c0 5-6 18-6 18s2.516-8.906 1-18c-1-6-14-13-14-13z"/><path d="m21 4h13s6 3 6 13c0 5-6 17-6 17s2.516-7.906 1-17c-1-6-14-13-14-13z"/></svg>