<svg enable-background="new 0 0 48 48" height="48" viewBox="0 0 48 48" width="48" xmlns="http://www.w3.org/2000/svg"><path d="m7.737 7.737h32.527v32.527h-32.527z" transform="matrix(-.7071 .7071 -.7071 -.7071 57.9415 23.9998)"/><path d="m26.809 19.122v14.948c0 1.334.15 2.188.465 2.563.308.376.914.583 1.824.633v.734h-10.195v-.732c.831-.014 1.448-.258 1.855-.732.26-.309.389-1.129.389-2.465v-10.998c0-1.332-.153-2.188-.463-2.56-.307-.373-.903-.586-1.78-.633v-.758zm-2.833-9.122c.877 0 1.622.304 2.233.915.609.611.914 1.345.914 2.207 0 .861-.309 1.595-.928 2.196-.615.602-1.357.902-2.219.902-.861 0-1.592-.301-2.194-.902-.602-.602-.902-1.335-.902-2.196 0-.862.3-1.595.902-2.207.602-.611 1.333-.915 2.194-.915z" fill="#fff"/></svg>