<?xml version="1.0" encoding="utf-8"?>
<!-- Generator: Adobe Illustrator 15.0.2, SVG Export Plug-In . SVG Version: 6.00 Build 0)  -->
<!DOCTYPE svg PUBLIC "-//W3C//DTD SVG 1.1//EN" "http://www.w3.org/Graphics/SVG/1.1/DTD/svg11.dtd">
<svg version="1.1" id="Vrstva_3" xmlns="http://www.w3.org/2000/svg" xmlns:xlink="http://www.w3.org/1999/xlink" x="0px" y="0px"
	 width="48px" height="48px" viewBox="0 0 48 48" enable-background="new 0 0 48 48" xml:space="preserve">
<path d="M14.2,10c-2.799,0-2.799,2.801,0,2.801H25.4v2.8c-0.776,0-1.4,0.625-1.4,1.4V18.4h-7h-2.883h-0.109
	c-0.637-2.463-2.854-4.197-5.409-4.2c-3.093,0-5.6,2.508-5.6,5.601s2.507,5.6,5.6,5.6c1.042-0.003,2.063-0.296,2.948-0.848
	l6.852,9.248C21.22,37.864,26.291,38,28.2,38h14c0,0,2.8,0,2.8-2.799v-2.784c0-2.051-0.354-3.169-1.399-4.217l-8.4-8.399
	c0,0-1.656-1.4-3.566-1.4h-2.033v-1.399c0-0.775-0.624-1.4-1.4-1.4v-2.8h11.199c2.801,0,2.801-2.801,0-2.801H14.2z M8.6,17.001
	c1.546,0,2.8,1.254,2.8,2.8c0,1.547-1.254,2.8-2.8,2.8s-2.8-1.253-2.8-2.8C5.8,18.255,7.054,17.001,8.6,17.001z M31.001,21.2
	c1.399,0,2.209,0.906,2.799,1.4l7.001,7.001h-9.8c0,0-2.801,0-2.801-2.801v-2.8C28.2,24.001,28.2,21.2,31.001,21.2z"/>
</svg>
