<?xml version="1.0" encoding="utf-8"?>
<!-- Generator: Adobe Illustrator 15.0.2, SVG Export Plug-In . SVG Version: 6.00 Build 0)  -->
<!DOCTYPE svg PUBLIC "-//W3C//DTD SVG 1.1//EN" "http://www.w3.org/Graphics/SVG/1.1/DTD/svg11.dtd">
<svg version="1.1" xmlns="http://www.w3.org/2000/svg" xmlns:xlink="http://www.w3.org/1999/xlink" x="0px" y="0px" width="48px"
	 height="48px" viewBox="0 0 48 48" enable-background="new 0 0 48 48" xml:space="preserve">
<g id="Vrstva_3">
	<g>
		<path id="path273" d="M41.092,18.543l-5.244-1.103l-2.758,4.595l-0.571-5.329l-5.223-1.203l4.892-2.19l-0.47-5.338l3.594,3.975
			l4.933-2.097l-2.67,4.647L41.092,18.543z"/>
		<path id="path278" d="M43.07,32.12c-4.655,10.258-16.873,14.739-27.161,9.974C5.622,37.327,1.14,25.109,5.906,14.821
			C8.336,9.574,12.315,5.968,17.931,4c-0.646,0.546-1.285,1.113-1.985,1.836c-7.254,7.486-7.066,19.45,0.42,26.705
			C23.853,39.795,35.816,39.607,43.07,32.12z"/>
	</g>
</g>
<g id="Vrstva_2">
</g>
</svg>
