<svg height="46" viewBox="-.771 -1 36 46" width="36" xmlns="http://www.w3.org/2000/svg"><g fill="#755741"><path d="m.899.182c-2.345 1.354.057 9.914 5.358 19.265.281-3.053 2.846-5.444 5.972-5.444 1.021 0 1.984.257 2.826.708-5.482-9.407-11.789-15.897-14.156-14.529zm14.65 14.823c1.613 1.075 2.68 2.911 2.68 4.996s-1.064 3.92-2.68 4.996c10.896-.043 19.68-2.261 19.68-4.996 0-2.733-8.783-4.952-19.68-4.996zm-9.292 5.552c-5.3 9.351-7.703 17.909-5.358 19.264 2.367 1.365 8.672-5.121 14.155-14.525-.843.45-1.804.707-2.825.707-3.126-.002-5.692-2.393-5.972-5.446z"/><circle cx="12.229" cy="20.001" r="3"/><path d="m8.408 37.535-1.179 7.465h8l-.792-15.042c-2.037 3.013-4.098 5.587-6.029 7.577z"/></g></svg>