<svg enable-background="new 0 0 48 48" height="48" viewBox="0 0 48 48" width="48" xmlns="http://www.w3.org/2000/svg"><path d="m0 40.083h48v4h-48z"/><circle cx="13" cy="36.083" r="5"/><circle cx="37" cy="36.083" r="5"/><circle cx="25" cy="36.083" r="5"/><path d="m4 32v-4h-4v3.917 2.083 2h46v-4z"/><path d="m20 20h24v13h-24z"/><path d="m42 20.083h4v8h-4z"/><path d="m38 8h6v13h-6z"/><path d="m36 4h10v4h-10z"/><path d="m0 3.917h22v4.083h-22z"/><path d="m26 16h6v8h-6z"/><path d="m16 8v12h-6v-12h-4v25h14v-25z"/></svg>