<svg enable-background="new 0 0 48 48" height="48" viewBox="0 0 48 48" width="48" xmlns="http://www.w3.org/2000/svg"><path d="m6 6h36v36h-36z" fill="#039"/><path d="m25.367 39.199c2.339-.23 4.521-.975 6.255-2.133.87-.58 2.099-1.786 2.634-2.582.782-1.164 1.35-2.562 1.651-4.071.119-.588.134-1.614.158-11.162l.025-10.516h-7.205v9.63c0 6.33-.027 9.875-.082 10.355-.095.853-.376 1.876-.662 2.406-.359.664-1.021 1.296-1.709 1.637-1.899.927-4.678.595-5.995-.725-.671-.671-1.133-1.75-1.326-3.104-.046-.332-.076-4.227-.077-10.365v-9.834h-7.125v9.959c0 9.991.02 10.835.274 12.097.631 3.116 2.576 5.6 5.553 7.082 2.183 1.09 5.007 1.579 7.631 1.326z" fill="#fff"/></svg>