<svg enable-background="new 0 0 48 48" height="48" viewBox="0 0 48 48" width="48" xmlns="http://www.w3.org/2000/svg"><path d="m8.775 2.431-1.977 2.543c4.62 3.875 7.202 11.554 7.202 19.026 0 7.473-2.582 15.151-7.201 19.026l1.977 2.543c6.646-3.901 11.224-12.091 11.224-21.569 0-9.477-4.578-17.667-11.225-21.569z"/><path d="m39.225 2.431 1.978 2.542c-4.621 3.876-7.203 11.555-7.203 19.027 0 7.473 2.582 15.151 7.201 19.026l-1.977 2.543c-6.646-3.901-11.224-12.091-11.224-21.569 0-9.477 4.578-17.667 11.225-21.569z"/></svg>