<?xml version="1.0" encoding="utf-8"?>
<!-- Generator: Adobe Illustrator 15.0.2, SVG Export Plug-In . SVG Version: 6.00 Build 0)  -->
<!DOCTYPE svg PUBLIC "-//W3C//DTD SVG 1.1//EN" "http://www.w3.org/Graphics/SVG/1.1/DTD/svg11.dtd">
<svg version="1.1" id="Vrstva_2" xmlns="http://www.w3.org/2000/svg" xmlns:xlink="http://www.w3.org/1999/xlink" x="0px" y="0px"
	 width="48px" height="48px" viewBox="0 0 48 48" enable-background="new 0 0 48 48" xml:space="preserve">
<g>
	<g>
		<g>
			<path d="M12.67,1.181c-2.345,1.354,0.057,9.914,5.358,19.265c0.281-3.053,2.846-5.444,5.972-5.444
				c1.022,0,1.984,0.257,2.826,0.708C21.344,6.303,15.037-0.186,12.67,1.181z M27.32,16.005c1.614,1.075,2.68,2.911,2.68,4.996
				s-1.065,3.92-2.68,4.996C38.217,25.954,47,23.736,47,21.001C47,18.267,38.217,16.049,27.32,16.005z M18.028,21.556
				c-5.3,9.351-7.703,17.909-5.358,19.264c2.367,1.366,8.672-5.121,14.155-14.525c-0.843,0.45-1.804,0.707-2.825,0.707
				C20.874,27.001,18.308,24.609,18.028,21.556z"/>
		</g>
	</g>
	<circle cx="24" cy="21.001" r="3"/>
</g>
<g>
	<g>
		<path d="M20.179,38.534L19,46h8l-0.792-15.042C24.171,33.971,22.11,36.545,20.179,38.534z"/>
	</g>
</g>
</svg>
