<svg enable-background="new 0 0 48 48" height="48" viewBox="0 0 48 48" width="48" xmlns="http://www.w3.org/2000/svg"><path d="m0 1.149v-.589s0-.11.112-.11h1.098s.112 0 .112.11v.587s0 .112-.112.112h-1.098c0-.001-.112.002-.112-.11" fill="#41a6ce" transform="matrix(36.31272875 0 0 -36.31272875 .00000021816 55.01530203917)"/><g fill="#fff"><path d="m-1.887 1.099s-.019.037-.041.035c0 0-.045.005-.045-.041v-.534s.001-.053.05-.053h.162v.372z" transform="matrix(36.31272875 0 0 -36.31272875 73.86009049566 53.05441468667)"/><path d="m-1.571.587s.018-.005.03-.028l.249-.427s.013-.035.067-.035h.185c0 .001-.009 0-.013.013l-.261.445s-.013.032-.053.032z" transform="matrix(36.31272875 0 0 -36.31272875 61.51376272066 33.04610114542)"/><path d="m-7.119 4.551s.087-.151.086-.151.015-.031.037 0l.118.189v.226s.002.041-.033.041c0 0-.023.004-.05-.04z" transform="matrix(36.31272875 0 0 -36.31272875 278.70019337441 188.21039109417)"/><path d="m-10.058.587s.026-.009.026-.047v-.586h.399s.046-.004.046.044v.543s.001.046-.046.046z" transform="matrix(36.31272875 0 0 -36.31272875 393.73891805441 33.04610114542)"/></g></svg>