<?xml version="1.0" encoding="utf-8"?>
<!-- Generator: Adobe Illustrator 15.0.2, SVG Export Plug-In . SVG Version: 6.00 Build 0)  -->
<!DOCTYPE svg PUBLIC "-//W3C//DTD SVG 1.1//EN" "http://www.w3.org/Graphics/SVG/1.1/DTD/svg11.dtd">
<svg version="1.1" id="Vrstva_3" xmlns="http://www.w3.org/2000/svg" xmlns:xlink="http://www.w3.org/1999/xlink" x="0px" y="0px"
	 width="48px" height="48px" viewBox="0 0 48 48" enable-background="new 0 0 48 48" xml:space="preserve">
<path d="M22,34h4v-2h2c1.1,0,2-0.9,2-2v-6c0-1.1-0.9-2-2-2h-6v-2h8v-4h-4v-2h-4v2h-2c-1.1,0-2,0.9-2,2v6c0,1.1,0.9,2,2,2h6v2h-8v4h4
	V34z M40,8H8c-2.22,0-3.98,1.78-3.98,4L4,36c0,2.22,1.78,4,4,4h32c2.221,0,4-1.78,4-4V12C44,9.78,42.221,8,40,8z M40,36H8V12h32V36z
	"/>
</svg>
