<?xml version="1.0" encoding="utf-8"?>
<!-- Generator: Adobe Illustrator 15.0.2, SVG Export Plug-In . SVG Version: 6.00 Build 0)  -->
<!DOCTYPE svg PUBLIC "-//W3C//DTD SVG 1.1//EN" "http://www.w3.org/Graphics/SVG/1.1/DTD/svg11.dtd">
<svg version="1.1" xmlns="http://www.w3.org/2000/svg" xmlns:xlink="http://www.w3.org/1999/xlink" x="0px" y="0px" width="48px"
	 height="48px" viewBox="0 0 48 48" enable-background="new 0 0 48 48" xml:space="preserve">
<g id="Vrstva_3">
	<g>
		<rect x="6" y="6" fill="#003399" width="36" height="36"/>
		<path fill="#FFFFFF" d="M25.367,39.199c2.339-0.23,4.521-0.975,6.255-2.133c0.87-0.58,2.099-1.786,2.634-2.582
			c0.782-1.164,1.35-2.562,1.651-4.071c0.119-0.588,0.134-1.614,0.158-11.162l0.025-10.516h-7.205v9.63
			c0,6.33-0.027,9.875-0.082,10.355c-0.095,0.853-0.376,1.876-0.662,2.406c-0.359,0.664-1.021,1.296-1.709,1.637
			c-1.899,0.927-4.678,0.595-5.995-0.725c-0.671-0.671-1.133-1.75-1.326-3.104c-0.046-0.332-0.076-4.227-0.077-10.365V8.735h-7.125
			v9.959c0,9.991,0.02,10.835,0.274,12.097c0.631,3.116,2.576,5.6,5.553,7.082C19.919,38.963,22.743,39.452,25.367,39.199z"/>
	</g>
</g>
<g id="Vrstva_2">
</g>
</svg>
