<?xml version="1.0" encoding="UTF-8" standalone="no"?>
<!-- Generator: Adobe Illustrator 26.4.1, SVG Export Plug-In . SVG Version: 6.00 Build 0)  -->

<svg
   width="16"
   height="16"
   inkscape:version="1.1 (c68e22c387, 2021-05-23)"
   sodipodi:docname="ic_snowmobile.svg"
   version="1.1"
   viewBox="0 0 16 16"
   xml:space="preserve"
   id="svg8"
   xmlns:inkscape="http://www.inkscape.org/namespaces/inkscape"
   xmlns:sodipodi="http://sodipodi.sourceforge.net/DTD/sodipodi-0.dtd"
   xmlns="http://www.w3.org/2000/svg"
   xmlns:svg="http://www.w3.org/2000/svg"><defs
   id="defs10" /><sodipodi:namedview
   bordercolor="#111111"
   borderopacity="1"
   inkscape:current-layer="svg8"
   inkscape:cx="6.592233"
   inkscape:cy="6.4368932"
   inkscape:pagecheckerboard="1"
   inkscape:pageopacity="0"
   inkscape:pageshadow="0"
   inkscape:window-height="1009"
   inkscape:window-maximized="1"
   inkscape:window-width="1920"
   inkscape:window-x="1912"
   inkscape:window-y="-8"
   inkscape:zoom="51.5"
   pagecolor="#ffffff"
   showgrid="false"
   id="namedview2" />
<style
   type="text/css"
   id="style4">
	.st0{fill:#231F20;}
</style>
<path
   class="st0"
   d="M 8.299445,9.2415 C 8.236291,9.36781 8.236291,9.49413 8.236291,9.62044 c 0,0.56842 0.4420812,1.0105 1.0104799,1.0105 h 5.2417961 c 0.568388,0 1.01048,-0.4421 1.01048,-1.0105 0,-0.31579 -0.157887,-0.63157 -0.410502,-0.82104 -0.03158,0.03158 -0.03158,0.06316 -0.06315,0.06316 -0.157887,0.15789 -0.442082,0.34736 -0.757845,0.34736 H 8.2994701 Z M 0.8472931,8.57835 c 0.1894663,0 0.3157738,0.15789 0.3157738,0.31579 v 0.09474 c 0,0.53684 0.4420812,0.97894 0.9788905,0.97894 H 3.2787348 L 3.720816,8.79942 c -0.2841944,0 -0.5683887,-0.09474 -0.7894243,-0.28421 L 1.1631269,7.15731 C 2.5840986,5.10471 5.3944427,4.47311 5.3944427,4.47311 L 7.194307,1.75731 C 7.7311164,0.65201 7.7311164,2.54678 7.7311164,2.54678 H 7.6048089 c -0.3473432,0 -0.6631169,0.18947 -0.7894244,0.53684 -0.1894662,0.41052 -0.031576,0.85262 0.3473432,1.1368 l 0.031576,0.031574 0.6315374,1.2316 -1.1683767,1.3895 c -0.1578869,0.18948 -0.2210356,0.41053 -0.1894663,0.66316 0.031578,0.22105 0.1263075,0.4421 0.3157737,0.59999 0.157887,0.12631 0.3473431,0.18947 0.5683888,0.18947 0.2841943,0 0.5368093,-0.12632 0.6946962,-0.31579 l 1.0420792,-1.2316 c 0,0 1.736766,-0.031574 1.736766,-0.031574 0.347343,0 0.663117,-0.15789 0.947311,-0.47368 l 0.03158,-0.031573 V 6.209912 c 0.09473,-0.1579 0.157888,-0.28421 0.221036,-0.4421 H 13.4466 l 1.357772,2.2737 c 0.03158,0.06316 0.03158,0.18947 0.03158,0.25263 0,0.25263 -0.347343,0.50526 -0.568389,0.50526 H 4.3208611 l -0.4420812,1.2 h 3.2208359 c 0.1894663,0 0.3157738,0.15789 0.3157738,0.31578 0,0.18947 -0.1578868,0.31579 -0.3157738,0.31579 H 2.1420144 c -0.9157318,0 -1.6419674,-0.72631 -1.6419674,-1.6421 v -0.09474 c 0.0315794,-0.18947 0.15788686,-0.31579 0.34734309,-0.31579 z m 7.6732476,-3.2526 -1.51567,1.8 C 6.8469839,7.31522 6.8785632,7.59943 7.0680235,7.75732 7.2574898,7.91521 7.5416841,7.88363 7.6995609,7.69416 L 8.8679377,6.30466 10.794099,6.273081 c 0.221036,0 0.410503,-0.094732 0.599958,-0.31579 0.126308,-0.18947 0.221036,-0.41052 0.189467,-0.66315 l -0.157887,-1.7684 c 0,-0.25263 -0.09473,-0.4421 -0.315774,-0.63157 -0.221035,-0.15789 -0.442081,-0.25263 -0.726276,-0.25263 l -0.5683881,0.06316 c -0.4736506,0.03157 -1.5472692,0.59999 -1.8946623,0.37894 -0.3157737,-0.18947 -0.5999581,-0.06316 -0.6946962,0.15789 -0.09473,0.22105 -0.031576,0.4421 0.1894662,0.59999 0.6315375,0.37894 1.1367774,0.12631 1.8314636,-0.031576 l 0.5368094,-0.1579 0.1263075,1.5158 z M 11.015091,1.97845 C 11.330865,1.59951 11.299285,1.03109 10.920363,0.71535 10.541441,0.39956 9.9730514,0.43114 9.6572881,0.81009 9.3415144,1.18903 9.3730937,1.75745 9.7520192,2.07319 10.130942,2.38898 10.69933,2.3574 11.015094,1.978454 Z"
   fill="#ee5b00"
   id="path6"
   style="fill:#ee5900;fill-opacity:1;stroke-width:0.999992" />
</svg>
