<?xml version="1.0" encoding="utf-8"?>
<!-- Generator: Adobe Illustrator 15.0.2, SVG Export Plug-In . SVG Version: 6.00 Build 0)  -->
<!DOCTYPE svg PUBLIC "-//W3C//DTD SVG 1.1//EN" "http://www.w3.org/Graphics/SVG/1.1/DTD/svg11.dtd">
<svg version="1.1" id="Vrstva_3" xmlns="http://www.w3.org/2000/svg" xmlns:xlink="http://www.w3.org/1999/xlink" x="0px" y="0px"
	 width="48px" height="48px" viewBox="0 0 48 48" enable-background="new 0 0 48 48" xml:space="preserve">
<g>
	<circle cx="31" cy="32" r="2"/>
	<circle cx="17" cy="32" r="2"/>
	<path d="M14.02,18h20v10h-20V18z"/>
	<path d="M35.6,5.6C32,4.18,27.721,4,24,4c-3.72,0-8,0.18-11.6,1.6C7.06,7.68,4,12.1,4,17.72V44h40V17.72
		C44,12.1,40.939,7.68,35.6,5.6z M36,31.76c0,2.9-2.359,5.24-5.26,5.24L33,39.24V40h-3l-3-3h-5.66l-3,3H15v-0.76L17.24,37
		C14.36,37,12,34.641,12,31.76V18c0-5.26,6-6,12-6c6.641,0,12,0.76,12,6V31.76z"/>
</g>
</svg>
