<?xml version="1.0" encoding="utf-8"?>
<!-- Generator: Adobe Illustrator 15.0.2, SVG Export Plug-In . SVG Version: 6.00 Build 0)  -->
<!DOCTYPE svg PUBLIC "-//W3C//DTD SVG 1.1//EN" "http://www.w3.org/Graphics/SVG/1.1/DTD/svg11.dtd">
<svg version="1.1" id="Vrstva_3" xmlns="http://www.w3.org/2000/svg" xmlns:xlink="http://www.w3.org/1999/xlink" x="0px" y="0px"
	 width="48px" height="48px" viewBox="0 0 48 48" enable-background="new 0 0 48 48" xml:space="preserve">
<g>
	<g>
		<path d="M42,40V4H6v36H4v4h16l0-8h8v8h16v-4H42z M30,16h-8v2h6c1.1,0,2,0.9,2,2V26c0,1.1-0.9,2-2,2h-2.002v2H22v-2h-4v-4h7.998v-2
			H20c-1.1,0-2-0.9-2-2V14c0-1.1,0.9-2,2-2h2v-2h3.998v2H30V16z"/>
	</g>
</g>
</svg>
