<?xml version="1.0" encoding="utf-8"?>
<!-- Generator: Adobe Illustrator 15.0.2, SVG Export Plug-In . SVG Version: 6.00 Build 0)  -->
<!DOCTYPE svg PUBLIC "-//W3C//DTD SVG 1.1//EN" "http://www.w3.org/Graphics/SVG/1.1/DTD/svg11.dtd">
<svg version="1.1" id="Vrstva_3" xmlns="http://www.w3.org/2000/svg" xmlns:xlink="http://www.w3.org/1999/xlink" x="0px" y="0px"
	 width="48px" height="48px" viewBox="0 0 48 48" enable-background="new 0 0 48 48" xml:space="preserve">
<path d="M39.04,14.46l0.021-0.021L31.62,7L29.5,9.12l4.221,4.22C31.84,14.061,30.5,15.859,30.5,18c0,2.76,2.24,5,5,5
	c0.721,0,1.38-0.16,2-0.42V37c0,1.1-0.9,2-2,2s-2-0.9-2-2v-9c0-2.2-1.8-4-4-4h-2V10c0-2.2-1.8-4-4-4h-12c-2.2,0-4,1.8-4,4v32h20V27
	h3v10c0,2.76,2.24,5,5,5s5-2.24,5-5V18C40.5,16.62,39.939,15.359,39.04,14.46z M23.5,20h-12V10h12V20z M35.5,20c-1.1,0-2-0.9-2-2
	s0.9-2,2-2s2,0.9,2,2S36.6,20,35.5,20z"/>
</svg>
