<svg enable-background="new 0 0 48 48" height="48" viewBox="0 0 48 48" width="48" xmlns="http://www.w3.org/2000/svg"><path d="m41.092 18.543-5.244-1.103-2.758 4.595-.571-5.329-5.223-1.203 4.892-2.19-.47-5.338 3.594 3.975 4.933-2.097-2.67 4.647z"/><path d="m43.07 32.12c-4.655 10.258-16.873 14.739-27.161 9.974-10.287-4.767-14.769-16.985-10.003-27.273 2.43-5.247 6.409-8.853 12.025-10.821-.646.546-1.285 1.113-1.985 1.836-7.254 7.486-7.066 19.45.42 26.705 7.487 7.254 19.45 7.066 26.704-.421z"/></svg>