<svg enable-background="new 0 0 48 48" height="48" viewBox="0 0 48 48" width="48" xmlns="http://www.w3.org/2000/svg"><path d="m36 16c0 .896-3.921 4.402-5 8-1.33 4.432-.377 9-7 9-6.621 0-5.669-4.57-7-9-1.081-3.598-5-7.103-5-8 0-2 4-6 12-6s12 4.442 12 6z"/><path d="m37.558 17.456c-.306.528-.765 1.106-1.364 1.86-1.151 1.445-2.728 3.424-3.277 5.259-.256.851-.426 1.751-.59 2.625-.268 1.422-.58 3.07-1.399 4.484 10.002 2.017 14.414 7.63 16.072 4.316 1.188-2.375-2.291-12.225-9.442-18.544zm-22.474 7.119c-.551-1.835-2.127-3.814-3.277-5.259-.572-.719-1.017-1.278-1.322-1.786-7.18 6.317-10.675 16.089-9.485 18.47 1.64 3.279 6.645-2.178 16.11-4.25-.848-1.43-1.165-3.107-1.437-4.551-.163-.873-.333-1.773-.589-2.624z"/></svg>