<svg enable-background="new 0 0 48 48" height="48" viewBox="0 0 48 48" width="48" xmlns="http://www.w3.org/2000/svg"><path clip-rule="evenodd" d="m24.122 43.365c-.028-.015-9.818-4.912.293-25.123.675-1.349 10.084 2.528 10.797 2.885.715.357 9.397 5.574 8.754 6.86-10.126 20.24-19.816 15.393-19.844 15.378zm3.408-16.717c-1.61-.821-3.354-.347-3.452-.149-.108.217.76 1.957 2.19 2.673 1.398.699 3.375.471 3.519.183.131-.262-.729-1.926-2.257-2.707zm-3.958 5.574s-.162 5.688 2.563 7.05c2.625 1.313 7.205-2.163 7.205-2.163s-3.318.788-5.877-.492c-2.592-1.298-3.891-4.395-3.891-4.395zm11.768-1.666c-1.609-.821-3.354-.347-3.452-.149-.108.217.76 1.957 2.19 2.672 1.398.7 3.375.472 3.519.184.132-.263-.73-1.927-2.257-2.707zm-12.166-13.901c-.687 1.373-1.294 2.685-1.832 3.939-.93-.31-1.936-.439-2.88-.141-2.799.884-4.007 5.496-4.007 5.496s1.978-2.42 4.707-3.282c.486-.154.978-.252 1.458-.313-1.037 2.642-1.744 5.01-2.193 7.13-3.588-.565-9.824-3.804-14.41-18.327-.454-1.438 9-5.202 9.76-5.442.762-.241 10.627-2.539 11.061-1.166 1.593 5.044 2.248 9.087 2.318 12.323-2.032-.557-3.692-.797-3.982-.217zm-7.781-1.769c-.135-.26-1.988-.539-3.515.241-1.61.822-2.248 2.514-2.146 2.708.112.215 2.031.532 3.449-.207 1.387-.722 2.361-2.457 2.212-2.742zm8.661-1.573c-.038-.291-1.684-1.186-3.385-.975-1.794.222-2.972 1.593-2.943 1.811.032.24 1.726 1.194 3.312.985 1.55-.204 3.059-1.502 3.016-1.821z" fill-rule="evenodd"/></svg>