<?xml version="1.0" encoding="utf-8"?>
<!-- Generator: Adobe Illustrator 15.0.2, SVG Export Plug-In . SVG Version: 6.00 Build 0)  -->
<!DOCTYPE svg PUBLIC "-//W3C//DTD SVG 1.1//EN" "http://www.w3.org/Graphics/SVG/1.1/DTD/svg11.dtd">
<svg version="1.1" id="Vrstva_3" xmlns="http://www.w3.org/2000/svg" xmlns:xlink="http://www.w3.org/1999/xlink" x="0px" y="0px"
	 width="48px" height="48px" viewBox="0 0 48 48" enable-background="new 0 0 48 48" xml:space="preserve">
<g>
	<path d="M36,16c0,0.896-3.921,4.402-5,8c-1.33,4.432-0.377,9-7,9c-6.621,0-5.669-4.57-7-9c-1.081-3.598-5-7.103-5-8c0-2,4-6,12-6
		S36,14.442,36,16z"/>
	<g>
		<g>
			<path d="M37.558,17.456c-0.306,0.528-0.765,1.106-1.364,1.86c-1.151,1.445-2.728,3.424-3.277,5.259
				c-0.256,0.851-0.426,1.751-0.59,2.625c-0.268,1.422-0.58,3.07-1.399,4.484C40.93,33.701,45.342,39.314,47,36
				C48.188,33.625,44.709,23.775,37.558,17.456z M15.084,24.575c-0.551-1.835-2.127-3.814-3.277-5.259
				c-0.572-0.719-1.017-1.278-1.322-1.786C3.305,23.847-0.19,33.619,1,36c1.64,3.279,6.645-2.178,16.11-4.25
				c-0.848-1.43-1.165-3.107-1.437-4.551C15.51,26.326,15.34,25.426,15.084,24.575z"/>
		</g>
	</g>
</g>
</svg>
