<?xml version="1.0" encoding="utf-8"?>
<!-- Generator: Adobe Illustrator 15.0.2, SVG Export Plug-In . SVG Version: 6.00 Build 0)  -->
<!DOCTYPE svg PUBLIC "-//W3C//DTD SVG 1.1//EN" "http://www.w3.org/Graphics/SVG/1.1/DTD/svg11.dtd">
<svg version="1.1" id="Vrstva_3" xmlns="http://www.w3.org/2000/svg" xmlns:xlink="http://www.w3.org/1999/xlink" x="0px" y="0px"
	 width="48px" height="48px" viewBox="0 0 48 48" enable-background="new 0 0 48 48" xml:space="preserve">
<path d="M10.017,12.265L10.017,12.265c4.274,0,10.884,2.568,17.251,6.703c10.082,6.549,14.805,13.922,13.504,15.926
	c-0.347,0.534-1.363,0.841-2.787,0.841c-4.276,0-10.888-2.568-17.253-6.703c-4.737-3.076-8.737-6.615-11.262-9.964
	c-2.269-3.009-2.761-5.162-2.243-5.959C7.574,12.572,8.591,12.265,10.017,12.265 M10.016,10.265c-2.12,0-3.695,0.564-4.467,1.753
	c-2.405,3.704,3.903,12.074,14.093,18.691c6.922,4.495,13.854,7.025,18.343,7.025c2.119,0,3.693-0.564,4.465-1.752
	c2.406-3.706-3.903-12.074-14.093-18.692C21.436,12.795,14.505,10.265,10.016,10.265L10.016,10.265z"/>
<path d="M37.984,12.265L37.984,12.265c1.425,0,2.441,0.307,2.789,0.842c1.301,2.003-3.423,9.377-13.505,15.924
	c-6.366,4.135-12.978,6.703-17.253,6.703c-1.425,0-2.441-0.307-2.789-0.841c-1.301-2.004,3.422-9.378,13.506-15.926
	C27.099,14.833,33.709,12.265,37.984,12.265 M37.984,10.265c-4.489,0-11.42,2.531-18.341,7.025
	c-10.19,6.618-16.5,14.986-14.094,18.692c0.771,1.188,2.346,1.752,4.466,1.752c4.488,0,11.421-2.53,18.342-7.025
	c10.189-6.617,16.498-14.987,14.094-18.691C41.68,10.829,40.104,10.265,37.984,10.265L37.984,10.265z"/>
<path d="M24,4c2.389,0,6,7.977,6,20c0,12.023-3.611,20-6,20s-6-7.977-6-20C18,11.977,21.611,4,24,4 M24,2c-4.418,0-8,9.85-8,22
	s3.582,22,8,22c4.416,0,8-9.85,8-22S28.416,2,24,2L24,2z"/>
<circle cx="24" cy="24" r="4"/>
</svg>
