<?xml version="1.0" encoding="utf-8"?>
<!-- Generator: Adobe Illustrator 15.0.2, SVG Export Plug-In . SVG Version: 6.00 Build 0)  -->
<!DOCTYPE svg PUBLIC "-//W3C//DTD SVG 1.1//EN" "http://www.w3.org/Graphics/SVG/1.1/DTD/svg11.dtd">
<svg version="1.1" id="Vrstva_3" xmlns="http://www.w3.org/2000/svg" xmlns:xlink="http://www.w3.org/1999/xlink" x="0px" y="0px"
	 width="48px" height="48px" viewBox="0 0 48 48" enable-background="new 0 0 48 48" xml:space="preserve">
<path d="M24,44c11.046,0,20-5.373,20-12H4C4,38.627,12.954,44,24,44z"/>
<rect x="12" y="39" width="24" height="5"/>
<path d="M29,30h-4V14c0-2.412,1.598-6,6-6s6,3.588,6,6v4h-4v-4c-0.023-0.899-0.39-2-2-2s-1.977,1.101-2,2.023V30z"/>
<path d="M19,30l0-20c-0.023-0.899-0.389-2-2-2s-1.977,1.101-2,2.023L15,14h-4l0-4c0-2.412,1.598-6,6-6s6,3.588,6,6l0,20H19z"/>
</svg>
