<?xml version="1.0" encoding="utf-8"?>
<!-- Generator: Adobe Illustrator 15.0.2, SVG Export Plug-In . SVG Version: 6.00 Build 0)  -->
<!DOCTYPE svg PUBLIC "-//W3C//DTD SVG 1.1//EN" "http://www.w3.org/Graphics/SVG/1.1/DTD/svg11.dtd">
<svg version="1.1" xmlns="http://www.w3.org/2000/svg" xmlns:xlink="http://www.w3.org/1999/xlink" x="0px" y="0px" width="48px"
	 height="48px" viewBox="0 0 48 48" enable-background="new 0 0 48 48" xml:space="preserve">
<g id="Vrstva_3">
	<rect y="40.083" width="48" height="4"/>
	<circle cx="13" cy="36.083" r="5"/>
	<circle cx="37" cy="36.083" r="5"/>
	<circle cx="25" cy="36.083" r="5"/>
	<polygon points="4,32 4,28 0,28 0,31.917 0,34 0,36 46,36 46,32 	"/>
	<rect x="20" y="20" width="24" height="13"/>
	<rect x="42" y="20.083" width="4" height="8"/>
	<rect x="38" y="8" width="6" height="13"/>
	<rect x="36" y="4" width="10" height="4"/>
	<rect y="3.917" width="22" height="4.083"/>
	<rect x="26" y="16" width="6" height="8"/>
	<g>
		<g>
			<polygon points="16,8 16,20 10,20 10,8 6,8 6,33 20,33 20,8 			"/>
		</g>
	</g>
</g>
<g id="Vrstva_2">
</g>
</svg>
