<svg enable-background="new 0 0 48 48" height="48" viewBox="0 0 48 48" width="48" xmlns="http://www.w3.org/2000/svg"><path d="m39.04 14.46.021-.021-7.441-7.439-2.12 2.12 4.221 4.22c-1.881.721-3.221 2.519-3.221 4.66 0 2.76 2.24 5 5 5 .721 0 1.38-.16 2-.42v14.42c0 1.1-.9 2-2 2s-2-.9-2-2v-9c0-2.2-1.8-4-4-4h-2v-14c0-2.2-1.8-4-4-4h-12c-2.2 0-4 1.8-4 4v32h20v-15h3v10c0 2.76 2.24 5 5 5s5-2.24 5-5v-19c0-1.38-.561-2.641-1.46-3.54zm-15.54 5.54h-12v-10h12zm12 0c-1.1 0-2-.9-2-2s.9-2 2-2 2 .9 2 2-.9 2-2 2z"/></svg>