<?xml version="1.0" encoding="UTF-8"?>
<!-- Created with Inkscape (http://www.inkscape.org/) -->
<svg width="106.67" height="106.67" version="1.1" viewBox="0 0 106.67 106.67" xml:space="preserve" xmlns="http://www.w3.org/2000/svg"><defs><clipPath id="clipPath16"><path d="m0 80h80v-80h-80z"/></clipPath></defs><g transform="matrix(1.3333 0 0 -1.3333 0 106.67)"><g clip-path="url(#clipPath16)"><g transform="translate(28,40)"><path d="m0 0c0-3.313-2.687-6-6-6s-6 2.687-6 6 2.687 6 6 6 6-2.687 6-6"/></g><g transform="translate(52 39.971)"><path d="m0 0c0 3.313 2.688 6 6 6 3.313 0 6-2.687 6-6s-2.687-6-6-6c-3.312 0-6 2.687-6 6"/></g><g transform="translate(49.899 32.929)"><path d="m0 0-2.828-2.828-16.971 16.971 2.828 2.828z"/></g><g transform="translate(47.071 49.899)"><path d="m0 0 2.828-2.828-16.971-16.971-2.828 2.828z"/></g><g transform="translate(45,40)"><path d="m0 0c0-2.762-2.238-5-5-5-2.76 0-5 2.238-5 5 0 2.76 2.24 5 5 5 2.762 0 5-2.24 5-5"/></g></g></g></svg>
