<?xml version="1.0" encoding="utf-8"?>
<!-- Generator: Adobe Illustrator 15.0.2, SVG Export Plug-In . SVG Version: 6.00 Build 0)  -->
<!DOCTYPE svg PUBLIC "-//W3C//DTD SVG 1.1//EN" "http://www.w3.org/Graphics/SVG/1.1/DTD/svg11.dtd">
<svg version="1.1" xmlns="http://www.w3.org/2000/svg" xmlns:xlink="http://www.w3.org/1999/xlink" x="0px" y="0px" width="48px"
	 height="48px" viewBox="0 0 48 48" enable-background="new 0 0 48 48" xml:space="preserve">
<g id="Vrstva_3">
	<g id="layer1" transform="translate(-48.591643,-193.95628)" inkscape:groupmode="layer" inkscape:label="Ebene 1">
		<g id="g11864" transform="matrix(29.050183,0,0,29.050183,-15585.68,-11581.047)">
			<g id="g6158" transform="matrix(1.25,0,0,-1.25,538.18152,407.22699)">
				<path id="path6160" fill="#41A6CE" d="M0,1.149V0.56c0,0,0-0.11,0.112-0.11H1.21c0,0,0.112,0,0.112,0.11v0.587
					c0,0,0,0.112-0.112,0.112H0.112C0.112,1.258,0,1.261,0,1.149"/>
			</g>
			<g id="g6162" transform="matrix(1.25,0,0,-1.25,540.72402,407.15949)">
				<path id="path6164" fill="#FFFFFF" d="M-1.887,1.099c0,0-0.019,0.037-0.041,0.035c0,0-0.045,0.005-0.045-0.041V0.559
					c0,0,0.001-0.053,0.05-0.053h0.162v0.372L-1.887,1.099"/>
			</g>
			<g id="g6166" transform="matrix(1.25,0,0,-1.25,540.29902,406.47074)">
				<path id="path6168" fill="#FFFFFF" d="M-1.571,0.587c0,0,0.018-0.005,0.03-0.028l0.249-0.427c0,0,0.013-0.035,0.067-0.035
					c0,0,0.185,0,0.185,0c0,0.001-0.009,0-0.013,0.013l-0.261,0.445c0,0-0.013,0.032-0.053,0.032H-1.571"/>
			</g>
			<g id="g6170" transform="matrix(1.25,0,0,-1.25,547.77527,411.81199)">
				<path id="path6172" fill="#FFFFFF" d="M-7.119,4.551c0,0,0.087-0.151,0.086-0.151c-0.001,0,0.015-0.031,0.037,0l0.118,0.189
					v0.226c0,0,0.002,0.041-0.033,0.041c0,0-0.023,0.004-0.05-0.04L-7.119,4.551"/>
			</g>
			<g id="g6174" transform="matrix(1.25,0,0,-1.25,551.73527,406.47074)">
				<path id="path6176" fill="#FFFFFF" d="M-10.058,0.587c0,0,0.026-0.009,0.026-0.047v-0.586h0.399c0,0,0.046-0.004,0.046,0.044
					v0.543c0,0,0.001,0.046-0.046,0.046H-10.058"/>
			</g>
		</g>
	</g>
</g>
<g id="Vrstva_2">
</g>
</svg>
