<svg enable-background="new 0 0 14 14" height="14" viewBox="0 0 14 14" width="14" xmlns="http://www.w3.org/2000/svg"><path d="m5.861-.012c1.633 3.353-6.937 5.55.516 10.143l.322-.117c-1.855-2.685 5.676-5.833-.838-10.026zm3.389 3.436c1.051 3.088-2.536 3.972-1.41 6.174l1.689-.613c.678-1.654 2.414-2.987-.279-5.561zm-7.775 5.574c-.276.01-.492.242-.482.518.007.207.141.387.337.455l4.215 1.533-4.213 1.531c-.257.094-.389.377-.296.633s.376.389.632.297l5.322-1.936 5.34 1.941c.26.094.547-.041.641-.301s-.041-.547-.301-.641l-4.215-1.533 4.213-1.531c.258-.09.395-.371.305-.629-.069-.197-.254-.33-.463-.332-.061 0-.121.01-.178.031l-5.322 1.937-5.34-1.942c-.063-.023-.129-.033-.195-.031z"/></svg>