<svg enable-background="new 0 0 48 48" height="48" viewBox="0 0 48 48" width="48" xmlns="http://www.w3.org/2000/svg"><path d="m44 42c-2.221 0-3.46-.74-4.359-1.28-.741-.44-1.202-.72-2.301-.72-1.119 0-1.561.26-2.3.72-.92.54-2.14 1.28-4.36 1.28s-3.459-.74-4.359-1.28c-.74-.439-1.2-.72-2.3-.72-1.12 0-1.56.26-2.3.72-.921.54-2.161 1.28-4.381 1.28s-3.46-.74-4.36-1.28c-.74-.46-1.2-.72-2.3-.72s-1.56.26-2.3.72c-.92.54-2.16 1.28-4.38 1.28v-4c1.12 0 1.56-.26 2.3-.72.92-.54 2.16-1.28 4.38-1.28s3.46.74 4.36 1.28c.74.46 1.18.72 2.3.72s1.56-.26 2.3-.72c.92-.54 2.16-1.28 4.38-1.28s3.46.74 4.36 1.28c.74.439 1.2.72 2.3.72s1.561-.26 2.301-.72c.899-.54 2.139-1.28 4.359-1.28 2.221 0 3.46.74 4.36 1.28.739.46 1.18.72 2.3.72zm0-9c-2.221 0-3.46-.74-4.359-1.28-.741-.44-1.202-.72-2.301-.72-1.119 0-1.561.26-2.3.72-.899.54-2.14 1.28-4.36 1.28s-3.459-.74-4.359-1.28c-.74-.439-1.2-.72-2.3-.72-1.12 0-1.56.26-2.3.72-.9.54-2.14 1.28-4.36 1.28s-3.46-.74-4.36-1.28c-.741-.44-1.201-.72-2.301-.72s-1.56.26-2.3.72c-.94.54-2.18 1.28-4.4 1.28v-4c1.12 0 1.56-.26 2.3-.72.9-.54 2.14-1.28 4.36-1.28s3.46.74 4.36 1.28c.74.439 1.2.72 2.3.72 1.12 0 1.56-.26 2.3-.72.9-.54 2.14-1.28 4.36-1.28s3.459.74 4.36 1.28c.74.439 1.2.72 2.301.72 1.1 0 1.56-.26 2.299-.72.9-.54 2.14-1.28 4.36-1.28s3.46.74 4.36 1.28c.74.44 1.199.72 2.3.72v4zm-26.66-9c1.12 0 1.56-.26 2.3-.72.92-.54 2.16-1.28 4.38-1.28s3.46.74 4.36 1.28c.74.439 1.2.72 2.3.72s1.561-.26 2.301-.72c.24-.14.52-.3.819-.46l-12.84-12.82c-3.1-3.1-5.96-4.02-10.96-4v5c3.64-.02 5.78.78 8 3l2 2-6.5 6.5c.62.24 1.12.54 1.54.78.74.46 1.18.72 2.3.72z"/><circle cx="33" cy="11" r="5"/></svg>