<svg enable-background="new 0 0 48 48" height="48" viewBox="0 0 48 48" width="48" xmlns="http://www.w3.org/2000/svg"><path d="m5.994 17c-2.994-4 1-6 1-8s1.006-7 7.006-7c7.313 0 10.932 12 16.994 12 6.001 0 13.006 2 13.006 9 0 8-4.013 6.705-4 13 .006 3 0 9 0 9h-9.006s0-3 3-3l-.057-2.496s-2.586-1.316-2.813-5.875c-.13-2.629.87-3.629.87-3.629s-2 1-5 1c-5 0-7-5-7-5s-.123 1.527-.994 4.066c-1.006 2.934-3 2.934-3 2.934s-1 4-2 5-1.012 1-1.006 2 2.006 1 2.006 3-1 2-3 2c-1.629 0-3-1-3-3 0-5 4-26 4-26s-4.845 3.886-7.006 1z"/></svg>