<svg enable-background="new 0 0 48 48" height="48" viewBox="0 0 48 48" width="48" xmlns="http://www.w3.org/2000/svg"><path d="m16 44 8-42 8 42z"/><path d="m24.77 6.039-.385-2.02c-.13-.002-.255-.019-.385-.019s-.255.017-.385.02l-.385 2.02c.257-.015.51-.04.77-.04s.513.025.77.039zm3.812-1.365.432 2.271c5.247 2.022 8.986 7.104 8.986 13.055 0 4.07-1.757 7.729-4.539 10.29l.432 2.27c3.714-2.93 6.107-7.461 6.107-12.56 0-7.243-4.816-13.355-11.418-15.326zm-9.596 2.27.433-2.27c-6.603 1.971-11.419 8.083-11.419 15.326 0 5.099 2.393 9.63 6.107 12.56l.432-2.27c-2.782-2.561-4.539-6.219-4.539-10.29 0-5.952 3.739-11.034 8.986-13.056zm5.014 27.056c-2.089 0-4.066-.473-5.848-1.297l-.388 2.035c1.917.813 4.024 1.262 6.236 1.262s4.319-.449 6.236-1.261l-.388-2.036c-1.783.824-3.759 1.297-5.848 1.297z"/></svg>