<svg enable-background="new 0 0 48 48" height="48" viewBox="0 0 48 48" width="48" xmlns="http://www.w3.org/2000/svg"><path d="m36 35c1.104 0 2-.896 2-2s-.896-2-2-2h-6v-2h6c1.104 0 2-.896 2-2s-.896-2-2-2h-24c-1.104 0-2 .896-2 2s.896 2 2 2h6v2h-6c-1.104 0-2 .896-2 2s.896 2 2 2h6v2h-6c-1.104 0-2 .896-2 2s.896 2 2 2h8v-10h8v10h8c1.104 0 2-.896 2-2s-.896-2-2-2h-6v-2z"/><path d="m43.329 23.505-18.001-16c-.758-.674-1.899-.674-2.657 0l-18 16c-.826.734-.9 1.998-.166 2.823.733.825 1.997.9 2.823.166l3.932-3.494h25.479l3.932 3.495c.382.338.855.505 1.328.505.552-.001 1.101-.228 1.496-.672.734-.825.659-2.09-.166-2.823z"/></svg>