<?xml version="1.0" encoding="utf-8"?>
<!-- Generator: Adobe Illustrator 15.0.2, SVG Export Plug-In . SVG Version: 6.00 Build 0)  -->
<!DOCTYPE svg PUBLIC "-//W3C//DTD SVG 1.1//EN" "http://www.w3.org/Graphics/SVG/1.1/DTD/svg11.dtd">
<svg version="1.1" id="Vrstva_3" xmlns="http://www.w3.org/2000/svg" xmlns:xlink="http://www.w3.org/1999/xlink" x="0px" y="0px"
	 width="48px" height="48px" viewBox="0 0 48 48" enable-background="new 0 0 48 48" xml:space="preserve">
<g>
	<path d="M44,42c-2.221,0-3.46-0.74-4.359-1.28C38.9,40.28,38.439,40,37.34,40c-1.119,0-1.561,0.26-2.3,0.72
		C34.12,41.26,32.9,42,30.68,42c-2.22,0-3.459-0.74-4.359-1.28c-0.74-0.439-1.2-0.72-2.3-0.72c-1.12,0-1.56,0.26-2.3,0.72
		C20.8,41.26,19.56,42,17.34,42c-2.22,0-3.46-0.74-4.36-1.28c-0.74-0.46-1.2-0.72-2.3-0.72c-1.1,0-1.56,0.26-2.3,0.72
		C7.46,41.26,6.22,42,4,42v-4c1.12,0,1.56-0.26,2.3-0.72C7.22,36.74,8.46,36,10.68,36c2.22,0,3.46,0.74,4.36,1.28
		c0.74,0.46,1.18,0.72,2.3,0.72c1.12,0,1.56-0.26,2.3-0.72C20.56,36.74,21.8,36,24.02,36s3.46,0.74,4.36,1.28
		c0.74,0.439,1.2,0.72,2.3,0.72s1.561-0.26,2.301-0.72C33.88,36.74,35.12,36,37.34,36c2.221,0,3.46,0.74,4.36,1.28
		C42.439,37.74,42.88,38,44,38V42z M44,33c-2.221,0-3.46-0.74-4.359-1.28C38.9,31.28,38.439,31,37.34,31
		c-1.119,0-1.561,0.26-2.3,0.72C34.141,32.26,32.9,33,30.68,33c-2.22,0-3.459-0.74-4.359-1.28c-0.74-0.439-1.2-0.72-2.3-0.72
		c-1.12,0-1.56,0.26-2.3,0.72c-0.9,0.54-2.14,1.28-4.36,1.28c-2.22,0-3.46-0.74-4.36-1.28C12.26,31.28,11.8,31,10.7,31
		c-1.1,0-1.56,0.26-2.3,0.72C7.46,32.26,6.22,33,4,33v-4c1.12,0,1.56-0.26,2.3-0.72C7.2,27.74,8.44,27,10.66,27
		c2.22,0,3.46,0.74,4.36,1.28c0.74,0.439,1.2,0.72,2.3,0.72c1.12,0,1.56-0.26,2.3-0.72c0.9-0.54,2.14-1.28,4.36-1.28
		s3.459,0.74,4.36,1.28c0.74,0.439,1.2,0.72,2.301,0.72c1.1,0,1.56-0.26,2.299-0.72C33.84,27.74,35.08,27,37.3,27
		s3.46,0.74,4.36,1.28C42.4,28.72,42.859,29,43.96,29v4H44z M17.34,24c1.12,0,1.56-0.26,2.3-0.72C20.56,22.74,21.8,22,24.02,22
		s3.46,0.74,4.36,1.28c0.74,0.439,1.2,0.72,2.3,0.72s1.561-0.26,2.301-0.72c0.24-0.14,0.52-0.3,0.819-0.46L20.96,10
		C17.86,6.9,15,5.98,10,6v5c3.64-0.02,5.78,0.78,8,3l2,2l-6.5,6.5c0.62,0.24,1.12,0.54,1.54,0.78C15.78,23.74,16.22,24,17.34,24z"/>
	<circle cx="33" cy="11" r="5"/>
</g>
</svg>
