<svg enable-background="new 0 0 48 48" height="48" viewBox="0 0 48 48" width="48" xmlns="http://www.w3.org/2000/svg"><path d="m42.864 24c0 10.419-8.445 18.864-18.864 18.864-10.418 0-18.864-8.445-18.864-18.864 0-10.418 8.446-18.864 18.864-18.864 10.419 0 18.864 8.446 18.864 18.864z" fill="#fcf604"/><g fill="#dc251b"><path d="m24 44c-11.028 0-20-8.972-20-20s8.972-20 20-20 20 8.972 20 20-8.972 20-20 20zm0-37.729c-9.776 0-17.729 7.953-17.729 17.729 0 9.775 7.953 17.729 17.729 17.729 9.775 0 17.729-7.953 17.729-17.729s-7.954-17.729-17.729-17.729z"/><path d="m16.143 32.601-5.778-.052 3.424-20.585 5.901.117z"/><path d="m37.854 32.687-3.424-20.586-5.829.116-.016-.09-.031.091h-.026l.009.05-4.028 11.802 1.467 3.506 2.69-.733 1.808-3.374 1.602 9.268z"/><path d="m20.138 13.989-1.874 11.24 1.902 5.391-3.343 1.384 8.531 4.843 3.546-8.994-3.431.721z"/></g></svg>