<svg enable-background="new 0 0 14 14" height="14" viewBox="0 0 14 14" width="14" xmlns="http://www.w3.org/2000/svg"><path d="m4.615.039-.935.024c-3.885 2.223 3.133 2.587-1.184 5.224l.852-.01c4.049-2.814-3.007-3.02 1.267-5.238zm3.463 0-.935.024c-3.885 2.223 3.132 2.587-1.184 5.224l.854-.01c4.048-2.814-3.009-3.02 1.265-5.238zm3.473 0-.936.023c-3.884 2.224 3.133 2.588-1.183 5.225l.854-.01c4.048-2.814-3.01-3.02 1.265-5.238zm-9.942 6.551c-.007 2.474.006 4.941.006 7.41h1.459v-1.754h7.854v1.754h1.459c.002-2.512.004-5.213.004-7.41zm1.463 1.223h7.855v3.082h-7.853v-1.49h-.002zm1.533.646c-.494 0-.894.4-.895.895 0 .494.4.895.895.895s.895-.401.895-.895-.4-.895-.895-.895zm2.383.006c-.494 0-.895.4-.895.895s.4.895.895.895.895-.4.895-.895-.401-.895-.895-.895zm2.407.017c-.495 0-.895.401-.895.895s.4.895.895.895.895-.4.895-.895-.401-.895-.895-.895z"/></svg>