<?xml version="1.0" encoding="utf-8"?>
<!-- Generator: Adobe Illustrator 15.0.2, SVG Export Plug-In . SVG Version: 6.00 Build 0)  -->
<!DOCTYPE svg PUBLIC "-//W3C//DTD SVG 1.1//EN" "http://www.w3.org/Graphics/SVG/1.1/DTD/svg11.dtd">
<svg version="1.1" xmlns="http://www.w3.org/2000/svg" xmlns:xlink="http://www.w3.org/1999/xlink" x="0px" y="0px" width="48px"
	 height="48px" viewBox="0 0 48 48" enable-background="new 0 0 48 48" xml:space="preserve">
<g id="Vrstva_3">
	<g>
		<g>
			
				<path id="path2995_1_" sodipodi:cy="59.644608" sodipodi:cx="38.717091" sodipodi:ry="53.71315" sodipodi:type="arc" sodipodi:rx="53.71315" fill="#FCF604" d="
				M42.864,24c0,10.419-8.445,18.864-18.864,18.864C13.582,42.864,5.136,34.419,5.136,24C5.136,13.582,13.582,5.136,24,5.136
				C34.419,5.136,42.864,13.582,42.864,24z"/>
			<path fill="#DC251B" d="M24,44C12.972,44,4,35.028,4,24C4,12.972,12.972,4,24,4c11.028,0,20,8.972,20,20
				C44,35.028,35.028,44,24,44z M24,6.271C14.224,6.271,6.271,14.224,6.271,24c0,9.775,7.953,17.729,17.729,17.729
				c9.775,0,17.729-7.953,17.729-17.729C41.729,14.224,33.775,6.271,24,6.271z"/>
		</g>
		<path id="path3767" inkscape:connector-curvature="0" sodipodi:nodetypes="cccc" fill="#DC251B" d="M16.143,32.601l-5.778-0.052
			l3.424-20.585l5.901,0.117L16.143,32.601z"/>
		<polygon fill="#DC251B" points="37.854,32.687 34.43,12.101 28.601,12.217 28.585,12.127 28.554,12.218 28.528,12.218 
			28.537,12.268 24.509,24.07 25.976,27.576 28.666,26.843 30.474,23.469 32.076,32.737 		"/>
		<path id="path3823" inkscape:connector-curvature="0" fill="#DC251B" d="M20.138,13.989l-1.874,11.24l1.902,5.391l-3.343,1.384
			l8.531,4.843l3.546-8.994l-3.431,0.721L20.138,13.989z"/>
	</g>
</g>
<g id="Vrstva_2">
</g>
</svg>
