<?xml version="1.0" encoding="utf-8"?>
<!-- Generator: Adobe Illustrator 15.0.2, SVG Export Plug-In . SVG Version: 6.00 Build 0)  -->
<!DOCTYPE svg PUBLIC "-//W3C//DTD SVG 1.1//EN" "http://www.w3.org/Graphics/SVG/1.1/DTD/svg11.dtd">
<svg version="1.1" xmlns="http://www.w3.org/2000/svg" xmlns:xlink="http://www.w3.org/1999/xlink" x="0px" y="0px" width="48px"
	 height="48px" viewBox="0 0 48 48" enable-background="new 0 0 48 48" xml:space="preserve">
<g id="Vrstva_3">
	<path d="M34,7c-3.828,1.531-10,5-10,5s-5-3-10-5S4,4,4,4v31l20,2l20-2V4C44,4,39,5,34,7z M8,9.155
		c1.393,0.417,2.959,0.937,4.515,1.559c4.628,1.852,9.381,4.688,9.427,4.716L22,15.465V32.78l-14-1.4V9.155z M40,31.38l-14,1.4
		V15.464c0.414-0.231,6.058-3.379,9.485-4.75C37.04,10.092,38.607,9.571,40,9.155V31.38z"/>
	<polygon points="40,34 40,38 28,38 28,40 20,40 20,38 8,38 8,31 4,31 4,38 4,42 8,42 16,42 16,44 32,44 32,42 40,42 44,42 44,38 
		44,34 	"/>
</g>
<g id="Vrstva_2">
</g>
</svg>
