<?xml version="1.0" encoding="utf-8"?>
<!-- Generator: Adobe Illustrator 15.0.2, SVG Export Plug-In . SVG Version: 6.00 Build 0)  -->
<!DOCTYPE svg PUBLIC "-//W3C//DTD SVG 1.1//EN" "http://www.w3.org/Graphics/SVG/1.1/DTD/svg11.dtd">
<svg version="1.1" xmlns="http://www.w3.org/2000/svg" xmlns:xlink="http://www.w3.org/1999/xlink" x="0px" y="0px" width="48px"
	 height="48px" viewBox="0 0 48 48" enable-background="new 0 0 48 48" xml:space="preserve">
<g id="Vrstva_3">
	<polygon points="4,32 44,32 32,24 16,24 	"/>
	<rect x="4" y="40" width="40" height="4"/>
	<rect x="8" y="36" width="32" height="4"/>
	<rect x="10" y="29" width="4" height="11"/>
	<rect x="18" y="26" width="4" height="14"/>
	<rect x="26" y="26" width="4" height="13"/>
	<rect x="34" y="28" width="4" height="14"/>
	<polygon points="24,12 8,22 40,22 	"/>
	<polygon points="24,8 12,14 36,14 	"/>
	<rect x="13" y="22" width="22" height="4"/>
	<rect x="16" y="14" width="16" height="4"/>
	<polygon points="24,2 20,12 28,12 	"/>
	<path d="M29,6"/>
</g>
<g id="Vrstva_5">
</g>
<g id="Vrstva_6">
</g>
<g id="Vrstva_4">
</g>
<g id="Vrstva_2">
</g>
</svg>
