<svg enable-background="new 0 0 48 48" height="48" viewBox="0 0 48 48" width="48" xmlns="http://www.w3.org/2000/svg"><path d="m14.2 10c-2.799 0-2.799 2.801 0 2.801h11.2v2.8c-.776 0-1.4.625-1.4 1.4v1.399h-7-2.883-.109c-.637-2.463-2.854-4.197-5.409-4.2-3.093 0-5.6 2.508-5.6 5.601s2.507 5.6 5.6 5.6c1.042-.003 2.063-.296 2.948-.848l6.852 9.248c2.821 4.063 7.892 4.199 9.801 4.199h14s2.8 0 2.8-2.799v-2.784c0-2.051-.354-3.169-1.399-4.217l-8.4-8.399s-1.656-1.4-3.566-1.4h-2.033v-1.399c0-.775-.624-1.4-1.4-1.4v-2.8h11.199c2.801 0 2.801-2.801 0-2.801h-25.201zm-5.6 7.001c1.546 0 2.8 1.254 2.8 2.8 0 1.547-1.254 2.8-2.8 2.8s-2.8-1.253-2.8-2.8c0-1.546 1.254-2.8 2.8-2.8zm22.401 4.199c1.399 0 2.209.906 2.799 1.4l7.001 7.001h-9.8s-2.801 0-2.801-2.801v-2.8c0 .001 0-2.8 2.801-2.8z"/></svg>