<?xml version="1.0" encoding="utf-8"?>
<!-- Generator: Adobe Illustrator 15.0.2, SVG Export Plug-In . SVG Version: 6.00 Build 0)  -->
<!DOCTYPE svg PUBLIC "-//W3C//DTD SVG 1.1//EN" "http://www.w3.org/Graphics/SVG/1.1/DTD/svg11.dtd">
<svg version="1.1" xmlns="http://www.w3.org/2000/svg" xmlns:xlink="http://www.w3.org/1999/xlink" x="0px" y="0px" width="48px"
	 height="48px" viewBox="0 0 48 48" enable-background="new 0 0 48 48" xml:space="preserve">
<g id="Vrstva_3">
	<g>
		<path fill="#FFFFFF" d="M42,24c0,9.941-8.059,18-18,18S6,33.941,6,24S14.059,6,24,6S42,14.059,42,24z"/>
		<path fill="#1E1E1E" d="M24,4C12.955,4,4,12.954,4,24s8.955,20,20,20c11.046,0,20-8.954,20-20S35.046,4,24,4z M24,40.655
			c-9.183,0-16.654-7.472-16.654-16.655S14.817,7.346,24,7.346c9.184,0,16.655,7.471,16.655,16.654S33.184,40.655,24,40.655z"/>
		<polygon fill="#1E1E1E" points="34,16.218 34,16.218 34,14 31.782,14 24,21.781 16.219,14 14,14 14,34 17.302,34 17.302,19.52 
			24,26.218 		"/>
		<polygon fill="#13171B" points="18.566,22.801 18.566,27.236 24,32.671 30.698,25.973 30.698,33.994 34,33.994 34,18.234 
			24,28.234 		"/>
	</g>
</g>
<g id="Vrstva_2">
</g>
</svg>
