<?xml version="1.0" encoding="utf-8"?>
<!-- Generator: Adobe Illustrator 15.0.2, SVG Export Plug-In . SVG Version: 6.00 Build 0)  -->
<!DOCTYPE svg PUBLIC "-//W3C//DTD SVG 1.1//EN" "http://www.w3.org/Graphics/SVG/1.1/DTD/svg11.dtd">
<svg version="1.1" id="Vrstva_3" xmlns="http://www.w3.org/2000/svg" xmlns:xlink="http://www.w3.org/1999/xlink" x="0px" y="0px"
	 width="48px" height="48px" viewBox="0 0 48 48" enable-background="new 0 0 48 48" xml:space="preserve">
<g display="none">
	<g display="inline">
		<polygon points="24,7 4,25 8,25 10.5,23 37.5,23 40,25 44,25 		"/>
	</g>
</g>
<g>
	<g>
		<path d="M36,35c1.104,0,2-0.896,2-2s-0.896-2-2-2h-6v-2h6c1.104,0,2-0.896,2-2s-0.896-2-2-2H12c-1.104,0-2,0.896-2,2s0.896,2,2,2
			h6v2h-6c-1.104,0-2,0.896-2,2s0.896,2,2,2h6v2h-6c-1.104,0-2,0.896-2,2s0.896,2,2,2h8V31h8v10h8c1.104,0,2-0.896,2-2s-0.896-2-2-2
			h-6v-2H36z"/>
	</g>
</g>
<path d="M43.329,23.505l-18.001-16c-0.758-0.674-1.899-0.674-2.657,0l-18,16c-0.826,0.734-0.9,1.998-0.166,2.823
	c0.733,0.825,1.997,0.9,2.823,0.166L11.26,23h25.479l3.932,3.495C41.053,26.833,41.526,27,41.999,27
	c0.552-0.001,1.101-0.228,1.496-0.672C44.229,25.503,44.154,24.238,43.329,23.505z"/>
<path d="M39,10"/>
</svg>
